# Created with Spiky's DS Map Editor 1.8.1.0
mtllib 059.mtl
o polygon0
g polygon0
usemtl id5conte01a_lm1
v -2.5 0.5 1.75
v -2.875 0.5 1.75
v -2.5 6 1.75
v -2.875 6.5 1.75
v -2 6 1.75
v -2 6.5 1.75
v -2 6 4.25
v -2 6.5 4.25
v -2.5 6 4.25
v -2.875 6.5 4.25
v -2.5 0.5 4.25
v -2.875 0.5 4.25
v -2.5 0.375 5.5
v -2.5 6 5.5
v -2.5 0.375 0
v -2.5 6 0
v -2.5 0.375 -5.5
v -2.5 6 -5.5
v 2.5 0.375 -5.5
v 2.5 6 -5.5
v 2.5 0.375 0
v 2.5 6 0
v 2.5 0.375 5.5
v 2.5 6 5.5
v -2.875 6.5 4.25
v -2.875 6.5 1.75
v -2.875 0.5 1.75
v -2.875 0.5 4.25
v -2 6.5 1.75
v -2.875 6.5 1.75
v -2.875 6.5 4.25
v -2 6.5 4.25
v -2.5 6 -5.5
v 2.5 6 -5.5
v 2.5 0.375 -5.5
v -2.5 0.375 -5.5
v -2.5 0.375 5.5
v 2.5 0.375 5.5
v 2.5 6 5.5
v -2.5 6 5.5
vt 0 -1
vt 0.484375 -1
vt 0 -0.310546875
vt 0.484375 -0.310546875
vt 0 0
vt 0.484375 0
vt 0.484375 0
vt 0 0
vt 0.484375 -0.310546875
vt 0 -0.310546875
vt 0.484375 -1
vt 0 -1
vt 1 -1
vt 1 0
vt 0.515625 -1
vt 0.515625 0
vt 1 -1
vt 1 0
vt 1 -1
vt 1 0
vt 0.515625 -1
vt 0.515625 0
vt 1 -1
vt 1 0
vt 0.5966796875 -0.375
vt 0.5751953125 -0.375
vt 0.5751953125 -0.634765625
vt 0.5966796875 -0.634765625
vt 0.5751953125 -0.412109375
vt 0.5751953125 -0.57421875
vt 0.5966796875 -0.57421875
vt 0.5966796875 -0.412109375
vt 0.484375 0
vt 0 0
vt 0 -1
vt 0.484375 -1
vt 0 -1
vt 0.484375 -1
vt 0.484375 0
vt 0 0
vn 0 0 -1
vn 0 0 -1
vn 0 0 -1
vn 0 0 -1
vn 0 0 -1
vn 0 0 -1
vn 0 0 0.998046875
vn 0 0 0.998046875
vn 0 0 0.998046875
vn 0 0 0.998046875
vn 0 0 0.998046875
vn 0 0 0.998046875
vn -1 0 0
vn -1 0 0
vn -1 0 0
vn -1 0 0
vn -1 0 0
vn -1 0 0
vn 0.998046875 0 0
vn 0.998046875 0 0
vn 0.998046875 0 0
vn 0.998046875 0 0
vn 0.998046875 0 0
vn 0.998046875 0 0
vn -1 0 0
vn -1 0 0
vn -1 0 0
vn -1 0 0
vn 0 0.998046875 0
vn 0 0.998046875 0
vn 0 0.998046875 0
vn 0 0.998046875 0
vn 0 0 -1
vn 0 0 -1
vn 0 0 -1
vn 0 0 -1
vn 0 0 0.998046875
vn 0 0 0.998046875
vn 0 0 0.998046875
vn 0 0 0.998046875
f 1/1/1 2/2/2 3/3/3
f 2/2/2 4/4/4 3/3/3
f 3/3/3 4/4/4 5/5/5
f 4/4/4 6/6/6 5/5/5
f 7/7/7 8/8/8 9/9/9
f 8/8/8 10/10/10 9/9/9
f 9/9/9 10/10/10 11/11/11
f 10/10/10 12/12/12 11/11/11
f 13/13/13 14/14/14 15/15/15
f 14/14/14 16/16/16 15/15/15
f 15/15/15 16/16/16 17/17/17
f 16/16/16 18/18/18 17/17/17
f 19/19/19 20/20/20 21/21/21
f 20/20/20 22/22/22 21/21/21
f 21/21/21 22/22/22 23/23/23
f 22/22/22 24/24/24 23/23/23
f 25/25/25 26/26/26 27/27/27
f 27/27/27 28/28/28 25/25/25
f 29/29/29 30/30/30 31/31/31
f 31/31/31 32/32/32 29/29/29
f 33/33/33 34/34/34 35/35/35
f 35/35/35 36/36/36 33/33/33
f 37/37/37 38/38/38 39/39/39
f 39/39/39 40/40/40 37/37/37
o polygon1
g polygon1
usemtl id5conte01b_lm1
v -2 6.5 4.25
v -2 6 4.25
v -2 6 1.75
v -2 6.5 1.75
v -2.5 6 0
v 2.5 6 0
v 2.5 6 -5.5
v -2.5 6 -5.5
v -2.5 6 5.5
v 2.5 6 5.5
v 2.5 6 0
v -2.5 6 0
vt 0.96875 -1
vt 0.96875 0
vt 0.03125 0
vt 0.03125 -1
vt 0.03125 0
vt 0.03125 -1
vt 0.96875 -1
vt 0.96875 0
vt 0.96875 -1
vt 0.96875 0
vt 0.03125 0
vt 0.03125 -1
vn 0.998046875 0 0
vn 0.998046875 0 0
vn 0.998046875 0 0
vn 0.998046875 0 0
vn 0 0.998046875 0
vn 0 0.998046875 0
vn 0 0.998046875 0
vn 0 0.998046875 0
vn 0 0.998046875 0
vn 0 0.998046875 0
vn 0 0.998046875 0
vn 0 0.998046875 0
f 41/41/41 42/42/42 43/43/43
f 43/43/43 44/44/44 41/41/41
f 45/45/45 46/46/46 47/47/47
f 47/47/47 48/48/48 45/45/45
f 49/49/49 50/50/50 51/51/51
f 51/51/51 52/52/52 49/49/49
o polygon2
g polygon2
usemtl h_kage_lm4
v -1.75 0.25 4.75
v -2.75 0.25 5.75
v 1.75 0.25 4.75
v 2.75 0.25 5.75
v 1.75 0.25 -4.75
v 2.75 0.25 -5.75
v -1.75 0.25 -4.75
v -2.75 0.25 -5.75
v -1.75 0.25 4.75
v -2.75 0.25 5.75
v 1.75 0.25 -4.75
v -1.75 0.25 -4.75
v -1.75 0.25 4.75
v 1.75 0.25 4.75
vt 0.5 -0.875
vt 0.5 -0.125
vt 0.5 -0.875
vt 0.5 -0.125
vt 0.5 -0.875
vt 0.5 -0.125
vt 0.5 -0.875
vt 0.5 -0.125
vt 0.5 -0.875
vt 0.5 -0.125
vt 0.5 -0.875
vt 0.5 -0.875
vt 0.5 -0.875
vt 0.5 -0.875
vn 0 0.998046875 0
vn 0 0.998046875 0
vn 0 0.998046875 0
vn 0 0.998046875 0
vn 0 0.998046875 0
vn 0 0.998046875 0
vn 0 0.998046875 0
vn 0 0.998046875 0
vn 0 0.998046875 0
vn 0 0.998046875 0
vn 0 0.998046875 0
vn 0 0.998046875 0
vn 0 0.998046875 0
vn 0 0.998046875 0
f 53/53/53 54/54/54 55/55/55
f 54/54/54 56/56/56 55/55/55
f 55/55/55 56/56/56 57/57/57
f 56/56/56 58/58/58 57/57/57
f 57/57/57 58/58/58 59/59/59
f 58/58/58 60/60/60 59/59/59
f 59/59/59 60/60/60 61/61/61
f 60/60/60 62/62/62 61/61/61
f 63/63/63 64/64/64 65/65/65
f 65/65/65 66/66/66 63/63/63
