# Created with Spiky's DS Map Editor 1.8.1.0
mtllib 019.mtl
o polygon0
g polygon0
usemtl stump_01_02
v -2.118408203125 0.75 -3.66845703125
v 2.118408203125 0.75 -3.66845703125
v 2.118408203125 0.75 -5.39990234375
v -2.118408203125 0.75 -5.39990234375
v 2.118408203125 0.75 -3.66845703125
v 4.237060546875 0.75 0.0009765625
v 5.412841796875 0.75 -0.6611328125
v 3.889404296875 0.75 -4.330322265625
v 4.237060546875 0.75 0.0009765625
v 2.118408203125 0.75 3.670166015625
v 3.45556640625 0.75 4.505859375
v 5.412841796875 0.75 0.83642578125
v 2.118408203125 0.75 3.670166015625
v -2.118408203125 0.75 3.670166015625
v -2.118408203125 0.75 5.4189453125
v 2.118408203125 0.75 5.4189453125
v -4.237060546875 0.75 0.0009765625
v -2.118408203125 0.75 -3.66845703125
v -3.747314453125 0.75 -4.490478515625
v -5.412841796875 0.75 -0.8212890625
v -2.118408203125 0.75 3.670166015625
v -4.237060546875 0.75 0.0009765625
v -5.412841796875 0.75 0.927978515625
v -3.74169921875 0.75 4.804443359375
v 3.39501953125 4.358642578125 0.0009765625
v 1.697509765625 4.358642578125 2.941162109375
v 2.118408203125 0.75 3.670166015625
v 4.237060546875 0.75 0.0009765625
v 1.697509765625 4.358642578125 -2.939208984375
v 3.39501953125 4.358642578125 0.0009765625
v 4.237060546875 0.75 0.0009765625
v 2.118408203125 0.75 -3.66845703125
v -1.697509765625 4.358642578125 -2.939208984375
v 1.697509765625 4.358642578125 -2.939208984375
v 2.118408203125 0.75 -3.66845703125
v -2.118408203125 0.75 -3.66845703125
v -3.39501953125 4.358642578125 0.0009765625
v -1.697509765625 4.358642578125 -2.939208984375
v -2.118408203125 0.75 -3.66845703125
v -4.237060546875 0.75 0.0009765625
v -1.697509765625 4.358642578125 2.941162109375
v -3.39501953125 4.358642578125 0.0009765625
v -4.237060546875 0.75 0.0009765625
v -2.118408203125 0.75 3.670166015625
v 1.697509765625 4.358642578125 2.941162109375
v -1.697509765625 4.358642578125 2.941162109375
v -2.118408203125 0.75 3.670166015625
v 2.118408203125 0.75 3.670166015625
vt 1 -0.689453125
vt 0 -0.689453125
vt 0 -0.982421875
vt 1 -0.982421875
vt 1 -0.689453125
vt 0 -0.689453125
vt 0 -0.982421875
vt 1 -0.982421875
vt 1 -0.689453125
vt 0 -0.689453125
vt 0 -0.982421875
vt 1 -0.982421875
vt 1 -0.689453125
vt 0 -0.689453125
vt 0 -0.982421875
vt 1 -0.982421875
vt 1 -0.689453125
vt 0 -0.689453125
vt 0 -0.982421875
vt 1 -0.982421875
vt 1 -0.689453125
vt 0 -0.689453125
vt 0 -0.982421875
vt 1 -0.982421875
vt 0.900390625 -0.083984375
vt 0.099609375 -0.083984375
vt 0 -0.7109375
vt 1 -0.7109375
vt 0.900390625 -0.083984375
vt 0.099609375 -0.083984375
vt 0 -0.7109375
vt 1 -0.7109375
vt 0.900390625 -0.083984375
vt 0.099609375 -0.083984375
vt 0 -0.7109375
vt 1 -0.7109375
vt 0.900390625 -0.083984375
vt 0.099609375 -0.083984375
vt 0 -0.7109375
vt 1 -0.7109375
vt 0.900390625 -0.083984375
vt 0.099609375 -0.083984375
vt 0 -0.7109375
vt 1 -0.7109375
vt 0.900390625 -0.083984375
vt 0.099609375 -0.083984375
vt 0 -0.7109375
vt 1 -0.7109375
vn -0.2890625 0.81640625 -0.5
vn 0.2890625 0.81640625 -0.5
vn 0 0.998046875 0
vn 0 0.998046875 0
vn 0.2890625 0.81640625 -0.5
vn 0.578125 0.81640625 0
vn 0 0.998046875 0
vn 0 0.998046875 0
vn 0.578125 0.81640625 0
vn 0.2890625 0.81640625 0.5
vn 0 0.998046875 0
vn 0 0.998046875 0
vn 0.2890625 0.81640625 0.5
vn -0.2890625 0.81640625 0.5
vn 0 0.998046875 0
vn 0 0.998046875 0
vn -0.578125 0.81640625 0
vn -0.2890625 0.81640625 -0.5
vn 0 0.998046875 0
vn 0 0.998046875 0
vn -0.2890625 0.81640625 0.5
vn -0.578125 0.81640625 0
vn 0 0.998046875 0
vn 0 0.998046875 0
vn 0.578125 0.81640625 0
vn 0.2890625 0.81640625 0.5
vn 0.2890625 0.81640625 0.5
vn 0.578125 0.81640625 0
vn 0.2890625 0.81640625 -0.5
vn 0.578125 0.81640625 0
vn 0.578125 0.81640625 0
vn 0.2890625 0.81640625 -0.5
vn -0.2890625 0.81640625 -0.5
vn 0.2890625 0.81640625 -0.5
vn 0.2890625 0.81640625 -0.5
vn -0.2890625 0.81640625 -0.5
vn -0.578125 0.81640625 0
vn -0.2890625 0.81640625 -0.5
vn -0.2890625 0.81640625 -0.5
vn -0.578125 0.81640625 0
vn -0.2890625 0.81640625 0.5
vn -0.578125 0.81640625 0
vn -0.578125 0.81640625 0
vn -0.2890625 0.81640625 0.5
vn 0.2890625 0.81640625 0.5
vn -0.2890625 0.81640625 0.5
vn -0.2890625 0.81640625 0.5
vn 0.2890625 0.81640625 0.5
f 1/1/1 2/2/2 3/3/3
f 3/3/3 4/4/4 1/1/1
f 5/5/5 6/6/6 7/7/7
f 7/7/7 8/8/8 5/5/5
f 9/9/9 10/10/10 11/11/11
f 11/11/11 12/12/12 9/9/9
f 13/13/13 14/14/14 15/15/15
f 15/15/15 16/16/16 13/13/13
f 17/17/17 18/18/18 19/19/19
f 19/19/19 20/20/20 17/17/17
f 21/21/21 22/22/22 23/23/23
f 23/23/23 24/24/24 21/21/21
f 25/25/25 26/26/26 27/27/27
f 27/27/27 28/28/28 25/25/25
f 29/29/29 30/30/30 31/31/31
f 31/31/31 32/32/32 29/29/29
f 33/33/33 34/34/34 35/35/35
f 35/35/35 36/36/36 33/33/33
f 37/37/37 38/38/38 39/39/39
f 39/39/39 40/40/40 37/37/37
f 41/41/41 42/42/42 43/43/43
f 43/43/43 44/44/44 41/41/41
f 45/45/45 46/46/46 47/47/47
f 47/47/47 48/48/48 45/45/45
o polygon1
g polygon1
usemtl stump_01_01
v 1.697509765625 4.358642578125 2.941162109375
v 3.39501953125 4.358642578125 0.0009765625
v 0 4.358642578125 0.0009765625
v 1.697509765625 4.358642578125 -2.939208984375
v -1.697509765625 4.358642578125 -2.939208984375
v -1.697509765625 4.358642578125 -2.939208984375
v -3.39501953125 4.358642578125 0.0009765625
v 0 4.358642578125 0.0009765625
v -1.697509765625 4.358642578125 2.941162109375
v 1.697509765625 4.358642578125 2.941162109375
vt 0.791015625 -0.95703125
vt 1.02734375 -0.5
vt 0.49609375 -0.5
vt 0.7578125 -0.005859375
vt 0.232421875 -0.005859375
vt 0.232421875 -0.005859375
vt -0.037109375 -0.5
vt 0.49609375 -0.5
vt 0.19921875 -0.95703125
vt 0.791015625 -0.95703125
vn 0 0.998046875 0
vn 0 0.998046875 0
vn 0 0.998046875 0
vn 0 0.998046875 0
vn 0 0.998046875 0
vn 0 0.998046875 0
vn 0 0.998046875 0
vn 0 0.998046875 0
vn 0 0.998046875 0
vn 0 0.998046875 0
f 49/49/49 50/50/50 51/51/51
f 50/50/50 52/52/52 51/51/51
f 51/51/51 52/52/52 53/53/53
f 54/54/54 55/55/55 56/56/56
f 55/55/55 57/57/57 56/56/56
f 56/56/56 57/57/57 58/58/58
o polygon2
g polygon2
usemtl h_kage
v 0 0.5 -6
v -4.5 0.5 -4.5
v 0 0.5 0
v -6 0.5 0
v 0 0.5 6
v -4.5 0.5 4.5
v 4.5 0.5 -4.5
v 4.5 0.5 -4.5
v 6 0.5 0
v 0 0.5 0
v 4.5 0.5 4.5
v 6 0.5 0
v 0 0.5 0
v 0 0.5 6
v 0 0.5 -6
v 0 0.5 0
v 4.5 0.5 -4.5
vt 0.5 -0.203125
vt 0.5 -0.203125
vt 0.5 -0.875
vt 0.5 -0.203125
vt 0.5 -0.203125
vt 0.5 -0.203125
vt 0.5 -0.203125
vt 0.5 -0.203125
vt 0.5 -0.203125
vt 0.5 -0.875
vt 0.5 -0.203125
vt 0.5 -0.203125
vt 0.5 -0.875
vt 0.5 -0.203125
vt 0.5 -0.203125
vt 0.5 -0.875
vt 0.5 -0.203125
vn 0 0.998046875 0
vn 0 0.998046875 0
vn 0 0.998046875 0
vn 0 0.998046875 0
vn 0 0.998046875 0
vn 0 0.998046875 0
vn 0 0.998046875 0
vn 0 0.998046875 0
vn 0 0.998046875 0
vn 0 0.998046875 0
vn 0 0.998046875 0
vn 0 0.998046875 0
vn 0 0.998046875 0
vn 0 0.998046875 0
vn 0 0.998046875 0
vn 0 0.998046875 0
vn 0 0.998046875 0
f 59/59/59 60/60/60 61/61/61
f 60/60/60 62/62/62 61/61/61
f 61/61/61 62/62/62 63/63/63
f 62/62/62 64/64/64 63/63/63
f 65/65/65 66/66/66 67/67/67
f 66/66/66 68/68/68 67/67/67
f 69/69/69 70/70/70 71/71/71
f 71/71/71 72/72/72 69/69/69
f 73/73/73 74/74/74 75/75/75
