# Created with Spiky's DS Map Editor 1.8.1.0
mtllib 023.mtl
o polygon0
g polygon0
usemtl dtree_02_01
v 1.93310546875 4.29150390625 -0.875
v -2.144287109375 1.937255859375 -0.875
v 2.263427734375 5.141845703125 -0.496826171875
v -2.811767578125 2.2119140625 -0.496826171875
v 1.0859375 4.462158203125 0.496826171875
v -1.470947265625 2.986083984375 0.496826171875
v 0.879150390625 3.682861328125 0.875
v -1.5556640625 2.27734375 0.875
v 2.51611328125 3.89990234375 0.99365234375
v -1.611328125 1.516845703125 0.99365234375
v 2.920654296875 3.418212890625 0.75
v -2.02001953125 0.565673828125 0.75
v 2.88916015625 3.015869140625 0.496826171875
v -1.893310546875 0.254638671875 0.496826171875
v 2.6962890625 2.904541015625 -0.496826171875
v -1.893310546875 0.254638671875 -0.496826171875
v 2.25927734375 3.036376953125 -0.75
v -1.696533203125 0.75244140625 -0.75
v 2.615966796875 3.95751953125 -0.99365234375
v -2.2900390625 1.125 -0.99365234375
v 1.93310546875 4.29150390625 -0.875
v -2.144287109375 1.937255859375 -0.875
v 2.6962890625 2.904541015625 -0.496826171875
v 2.367431640625 3.098876953125 -0.75
v 2.65478515625 2.97607421875 -0.443359375
v 2.222412109375 3.100341796875 -0.66650390625
v 2.51611328125 3.89990234375 0.99365234375
v 2.920654296875 3.418212890625 0.75
v 2.51611328125 3.89990234375 0.908203125
v 2.89990234375 3.454345703125 0.66845703125
v 0.9130859375 3.6240234375 0.7822265625
v 1.153076171875 4.34619140625 0.43212890625
v 0.879150390625 3.682861328125 0.875
v 1.0859375 4.462158203125 0.496826171875
v 1.153076171875 4.34619140625 0.43212890625
v 2.18896484375 4.941162109375 -0.416748046875
v 1.0859375 4.462158203125 0.496826171875
v 2.263427734375 5.141845703125 -0.496826171875
v -2.35693359375 0.08251953125 0
v -2.315673828125 0.0107421875 0
v -1.9345703125 0.326416015625 0.44873046875
v -1.893310546875 0.254638671875 0.496826171875
v 2.6962890625 2.904541015625 -0.496826171875
v 2.65478515625 2.97607421875 -0.443359375
v 3.096923828125 3.1357421875 0
v 3.0556640625 3.20751953125 0
v -2.130126953125 1.91259765625 -0.7236328125
v -2.144287109375 1.937255859375 -0.875
v -2.257080078125 1.14404296875 -0.854736328125
v -2.2900390625 1.125 -0.99365234375
v -2.35693359375 0.08251953125 0
v -1.9345703125 0.326416015625 -0.443359375
v -2.315673828125 0.0107421875 0
v -1.893310546875 0.254638671875 -0.496826171875
v -1.723876953125 0.822021484375 -0.66650390625
v -1.696533203125 0.75244140625 -0.75
v -1.9345703125 0.326416015625 -0.443359375
v -1.893310546875 0.254638671875 -0.496826171875
v -1.723876953125 0.822021484375 -0.66650390625
v -2.257080078125 1.14404296875 -0.854736328125
v -1.696533203125 0.75244140625 -0.75
v -2.2900390625 1.125 -0.99365234375
v -2.040771484375 0.601806640625 0.66845703125
v -2.02001953125 0.565673828125 0.75
v -1.611328125 1.516845703125 0.908203125
v -1.611328125 1.516845703125 0.99365234375
v -2.040771484375 0.601806640625 0.66845703125
v -1.9345703125 0.326416015625 0.44873046875
v -2.02001953125 0.565673828125 0.75
v -1.893310546875 0.254638671875 0.496826171875
v 2.89990234375 3.454345703125 0.66845703125
v 2.920654296875 3.418212890625 0.75
v 2.847900390625 3.087646484375 0.44873046875
v 2.88916015625 3.015869140625 0.496826171875
v 3.0556640625 3.20751953125 0
v 2.847900390625 3.087646484375 0.44873046875
v 3.096923828125 3.1357421875 0
v 2.88916015625 3.015869140625 0.496826171875
v 2.615966796875 3.95751953125 -0.854736328125
v 2.222412109375 3.100341796875 -0.66650390625
v 2.615966796875 3.95751953125 -0.99365234375
v 2.367431640625 3.098876953125 -0.75
v -1.611328125 1.516845703125 0.908203125
v -1.611328125 1.516845703125 0.99365234375
v -1.498291015625 2.23193359375 0.7822265625
v -1.5556640625 2.27734375 0.875
v -1.498291015625 2.23193359375 0.7822265625
v -1.5556640625 2.27734375 0.875
v -1.44873046875 2.843994140625 0.43212890625
v -1.470947265625 2.986083984375 0.496826171875
v -2.722412109375 2.10546875 -0.416748046875
v -1.44873046875 2.843994140625 0.43212890625
v -2.811767578125 2.2119140625 -0.496826171875
v -1.470947265625 2.986083984375 0.496826171875
v 2.51611328125 3.89990234375 0.908203125
v 0.9130859375 3.6240234375 0.7822265625
v 2.51611328125 3.89990234375 0.99365234375
v 0.879150390625 3.682861328125 0.875
v -2.722412109375 2.10546875 -0.416748046875
v -2.811767578125 2.2119140625 -0.496826171875
v -2.130126953125 1.91259765625 -0.7236328125
v -2.144287109375 1.937255859375 -0.875
v 1.948974609375 4.267578125 -0.7236328125
v 2.615966796875 3.95751953125 -0.854736328125
v 1.93310546875 4.29150390625 -0.875
v 2.615966796875 3.95751953125 -0.99365234375
v 1.948974609375 4.267578125 -0.7236328125
v 1.93310546875 4.29150390625 -0.875
v 2.18896484375 4.941162109375 -0.416748046875
v 2.263427734375 5.141845703125 -0.496826171875
vt 0.375 -0.796875
vt 0.375 -0.21875
vt 0 -1
vt 0 0
vt 0.375 -0.796875
vt 0.375 -0.21875
vt 0.5625 -0.734375
vt 0.5625 -0.0625
vt 0.75 -1
vt 0.75 -0.03125
vt 0.9375 -1
vt 0.9375 0
vt 1 -1
vt 1 0
vt 0.9375 -1
vt 0.9375 0
vt 1 -1
vt 1 0
vt 0.9375 -1
vt 0.9375 0
vt 0.75 -1
vt 0.75 -0.03125
vt 0.1875 -1
vt 0.59375 -1
vt 0.1875 -0.96875
vt 0.59375 -0.96875
vt 0.1875 -0.03125
vt 0.5 -0.03125
vt 0.1875 0
vt 0.5 0
vt 0.5 0
vt 0.1875 0
vt 0.5 -0.03125
vt 0.1875 -0.03125
vt 0.5 0
vt 0.1875 0
vt 0.5 -0.03125
vt 0.1875 -0.03125
vt 0.1875 -0.96875
vt 0.1875 -1
vt 0.59375 -0.96875
vt 0.59375 -1
vt 0.5 -0.03125
vt 0.5 0
vt 0.1875 -0.03125
vt 0.1875 0
vt 0.1875 -0.96875
vt 0.1875 -1
vt 0.59375 -0.96875
vt 0.59375 -1
vt 0.5 0
vt 0.1875 0
vt 0.5 -0.015625
vt 0.1875 -0.03125
vt 0.1875 -0.96875
vt 0.1875 -1
vt 0.59375 -0.96875
vt 0.59375 -1
vt 0.5 0
vt 0.1875 0
vt 0.5 -0.015625
vt 0.1875 -0.03125
vt 0.1875 -0.96875
vt 0.1875 -1
vt 0.59375 -0.96875
vt 0.59375 -1
vt 0.5 0
vt 0.1875 0
vt 0.5 -0.015625
vt 0.1875 -0.03125
vt 0.1875 0
vt 0.1875 -0.03125
vt 0.5 0
vt 0.5 -0.03125
vt 0.59375 -0.96875
vt 0.1875 -0.96875
vt 0.59375 -1
vt 0.1875 -1
vt 0.5 0
vt 0.1875 0
vt 0.5 -0.03125
vt 0.1875 -0.03125
vt 0.1875 0
vt 0.1875 -0.03125
vt 0.5 0
vt 0.5 -0.015625
vt 0.1875 0
vt 0.1875 -0.03125
vt 0.5 0
vt 0.5 -0.015625
vt 0.59375 -0.96875
vt 0.1875 -0.96875
vt 0.59375 -1
vt 0.1875 -1
vt 0.59375 -0.96875
vt 0.1875 -0.96875
vt 0.59375 -1
vt 0.1875 -1
vt 0.1875 0
vt 0.1875 -0.03125
vt 0.5 0
vt 0.5 -0.015625
vt 0.59375 -0.96875
vt 0.1875 -0.96875
vt 0.59375 -1
vt 0.1875 -1
vt 0.1875 0
vt 0.1875 -0.03125
vt 0.5 0
vt 0.5 -0.03125
vn -0.224609375 0.390625 -0.892578125
vn -0.224609375 0.390625 -0.892578125
vn -0.453125 0.78515625 -0.419921875
vn -0.453125 0.78515625 -0.419921875
vn -0.453125 0.78515625 0.419921875
vn -0.453125 0.78515625 0.419921875
vn -0.224609375 0.390625 0.892578125
vn -0.224609375 0.390625 0.892578125
vn 0.03515625 -0.0625 0.998046875
vn 0.03515625 -0.0625 0.998046875
vn 0.24609375 -0.423828125 0.87109375
vn 0.24609375 -0.423828125 0.87109375
vn 0.302734375 -0.5234375 0.794921875
vn 0.302734375 -0.5234375 0.794921875
vn 0.302734375 -0.5234375 -0.794921875
vn 0.302734375 -0.5234375 -0.794921875
vn 0.24609375 -0.423828125 -0.87109375
vn 0.24609375 -0.423828125 -0.87109375
vn 0.03515625 -0.0625 -0.998046875
vn 0.03515625 -0.0625 -0.998046875
vn -0.224609375 0.390625 -0.892578125
vn -0.224609375 0.390625 -0.892578125
vn 0.4765625 0.69140625 -0.544921875
vn 0.4765625 0.69140625 -0.544921875
vn 0.4765625 0.69140625 -0.544921875
vn 0.4765625 0.69140625 -0.544921875
vn 0.767578125 0.638671875 0.05859375
vn 0.767578125 0.638671875 0.05859375
vn 0.767578125 0.638671875 0.05859375
vn 0.767578125 0.638671875 0.05859375
vn 0.787109375 0.015625 0.6171875
vn 0.787109375 0.015625 0.6171875
vn 0.787109375 0.015625 0.6171875
vn 0.787109375 0.015625 0.6171875
vn 0.4609375 0.3203125 0.826171875
vn 0.4609375 0.3203125 0.826171875
vn 0.4609375 0.3203125 0.826171875
vn 0.4609375 0.3203125 0.826171875
vn -0.666015625 -0.20703125 0.716796875
vn -0.666015625 -0.20703125 0.716796875
vn -0.666015625 -0.20703125 0.716796875
vn -0.666015625 -0.20703125 0.716796875
vn 0.53125 0.478515625 -0.69921875
vn 0.53125 0.478515625 -0.69921875
vn 0.53125 0.478515625 -0.69921875
vn 0.53125 0.478515625 -0.69921875
vn -0.9140625 0.228515625 0.33203125
vn -0.9140625 0.228515625 0.33203125
vn -0.9140625 0.228515625 0.33203125
vn -0.9140625 0.228515625 0.33203125
vn -0.666015625 -0.20703125 -0.716796875
vn -0.666015625 -0.20703125 -0.716796875
vn -0.666015625 -0.20703125 -0.716796875
vn -0.666015625 -0.20703125 -0.716796875
vn -0.783203125 0.052734375 -0.619140625
vn -0.783203125 0.052734375 -0.619140625
vn -0.783203125 0.052734375 -0.619140625
vn -0.783203125 0.052734375 -0.619140625
vn -0.576171875 -0.7578125 0.3046875
vn -0.576171875 -0.7578125 0.3046875
vn -0.576171875 -0.7578125 0.3046875
vn -0.576171875 -0.7578125 0.3046875
vn -0.986328125 -0.046875 0.15625
vn -0.986328125 -0.046875 0.15625
vn -0.986328125 -0.046875 0.15625
vn -0.986328125 -0.046875 0.15625
vn -0.89453125 -0.435546875 0.103515625
vn -0.89453125 -0.435546875 0.103515625
vn -0.89453125 -0.435546875 0.103515625
vn -0.89453125 -0.435546875 0.103515625
vn 0.880859375 0.16796875 -0.443359375
vn 0.880859375 0.16796875 -0.443359375
vn 0.880859375 0.16796875 -0.443359375
vn 0.880859375 0.16796875 -0.443359375
vn 0.716796875 0.525390625 0.458984375
vn 0.716796875 0.525390625 0.458984375
vn 0.716796875 0.525390625 0.458984375
vn 0.716796875 0.525390625 0.458984375
vn 0.90625 -0.333984375 0.2578125
vn 0.90625 -0.333984375 0.2578125
vn 0.90625 -0.333984375 0.2578125
vn 0.90625 -0.333984375 0.2578125
vn -0.716796875 -0.53515625 -0.4453125
vn -0.716796875 -0.53515625 -0.4453125
vn -0.716796875 -0.53515625 -0.4453125
vn -0.716796875 -0.53515625 -0.4453125
vn -0.615234375 0.26953125 -0.740234375
vn -0.615234375 0.26953125 -0.740234375
vn -0.615234375 0.26953125 -0.740234375
vn -0.615234375 0.26953125 -0.740234375
vn -0.603515625 0.033203125 0.796875
vn -0.603515625 0.033203125 0.796875
vn -0.603515625 0.033203125 0.796875
vn -0.603515625 0.033203125 0.796875
vn -0.177734375 0.869140625 -0.4609375
vn -0.177734375 0.869140625 -0.4609375
vn -0.177734375 0.869140625 -0.4609375
vn -0.177734375 0.869140625 -0.4609375
vn -0.455078125 -0.791015625 -0.408203125
vn -0.455078125 -0.791015625 -0.408203125
vn -0.455078125 -0.791015625 -0.408203125
vn -0.455078125 -0.791015625 -0.408203125
vn 0.341796875 0.916015625 0.212890625
vn 0.341796875 0.916015625 0.212890625
vn 0.341796875 0.916015625 0.212890625
vn 0.341796875 0.916015625 0.212890625
vn 0.791015625 -0.150390625 -0.591796875
vn 0.791015625 -0.150390625 -0.591796875
vn 0.791015625 -0.150390625 -0.591796875
vn 0.791015625 -0.150390625 -0.591796875
f 1/1/1 2/2/2 3/3/3
f 2/2/2 4/4/4 3/3/3
f 3/3/3 4/4/4 5/5/5
f 4/4/4 6/6/6 5/5/5
f 5/5/5 6/6/6 7/7/7
f 6/6/6 8/8/8 7/7/7
f 7/7/7 8/8/8 9/9/9
f 8/8/8 10/10/10 9/9/9
f 9/9/9 10/10/10 11/11/11
f 10/10/10 12/12/12 11/11/11
f 11/11/11 12/12/12 13/13/13
f 12/12/12 14/14/14 13/13/13
f 15/15/15 16/16/16 17/17/17
f 16/16/16 18/18/18 17/17/17
f 17/17/17 18/18/18 19/19/19
f 18/18/18 20/20/20 19/19/19
f 19/19/19 20/20/20 21/21/21
f 20/20/20 22/22/22 21/21/21
f 23/23/23 24/24/24 25/25/25
f 24/24/24 26/26/26 25/25/25
f 27/27/27 28/28/28 29/29/29
f 28/28/28 30/30/30 29/29/29
f 31/31/31 32/32/32 33/33/33
f 32/32/32 34/34/34 33/33/33
f 35/35/35 36/36/36 37/37/37
f 36/36/36 38/38/38 37/37/37
f 39/39/39 40/40/40 41/41/41
f 40/40/40 42/42/42 41/41/41
f 43/43/43 44/44/44 45/45/45
f 44/44/44 46/46/46 45/45/45
f 47/47/47 48/48/48 49/49/49
f 48/48/48 50/50/50 49/49/49
f 51/51/51 52/52/52 53/53/53
f 52/52/52 54/54/54 53/53/53
f 55/55/55 56/56/56 57/57/57
f 56/56/56 58/58/58 57/57/57
f 59/59/59 60/60/60 61/61/61
f 60/60/60 62/62/62 61/61/61
f 63/63/63 64/64/64 65/65/65
f 64/64/64 66/66/66 65/65/65
f 67/67/67 68/68/68 69/69/69
f 68/68/68 70/70/70 69/69/69
f 71/71/71 72/72/72 73/73/73
f 72/72/72 74/74/74 73/73/73
f 75/75/75 76/76/76 77/77/77
f 76/76/76 78/78/78 77/77/77
f 79/79/79 80/80/80 81/81/81
f 80/80/80 82/82/82 81/81/81
f 83/83/83 84/84/84 85/85/85
f 84/84/84 86/86/86 85/85/85
f 87/87/87 88/88/88 89/89/89
f 88/88/88 90/90/90 89/89/89
f 91/91/91 92/92/92 93/93/93
f 92/92/92 94/94/94 93/93/93
f 95/95/95 96/96/96 97/97/97
f 96/96/96 98/98/98 97/97/97
f 99/99/99 100/100/100 101/101/101
f 100/100/100 102/102/102 101/101/101
f 103/103/103 104/104/104 105/105/105
f 104/104/104 106/106/106 105/105/105
f 107/107/107 108/108/108 109/109/109
f 108/108/108 110/110/110 109/109/109
o polygon1
g polygon1
usemtl dtree_02_02
v 2.18896484375 4.941162109375 -0.416748046875
v -2.722412109375 2.10546875 -0.416748046875
v 1.948974609375 4.267578125 -0.7236328125
v -2.130126953125 1.91259765625 -0.7236328125
v 2.615966796875 3.95751953125 -0.854736328125
v -2.257080078125 1.14404296875 -0.854736328125
v 2.222412109375 3.100341796875 -0.66650390625
v -1.723876953125 0.822021484375 -0.66650390625
v 2.65478515625 2.97607421875 -0.443359375
v -1.9345703125 0.326416015625 -0.443359375
v 3.0556640625 3.20751953125 0
v -2.35693359375 0.08251953125 0
v 2.847900390625 3.087646484375 0.44873046875
v -1.9345703125 0.326416015625 0.44873046875
v -1.44873046875 2.843994140625 0.43212890625
v 1.153076171875 4.34619140625 0.43212890625
v -1.498291015625 2.23193359375 0.7822265625
v 0.9130859375 3.6240234375 0.7822265625
v -1.611328125 1.516845703125 0.908203125
v 2.51611328125 3.89990234375 0.908203125
v -2.040771484375 0.601806640625 0.66845703125
v 2.89990234375 3.454345703125 0.66845703125
v -2.040771484375 0.601806640625 0.66845703125
v 2.89990234375 3.454345703125 0.66845703125
v 2.847900390625 3.087646484375 0.44873046875
v -1.9345703125 0.326416015625 0.44873046875
vt -0.21875 -1
vt -0.21875 0
vt -0.53125 -1
vt -0.53125 0
vt -0.75 -1
vt -0.75 0
vt -1.5 -1
vt -1.5 0
vt -1.875 -1
vt -1.875 0
vt -2.4375 -1
vt -2.4375 0
vt -3 -1
vt -3 0
vt -5.34375 0
vt -5.34375 -1
vt -5.03125 0
vt -5.03125 -1
vt -4.25 0
vt -4.25 -1
vt -3.5625 0
vt -3.5625 -1
vt -3.5625 -1
vt -3.5625 0
vt -3 0
vt -3 -1
vn 0.3359375 -0.58203125 0.740234375
vn 0.3359375 -0.58203125 0.740234375
vn 0.24609375 -0.423828125 0.87109375
vn 0.24609375 -0.423828125 0.87109375
vn -0.015625 0.02734375 0.998046875
vn -0.015625 0.02734375 0.998046875
vn -0.224609375 0.390625 0.892578125
vn -0.224609375 0.390625 0.892578125
vn -0.453125 0.78515625 0.419921875
vn -0.453125 0.78515625 0.419921875
vn -0.5 0.865234375 0
vn -0.5 0.865234375 0
vn -0.453125 0.78515625 -0.419921875
vn -0.453125 0.78515625 -0.419921875
vn 0.337890625 -0.5859375 -0.736328125
vn 0.337890625 -0.5859375 -0.736328125
vn 0.24609375 -0.423828125 -0.87109375
vn 0.24609375 -0.423828125 -0.87109375
vn -0.02734375 0.048828125 -0.998046875
vn -0.02734375 0.048828125 -0.998046875
vn -0.224609375 0.390625 -0.892578125
vn -0.224609375 0.390625 -0.892578125
vn -0.224609375 0.390625 -0.892578125
vn -0.224609375 0.390625 -0.892578125
vn -0.453125 0.78515625 -0.419921875
vn -0.453125 0.78515625 -0.419921875
f 111/111/111 112/112/112 113/113/113
f 112/112/112 114/114/114 113/113/113
f 113/113/113 114/114/114 115/115/115
f 114/114/114 116/116/116 115/115/115
f 115/115/115 116/116/116 117/117/117
f 116/116/116 118/118/118 117/117/117
f 117/117/117 118/118/118 119/119/119
f 118/118/118 120/120/120 119/119/119
f 119/119/119 120/120/120 121/121/121
f 120/120/120 122/122/122 121/121/121
f 121/121/121 122/122/122 123/123/123
f 122/122/122 124/124/124 123/123/123
f 125/125/125 126/126/126 127/127/127
f 126/126/126 128/128/128 127/127/127
f 127/127/127 128/128/128 129/129/129
f 128/128/128 130/130/130 129/129/129
f 129/129/129 130/130/130 131/131/131
f 130/130/130 132/132/132 131/131/131
f 133/133/133 134/134/134 135/135/135
f 135/135/135 136/136/136 133/133/133
