# Created with Spiky's DS Map Editor 1.8.1.0
mtllib 025.mtl
o polygon0
g polygon0
usemtl isu_lm1
v 2 1.5499267578125 3.5
v 2 1.5499267578125 -0.5
v 2 4.5499267578125 0.5
v 2 4.5499267578125 3.5
v -2 4.5499267578125 -0.5
v -2 4.5499267578125 0.5
v -2 8.0499267578125 0
v -2 8.0499267578125 -1
v 2 4.5499267578125 -0.5
v -2 4.5499267578125 -0.5
v -2 8.0499267578125 -1
v 2 8.0499267578125 -1
v 2 4.5499267578125 0.5
v 2 4.5499267578125 -0.5
v 2 8.0499267578125 -1
v 2 8.0499267578125 0
v -2 4.5499267578125 0.5
v 2 4.5499267578125 0.5
v 2 8.0499267578125 0
v -2 8.0499267578125 0
v -2 4.5499267578125 3.5
v 2 4.5499267578125 3.5
v 2 4.5499267578125 0.5
v -2 4.5499267578125 0.5
v -2 1.5499267578125 -0.5
v -2 1.5499267578125 3.5
v -2 4.5499267578125 3.5
v -2 4.5499267578125 0.5
v -2 4.5499267578125 -0.5
v 2 4.5499267578125 -0.5
v 2 1.5499267578125 -0.5
v -2 1.5499267578125 -0.5
v -2 8.0499267578125 0
v 2 8.0499267578125 0
v 2 8.0499267578125 -1
v -2 8.0499267578125 -1
v -2 1.5499267578125 3.5
v 2 1.5499267578125 3.5
v 2 4.5499267578125 3.5
v -2 4.5499267578125 3.5
v -2 1.5499267578125 -0.5
v -2 4.5499267578125 0.5
v -2 4.5499267578125 -0.5
v 2 4.5499267578125 0.5
v 2 1.5499267578125 -0.5
v 2 4.5499267578125 -0.5
vt 0.01171875 -0.4296875
vt 0.48828125 -0.4296875
vt 0.37109375 -0.0078125
vt 0.01171875 -0.0078125
vt 0.44921875 -0.921875
vt 0.48046875 -0.921875
vt 0.48046875 -0.88671875
vt 0.44921875 -0.88671875
vt 0.0078125 -0.9921875
vt 0.4921875 -0.9921875
vt 0.4921875 -0.57421875
vt 0.0078125 -0.57421875
vt 0.44921875 -0.921875
vt 0.48046875 -0.921875
vt 0.48046875 -0.88671875
vt 0.44921875 -0.88671875
vt 0.0078125 -0.9921875
vt 0.4921875 -0.9921875
vt 0.4921875 -0.57421875
vt 0.0078125 -0.57421875
vt 0.921875 -0.96484375
vt 0.95703125 -0.96484375
vt 0.95703125 -0.94140625
vt 0.921875 -0.94140625
vt 0.01171875 -0.4296875
vt 0.48828125 -0.4296875
vt 0.48828125 -0.0078125
vt 0.12890625 -0.0078125
vt 0.01171875 -0.0078125
vt 0.48828125 -0.0078125
vt 0.48828125 -0.4296875
vt 0.01171875 -0.4296875
vt 0.921875 -0.94140625
vt 0.95703125 -0.94140625
vt 0.95703125 -0.93359375
vt 0.921875 -0.93359375
vt 0.01171875 -0.4296875
vt 0.48828125 -0.4296875
vt 0.48828125 -0.0078125
vt 0.01171875 -0.0078125
vt 0.01171875 -0.4296875
vt 0.12890625 -0.0078125
vt 0.01171875 -0.0078125
vt 0.37109375 -0.0078125
vt 0.48828125 -0.4296875
vt 0.48828125 -0.0078125
vn 0.998046875 0 0
vn 0.998046875 0 0
vn 0.998046875 0 0
vn 0.998046875 0 0
vn -1 0 0
vn -1 0 0
vn -1 0 0
vn -1 0 0
vn 0 -0.0703125 -0.998046875
vn 0 -0.0703125 -0.998046875
vn 0 -0.140625 -0.990234375
vn 0 -0.140625 -0.990234375
vn 0.998046875 0 0
vn 0.998046875 0 0
vn 0.998046875 0 0
vn 0.998046875 0 0
vn 0 0.140625 0.990234375
vn 0 0.140625 0.990234375
vn 0 0.140625 0.990234375
vn 0 0.140625 0.990234375
vn 0 0.998046875 0
vn 0 0.998046875 0
vn 0 0.998046875 0
vn 0 0.998046875 0
vn -1 0 0
vn -1 0 0
vn -1 0 0
vn -1 0 0
vn 0 -0.0703125 -0.998046875
vn 0 -0.0703125 -0.998046875
vn 0 0 -1
vn 0 0 -1
vn 0 0.998046875 0
vn 0 0.998046875 0
vn 0 0.998046875 0
vn 0 0.998046875 0
vn 0 0 0.998046875
vn 0 0 0.998046875
vn 0 0 0.998046875
vn 0 0 0.998046875
vn -1 0 0
vn -1 0 0
vn -1 0 0
vn 0.998046875 0 0
vn 0.998046875 0 0
vn 0.998046875 0 0
f 1/1/1 2/2/2 3/3/3
f 3/3/3 4/4/4 1/1/1
f 5/5/5 6/6/6 7/7/7
f 7/7/7 8/8/8 5/5/5
f 9/9/9 10/10/10 11/11/11
f 11/11/11 12/12/12 9/9/9
f 13/13/13 14/14/14 15/15/15
f 15/15/15 16/16/16 13/13/13
f 17/17/17 18/18/18 19/19/19
f 19/19/19 20/20/20 17/17/17
f 21/21/21 22/22/22 23/23/23
f 23/23/23 24/24/24 21/21/21
f 25/25/25 26/26/26 27/27/27
f 27/27/27 28/28/28 25/25/25
f 29/29/29 30/30/30 31/31/31
f 31/31/31 32/32/32 29/29/29
f 33/33/33 34/34/34 35/35/35
f 35/35/35 36/36/36 33/33/33
f 37/37/37 38/38/38 39/39/39
f 39/39/39 40/40/40 37/37/37
f 41/41/41 42/42/42 43/43/43
f 44/44/44 45/45/45 46/46/46
o polygon1
g polygon1
usemtl h_kage_lm1
v -2.5 1.5155029296875 -1
v -2.5 1.5155029296875 4
v 2.5 1.5155029296875 4
v 2.5 1.5155029296875 -1
vt 0.625 -0.875
vt 0.625 -0.875
vt 0.625 -0.875
vt 0.625 -0.875
vn 0 0.998046875 0
vn 0 0.998046875 0
vn 0 0.998046875 0
vn 0 0.998046875 0
f 47/47/47 48/48/48 49/49/49
f 49/49/49 50/50/50 47/47/47
