# Created with Spiky's DS Map Editor 1.8.1.0
mtllib 026.mtl
o polygon0
g polygon0
usemtl lambert1
v 0.1015625 3.9375 0.0615234375
v 0.0078125 3.9375 -0.0947265625
v -0.0859375 3.9375 0.0615234375
vt NaN 0
vt NaN 0
vt NaN 0
vn 0 0.998046875 0
vn 0 0.998046875 0
vn 0 0.998046875 0
f 1/1/1 2/2/2 3/3/3
o polygon1
g polygon1
usemtl kasa_lm1
v 1.9150390625 3.556884765625 -0.0009765625
v 0.001708984375 4.382568359375 -0.0009765625
v 0.958251953125 3.556884765625 1.656005859375
v 1.9150390625 3.556884765625 -0.0009765625
v 0.958251953125 3.556884765625 -1.657958984375
v 0.001708984375 4.382568359375 -0.0009765625
v 0.958251953125 3.556884765625 -1.657958984375
v -0.955078125 3.556884765625 -1.657958984375
v 0.001708984375 4.382568359375 -0.0009765625
v -0.955078125 3.556884765625 -1.657958984375
v -1.91162109375 3.556884765625 -0.0009765625
v 0.001708984375 4.382568359375 -0.0009765625
v -1.91162109375 3.556884765625 -0.0009765625
v -0.955078125 3.556884765625 1.656005859375
v 0.001708984375 4.382568359375 -0.0009765625
v -0.955078125 3.556884765625 1.656005859375
v 0.958251953125 3.556884765625 1.656005859375
v 0.001708984375 4.382568359375 -0.0009765625
vt 0.84375 -0.8828125
vt 0.8515625 -0.0078125
vt 0.96875 -0.8828125
vt 0.484375 -0.890625
vt 0.578125 -0.890625
vt 0.484375 -0.015625
vt 0.84375 -0.890625
vt 0.96875 -0.890625
vt 0.96875 -0.0078125
vt 0.484375 -0.890625
vt 0.578125 -0.890625
vt 0.484375 -0.015625
vt 0.84375 -0.890625
vt 0.96875 -0.890625
vt 0.96875 -0.0078125
vt 0.484375 -0.890625
vt 0.578125 -0.890625
vt 0.484375 -0.015625
vn 0.38671875 0.89453125 0.22265625
vn 0.38671875 0.89453125 0.22265625
vn 0.38671875 0.89453125 0.22265625
vn 0.38671875 0.89453125 -0.22265625
vn 0.38671875 0.89453125 -0.22265625
vn 0.38671875 0.89453125 -0.22265625
vn 0 0.89453125 -0.4453125
vn 0 0.89453125 -0.4453125
vn 0 0.89453125 -0.4453125
vn -0.38671875 0.89453125 -0.22265625
vn -0.38671875 0.89453125 -0.22265625
vn -0.38671875 0.89453125 -0.22265625
vn -0.38671875 0.89453125 0.22265625
vn -0.38671875 0.89453125 0.22265625
vn -0.38671875 0.89453125 0.22265625
vn 0 0.89453125 0.4453125
vn 0 0.89453125 0.4453125
vn 0 0.89453125 0.4453125
f 4/4/4 5/5/5 6/6/6
f 7/7/7 8/8/8 9/9/9
f 10/10/10 11/11/11 12/12/12
f 13/13/13 14/14/14 15/15/15
f 16/16/16 17/17/17 18/18/18
f 19/19/19 20/20/20 21/21/21
o polygon2
g polygon2
usemtl table_lm1
v 0.1015625 3.9375 0.0615234375
v -0.0859375 3.9375 0.0615234375
v -0.0859375 0.9375 0.0615234375
v 0.1015625 0.9375 0.0615234375
v 0.1015625 0.9375 0.0615234375
v 0.0078125 0.9375 -0.0947265625
v 0.0078125 3.9375 -0.0947265625
v 0.1015625 3.9375 0.0615234375
v -0.0859375 3.9375 0.0615234375
v 0.0078125 3.9375 -0.0947265625
v 0.0078125 0.9375 -0.0947265625
v -0.0859375 0.9375 0.0615234375
v -0.0859375 0.9375 0.0615234375
v 0.0078125 0.9375 -0.0947265625
v 0.1015625 0.9375 0.0615234375
vt 0.640625 -0.5078125
vt 0.6640625 -0.5078125
vt 0.6640625 -0.984375
vt 0.640625 -0.984375
vt 0.640625 -0.984375
vt 0.6640625 -0.984375
vt 0.6640625 -0.5078125
vt 0.640625 -0.5078125
vt 0.640625 -0.5078125
vt 0.6640625 -0.5078125
vt 0.6640625 -0.984375
vt 0.640625 -0.984375
vt 0 2
vt 1 2
vt 1 3
vn 0 0 0.998046875
vn 0 0 0.998046875
vn 0 0 0.998046875
vn 0 0 0.998046875
vn 0.857421875 0 -0.513671875
vn 0.857421875 0 -0.513671875
vn 0.857421875 0 -0.513671875
vn 0.857421875 0 -0.513671875
vn -0.857421875 0 -0.513671875
vn -0.857421875 0 -0.513671875
vn -0.857421875 0 -0.513671875
vn -0.857421875 0 -0.513671875
vn 0 -1 0
vn 0 -1 0
vn 0 -1 0
f 22/22/22 23/23/23 24/24/24
f 24/24/24 25/25/25 22/22/22
f 26/26/26 27/27/27 28/28/28
f 28/28/28 29/29/29 26/26/26
f 30/30/30 31/31/31 32/32/32
f 32/32/32 33/33/33 30/30/30
f 34/34/34 35/35/35 36/36/36
