# Created with Spiky's DS Map Editor 1.8.1.0
mtllib 027.mtl
o polygon0
g polygon0
usemtl table_lm1
v -1.984375 2 1.983642578125
v 1.994873046875 2 1.983642578125
v 1.994873046875 2 -1.99560546875
v -1.984375 2 -1.99560546875
v 0.59716796875 6.0400390625 0.34912109375
v -0.586669921875 6.0400390625 0.34912109375
v -0.61962890625 2.00634765625 0.369140625
v 0.63037109375 2.00634765625 0.369140625
v 0.63037109375 2.00634765625 0.369140625
v 0.00537109375 2.00634765625 -0.630859375
v 0.00537109375 6.0400390625 -0.597900390625
v 0.59716796875 6.0400390625 0.34912109375
v -0.586669921875 6.0400390625 0.34912109375
v 0.00537109375 6.0400390625 -0.597900390625
v 0.00537109375 2.00634765625 -0.630859375
v -0.61962890625 2.00634765625 0.369140625
v 3.707275390625 6.386962890625 -0.005859375
v 1.856201171875 6.386962890625 3.2001953125
v 1.856201171875 5.615234375 3.2001953125
v 3.707275390625 5.615234375 -0.005859375
v 1.856201171875 6.386962890625 -3.212158203125
v 3.707275390625 6.386962890625 -0.005859375
v 3.707275390625 5.615234375 -0.005859375
v 1.856201171875 5.615234375 -3.212158203125
v -1.845703125 6.386962890625 -3.212158203125
v 1.856201171875 6.386962890625 -3.212158203125
v 1.856201171875 5.615234375 -3.212158203125
v -1.845703125 5.615234375 -3.212158203125
v -3.69677734375 6.386962890625 -0.005859375
v -1.845703125 6.386962890625 -3.212158203125
v -1.845703125 5.615234375 -3.212158203125
v -3.69677734375 5.615234375 -0.005859375
v -1.845703125 6.386962890625 3.2001953125
v -3.69677734375 6.386962890625 -0.005859375
v -3.69677734375 5.615234375 -0.005859375
v -1.845703125 5.615234375 3.2001953125
v 1.856201171875 6.386962890625 3.2001953125
v -1.845703125 6.386962890625 3.2001953125
v -1.845703125 5.615234375 3.2001953125
v 1.856201171875 5.615234375 3.2001953125
v 0.59716796875 6.0400390625 0.34912109375
v 0.00537109375 6.0400390625 -0.597900390625
v -0.586669921875 6.0400390625 0.34912109375
v 3.707275390625 6.386962890625 -0.005859375
v 0.00537109375 6.386962890625 -0.005859375
v 1.856201171875 6.386962890625 3.2001953125
v 3.707275390625 6.386962890625 -0.005859375
v 1.856201171875 6.386962890625 -3.212158203125
v 0.00537109375 6.386962890625 -0.005859375
v 1.856201171875 6.386962890625 -3.212158203125
v -1.845703125 6.386962890625 -3.212158203125
v 0.00537109375 6.386962890625 -0.005859375
v -1.845703125 6.386962890625 -3.212158203125
v -3.69677734375 6.386962890625 -0.005859375
v 0.00537109375 6.386962890625 -0.005859375
v -3.69677734375 6.386962890625 -0.005859375
v -1.845703125 6.386962890625 3.2001953125
v 0.00537109375 6.386962890625 -0.005859375
v -1.845703125 6.386962890625 3.2001953125
v 1.856201171875 6.386962890625 3.2001953125
v 0.00537109375 6.386962890625 -0.005859375
vt 0.56640625 -0.43359375
vt 0.99609375 -0.43359375
vt 0.99609375 -0.00390625
vt 0.56640625 -0.00390625
vt 0.69921875 -0.5078125
vt 0.7421875 -0.5078125
vt 0.7421875 -0.98828125
vt 0.69921875 -0.98828125
vt 0.69921875 -0.98828125
vt 0.7421875 -0.98828125
vt 0.7421875 -0.5078125
vt 0.69921875 -0.5078125
vt 0.69921875 -0.5078125
vt 0.7421875 -0.5078125
vt 0.7421875 -0.98828125
vt 0.69921875 -0.98828125
vt 0.44921875 -0.921875
vt 0.48046875 -0.921875
vt 0.48046875 -0.88671875
vt 0.44921875 -0.88671875
vt 0.44921875 -0.921875
vt 0.48046875 -0.921875
vt 0.48046875 -0.88671875
vt 0.44921875 -0.88671875
vt 0.44921875 -0.921875
vt 0.48046875 -0.921875
vt 0.48046875 -0.88671875
vt 0.44921875 -0.88671875
vt 0.44921875 -0.921875
vt 0.48046875 -0.921875
vt 0.48046875 -0.88671875
vt 0.44921875 -0.88671875
vt 0.44921875 -0.921875
vt 0.48046875 -0.921875
vt 0.48046875 -0.88671875
vt 0.44921875 -0.88671875
vt 0.44921875 -0.921875
vt 0.48046875 -0.921875
vt 0.48046875 -0.88671875
vt 0.44921875 -0.88671875
vt 1 0
vt 1 1
vt 0 1
vt 0.54296875 -0.984375
vt 0.55078125 -0.0234375
vt 0.51171875 -0.984375
vt 0.546875 -0.984375
vt 0.50390625 -0.984375
vt 0.51171875 -0.0234375
vt 0.546875 -0.984375
vt 0.50390625 -0.984375
vt 0.51171875 -0.0234375
vt 0.546875 -0.984375
vt 0.50390625 -0.984375
vt 0.51171875 -0.0234375
vt 0.546875 -0.984375
vt 0.50390625 -0.984375
vt 0.51171875 -0.0234375
vt 0.546875 -0.984375
vt 0.50390625 -0.984375
vt 0.51171875 -0.0234375
vn 0 0.998046875 0
vn 0 0.998046875 0
vn 0 0.998046875 0
vn 0 0.998046875 0
vn 0 0 0.998046875
vn 0 0 0.998046875
vn 0 0 0.998046875
vn 0 0 0.998046875
vn 0.865234375 0 -0.5
vn 0.865234375 0 -0.5
vn 0.865234375 0 -0.5
vn 0.865234375 0 -0.5
vn -0.865234375 0 -0.5
vn -0.865234375 0 -0.5
vn -0.865234375 0 -0.5
vn -0.865234375 0 -0.5
vn 0.865234375 0 0.5
vn 0.865234375 0 0.5
vn 0.865234375 0 0.5
vn 0.865234375 0 0.5
vn 0.865234375 0 -0.5
vn 0.865234375 0 -0.5
vn 0.865234375 0 -0.5
vn 0.865234375 0 -0.5
vn 0 0 -1
vn 0 0 -1
vn 0 0 -1
vn 0 0 -1
vn -0.865234375 0 -0.5
vn -0.865234375 0 -0.5
vn -0.865234375 0 -0.5
vn -0.865234375 0 -0.5
vn -0.865234375 0 0.5
vn -0.865234375 0 0.5
vn -0.865234375 0 0.5
vn -0.865234375 0 0.5
vn 0 0 0.998046875
vn 0 0 0.998046875
vn 0 0 0.998046875
vn 0 0 0.998046875
vn 0 0.998046875 0
vn 0 0.998046875 0
vn 0 0.998046875 0
vn 0 0.998046875 0
vn 0 0.998046875 0
vn 0 0.998046875 0
vn 0 0.998046875 0
vn 0 0.998046875 0
vn 0 0.998046875 0
vn 0 0.998046875 0
vn 0 0.998046875 0
vn 0 0.998046875 0
vn 0 0.998046875 0
vn 0 0.998046875 0
vn 0 0.998046875 0
vn 0 0.998046875 0
vn 0 0.998046875 0
vn 0 0.998046875 0
vn 0 0.998046875 0
vn 0 0.998046875 0
vn 0 0.998046875 0
f 1/1/1 2/2/2 3/3/3
f 3/3/3 4/4/4 1/1/1
f 5/5/5 6/6/6 7/7/7
f 7/7/7 8/8/8 5/5/5
f 9/9/9 10/10/10 11/11/11
f 11/11/11 12/12/12 9/9/9
f 13/13/13 14/14/14 15/15/15
f 15/15/15 16/16/16 13/13/13
f 17/17/17 18/18/18 19/19/19
f 19/19/19 20/20/20 17/17/17
f 21/21/21 22/22/22 23/23/23
f 23/23/23 24/24/24 21/21/21
f 25/25/25 26/26/26 27/27/27
f 27/27/27 28/28/28 25/25/25
f 29/29/29 30/30/30 31/31/31
f 31/31/31 32/32/32 29/29/29
f 33/33/33 34/34/34 35/35/35
f 35/35/35 36/36/36 33/33/33
f 37/37/37 38/38/38 39/39/39
f 39/39/39 40/40/40 37/37/37
f 41/41/41 42/42/42 43/43/43
f 44/44/44 45/45/45 46/46/46
f 47/47/47 48/48/48 49/49/49
f 50/50/50 51/51/51 52/52/52
f 53/53/53 54/54/54 55/55/55
f 56/56/56 57/57/57 58/58/58
f 59/59/59 60/60/60 61/61/61
o polygon1
g polygon1
usemtl h_kage_lm1
v 1.704833984375 1.01318359375 2.94677734375
v 3.404296875 1.01318359375 -0.000732421875
v 0.00537109375 1.01318359375 -0.000732421875
v 1.704833984375 1.01318359375 -2.956298828125
v -1.6943359375 1.01318359375 -2.956298828125
v -1.6943359375 1.01318359375 -2.956298828125
v -3.393798828125 1.01318359375 -0.000732421875
v 0.00537109375 1.01318359375 -0.000732421875
v -1.6943359375 1.01318359375 2.94677734375
v 1.704833984375 1.01318359375 2.94677734375
vt 1 -0.84375
vt 0.8359375 -0.84375
vt 0.5 -1
vt 0.6640625 -0.84375
vt 0.5 -0.84375
vt 0.5 -0.84375
vt 0.3359375 -0.84375
vt 0.5 -1
vt 0.1640625 -0.84375
vt 0 -0.84375
vn 0 0.998046875 0
vn 0 0.998046875 0
vn 0 0.998046875 0
vn 0 0.998046875 0
vn 0 0.998046875 0
vn 0 0.998046875 0
vn 0 0.998046875 0
vn 0 0.998046875 0
vn 0 0.998046875 0
vn 0 0.998046875 0
f 62/62/62 63/63/63 64/64/64
f 63/63/63 65/65/65 64/64/64
f 64/64/64 65/65/65 66/66/66
f 67/67/67 68/68/68 69/69/69
f 68/68/68 70/70/70 69/69/69
f 69/69/69 70/70/70 71/71/71
