# Created with Spiky's DS Map Editor 1.8.1.0
mtllib 032.mtl
o polygon0
g polygon0
usemtl ento2
v -1.579345703125 2.541259765625 0.44580078125
v -1.579345703125 2.430419921875 0.603271484375
v -1.579345703125 2.610595703125 0.603271484375
v -1.579345703125 2.666259765625 0.44580078125
v 1.56494140625 2.430419921875 0.603271484375
v 1.56494140625 2.541259765625 0.44580078125
v 1.56494140625 2.666259765625 0.44580078125
v 1.56494140625 2.610595703125 0.603271484375
v -1.579345703125 2.541259765625 0.44580078125
v 1.56494140625 2.541259765625 0.44580078125
v 1.56494140625 2.430419921875 0.603271484375
v -1.579345703125 2.430419921875 0.603271484375
v -1.579345703125 2.666259765625 0.44580078125
v 1.56494140625 2.666259765625 0.44580078125
v 1.56494140625 2.541259765625 0.44580078125
v -1.579345703125 2.541259765625 0.44580078125
v -1.579345703125 2.610595703125 0.603271484375
v 1.56494140625 2.610595703125 0.603271484375
v 1.56494140625 2.666259765625 0.44580078125
v -1.579345703125 2.666259765625 0.44580078125
v -1.579345703125 2.430419921875 0.603271484375
v 1.56494140625 2.430419921875 0.603271484375
v 1.56494140625 2.610595703125 0.603271484375
v -1.579345703125 2.610595703125 0.603271484375
v 0.79296875 0.40869140625 0.014892578125
v 0.802978515625 0.40185546875 0.139404296875
v 0.99072265625 2.390869140625 0.2314453125
v 0.980712890625 2.397705078125 0.107177734375
v 0.980712890625 2.397705078125 0.107177734375
v 2.469970703125 2.262939453125 -0.018798828125
v 2.2822265625 0.27392578125 -0.111083984375
v 0.79296875 0.40869140625 0.014892578125
v 0.802978515625 0.40185546875 0.139404296875
v 2.292236328125 0.26708984375 0.013427734375
v 2.47998046875 2.256103515625 0.105712890625
v 0.99072265625 2.390869140625 0.2314453125
v -4 3.25 -0.75
v -4 2.625 -0.75
v -4 2.625 0.5
v -4 3.25 0.5
v 4 0.3125 0.5
v 4 0.3125 -0.75
v 4 2.625 -0.75
v 4 2.625 0.5
v -0.001708984375 3.513916015625 0.5
v 0 4.25 0.5
v -4 3.25 0.5
v -1.5 3.25 0.5
v 4 2.625 0.5
v 1.5 2.625244140625 0.5
v 1.5 0.312744140625 0.5
v 4 0.3125 0.5
v -1.5 2.624755859375 0.5
v -4 2.625 0.5
v -4 0.3125 0.5
v -1.5 0.3125 0.5
v 1.5 3.25 0.5
v -1.5 3.25 0.5
v -1.5 2.624755859375 0.5
v 1.5 2.625244140625 0.5
v -1.5 0.3125 -0.375
v -1.5 2.625 -0.375
v -1.5 2.624755859375 0.5
v -1.5 0.3125 0.5
v 1.5 2.625 -0.375
v 1.5 0.3125 -0.375
v 1.5 0.312744140625 0.5
v 1.5 2.625244140625 0.5
v -0.001708984375 3.513916015625 0.5
v 1.5 3.25 0.5
v 4 3.25 0.5
v 0 4.25 0.5
v -4 2.625 -0.75
v -4 0.3125 -0.75
v -4 0.3125 0.5
v -4 2.625 0.5
v 4 3.25 -0.75
v 4 3.25 0.5
v 4 2.625 0.5
v 4 2.625 -0.75
v -0.995361328125 0.375 0.201904296875
v -0.987060546875 0.376953125 0.0771484375
v -1.085205078125 2.374267578125 0.099853515625
v -1.093505859375 2.37255859375 0.224609375
v -2.397705078125 2.31103515625 0.010986328125
v -1.085205078125 2.374267578125 0.099853515625
v -0.987060546875 0.376953125 0.0771484375
v -2.299560546875 0.3134765625 -0.01171875
v -2.307861328125 0.3115234375 0.11279296875
v -0.995361328125 0.375 0.201904296875
v -1.093505859375 2.37255859375 0.224609375
v -2.406005859375 2.30908203125 0.1357421875
v 4 3.25 0.5
v 1.5 3.25 0.5
v 4 2.625 0.5
v -1.5 3.25 0.5
v -4 2.625 0.5
v -1.5 2.624755859375 0.5
v 1.5 3.25 0.5
v -0.001708984375 3.513916015625 0.5
v -1.5 3.25 0.5
v -1.5 3.25 0.5
v -4 3.25 0.5
v -4 2.625 0.5
v 4 2.625 0.5
v 1.5 3.25 0.5
v 1.5 2.625244140625 0.5
vt 0.4560546875 -0.1181640625
vt 0.462890625 -0.1181640625
vt 0.462890625 -0.1015625
vt 0.4560546875 -0.1015625
vt 0.4560546875 -0.1181640625
vt 0.462890625 -0.1181640625
vt 0.462890625 -0.1015625
vt 0.4560546875 -0.1015625
vt 0.3984375 -0.4873046875
vt 0.1572265625 -0.4873046875
vt 0.1572265625 -0.5146484375
vt 0.3984375 -0.5146484375
vt 0.3984375 -0.4873046875
vt 0.1572265625 -0.4873046875
vt 0.1572265625 -0.5146484375
vt 0.3984375 -0.5146484375
vt 0.99609375 -0.1357421875
vt 0.4560546875 -0.1357421875
vt 0.4560546875 -0.1689453125
vt 0.99609375 -0.1689453125
vt 0.462890625 -0.1240234375
vt 0.4560546875 -0.1240234375
vt 0.4560546875 -0.150390625
vt 0.462890625 -0.150390625
vt 0.2578125 -0.6455078125
vt 0.28125 -0.6455078125
vt 0.28125 -0.6806640625
vt 0.2578125 -0.6806640625
vt 0.001953125 -0.6435546875
vt 0.32421875 -0.6435546875
vt 0.32421875 -0.998046875
vt 0.001953125 -0.998046875
vt 0.001953125 -0.998046875
vt 0.32421875 -0.998046875
vt 0.32421875 -0.6435546875
vt 0.001953125 -0.6435546875
vt 0.8408203125 -0.0048828125
vt 0.8408203125 -0.060546875
vt 0.595703125 -0.060546875
vt 0.595703125 -0.0048828125
vt 0.759765625 -1
vt 0.9951171875 -1
vt 0.9951171875 -0.6435546875
vt 0.759765625 -0.64453125
vt 0.4951171875 -0.060546875
vt 0.4951171875 -0.0048828125
vt 0.4951171875 -0.0048828125
vt 0.4951171875 -0.060546875
vt 0.9345703125 -0.19921875
vt 0.4755859375 -0.19921875
vt 0.4755859375 -0.638671875
vt 0.9345703125 -0.638671875
vt 0.4658203125 -0.19921875
vt 0.0068359375 -0.19921875
vt 0.0068359375 -0.638671875
vt 0.4658203125 -0.638671875
vt 0.4501953125 -0.001953125
vt 0.001953125 -0.001953125
vt 0.001953125 -0.0947265625
vt 0.4501953125 -0.0947265625
vt -0.244140625 -0.9951171875
vt -0.244140625 -0.6435546875
vt -0.005859375 -0.6435546875
vt -0.005859375 -0.9951171875
vt -0.244140625 -0.6435546875
vt -0.244140625 -0.9951171875
vt -0.005859375 -0.9951171875
vt -0.005859375 -0.6435546875
vt 0.5 -0.0595703125
vt 0.5 -0.0595703125
vt 0.5 -0.0029296875
vt 0.5 -0.0029296875
vt -0.244140625 -0.6435546875
vt -0.244140625 -0.9951171875
vt -0.005859375 -0.9951171875
vt -0.005859375 -0.6435546875
vt 0.8408203125 -0.0048828125
vt 0.595703125 -0.0048828125
vt 0.595703125 -0.060546875
vt 0.8408203125 -0.060546875
vt 0.2578125 -0.6455078125
vt 0.28125 -0.6455078125
vt 0.28125 -0.6806640625
vt 0.2578125 -0.6806640625
vt 0.001953125 -0.6435546875
vt 0.32421875 -0.6435546875
vt 0.32421875 -0.998046875
vt 0.001953125 -0.998046875
vt 0.001953125 -0.998046875
vt 0.32421875 -0.998046875
vt 0.32421875 -0.6435546875
vt 0.001953125 -0.6435546875
vt 0.5 -0.0029296875
vt 0.5 -0.0595703125
vt 0.5 -0.0595703125
vt 0.3310546875 -0.8095703125
vt 0.74609375 -0.6435546875
vt 0.3310546875 -0.6435546875
vt 0.380859375 -0.19921875
vt 0.1162109375 -0.19921875
vt 0.236328125 -0.228515625
vt 0.4951171875 -0.060546875
vt 0.4951171875 -0.0048828125
vt 0.4951171875 -0.060546875
vt 0.3310546875 -0.830078125
vt 0.74609375 -0.99609375
vt 0.74609375 -0.830078125
vn -1 0 0
vn -1 0 0
vn -1 0 0
vn -1 0 0
vn 0.998046875 0 0
vn 0.998046875 0 0
vn 0.998046875 0 0
vn 0.998046875 0 0
vn 0 -0.818359375 -0.57421875
vn 0 -0.818359375 -0.57421875
vn 0 -0.818359375 -0.57421875
vn 0 -0.818359375 -0.57421875
vn 0 0 -1
vn 0 0 -1
vn 0 0 -1
vn 0 0 -1
vn 0 0.943359375 0.333984375
vn 0 0.943359375 0.333984375
vn 0 0.943359375 0.333984375
vn 0 0.943359375 0.333984375
vn 0 0 0.998046875
vn 0 0 0.998046875
vn 0 0 0.998046875
vn 0 0 0.998046875
vn -0.9921875 0.08984375 0.083984375
vn -0.9921875 0.08984375 0.083984375
vn -0.9921875 0.08984375 0.083984375
vn -0.9921875 0.08984375 0.083984375
vn -0.080078125 0.052734375 -0.99609375
vn -0.080078125 0.052734375 -0.99609375
vn -0.080078125 0.052734375 -0.99609375
vn -0.080078125 0.052734375 -0.99609375
vn 0.080078125 -0.052734375 0.99609375
vn 0.080078125 -0.052734375 0.99609375
vn 0.080078125 -0.052734375 0.99609375
vn 0.080078125 -0.052734375 0.99609375
vn -1 0 0
vn -1 0 0
vn -1 0 0
vn -1 0 0
vn 0.998046875 0 0
vn 0.998046875 0 0
vn 0.998046875 0 0
vn 0.998046875 0 0
vn 0 0 0.998046875
vn 0 0 0.998046875
vn 0 0 0.998046875
vn 0 0 0.998046875
vn 0 0 0.998046875
vn 0 0 0.998046875
vn 0 0 0.998046875
vn 0 0 0.998046875
vn 0 0 0.998046875
vn 0 0 0.998046875
vn 0 0 0.998046875
vn 0 0 0.998046875
vn 0 0 0.998046875
vn 0 0 0.998046875
vn 0 0 0.998046875
vn 0 0 0.998046875
vn 0.998046875 0 0
vn 0.998046875 0 0
vn 0.998046875 0 0
vn 0.998046875 0 0
vn -1 0 0
vn -1 0 0
vn -1 0 0
vn -1 0 0
vn 0 0 0.998046875
vn 0 0 0.998046875
vn 0 0 0.998046875
vn 0 0 0.998046875
vn -1 0 0
vn -1 0 0
vn -1 0 0
vn -1 0 0
vn 0.998046875 0 0
vn 0.998046875 0 0
vn 0.998046875 0 0
vn 0.998046875 0 0
vn 0.99609375 0.048828125 0.068359375
vn 0.99609375 0.048828125 0.068359375
vn 0.99609375 0.048828125 0.068359375
vn 0.99609375 0.048828125 0.068359375
vn 0.06640625 0.015625 -0.998046875
vn 0.06640625 0.015625 -0.998046875
vn 0.06640625 0.015625 -0.998046875
vn 0.06640625 0.015625 -0.998046875
vn -0.06640625 -0.015625 0.998046875
vn -0.06640625 -0.015625 0.998046875
vn -0.06640625 -0.015625 0.998046875
vn -0.06640625 -0.015625 0.998046875
vn 0 0 0.998046875
vn 0 0 0.998046875
vn 0 0 0.998046875
vn 0 0 0.998046875
vn 0 0 0.998046875
vn 0 0 0.998046875
vn 0 0 0.998046875
vn 0 0 0.998046875
vn 0 0 0.998046875
vn 0 0 0.998046875
vn 0 0 0.998046875
vn 0 0 0.998046875
vn 0 0 0.998046875
vn 0 0 0.998046875
vn 0 0 0.998046875
f 1/1/1 2/2/2 3/3/3
f 3/3/3 4/4/4 1/1/1
f 5/5/5 6/6/6 7/7/7
f 7/7/7 8/8/8 5/5/5
f 9/9/9 10/10/10 11/11/11
f 11/11/11 12/12/12 9/9/9
f 13/13/13 14/14/14 15/15/15
f 15/15/15 16/16/16 13/13/13
f 17/17/17 18/18/18 19/19/19
f 19/19/19 20/20/20 17/17/17
f 21/21/21 22/22/22 23/23/23
f 23/23/23 24/24/24 21/21/21
f 25/25/25 26/26/26 27/27/27
f 27/27/27 28/28/28 25/25/25
f 29/29/29 30/30/30 31/31/31
f 31/31/31 32/32/32 29/29/29
f 33/33/33 34/34/34 35/35/35
f 35/35/35 36/36/36 33/33/33
f 37/37/37 38/38/38 39/39/39
f 39/39/39 40/40/40 37/37/37
f 41/41/41 42/42/42 43/43/43
f 43/43/43 44/44/44 41/41/41
f 45/45/45 46/46/46 47/47/47
f 47/47/47 48/48/48 45/45/45
f 49/49/49 50/50/50 51/51/51
f 51/51/51 52/52/52 49/49/49
f 53/53/53 54/54/54 55/55/55
f 55/55/55 56/56/56 53/53/53
f 57/57/57 58/58/58 59/59/59
f 59/59/59 60/60/60 57/57/57
f 61/61/61 62/62/62 63/63/63
f 63/63/63 64/64/64 61/61/61
f 65/65/65 66/66/66 67/67/67
f 67/67/67 68/68/68 65/65/65
f 69/69/69 70/70/70 71/71/71
f 71/71/71 72/72/72 69/69/69
f 73/73/73 74/74/74 75/75/75
f 75/75/75 76/76/76 73/73/73
f 77/77/77 78/78/78 79/79/79
f 79/79/79 80/80/80 77/77/77
f 81/81/81 82/82/82 83/83/83
f 83/83/83 84/84/84 81/81/81
f 85/85/85 86/86/86 87/87/87
f 87/87/87 88/88/88 85/85/85
f 89/89/89 90/90/90 91/91/91
f 91/91/91 92/92/92 89/89/89
f 93/93/93 94/94/94 95/95/95
f 96/96/96 97/97/97 98/98/98
f 99/99/99 100/100/100 101/101/101
f 102/102/102 103/103/103 104/104/104
f 105/105/105 106/106/106 107/107/107
o polygon1
g polygon1
usemtl yane2
v 0.119384765625 4.162109375 -3.25
v 0.00146484375 4.25 -3.25
v 0.00146484375 4.25 -1
v 0.119384765625 4.162109375 -1
v 0.072265625 4.02294921875 -3.25
v 0.119384765625 4.162109375 -3.25
v 0.119384765625 4.162109375 -1
v 0.072265625 4.02294921875 -1
v -0.118408203125 4.1650390625 -3.25
v -0.07470703125 4.02490234375 -3.25
v -0.07470703125 4.02490234375 -1
v -0.118408203125 4.1650390625 -1
v 0.00146484375 4.25 -3.25
v -0.118408203125 4.1650390625 -3.25
v -0.118408203125 4.1650390625 -1
v 0.00146484375 4.25 -1
v -3.5888671875 3.1376953125 -1.583984375
v -3.619873046875 3.197509765625 -1.5048828125
v -0.11279296875 4.157958984375 -1.5048828125
v -0.095458984375 4.09423828125 -1.583984375
v -3.619873046875 3.197509765625 -1.5048828125
v -3.60107421875 3.14599609375 -1.41796875
v -0.098388671875 4.10498046875 -1.41796875
v -0.11279296875 4.157958984375 -1.5048828125
v -0.012451171875 4.091064453125 -2.3330078125
v -0.0087890625 4.158447265625 -2.254150390625
v 3.498291015625 3.1982421875 -2.254150390625
v 3.48095703125 3.134521484375 -2.3330078125
v -0.0087890625 4.158447265625 -2.254150390625
v -0.018798828125 4.104248046875 -2.1669921875
v 3.48388671875 3.145263671875 -2.1669921875
v 3.498291015625 3.1982421875 -2.254150390625
v -0.012451171875 4.091064453125 -3.0849609375
v -0.0087890625 4.158447265625 -3.005859375
v 3.498291015625 3.1982421875 -3.005859375
v 3.48095703125 3.134521484375 -3.0849609375
v -0.0087890625 4.158447265625 -3.005859375
v -0.018798828125 4.104248046875 -2.918701171875
v 3.48388671875 3.145263671875 -2.918701171875
v 3.498291015625 3.1982421875 -3.005859375
v -3.5888671875 3.1376953125 -2.3349609375
v -3.619873046875 3.197509765625 -2.255859375
v -0.11279296875 4.157958984375 -2.255859375
v -0.095458984375 4.09423828125 -2.3349609375
v -3.619873046875 3.197509765625 -2.255859375
v -3.60107421875 3.14599609375 -2.168701171875
v -0.098388671875 4.10498046875 -2.168701171875
v -0.11279296875 4.157958984375 -2.255859375
v 3.61865234375 3.414306640625 -3.125
v 3.499267578125 3.5 -3.125
v 3.499267578125 3.5 0.375
v 3.61865234375 3.414306640625 0.375
v 3.57421875 3.2744140625 -3.125
v 3.61865234375 3.414306640625 -3.125
v 3.61865234375 3.414306640625 0.375
v 3.57421875 3.2744140625 0.375
v 3.380859375 3.412841796875 -3.125
v 3.42724609375 3.2734375 -3.125
v 3.42724609375 3.2734375 0.375
v 3.380859375 3.412841796875 0.375
v 3.499267578125 3.5 -3.125
v 3.380859375 3.412841796875 -3.125
v 3.380859375 3.412841796875 0.375
v 3.499267578125 3.5 0.375
v -3.37890625 3.280517578125 -3.125
v -3.49169921875 3.374755859375 -3.125
v -3.49169921875 3.374755859375 0.375
v -3.37890625 3.280517578125 0.375
v -3.43359375 3.144287109375 -3.125
v -3.37890625 3.280517578125 -3.125
v -3.37890625 3.280517578125 0.375
v -3.43359375 3.144287109375 0.375
v -3.615966796875 3.296630859375 -3.125
v -3.580078125 3.154052734375 -3.125
v -3.580078125 3.154052734375 0.375
v -3.615966796875 3.296630859375 0.375
v -3.49169921875 3.374755859375 -3.125
v -3.615966796875 3.296630859375 -3.125
v -3.615966796875 3.296630859375 0.375
v -3.49169921875 3.374755859375 0.375
vt 0 0
vt 0.1796875 0
vt 0.1796875 -5
vt 0 -5
vt 0 0
vt 0.1796875 0
vt 0.1796875 -5
vt 0 -5
vt 0 0
vt 0.1796875 0
vt 0.1796875 -5
vt 0 -5
vt 0 0
vt 0.1796875 0
vt 0.1796875 -5
vt 0 -5
vt 0.6875 -8
vt 0.6875 -8
vt 0.6875 0
vt 0.6875 0
vt 0.6875 -8
vt 0.6875 -8
vt 0.6875 0
vt 0.6875 0
vt 0.6875 0
vt 0.6875 0
vt 0.6875 -8
vt 0.6875 -8
vt 0.6875 0
vt 0.6875 0
vt 0.6875 -8
vt 0.6875 -8
vt 0.6875 0
vt 0.6875 0
vt 0.6875 -8
vt 0.6875 -8
vt 0.6875 0
vt 0.6875 0
vt 0.6875 -8
vt 0.6875 -8
vt 0.6875 -8
vt 0.6875 -8
vt 0.6875 0
vt 0.6875 0
vt 0.6875 -8
vt 0.6875 -8
vt 0.6875 0
vt 0.6875 0
vt 0 0
vt 0.1796875 0
vt 0.1796875 -8
vt 0 -8
vt 0 0
vt 0.1796875 0
vt 0.1796875 -8
vt 0 -8
vt 0 0
vt 0.1796875 0
vt 0.1796875 -8
vt 0 -8
vt 0 0
vt 0.1796875 0
vt 0.1796875 -8
vt 0 -8
vt 0 0
vt 0.1796875 0
vt 0.1796875 -8
vt 0 -8
vt 0 0
vt 0.1796875 0
vt 0.1796875 -8
vt 0 -8
vt 0 0
vt 0.1796875 0
vt 0.1796875 -8
vt 0 -8
vt 0 0
vt 0.1796875 0
vt 0.1796875 -8
vt 0 -8
vn 0.640625 0.767578125 0
vn 0.640625 0.767578125 0
vn 0.640625 0.767578125 0
vn 0.640625 0.767578125 0
vn 0.953125 -0.302734375 0
vn 0.953125 -0.302734375 0
vn 0.953125 -0.302734375 0
vn 0.953125 -0.302734375 0
vn -0.94921875 -0.314453125 0
vn -0.94921875 -0.314453125 0
vn -0.94921875 -0.314453125 0
vn -0.94921875 -0.314453125 0
vn -0.53125 0.845703125 0
vn -0.53125 0.845703125 0
vn -0.53125 0.845703125 0
vn -0.53125 0.845703125 0
vn -0.203125 0.740234375 -0.640625
vn -0.203125 0.740234375 -0.640625
vn -0.203125 0.740234375 -0.640625
vn -0.203125 0.740234375 -0.640625
vn -0.22265625 0.81640625 0.53125
vn -0.22265625 0.81640625 0.53125
vn -0.22265625 0.81640625 0.53125
vn -0.22265625 0.81640625 0.53125
vn 0.203125 0.740234375 -0.640625
vn 0.203125 0.740234375 -0.640625
vn 0.203125 0.740234375 -0.640625
vn 0.203125 0.740234375 -0.640625
vn 0.22265625 0.81640625 0.53125
vn 0.22265625 0.81640625 0.53125
vn 0.22265625 0.81640625 0.53125
vn 0.22265625 0.81640625 0.53125
vn 0.203125 0.740234375 -0.640625
vn 0.203125 0.740234375 -0.640625
vn 0.203125 0.740234375 -0.640625
vn 0.203125 0.740234375 -0.640625
vn 0.22265625 0.81640625 0.53125
vn 0.22265625 0.81640625 0.53125
vn 0.22265625 0.81640625 0.53125
vn 0.22265625 0.81640625 0.53125
vn -0.203125 0.740234375 -0.640625
vn -0.203125 0.740234375 -0.640625
vn -0.203125 0.740234375 -0.640625
vn -0.203125 0.740234375 -0.640625
vn -0.22265625 0.81640625 0.53125
vn -0.22265625 0.81640625 0.53125
vn -0.22265625 0.81640625 0.53125
vn -0.22265625 0.81640625 0.53125
vn 0.58203125 0.8125 0
vn 0.58203125 0.8125 0
vn 0.58203125 0.8125 0
vn 0.58203125 0.8125 0
vn 0.953125 -0.302734375 0
vn 0.953125 -0.302734375 0
vn 0.953125 -0.302734375 0
vn 0.953125 -0.302734375 0
vn -0.94921875 -0.314453125 0
vn -0.94921875 -0.314453125 0
vn -0.94921875 -0.314453125 0
vn -0.94921875 -0.314453125 0
vn -0.59375 0.8046875 0
vn -0.59375 0.8046875 0
vn -0.59375 0.8046875 0
vn -0.59375 0.8046875 0
vn 0.640625 0.767578125 0
vn 0.640625 0.767578125 0
vn 0.640625 0.767578125 0
vn 0.640625 0.767578125 0
vn 0.927734375 -0.373046875 0
vn 0.927734375 -0.373046875 0
vn 0.927734375 -0.373046875 0
vn 0.927734375 -0.373046875 0
vn -0.96875 -0.244140625 0
vn -0.96875 -0.244140625 0
vn -0.96875 -0.244140625 0
vn -0.96875 -0.244140625 0
vn -0.53125 0.845703125 0
vn -0.53125 0.845703125 0
vn -0.53125 0.845703125 0
vn -0.53125 0.845703125 0
f 108/108/108 109/109/109 110/110/110
f 110/110/110 111/111/111 108/108/108
f 112/112/112 113/113/113 114/114/114
f 114/114/114 115/115/115 112/112/112
f 116/116/116 117/117/117 118/118/118
f 118/118/118 119/119/119 116/116/116
f 120/120/120 121/121/121 122/122/122
f 122/122/122 123/123/123 120/120/120
f 124/124/124 125/125/125 126/126/126
f 126/126/126 127/127/127 124/124/124
f 128/128/128 129/129/129 130/130/130
f 130/130/130 131/131/131 128/128/128
f 132/132/132 133/133/133 134/134/134
f 134/134/134 135/135/135 132/132/132
f 136/136/136 137/137/137 138/138/138
f 138/138/138 139/139/139 136/136/136
f 140/140/140 141/141/141 142/142/142
f 142/142/142 143/143/143 140/140/140
f 144/144/144 145/145/145 146/146/146
f 146/146/146 147/147/147 144/144/144
f 148/148/148 149/149/149 150/150/150
f 150/150/150 151/151/151 148/148/148
f 152/152/152 153/153/153 154/154/154
f 154/154/154 155/155/155 152/152/152
f 156/156/156 157/157/157 158/158/158
f 158/158/158 159/159/159 156/156/156
f 160/160/160 161/161/161 162/162/162
f 162/162/162 163/163/163 160/160/160
f 164/164/164 165/165/165 166/166/166
f 166/166/166 167/167/167 164/164/164
f 168/168/168 169/169/169 170/170/170
f 170/170/170 171/171/171 168/168/168
f 172/172/172 173/173/173 174/174/174
f 174/174/174 175/175/175 172/172/172
f 176/176/176 177/177/177 178/178/178
f 178/178/178 179/179/179 176/176/176
f 180/180/180 181/181/181 182/182/182
f 182/182/182 183/183/183 180/180/180
f 184/184/184 185/185/185 186/186/186
f 186/186/186 187/187/187 184/184/184
o polygon2
g polygon2
usemtl h_kage
v -4.25 0.25 1.186279296875
v -3.975341796875 0.25 0.813720703125
v -4.25 0.25 -1.25
v -3.975341796875 0.25 -0.75
v 4.25 0.25 -1.25
v 4 0.25 -0.75
v 4.25 0.25 1.186279296875
v 4 0.25 0.813720703125
v -4.25 0.25 1.186279296875
v -3.975341796875 0.25 0.813720703125
v -3.975341796875 0.25 -0.75
v -3.975341796875 0.25 0.813720703125
v 4 0.25 0.813720703125
v 4 0.25 -0.75
vt 1 0.875
vt 1 0.125
vt 1 0.875
vt 1 0.125
vt 1 0.875
vt 1 0.125
vt 1 0.875
vt 1 0.125
vt 1 0.875
vt 1 0.125
vt 1 0.125
vt 1 0.125
vt 1 0.125
vt 1 0.125
vn 0 0.998046875 0
vn 0 0.998046875 0
vn 0 0.998046875 0
vn 0 0.998046875 0
vn 0 0.998046875 0
vn 0 0.998046875 0
vn 0 0.998046875 0
vn 0 0.998046875 0
vn 0 0.998046875 0
vn 0 0.998046875 0
vn 0 0.998046875 0
vn 0 0.998046875 0
vn 0 0.998046875 0
vn 0 0.998046875 0
f 188/188/188 189/189/189 190/190/190
f 189/189/189 191/191/191 190/190/190
f 190/190/190 191/191/191 192/192/192
f 191/191/191 193/193/193 192/192/192
f 192/192/192 193/193/193 194/194/194
f 193/193/193 195/195/195 194/194/194
f 194/194/194 195/195/195 196/196/196
f 195/195/195 197/197/197 196/196/196
f 198/198/198 199/199/199 200/200/200
f 200/200/200 201/201/201 198/198/198
o polygon3
g polygon3
usemtl yane
v 4.125 3.25 0.625
v 4.125 3.5 0.625
v 0 4.25 0.625
v 0 4.5 0.625
v -4.125 3.25 0.625
v -4.125 3.5 0.625
v 0 4.5 -1.875
v 0 4.5 0.625
v 4.125 3.5 0.625
v 4.125 3.5 -1.875
v -4.125 3.25 -1.875
v -4.125 3.25 0.625
v -4.125 3.5 0.625
v -4.125 3.5 -1.875
v 4.125 3.25 0.625
v 4.125 3.25 -1.875
v 4.125 3.5 -1.875
v 4.125 3.5 0.625
v -4.125 3.5 0.625
v 0 4.5 0.625
v 0 4.5 -1.875
v -4.125 3.5 -1.875
vt 0.23046875 -0.5
vt 0.23046875 -0.5
vt 0.23046875 -0.5
vt 0.23046875 -0.5
vt 0.23046875 -0.5
vt 0.23046875 -0.5
vt 0.5 -0.0048828125
vt 0.5 -0.9951171875
vt 1 -0.9951171875
vt 1 -0.0048828125
vt 0.23046875 -0.5
vt 0.23046875 -0.5
vt 0.23046875 -0.5
vt 0.23046875 -0.5
vt 0.23046875 -0.5
vt 0.23046875 -0.5
vt 0.23046875 -0.5
vt 0.23046875 -0.5
vt 0 -0.9951171875
vt 0.5 -0.9951171875
vt 0.5 -0.0048828125
vt 0 -0.0048828125
vn 0 0 0.998046875
vn 0 0 0.998046875
vn 0 0 0.998046875
vn 0 0 0.998046875
vn 0 0 0.998046875
vn 0 0 0.998046875
vn 0.228515625 0.97265625 0
vn 0.228515625 0.97265625 0
vn 0.228515625 0.97265625 0
vn 0.228515625 0.97265625 0
vn -1 0 0
vn -1 0 0
vn -1 0 0
vn -1 0 0
vn 0.998046875 0 0
vn 0.998046875 0 0
vn 0.998046875 0 0
vn 0.998046875 0 0
vn -0.236328125 0.97265625 0
vn -0.236328125 0.97265625 0
vn -0.236328125 0.97265625 0
vn -0.236328125 0.97265625 0
f 202/202/202 203/203/203 204/204/204
f 203/203/203 205/205/205 204/204/204
f 204/204/204 205/205/205 206/206/206
f 205/205/205 207/207/207 206/206/206
f 208/208/208 209/209/209 210/210/210
f 210/210/210 211/211/211 208/208/208
f 212/212/212 213/213/213 214/214/214
f 214/214/214 215/215/215 212/212/212
f 216/216/216 217/217/217 218/218/218
f 218/218/218 219/219/219 216/216/216
f 220/220/220 221/221/221 222/222/222
f 222/222/222 223/223/223 220/220/220
