# Created with Spiky's DS Map Editor 1.8.1.0
mtllib 039.mtl
o polygon0
g polygon0
usemtl wh1d
v 3.25 0.25 -1.75
v 3.23388671875 4 -1.742431640625
v 3.25 0.25 0
v 3.23388671875 4 -0.001220703125
v 3.25 0.25 1.75
v 3.23388671875 4 1.740234375
v -3.23388671875 4 -1.742431640625
v -3.25 0.25 -1.75
v -3.23388671875 4 -0.001220703125
v -3.25 0.25 0
v -3.23388671875 4 1.740234375
v -3.25 0.25 1.75
v 3.25 0.25 3.5
v 3.23388671875 4 3.4814453125
v 0.75 0.25 3.5
v 0.746337890625 4 3.4814453125
v -1.6875 0.25 3.5
v -1.67919921875 4 3.4814453125
v 3.25 0.25 -1.75
v 3.25 0.25 -3.5
v 3.23388671875 4 -3.483642578125
v 3.23388671875 4 -1.742431640625
v -3.23388671875 4 -1.742431640625
v -3.23388671875 4 -3.483642578125
v -3.25 0.25 -3.5
v -3.25 0.25 -1.75
v 3.25 0.25 3.5
v 3.25 0.25 1.75
v 3.23388671875 4 1.740234375
v 3.23388671875 4 3.4814453125
v -3.23388671875 4 3.4814453125
v -3.23388671875 4 1.740234375
v -3.25 0.25 1.75
v -3.25 0.25 3.5
v -2.798583984375 4 3.4814453125
v -3.23388671875 4 3.4814453125
v -3.25 0.25 3.5
v -2.8125 0.25 3.5
v -2.8125 0.25 3.5
v -1.6875 0.25 3.5
v -1.67919921875 4 3.4814453125
v -2.798583984375 4 3.4814453125
vt 1.609375 0.015625
vt 1.609375 0.984375
vt 1.890625 0.015625
vt 1.890625 0.984375
vt 1.609375 0.015625
vt 1.609375 0.984375
vt 1.609375 0.984375
vt 1.609375 0.015625
vt 1.890625 0.984375
vt 1.890625 0.015625
vt 1.609375 0.984375
vt 1.609375 0.015625
vt 1.984375 0.015625
vt 1.984375 0.984375
vt 1.328125 0.015625
vt 1.328125 0.984375
vt 1.921875 0.015625
vt 1.921875 0.984375
vt 1.671875 0.015625
vt 1.984375 0.015625
vt 1.984375 0.984375
vt 1.671875 0.984375
vt 1.671875 0.984375
vt 1.984375 0.984375
vt 1.984375 0.015625
vt 1.671875 0.015625
vt 1.984375 0.015625
vt 1.671875 0.015625
vt 1.671875 0.984375
vt 1.984375 0.984375
vt 1.984375 0.984375
vt 1.671875 0.984375
vt 1.671875 0.015625
vt 1.984375 0.015625
vt 1.859375 0.984375
vt 1.984375 0.984375
vt 1.984375 0.015625
vt 1.859375 0.015625
vt 1.015625 0.015625
vt 1.296875 0.015625
vt 1.296875 0.984375
vt 1.015625 0.984375
vn 0.998046875 0.00390625 0
vn 0.998046875 0.00390625 0
vn 0.998046875 0.00390625 0
vn 0.998046875 0.00390625 0
vn 0.998046875 0.00390625 0
vn 0.998046875 0.00390625 0
vn -1 0.00390625 0
vn -1 0.00390625 0
vn -1 0.00390625 0
vn -1 0.00390625 0
vn -1 0.00390625 0
vn -1 0.00390625 0
vn 0 0.005859375 0.998046875
vn 0 0.005859375 0.998046875
vn 0 0.005859375 0.998046875
vn 0 0.005859375 0.998046875
vn 0 0.005859375 0.998046875
vn 0 0.005859375 0.998046875
vn 0.998046875 0.00390625 0
vn 0.998046875 0.00390625 0
vn 0.998046875 0.00390625 0
vn 0.998046875 0.00390625 0
vn -1 0.00390625 0
vn -1 0.00390625 0
vn -1 0.00390625 0
vn -1 0.00390625 0
vn 0.998046875 0.00390625 0
vn 0.998046875 0.00390625 0
vn 0.998046875 0.00390625 0
vn 0.998046875 0.00390625 0
vn -1 0.00390625 0
vn -1 0.00390625 0
vn -1 0.00390625 0
vn -1 0.00390625 0
vn 0 0.005859375 0.998046875
vn 0 0.005859375 0.998046875
vn 0 0.005859375 0.998046875
vn 0 0.005859375 0.998046875
vn 0 0.005859375 0.998046875
vn 0 0.005859375 0.998046875
vn 0 0.005859375 0.998046875
vn 0 0.005859375 0.998046875
f 1/1/1 2/2/2 3/3/3
f 2/2/2 4/4/4 3/3/3
f 3/3/3 4/4/4 5/5/5
f 4/4/4 6/6/6 5/5/5
f 7/7/7 8/8/8 9/9/9
f 8/8/8 10/10/10 9/9/9
f 9/9/9 10/10/10 11/11/11
f 10/10/10 12/12/12 11/11/11
f 13/13/13 14/14/14 15/15/15
f 14/14/14 16/16/16 15/15/15
f 15/15/15 16/16/16 17/17/17
f 16/16/16 18/18/18 17/17/17
f 19/19/19 20/20/20 21/21/21
f 21/21/21 22/22/22 19/19/19
f 23/23/23 24/24/24 25/25/25
f 25/25/25 26/26/26 23/23/23
f 27/27/27 28/28/28 29/29/29
f 29/29/29 30/30/30 27/27/27
f 31/31/31 32/32/32 33/33/33
f 33/33/33 34/34/34 31/31/31
f 35/35/35 36/36/36 37/37/37
f 37/37/37 38/38/38 35/35/35
f 39/39/39 40/40/40 41/41/41
f 41/41/41 42/42/42 39/39/39
o polygon1
g polygon1
usemtl s
v -2.83984375 0.125 3.076416015625
v -3.5 0.125 3.75
v 2.83984375 0.125 3.076416015625
v 3.5 0.125 3.75
v 2.83984375 0.125 -3.076416015625
v 3.5 0.125 -3.75
v -2.83984375 0.125 -3.076416015625
v -3.5 0.125 -3.75
v -2.83984375 0.125 3.076416015625
v -3.5 0.125 3.75
vt 0.5 -0.875
vt 0.5 -0.125
vt 0.5 -0.875
vt 0.5 -0.125
vt 0.5 -0.875
vt 0.5 -0.125
vt 0.5 -0.875
vt 0.5 -0.125
vt 0.5 -0.875
vt 0.5 -0.125
vn 0 0.998046875 0
vn 0 0.998046875 0
vn 0 0.998046875 0
vn 0 0.998046875 0
vn 0 0.998046875 0
vn 0 0.998046875 0
vn 0 0.998046875 0
vn 0 0.998046875 0
vn 0 0.998046875 0
vn 0 0.998046875 0
f 43/43/43 44/44/44 45/45/45
f 44/44/44 46/46/46 45/45/45
f 45/45/45 46/46/46 47/47/47
f 46/46/46 48/48/48 47/47/47
f 47/47/47 48/48/48 49/49/49
f 48/48/48 50/50/50 49/49/49
f 49/49/49 50/50/50 51/51/51
f 50/50/50 52/52/52 51/51/51
o polygon2
g polygon2
usemtl wh1a
v 1.756591796875 4.649169921875 3.509765625
v 0.25 4.890625 3.509765625
v 0 4 3.509765625
v -0.25 4.890625 3.509765625
v -1.756591796875 4.649169921875 3.509765625
v 3.263427734375 4.25 3.509765625
v 1.756591796875 4.649169921875 3.509765625
v 0 4 3.509765625
v 3.263427734375 4 3.509765625
v 0 4 3.509765625
v -1.756591796875 4.649169921875 3.509765625
v -3.263427734375 4.25 3.509765625
v -3.263427734375 4 3.509765625
v 0.25 4.890625 -3.53564453125
v 0.25 4.890625 3.509765625
v 1.756591796875 4.649169921875 3.509765625
v 1.756591796875 4.649169921875 -3.53564453125
v 1.756591796875 4.649169921875 3.509765625
v 3.263427734375 4.25 3.509765625
v 3.263427734375 4.25 -3.53564453125
v 1.756591796875 4.649169921875 -3.53564453125
v -3.263427734375 4.25 -3.53564453125
v -3.263427734375 4.25 3.509765625
v -1.756591796875 4.649169921875 3.509765625
v -1.756591796875 4.649169921875 -3.53564453125
v -1.756591796875 4.649169921875 3.509765625
v -0.25 4.890625 3.509765625
v -0.25 4.890625 -3.53564453125
v -1.756591796875 4.649169921875 -3.53564453125
v -0.25 4.890625 3.509765625
v 0.25 4.890625 3.509765625
v 0.25 4.890625 -3.53564453125
v -0.25 4.890625 -3.53564453125
v 3.263427734375 4 3.509765625
v 3.263427734375 4 -3.53564453125
v 3.263427734375 4.25 -3.53564453125
v 3.263427734375 4.25 3.509765625
v -3.263427734375 4.25 3.509765625
v -3.263427734375 4.25 -3.53564453125
v -3.263427734375 4 -3.53564453125
v -3.263427734375 4 3.509765625
vt 0.01953125 -0.01953125
vt 0.01953125 -0.01953125
vt 0.01953125 -0.9375
vt 0.01953125 -0.01953125
vt 0.01953125 -0.01953125
vt 0.01953125 -0.01953125
vt 0.01953125 -0.01953125
vt 0.01953125 -0.9375
vt 0.01953125 -0.2421875
vt 0.01953125 -0.9375
vt 0.01953125 -0.01953125
vt 0.01953125 -0.01953125
vt 0.01953125 -0.2421875
vt 0.837890625 -0.3515625
vt 0.83984375 -9.61328125
vt 0.439453125 -9.61328125
vt 0.439453125 -0.3515625
vt 0.439453125 -9.61328125
vt 0.0390625 -9.6171875
vt 0.0390625 -0.3515625
vt 0.439453125 -0.3515625
vt 0.0390625 -0.3515625
vt 0.0390625 -9.6171875
vt 0.439453125 -9.61328125
vt 0.439453125 -0.3515625
vt 0.439453125 -9.61328125
vt 0.83984375 -9.61328125
vt 0.837890625 -0.3515625
vt 0.439453125 -0.3515625
vt 0.849609375 -4.4921875
vt 0.994140625 -4.4921875
vt 0.99609375 0.515625
vt 0.84765625 0.515625
vt 0.01953125 -0.2421875
vt 0.01953125 -0.2421875
vt 0.01953125 -0.01953125
vt 0.01953125 -0.01953125
vt 0.01953125 -0.01953125
vt 0.01953125 -0.01953125
vt 0.01953125 -0.2421875
vt 0.01953125 -0.2421875
vn 0 0.005859375 0.998046875
vn 0 0.005859375 0.998046875
vn 0 0.005859375 0.998046875
vn 0 0.005859375 0.998046875
vn 0 0.005859375 0.998046875
vn 0 0.005859375 0.998046875
vn 0 0.005859375 0.998046875
vn 0 0.005859375 0.998046875
vn 0 0.005859375 0.998046875
vn 0 0.005859375 0.998046875
vn 0 0.005859375 0.998046875
vn 0 0.005859375 0.998046875
vn 0 0.005859375 0.998046875
vn 0.158203125 0.98828125 0
vn 0.158203125 0.98828125 0
vn 0.158203125 0.98828125 0
vn 0.158203125 0.98828125 0
vn 0.255859375 0.966796875 0
vn 0.255859375 0.966796875 0
vn 0.255859375 0.966796875 0
vn 0.255859375 0.966796875 0
vn -0.255859375 0.966796875 0
vn -0.255859375 0.966796875 0
vn -0.255859375 0.966796875 0
vn -0.255859375 0.966796875 0
vn -0.158203125 0.98828125 0
vn -0.158203125 0.98828125 0
vn -0.158203125 0.98828125 0
vn -0.158203125 0.98828125 0
vn 0 0.998046875 0
vn 0 0.998046875 0
vn 0 0.998046875 0
vn 0 0.998046875 0
vn 0.998046875 0.00390625 0
vn 0.998046875 0.00390625 0
vn 0.998046875 0.00390625 0
vn 0.998046875 0.00390625 0
vn -1 0.00390625 0
vn -1 0.00390625 0
vn -1 0.00390625 0
vn -1 0.00390625 0
f 53/53/53 54/54/54 55/55/55
f 54/54/54 56/56/56 55/55/55
f 55/55/55 56/56/56 57/57/57
f 58/58/58 59/59/59 60/60/60
f 60/60/60 61/61/61 58/58/58
f 62/62/62 63/63/63 64/64/64
f 64/64/64 65/65/65 62/62/62
f 66/66/66 67/67/67 68/68/68
f 68/68/68 69/69/69 66/66/66
f 70/70/70 71/71/71 72/72/72
f 72/72/72 73/73/73 70/70/70
f 74/74/74 75/75/75 76/76/76
f 76/76/76 77/77/77 74/74/74
f 78/78/78 79/79/79 80/80/80
f 80/80/80 81/81/81 78/78/78
f 82/82/82 83/83/83 84/84/84
f 84/84/84 85/85/85 82/82/82
f 86/86/86 87/87/87 88/88/88
f 88/88/88 89/89/89 86/86/86
f 90/90/90 91/91/91 92/92/92
f 92/92/92 93/93/93 90/90/90
