# Created with Spiky's DS Map Editor 1.8.1.0
mtllib 063.mtl
o polygon0
g polygon0
usemtl c7h2_2
v -2.25 4.5 -0.125
v -2.25 3.5 1.3125
v -1.5 3.6875 1.0625
v -1.5 3.5 1.3125
v 0.9375 4.5 -0.125
v 0.432373046875 3.6875 1.0625
v 0.9375 3.5 1.3125
v 0.4375 3.5 1.3125
v -0.375 4.1875 0.3125
v -0.375 4.1875 2.125
v 0.6875 3.6875 2.125
v 0.6875 3.6875 0.3125
v -0.375 4.1875 2.125
v -0.375 3.875 2.125
v 0.6875 3.375 2.125
v 0.6875 3.6875 2.125
v -0.625 4.1875 0.3125
v -0.625 4.1875 2.125
v -0.375 4.1875 2.125
v -0.375 4.1875 0.3125
v -0.625 4.1875 2.125
v -0.625 3.875 2.125
v -0.375 3.875 2.125
v -0.375 4.1875 2.125
v -1.6875 3.375 0.3125
v -1.6875 3.375 2.125
v -1.6875 3.6875 2.125
v -1.6875 3.6875 0.3125
v 0.6875 3.375 2.125
v 0.6875 3.375 0.3125
v 0.6875 3.6875 0.3125
v 0.6875 3.6875 2.125
v -1.6875 3.6875 2.125
v -0.625 4.1875 2.125
v -0.625 4.1875 0.3125
v -1.6875 3.6875 0.3125
v -1.6875 3.375 2.125
v -0.625 3.875 2.125
v -0.625 4.1875 2.125
v -1.6875 3.6875 2.125
v 0.9375 3.125 1.75
v 0.9375 3.5 1.75
v 0.4375 3.5 1.75
v 0.4375 3.125 1.75
v 2.25 3.5 1.75
v 0.9375 3.5 1.75
v 0.9375 3.125 1.75
v 2.25 3.125 1.75
v -2.25 3.5 1.75
v -2.25 3.125 1.75
v -1.5 3.125 1.75
v -1.5 3.5 1.75
v -2.25 4.5 -0.125
v 0.9375 4.5 -0.125
v 2.25 4.5 -1
v -2.25 4.5 -1
v 0.9375 3.5 1.3125
v 0.4375 3.5 1.3125
v 0.4375 3.5 1.75
v 0.9375 3.5 1.75
v -2.25 3.5 1.75
v -1.5 3.5 1.75
v -1.5 3.5 1.3125
v -2.25 3.5 1.3125
v -1.5 3.6875 1.0625
v 0.432373046875 3.6875 1.0625
v 0.9375 4.5 -0.125
v -2.25 4.5 -0.125
v -2.25 4.5 -1
v 2.25 4.5 -1
v 2.25 3.375 -2.5
v -2.25 3.375 -2.5
v -2.25 3.375 -2.5
v -2.25 3 -2.375
v -2.25 4.125 -0.875
v -2.25 4.5 -1
v -2.25 3.125 1.3125
v -2.25 3.5 1.3125
v -2.25 4.5 -0.125
v -2.25 4.125 -0.125
v 2.25 3.5 1.3125
v 0.9375 3.5 1.3125
v 0.9375 3.5 1.75
v 2.25 3.5 1.75
v 2.25 3.5 1.3125
v 2.25 3.125 1.3125
v 2.25 4.125 -0.125
v 2.25 4.5 -0.125
v 2.25 4.125 -0.875
v 2.25 3 -2.375
v 2.25 3.375 -2.5
v 2.25 4.5 -1
v -2.25 4.125 -0.125
v -2.25 4.5 -0.125
v -2.25 4.5 -1
v -2.25 4.125 -0.875
v 2.25 4.5 -0.125
v 2.25 4.125 -0.125
v 2.25 4.125 -0.875
v 2.25 4.5 -1
v -2.25 3.125 1.75
v -2.25 3.5 1.75
v -2.25 3.5 1.3125
v -2.25 3.125 1.3125
v 2.25 4.5 -0.125
v 0.9375 4.5 -0.125
v 0.9375 3.5 1.3125
v 2.25 3.5 1.3125
v 2.25 3.5 1.75
v 2.25 3.125 1.75
v 2.25 3.125 1.3125
v 2.25 3.5 1.3125
v 2.25 4.5 -1
v 0.9375 4.5 -0.125
v 2.25 4.5 -0.125
vt -4 0
vt -4 -0.8994140625
vt -3.625 -0.75
vt -3.625 -0.8994140625
vt -2.2705078125 0
vt -2.625 -0.75
vt -2.2705078125 -0.8994140625
vt -2.625 -0.8994140625
vt 0 0
vt 1 0
vt 1 -0.55078125
vt 0 -0.55078125
vt 0 -0.9375
vt 0 -1
vt 0.765625 -1
vt 0.765625 -0.9375
vt 0.2021484375 -0.078125
vt 0.2021484375 -0.078125
vt 0.2021484375 -0.078125
vt 0.3681640625 -0.1435546875
vt 0.498046875 -0.9375
vt 0.498046875 -1
vt 0.5146484375 -1
vt 0.5146484375 -0.9375
vt -1.681640625 -1
vt -1.587890625 -1
vt -1.587890625 -0.90625
vt -1.681640625 -0.90625
vt -1.681640625 -1
vt -1.587890625 -1
vt -1.587890625 -0.90625
vt -1.681640625 -0.90625
vt 1 -0.55078125
vt 1 0
vt 0 0
vt 0 -0.55078125
vt 0.765625 -1
vt 0 -1
vt 0 -0.9375
vt 0.765625 -0.9375
vt -1.5703125 -1
vt -1.5703125 -0.90625
vt -1.4921875 -0.90625
vt -1.4921875 -1
vt 0.5634765625 -0.90625
vt 0.5546875 -0.90625
vt 0.5546875 -1
vt 0.5634765625 -1
vt 0.5546875 -0.90625
vt 0.5546875 -1
vt 0.5634765625 -1
vt 0.5634765625 -0.90625
vt 0.2021484375 -0.078125
vt 0.2021484375 -0.078125
vt 0.2021484375 -0.078125
vt 0.2021484375 -0.078125
vt 0.2021484375 -0.078125
vt 0.2021484375 -0.078125
vt 0.2021484375 -0.078125
vt 0.2021484375 -0.078125
vt 0.2021484375 -0.078125
vt 0.2021484375 -0.078125
vt 0.2021484375 -0.078125
vt 0.2021484375 -0.078125
vt -3.625 -0.75
vt -2.625 -0.75
vt -2.2705078125 0
vt -4 0
vt 0 0
vt 2.5 0
vt 2.5 -0.8994140625
vt 0 -0.8994140625
vt 0 -0.90625
vt 0 -1
vt 1.5 -1
vt 1.5 -0.90625
vt 0 -1
vt 0 -0.90625
vt 1.5 -0.90625
vt 1.5 -1
vt 0.2021484375 -0.078125
vt 0.2021484375 -0.078125
vt 0.2021484375 -0.078125
vt 0.2021484375 -0.078125
vt 0 -0.90625
vt 0 -1
vt 1.5 -1
vt 1.5 -0.90625
vt 0 -0.9921875
vt 1.5 -0.9921875
vt 1.5 -0.9140625
vt 0 -0.9140625
vt -1.6552734375 -1
vt -1.6552734375 -0.90625
vt -1.5771484375 -0.90625
vt -1.5771484375 -1
vt -1.4072265625 -0.90625
vt -1.4072265625 -1
vt -1.3291015625 -1
vt -1.3291015625 -0.90625
vt -1.6552734375 -1
vt -1.6552734375 -0.90625
vt -1.5771484375 -0.90625
vt -1.5771484375 -1
vt -1.625 0
vt -2.2705078125 0
vt -2.2705078125 -0.8994140625
vt -1.625 -0.8994140625
vt -1.6552734375 -0.90625
vt -1.6552734375 -1
vt -1.5771484375 -1
vt -1.5771484375 -0.90625
vt 0.2021484375 -0.078125
vt 0.2021484375 -0.078125
vt 0.2021484375 -0.078125
vn 0 0.783203125 0.62109375
vn 0.005859375 0.892578125 0.451171875
vn 0 0.783203125 0.62109375
vn 0 0.955078125 0.298828125
vn 0.01171875 0.8203125 0.5703125
vn 0 0.783203125 0.62109375
vn 0.005859375 0.892578125 0.451171875
vn 0 0.783203125 0.62109375
vn 0.21875 0.9765625 0
vn 0.21875 0.9765625 0
vn 0.42578125 0.904296875 0
vn 0.42578125 0.904296875 0
vn 0 0 0.998046875
vn 0 0 0.998046875
vn 0 0 0.998046875
vn 0 0 0.998046875
vn -0.21875 0.9765625 0
vn -0.21875 0.9765625 0
vn 0.21875 0.9765625 0
vn 0.21875 0.9765625 0
vn 0 0 0.998046875
vn 0 0 0.998046875
vn 0 0 0.998046875
vn 0 0 0.998046875
vn -1 0 0
vn -1 0 0
vn -1 0 0
vn -1 0 0
vn 0.998046875 0 0
vn 0.998046875 0 0
vn 0.998046875 0 0
vn 0.998046875 0 0
vn -0.42578125 0.904296875 0
vn -0.21875 0.9765625 0
vn -0.21875 0.9765625 0
vn -0.42578125 0.904296875 0
vn 0 0 0.998046875
vn 0 0 0.998046875
vn 0 0 0.998046875
vn 0 0 0.998046875
vn 0 0 0.998046875
vn 0 0 0.998046875
vn 0 0 0.998046875
vn 0 0 0.998046875
vn 0 0 0.998046875
vn 0 0 0.998046875
vn 0 0 0.998046875
vn 0 0 0.998046875
vn 0 0 0.998046875
vn 0 0 0.998046875
vn 0 0 0.998046875
vn 0 0 0.998046875
vn 0 0.998046875 0
vn 0 0.998046875 0
vn 0 0.998046875 0
vn 0 0.998046875 0
vn 0 0.998046875 0
vn 0 0.998046875 0
vn 0 0.998046875 0
vn 0 0.998046875 0
vn 0 0.783203125 0.62109375
vn 0 0.998046875 0
vn 0 0.955078125 0.298828125
vn 0.005859375 0.892578125 0.451171875
vn 0.01171875 0.8203125 0.5703125
vn 0.01171875 0.8203125 0.5703125
vn 0.01171875 0.8203125 0.5703125
vn 0 0.783203125 0.62109375
vn 0 0.783203125 -0.62109375
vn 0 0.783203125 -0.62109375
vn 0 0.783203125 -0.62109375
vn 0 0.783203125 -0.62109375
vn -1 0 0
vn -1 0 0
vn -1 0 0
vn -1 0 0
vn -1 0 0
vn -1 0 0
vn -1 0 0
vn -1 0 0
vn 0 0.955078125 0.298828125
vn 0.005859375 0.892578125 0.451171875
vn 0 0.998046875 0
vn 0 0.783203125 0.62109375
vn 0.998046875 0 0
vn 0.998046875 0 0
vn 0.998046875 0 0
vn 0.998046875 0 0
vn 0 0.998046875 0
vn 0.998046875 0 0
vn 0.998046875 0 0
vn 0 0.998046875 0
vn -1 0 0
vn -1 0 0
vn -1 0 0
vn -1 0 0
vn 0.998046875 0 0
vn 0.998046875 0 0
vn 0.998046875 0 0
vn 0.998046875 0 0
vn -1 0 0
vn -1 0 0
vn -1 0 0
vn -1 0 0
vn 0 0.783203125 0.62109375
vn 0.01171875 0.8203125 0.5703125
vn 0.005859375 0.892578125 0.451171875
vn 0 0.955078125 0.298828125
vn 0.998046875 0 0
vn 0.998046875 0 0
vn 0.998046875 0 0
vn 0.998046875 0 0
vn 0 0.998046875 0
vn 0 0.998046875 0
vn 0 0.998046875 0
f 1/1/1 2/2/2 3/3/3
f 2/2/2 4/4/4 3/3/3
f 5/5/5 6/6/6 7/7/7
f 6/6/6 8/8/8 7/7/7
f 9/9/9 10/10/10 11/11/11
f 11/11/11 12/12/12 9/9/9
f 13/13/13 14/14/14 15/15/15
f 15/15/15 16/16/16 13/13/13
f 17/17/17 18/18/18 19/19/19
f 19/19/19 20/20/20 17/17/17
f 21/21/21 22/22/22 23/23/23
f 23/23/23 24/24/24 21/21/21
f 25/25/25 26/26/26 27/27/27
f 27/27/27 28/28/28 25/25/25
f 29/29/29 30/30/30 31/31/31
f 31/31/31 32/32/32 29/29/29
f 33/33/33 34/34/34 35/35/35
f 35/35/35 36/36/36 33/33/33
f 37/37/37 38/38/38 39/39/39
f 39/39/39 40/40/40 37/37/37
f 41/41/41 42/42/42 43/43/43
f 43/43/43 44/44/44 41/41/41
f 45/45/45 46/46/46 47/47/47
f 47/47/47 48/48/48 45/45/45
f 49/49/49 50/50/50 51/51/51
f 51/51/51 52/52/52 49/49/49
f 53/53/53 54/54/54 55/55/55
f 55/55/55 56/56/56 53/53/53
f 57/57/57 58/58/58 59/59/59
f 59/59/59 60/60/60 57/57/57
f 61/61/61 62/62/62 63/63/63
f 63/63/63 64/64/64 61/61/61
f 65/65/65 66/66/66 67/67/67
f 67/67/67 68/68/68 65/65/65
f 69/69/69 70/70/70 71/71/71
f 71/71/71 72/72/72 69/69/69
f 73/73/73 74/74/74 75/75/75
f 75/75/75 76/76/76 73/73/73
f 77/77/77 78/78/78 79/79/79
f 79/79/79 80/80/80 77/77/77
f 81/81/81 82/82/82 83/83/83
f 83/83/83 84/84/84 81/81/81
f 85/85/85 86/86/86 87/87/87
f 87/87/87 88/88/88 85/85/85
f 89/89/89 90/90/90 91/91/91
f 91/91/91 92/92/92 89/89/89
f 93/93/93 94/94/94 95/95/95
f 95/95/95 96/96/96 93/93/93
f 97/97/97 98/98/98 99/99/99
f 99/99/99 100/100/100 97/97/97
f 101/101/101 102/102/102 103/103/103
f 103/103/103 104/104/104 101/101/101
f 105/105/105 106/106/106 107/107/107
f 107/107/107 108/108/108 105/105/105
f 109/109/109 110/110/110 111/111/111
f 111/111/111 112/112/112 109/109/109
f 113/113/113 114/114/114 115/115/115
o polygon1
g polygon1
usemtl h_mado
v -1.125 2.125 1.875
v 0.125 2.125 1.875
v 0.125 3.5 1.875
v -1.125 3.5 1.875
v -1.875 0.875 0.3125
v -1.875 2.25 0.3125
v -1.875 2.25 -1.1875
v -1.875 0.875 -1.1875
v 1.875 0.875 0.1875
v 1.875 0.875 -1.3125
v 1.875 2.25 -1.3125
v 1.875 2.25 0.1875
vt 0 -1
vt 1 -1
vt 1 0
vt 0 0
vt 1 -1
vt 1 0
vt 2 0
vt 2 -1
vt 1 -1
vt 2 -1
vt 2 0
vt 1 0
vn 0 0 0.998046875
vn 0 0 0.998046875
vn 0 0 0.998046875
vn 0 0 0.998046875
vn 0 0 0.998046875
vn 0 0 0.998046875
vn 0 0 0.998046875
vn 0 0 0.998046875
vn 0 0 0.998046875
vn 0 0 0.998046875
vn 0 0 0.998046875
vn 0 0 0.998046875
f 116/116/116 117/117/117 118/118/118
f 118/118/118 119/119/119 116/116/116
f 120/120/120 121/121/121 122/122/122
f 122/122/122 123/123/123 120/120/120
f 124/124/124 125/125/125 126/126/126
f 126/126/126 127/127/127 124/124/124
o polygon2
g polygon2
usemtl c7h2_1
v -1.0625 2.125 2
v -1.0625 0.25 2
v -1.0625 0.25 1.5
v -1.0625 2.125 1.501953125
v 0.0625 0.25 2
v 0.0625 2.125 2
v 0.0625 2.125 1.5
v 0.0625 0.25 1.5
v -1.0625 0.25 2
v -1.0625 2.125 2
v -1.5 2.125 2
v -1.5 0.25 2
v 0.5 3.5 1
v 0.5 3.6875 2
v 0.5 2.125 2
v 0.5 2.125 1
v -1.5 2.125 2
v -1.5 3.6875 2
v -1.5 3.5 1
v -1.5 2.125 1
v -1.5 2.125 1
v -1.5 0.25 1
v -1.5 0.25 2
v -1.5 2.125 2
v 0.5 0.25 1
v 0.5 2.125 1
v 0.5 2.125 2
v 0.5 0.25 2
v 0.5 0.25 2
v 0.5 2.125 2
v 0.0625 2.125 2
v 0.0625 0.25 2
v -2 2.125 1
v -2 2.125 0
v -2 0.25 0
v -2 0.25 1
v -2 3 0
v -2 3 -1
v -2 2.125 -1
v -2 2.125 0
v -2 2.125 0
v -2 2.125 -1
v -2 0.25 -1
v -2 0.25 0
v -2 3 0
v -2 2.125 1
v -2 3.5 1
v -2 4.125 0
v -2 3 0
v -2 4.125 0
v -2 4.125 -1
v -2 3 -1
v 2 3 0
v 2 4.125 0
v 2 3.5 1
v 2 2.125 1
v 2 2.125 -2
v 2 2.125 -1
v 2 0.25 -1
v 2 0.25 -2
v 2 2.125 -1
v 2 3 -1
v 2 3 0
v 2 2.125 0
v 2 2.125 -1
v 2 2.125 0
v 2 0.25 0
v 2 0.25 -1
v 2 3.25 -2
v 2 4.125 -1
v 2 3 -1
v 2 2.125 -2
v 2 4.125 -1
v 2 4.125 0
v 2 3 0
v 2 3 -1
v -2 3.25 -2
v -2 2.125 -2
v -2 3 -1
v -2 4.125 -1
v 0.5 3.5 1
v 0.5 2.125 1
v 2 2.125 1
v 2 3.5 1
v 2 2.125 1
v 0.5 2.125 1
v 0.5 0.25 1
v 2 0.25 1
v -2 2.125 1
v -1.5 2.125 1
v -1.5 3.5 1
v -2 3.5 1
v -2 2.125 -1
v -2 2.125 -2
v -2 0.25 -2
v -2 0.25 -1
v 2 2.125 0
v 2 2.125 1
v 2 0.25 1
v 2 0.25 0
v -2 0.25 1
v -1.5 0.25 1
v -1.5 2.125 1
v -2 2.125 1
v -2 3 0
v -2 2.125 0
v -2 2.125 1
v -2 2.125 -1
v -2 3 -1
v -2 2.125 -2
v 2 2.125 -2
v 2 3 -1
v 2 2.125 -1
v 2 3 0
v 2 2.125 1
v 2 2.125 0
vt -2.470703125 -0.2548828125
vt -2.470703125 -0.49462890625
vt -2.318359375 -0.49462890625
vt -2.318359375 -0.2548828125
vt -2.470703125 -0.49462890625
vt -2.470703125 -0.2548828125
vt -2.318359375 -0.2548828125
vt -2.318359375 -0.49462890625
vt 0.79296875 -0.2421875
vt 0.79296875 0
vt 1 0
vt 1 -0.2421875
vt 3.015625 -0.46875
vt 3.015625 -0.43994140625
vt 3.015625 -0.638671875
vt 3.015625 -0.638671875
vt 3.015625 -0.638671875
vt 3.015625 -0.43994140625
vt 3.015625 -0.46875
vt 3.015625 -0.638671875
vt -2.470703125 -0.2548828125
vt -2.470703125 -0.49462890625
vt -2.013671875 -0.49462890625
vt -2.013671875 -0.2548828125
vt -2.470703125 -0.49462890625
vt -2.470703125 -0.2548828125
vt -2.013671875 -0.2548828125
vt -2.013671875 -0.49462890625
vt 0 -0.2421875
vt 0 0
vt 0.205078125 0
vt 0.205078125 -0.2421875
vt -4.48828125 -0.255859375
vt -4.009765625 -0.255859375
vt -4.009765625 -0.49560546875
vt -4.48828125 -0.49560546875
vt -1.0625 -0.26904296875
vt -1.09375 -0.26904296875
vt -1.1015625 -0.25927734375
vt -1.060546875 -0.25927734375
vt -3.5078125 -0.255859375
vt -3.931640625 -0.255859375
vt -3.931640625 -0.49560546875
vt -3.5078125 -0.49560546875
vt -1.978515625 -0.3671875
vt -1.99609375 -0.3671875
vt -1.99609375 -0.5
vt -1.978515625 -0.5
vt -1.994140625 -0.3671875
vt -1.994140625 -0.5
vt -1.994140625 -0.5
vt -1.994140625 -0.3671875
vt -1.984375 -0.3671875
vt -1.984375 -0.5
vt -1.984375 -0.5
vt -1.984375 -0.3671875
vt -3 -0.255859375
vt -3.478515625 -0.255859375
vt -3.478515625 -0.49560546875
vt -3 -0.49560546875
vt -1.0625 -0.25927734375
vt -1.06640625 -0.26904296875
vt -1.099609375 -0.26904296875
vt -1.1015625 -0.25927734375
vt -3.5078125 -0.255859375
vt -3.931640625 -0.255859375
vt -3.931640625 -0.49560546875
vt -3.5078125 -0.49560546875
vt -1.994140625 -0.5
vt -1.9765625 -0.5
vt -1.9765625 -0.3671875
vt -1.994140625 -0.3671875
vt -1.994140625 -0.5
vt -1.994140625 -0.5
vt -1.994140625 -0.3671875
vt -1.994140625 -0.3671875
vt -1.986328125 -0.4970703125
vt -1.986328125 -0.3681640625
vt -1.97265625 -0.3681640625
vt -1.97265625 -0.4970703125
vt -1.96484375 -0.25
vt -1.96484375 -0.4375
vt -1.943359375 -0.4375
vt -1.943359375 -0.25
vt -2 -0.00341796875
vt -2.625 -0.00341796875
vt -2.625 -0.2431640625
vt -2 -0.2431640625
vt -1.94140625 -0.4375
vt -1.958984375 -0.4375
vt -1.958984375 -0.25
vt -1.94140625 -0.25
vt -4.48828125 -0.255859375
vt -4.009765625 -0.255859375
vt -4.009765625 -0.49560546875
vt -4.48828125 -0.49560546875
vt -4.01171875 -0.255859375
vt -4.494140625 -0.255859375
vt -4.494140625 -0.49560546875
vt -4.01171875 -0.49560546875
vt -2.625 -0.2431640625
vt -2 -0.2431640625
vt -2 -0.00341796875
vt -2.625 -0.00341796875
vt -1.0625 -0.26904296875
vt -1.060546875 -0.25927734375
vt -1.025390625 -0.25927734375
vt -1.0625 -0.26904296875
vt -1.060546875 -0.25927734375
vt -1.025390625 -0.25927734375
vt -1.025390625 -0.26123046875
vt -1.06640625 -0.26904296875
vt -1.0625 -0.25927734375
vt -1.025390625 -0.26123046875
vt -1.06640625 -0.26904296875
vt -1.0625 -0.25927734375
vn 0.998046875 0 0
vn 0.998046875 0 0
vn 0.998046875 0 0
vn 0.998046875 0 0
vn -1 0 0
vn -1 0 0
vn -1 0 0
vn -1 0 0
vn 0 0 0.998046875
vn 0 0 0.998046875
vn 0 0 0.998046875
vn 0 0 0.998046875
vn 0.998046875 0 0
vn 0.998046875 0 0
vn 0.998046875 0 0
vn 0.998046875 0 0
vn -1 0 0
vn -1 0 0
vn -1 0 0
vn -1 0 0
vn -1 0 0
vn -1 0 0
vn -1 0 0
vn -1 0 0
vn 0.998046875 0 0
vn 0.998046875 0 0
vn 0.998046875 0 0
vn 0.998046875 0 0
vn 0 0 0.998046875
vn 0 0 0.998046875
vn 0 0 0.998046875
vn 0 0 0.998046875
vn -1 0 0
vn -1 0 0
vn -1 0 0
vn -1 0 0
vn -1 0 0
vn -1 0 0
vn -1 0 0
vn -1 0 0
vn -1 0 0
vn -1 0 0
vn -1 0 0
vn -1 0 0
vn -1 0 0
vn -1 0 0
vn -1 0 0
vn -1 0 0
vn -1 0 0
vn -1 0 0
vn -1 0 0
vn -1 0 0
vn 0.998046875 0 0
vn 0.998046875 0 0
vn 0.998046875 0 0
vn 0.998046875 0 0
vn 0.998046875 0 0
vn 0.998046875 0 0
vn 0.998046875 0 0
vn 0.998046875 0 0
vn 0.998046875 0 0
vn 0.998046875 0 0
vn 0.998046875 0 0
vn 0.998046875 0 0
vn 0.998046875 0 0
vn 0.998046875 0 0
vn 0.998046875 0 0
vn 0.998046875 0 0
vn 0.998046875 0 0
vn 0.998046875 0 0
vn 0.998046875 0 0
vn 0.998046875 0 0
vn 0.998046875 0 0
vn 0.998046875 0 0
vn 0.998046875 0 0
vn 0.998046875 0 0
vn -1 0 0
vn -1 0 0
vn -1 0 0
vn -1 0 0
vn 0 0 0.998046875
vn 0 0 0.998046875
vn 0 0 0.998046875
vn 0 0 0.998046875
vn 0 0 0.998046875
vn 0 0 0.998046875
vn 0 0 0.998046875
vn 0 0 0.998046875
vn 0 0 0.998046875
vn 0 0 0.998046875
vn 0 0 0.998046875
vn 0 0 0.998046875
vn -1 0 0
vn -1 0 0
vn -1 0 0
vn -1 0 0
vn 0.998046875 0 0
vn 0.998046875 0 0
vn 0.998046875 0 0
vn 0.998046875 0 0
vn 0 0 0.998046875
vn 0 0 0.998046875
vn 0 0 0.998046875
vn 0 0 0.998046875
vn -1 0 0
vn -1 0 0
vn -1 0 0
vn -1 0 0
vn -1 0 0
vn -1 0 0
vn 0.998046875 0 0
vn 0.998046875 0 0
vn 0.998046875 0 0
vn 0.998046875 0 0
vn 0.998046875 0 0
vn 0.998046875 0 0
f 128/128/128 129/129/129 130/130/130
f 130/130/130 131/131/131 128/128/128
f 132/132/132 133/133/133 134/134/134
f 134/134/134 135/135/135 132/132/132
f 136/136/136 137/137/137 138/138/138
f 138/138/138 139/139/139 136/136/136
f 140/140/140 141/141/141 142/142/142
f 142/142/142 143/143/143 140/140/140
f 144/144/144 145/145/145 146/146/146
f 146/146/146 147/147/147 144/144/144
f 148/148/148 149/149/149 150/150/150
f 150/150/150 151/151/151 148/148/148
f 152/152/152 153/153/153 154/154/154
f 154/154/154 155/155/155 152/152/152
f 156/156/156 157/157/157 158/158/158
f 158/158/158 159/159/159 156/156/156
f 160/160/160 161/161/161 162/162/162
f 162/162/162 163/163/163 160/160/160
f 164/164/164 165/165/165 166/166/166
f 166/166/166 167/167/167 164/164/164
f 168/168/168 169/169/169 170/170/170
f 170/170/170 171/171/171 168/168/168
f 172/172/172 173/173/173 174/174/174
f 174/174/174 175/175/175 172/172/172
f 176/176/176 177/177/177 178/178/178
f 178/178/178 179/179/179 176/176/176
f 180/180/180 181/181/181 182/182/182
f 182/182/182 183/183/183 180/180/180
f 184/184/184 185/185/185 186/186/186
f 186/186/186 187/187/187 184/184/184
f 188/188/188 189/189/189 190/190/190
f 190/190/190 191/191/191 188/188/188
f 192/192/192 193/193/193 194/194/194
f 194/194/194 195/195/195 192/192/192
f 196/196/196 197/197/197 198/198/198
f 198/198/198 199/199/199 196/196/196
f 200/200/200 201/201/201 202/202/202
f 202/202/202 203/203/203 200/200/200
f 204/204/204 205/205/205 206/206/206
f 206/206/206 207/207/207 204/204/204
f 208/208/208 209/209/209 210/210/210
f 210/210/210 211/211/211 208/208/208
f 212/212/212 213/213/213 214/214/214
f 214/214/214 215/215/215 212/212/212
f 216/216/216 217/217/217 218/218/218
f 218/218/218 219/219/219 216/216/216
f 220/220/220 221/221/221 222/222/222
f 222/222/222 223/223/223 220/220/220
f 224/224/224 225/225/225 226/226/226
f 226/226/226 227/227/227 224/224/224
f 228/228/228 229/229/229 230/230/230
f 230/230/230 231/231/231 228/228/228
f 232/232/232 233/233/233 234/234/234
f 235/235/235 236/236/236 237/237/237
f 238/238/238 239/239/239 240/240/240
f 241/241/241 242/242/242 243/243/243
o polygon3
g polygon3
usemtl c7h2_4
v -1.5 3.6875 2
v -1.0625 2.125 2
v 0.0625 2.125 2
v 0.5 3.6875 2
v -1.5 3.6875 2
v 0.5 3.6875 2
v -0.5 4 2
v -1.5 2.125 2
v -1.0625 2.125 2
v -1.5 3.6875 2
v 0.5 3.6875 2
v 0.0625 2.125 2
v 0.5 2.125 2
vt -2.09375 -0.0078125
vt -2.353515625 -0.97265625
vt -3.087890625 -0.97265625
vt -3.34375 -0.0078125
vt -0.185546875 -0.1328125
vt -0.185546875 -0.1328125
vt -0.185546875 -0.1328125
vt -2.09375 -0.97265625
vt -2.353515625 -0.97265625
vt -2.09375 -0.0078125
vt -3.34375 -0.0078125
vt -3.087890625 -0.97265625
vt -3.34375 -0.97265625
vn 0 0 0.998046875
vn 0 0 0.998046875
vn 0 0 0.998046875
vn 0 0 0.998046875
vn 0 0 0.998046875
vn 0 0 0.998046875
vn 0 0 0.998046875
vn 0 0 0.998046875
vn 0 0 0.998046875
vn 0 0 0.998046875
vn 0 0 0.998046875
vn 0 0 0.998046875
vn 0 0 0.998046875
f 244/244/244 245/245/245 246/246/246
f 246/246/246 247/247/247 244/244/244
f 248/248/248 249/249/249 250/250/250
f 251/251/251 252/252/252 253/253/253
f 254/254/254 255/255/255 256/256/256
o polygon4
g polygon4
usemtl c7h2_3
v -1.0625 0.25 0.5
v -1.0625 0.25 1.5
v 0.0625 0.25 1.5
v 0.0625 0.25 0.5
v -1.0625 2.125 1.501953125
v -1.0625 0.25 1.5
v -1.0625 0.25 0.5
v -1.0625 2.125 0.5
v 0.0625 0.25 1.5
v 0.0625 2.125 1.5
v 0.0625 2.125 0.5
v 0.0625 0.25 0.5
v 0.0625 0.25 0.5
v 0.0625 2.125 0.5
v -1.0625 2.125 0.5
v -1.0625 0.25 0.5
vt 0.1484375 -0.994140625
vt 0.1484375 -0.51171875
vt 0.6328125 -0.51171875
vt 0.6328125 -0.994140625
vt 0.16796875 -0.822265625
vt 0.16796875 -0.98828125
vt 0.47265625 -0.98828125
vt 0.47265625 -0.822265625
vt 0.16796875 -0.822265625
vt 0.16796875 -0.98828125
vt 0.47265625 -0.98828125
vt 0.47265625 -0.822265625
vt 0.16796875 -0.822265625
vt 0.16796875 -0.98828125
vt 0.47265625 -0.98828125
vt 0.47265625 -0.822265625
vn 0 0.998046875 0
vn 0 0.998046875 0
vn 0 0.998046875 0
vn 0 0.998046875 0
vn 0.998046875 0 0
vn 0.998046875 0 0
vn 0.998046875 0 0
vn 0.998046875 0 0
vn -1 0 0
vn -1 0 0
vn -1 0 0
vn -1 0 0
vn 0 0 0.998046875
vn 0 0 0.998046875
vn 0 0 0.998046875
vn 0 0 0.998046875
f 257/257/257 258/258/258 259/259/259
f 259/259/259 260/260/260 257/257/257
f 261/261/261 262/262/262 263/263/263
f 263/263/263 264/264/264 261/261/261
f 265/265/265 266/266/266 267/267/267
f 267/267/267 268/268/268 265/265/265
f 269/269/269 270/270/270 271/271/271
f 271/271/271 272/272/272 269/269/269
o polygon5
g polygon5
usemtl h_kage
v 2 0.125 -2
v -1.5 0.125 -2
v 0.625 0.125 1.5
v -1.5 0.125 1.5
v 0.625 0.125 2
v -1 0.125 2
v 0.625 0.125 2.5
v 1.125 0.125 2.5
v -1 0.125 2.5
v -1 0.125 2
v 2 0.125 1.5
v 0.625 0.125 1.5
v 1.125 0.125 2
v 2.6875 0.125 2
v -1.5 0.125 2
v -1 0.125 2.5
v -1 0.125 2
v -1.5 0.125 1.5
v 0.625 0.125 2
v 1.125 0.125 2.5
v 1.125 0.125 2
v 0.625 0.125 1.5
v 2.6875 0.125 -2.5
v 2 0.125 -2
v 2 0.125 1.5
v 2.6875 0.125 2
v -2.2509765625 0.125 2
v -1.5 0.125 1.5
v -1.5 0.125 -2
v -2.2509765625 0.125 -2.5
v 2.6875 0.125 -2.5
v -2.2509765625 0.125 -2.5
v -1.5 0.125 -2
v 2 0.125 -2
v 0.625 0.125 1.5
v 2 0.125 1.5
v 2 0.125 -2
v 0.625 0.125 2
v -1 0.125 2
v 1.125 0.125 2.5
v -2.2509765625 0.125 2
v -1.5 0.125 2
v -1.5 0.125 1.5
vt 0.5 -0.875
vt 0.5 -0.4921875
vt 0.5 -0.875
vt 0.5 -0.7265625
vt 0.5 -0.875
vt 0.5 -0.875
vt 0.375 -0.125
vt 1.125 -0.125
vt 0.1640625 -0.125
vt 0 -0.875
vt 0.1640625 -0.875
vt 0.5 -0.875
vt 0.75 -0.125
vt 0 -0.125
vt 1 -0.125
vt 0.1640625 -0.125
vt 1 -0.875
vt 0.5 -0.7265625
vt 0.375 -0.875
vt 0.375 -0.125
vt 0.375 -0.125
vt 0.5 -0.875
vt 0.5 -0.171875
vt 0.5 -0.875
vt 0.5 -0.875
vt 0.5 -0.171875
vt 0 -0.125
vt 0.1640625 -0.875
vt 1 -0.875
vt 0.75 -0.125
vt 2.453125 -0.1171875
vt 1.453125 -0.1171875
vt 1.5546875 -0.875
vt 2.3515625 -0.875
vt 0.5 -0.875
vt 0.5 -0.875
vt 0.5 -0.875
vt 0.75 -0.875
vt 0 -0.875
vt 1.125 -0.125
vt 0.5 -0.125
vt 0.5 -0.125
vt 0.5 -0.7265625
vn 0 0.998046875 0
vn 0 0.998046875 0
vn 0 0.998046875 0
vn 0 0.998046875 0
vn 0 0.998046875 0
vn 0 0.998046875 0
vn 0 0.998046875 0
vn 0 0.998046875 0
vn 0 0.998046875 0
vn 0 0.998046875 0
vn 0 0.998046875 0
vn 0 0.998046875 0
vn 0 0.998046875 0
vn 0 0.998046875 0
vn 0 0.998046875 0
vn 0 0.998046875 0
vn 0 0.998046875 0
vn 0 0.998046875 0
vn 0 0.998046875 0
vn 0 0.998046875 0
vn 0 0.998046875 0
vn 0 0.998046875 0
vn 0 0.998046875 0
vn 0 0.998046875 0
vn 0 0.998046875 0
vn 0 0.998046875 0
vn 0 0.998046875 0
vn 0 0.998046875 0
vn 0 0.998046875 0
vn 0 0.998046875 0
vn 0 0.998046875 0
vn 0 0.998046875 0
vn 0 0.998046875 0
vn 0 0.998046875 0
vn 0 0.998046875 0
vn 0 0.998046875 0
vn 0 0.998046875 0
vn 0 0.998046875 0
vn 0 0.998046875 0
vn 0 0.998046875 0
vn 0 0.998046875 0
vn 0 0.998046875 0
vn 0 0.998046875 0
f 273/273/273 274/274/274 275/275/275
f 274/274/274 276/276/276 275/275/275
f 275/275/275 276/276/276 277/277/277
f 276/276/276 278/278/278 277/277/277
f 279/279/279 280/280/280 281/281/281
f 280/280/280 282/282/282 281/281/281
f 283/283/283 284/284/284 285/285/285
f 285/285/285 286/286/286 283/283/283
f 287/287/287 288/288/288 289/289/289
f 289/289/289 290/290/290 287/287/287
f 291/291/291 292/292/292 293/293/293
f 293/293/293 294/294/294 291/291/291
f 295/295/295 296/296/296 297/297/297
f 297/297/297 298/298/298 295/295/295
f 299/299/299 300/300/300 301/301/301
f 301/301/301 302/302/302 299/299/299
f 303/303/303 304/304/304 305/305/305
f 305/305/305 306/306/306 303/303/303
f 307/307/307 308/308/308 309/309/309
f 310/310/310 311/311/311 312/312/312
f 313/313/313 314/314/314 315/315/315
