# Created with Spiky's DS Map Editor 1.8.1.0
mtllib 068.mtl
o polygon0
g polygon0
usemtl taiya002_1
v -0.185546875 0.689453125 2
v -0.185546875 0.689453125 3.625
v -0.625 1.75 2
v -0.625 1.75 3.625
v -0.185546875 2.810546875 2
v -0.185546875 2.810546875 3.625
v 0.875 3.25 2
v 0.875 3.25 3.625
v 1.935546875 2.810546875 2
v 1.935546875 2.810546875 3.625
v 2.375 1.75 2
v 2.375 1.75 3.625
v 1.935546875 0.689453125 2
v 1.935546875 0.689453125 3.625
v -1.939453125 0.689453125 3.625
v -1.939453125 0.689453125 -3.625
v -1.5 1.75 3.625
v -1.5 1.75 -3.625
v -1.939453125 2.810546875 3.625
v -1.939453125 2.810546875 -3.625
v -3 3.25 3.625
v -3 3.25 -3.625
v -4.060546875 2.810546875 3.625
v -4.060546875 2.810546875 -3.625
v -4.5 1.75 3.625
v -4.5 1.75 -3.625
v -4.060546875 0.689453125 3.625
v -4.060546875 0.689453125 -3.625
v 1.935546875 0.5 -2
v 1.935546875 0.493408203125 -3.625
v 2.375 1.75 -2
v 2.375 1.75 -3.625
v 1.935546875 2.810546875 -2
v 1.935546875 2.810546875 -3.625
v 0.875 3.25 -2
v 0.875 3.25 -3.625
v -0.185546875 2.810546875 -2
v -0.185546875 2.810546875 -3.625
v -0.625 1.75 -2
v -0.625 1.75 -3.625
v -0.185546875 0.689453125 -2
v -0.185546875 0.689453125 -3.625
v -1.5 1.75 3.625
v -1.939453125 2.810546875 3.625
v -3 1.75 3.625
v -3 3.25 3.625
v -4.060546875 2.810546875 3.625
v -1.939453125 2.810546875 -3.625
v -1.5 1.75 -3.625
v -3 1.75 -3.625
v -1.939453125 0.689453125 -3.625
v -3 0.25 -3.625
v -3 0.25 -3.625
v -4.060546875 0.689453125 -3.625
v -3 1.75 -3.625
v -4.5 1.75 -3.625
v -4.060546875 2.810546875 -3.625
v 1.935546875 0.689453125 3.625
v 2.375 1.75 3.625
v 0.875 1.75 3.625
v 1.935546875 2.810546875 3.625
v 0.875 3.25 3.625
v 1.935546875 2.810546875 -3.625
v 2.375 1.75 -3.625
v 0.875 1.75 -3.625
v 1.935546875 0.493408203125 -3.625
v 0.875 0.05419921875 -3.625
v 0.875 0.05419921875 -3.625
v -0.185546875 0.689453125 -3.625
v 0.875 1.75 -3.625
v -0.625 1.75 -3.625
v -0.185546875 2.810546875 -3.625
v -1.5 1.75 3.625
v -3 1.75 3.625
v -1.939453125 0.689453125 3.625
v -3 0.25 3.625
v -3 0.25 3.625
v -3 1.75 3.625
v -4.060546875 0.689453125 3.625
v -4.5 1.75 3.625
v -4.060546875 2.810546875 -3.625
v -3 3.25 -3.625
v -3 1.75 -3.625
v -1.939453125 2.810546875 -3.625
v 1.935546875 0.689453125 3.625
v 0.875 1.75 3.625
v 0.875 0.25 3.625
v -0.185546875 0.689453125 3.625
v -0.185546875 0.689453125 3.625
v 0.875 1.75 3.625
v -0.625 1.75 3.625
v -0.185546875 2.810546875 3.625
v -0.185546875 2.810546875 -3.625
v 0.875 3.25 -3.625
v 0.875 1.75 -3.625
v 1.935546875 2.810546875 -3.625
v -2 0.5 -1.875
v -2 2.151611328125 -1.875
v 0.125 2.151611328125 -1.875
v 0.125 0.5 -1.875
v -2 0.5 1.875
v 0.125 0.5 1.875
v 0.125 2.5 1.875
v -2 2.5 1.875
v -4.060546875 2.810546875 3.625
v -4.5 1.75 3.625
v -3 1.75 3.625
v 0.875 3.25 3.625
v -0.185546875 2.810546875 3.625
v 0.875 1.75 3.625
vt 0.69140625 -0.0078125
vt 0.69140625 -0.98828125
vt 0.69140625 -0.0078125
vt 0.69140625 -0.98828125
vt 0.69140625 -0.0078125
vt 0.69140625 -0.98828125
vt 0.69140625 -0.0078125
vt 0.69140625 -0.98828125
vt 0.69140625 -0.0078125
vt 0.69140625 -0.98828125
vt 0.69140625 -0.0078125
vt 0.69140625 -0.98828125
vt 0.69140625 -0.0078125
vt 0.69140625 -0.98828125
vt 0.69140625 -5
vt 0.69140625 -0.0078125
vt 0.69140625 -5
vt 0.69140625 -0.0078125
vt 0.69140625 -5
vt 0.69140625 -0.0078125
vt 0.69140625 -5
vt 0.69140625 -0.0078125
vt 0.69140625 -5
vt 0.69140625 -0.0078125
vt 0.69140625 -5
vt 0.69140625 -0.0078125
vt 0.69140625 -5
vt 0.69140625 -0.0078125
vt 0.69140625 -0.98828125
vt 0.69140625 -0.0078125
vt 0.69140625 -0.98828125
vt 0.69140625 -0.0078125
vt 0.69140625 -0.98828125
vt 0.69140625 -0.0078125
vt 0.69140625 -0.98828125
vt 0.69140625 -0.0078125
vt 0.69140625 -0.98828125
vt 0.69140625 -0.0078125
vt 0.69140625 -0.98828125
vt 0.69140625 -0.0078125
vt 0.69140625 -0.98828125
vt 0.69140625 -0.0078125
vt 0.96875 -0.01953125
vt 0.96875 -0.01953125
vt 0.96875 -0.984375
vt 0.96875 -0.01953125
vt 0.96875 -0.01953125
vt 0.96875 -0.01953125
vt 0.96875 -0.01953125
vt 0.96875 -0.984375
vt 0.96875 -0.01953125
vt 0.96875 -0.01953125
vt 0.96875 -0.01953125
vt 0.96875 -0.01953125
vt 0.96875 -0.984375
vt 0.96875 -0.01953125
vt 0.96875 -0.01953125
vt 0.96875 -0.01953125
vt 0.96875 -0.01953125
vt 0.96875 -0.984375
vt 0.96875 -0.01953125
vt 0.96875 -0.01953125
vt 0.96875 -0.01953125
vt 0.96875 -0.01953125
vt 0.96875 -0.984375
vt 0.96875 -0.01953125
vt 0.96875 -0.01953125
vt 0.96875 -0.01953125
vt 0.96875 -0.01953125
vt 0.96875 -0.984375
vt 0.96875 -0.01953125
vt 0.96875 -0.01953125
vt 0.96875 -0.01953125
vt 0.96875 -0.984375
vt 0.96875 -0.01953125
vt 0.96875 -0.01953125
vt 0.96875 -0.01953125
vt 0.96875 -0.984375
vt 0.96875 -0.01953125
vt 0.96875 -0.01953125
vt 0.96875 -0.01953125
vt 0.96875 -0.01953125
vt 0.96875 -0.984375
vt 0.96875 -0.01953125
vt 0.96875 -0.01953125
vt 0.96875 -0.984375
vt 0.96875 -0.01953125
vt 0.96875 -0.01953125
vt 0.96875 -0.01953125
vt 0.96875 -0.984375
vt 0.96875 -0.01953125
vt 0.96875 -0.01953125
vt 0.96875 -0.01953125
vt 0.96875 -0.01953125
vt 0.96875 -0.984375
vt 0.96875 -0.01953125
vt 0.01171875 0
vt 0.20703125 0
vt 0.20703125 -1
vt 0.01171875 -1
vt 0.01171875 -1
vt 0.01171875 0
vt 0.20703125 0
vt 0.20703125 -1
vt 0.96875 -0.01953125
vt 0.96875 -0.01953125
vt 0.96875 -0.984375
vt 0.96875 -0.01953125
vt 0.96875 -0.01953125
vt 0.96875 -0.984375
vn -0.923828125 -0.3828125 0
vn -0.4140625 -0.171875 0.89453125
vn -1 0 0
vn -0.677734375 0 0.734375
vn -0.70703125 0.70703125 0
vn -0.48046875 0.48046875 0.734375
vn 0 0.998046875 0
vn 0 0.677734375 0.734375
vn 0.70703125 0.70703125 0
vn 0.48046875 0.48046875 0.734375
vn 0.998046875 0.02734375 0
vn 0.677734375 0 0.734375
vn 0.923828125 -0.3828125 0
vn 0.4140625 -0.171875 0.89453125
vn 0.4140625 -0.171875 0.89453125
vn 0.421875 -0.1484375 -0.89453125
vn 0.677734375 0 0.734375
vn 0.681640625 0.01953125 -0.73046875
vn 0.48046875 0.48046875 0.734375
vn 0.48046875 0.48046875 -0.734375
vn 0 0.677734375 0.734375
vn 0 0.677734375 -0.734375
vn -0.48046875 0.48046875 0.734375
vn -0.48046875 0.48046875 -0.734375
vn -0.677734375 0 0.734375
vn -0.677734375 0 -0.734375
vn -0.4140625 -0.171875 0.89453125
vn -0.4140625 -0.171875 -0.89453125
vn 0.943359375 -0.330078125 0
vn 0.421875 -0.1484375 -0.89453125
vn 0.998046875 0.02734375 0
vn 0.681640625 0.01953125 -0.73046875
vn 0.70703125 0.70703125 0
vn 0.48046875 0.48046875 -0.734375
vn 0 0.998046875 0
vn 0 0.677734375 -0.734375
vn -0.70703125 0.70703125 0
vn -0.48046875 0.48046875 -0.734375
vn -1 0 0
vn -0.677734375 0 -0.734375
vn -0.923828125 -0.3828125 0
vn -0.4140625 -0.171875 -0.89453125
vn 0.677734375 0 0.734375
vn 0.48046875 0.48046875 0.734375
vn 0 0 0.998046875
vn 0 0.677734375 0.734375
vn -0.48046875 0.48046875 0.734375
vn 0.48046875 0.48046875 -0.734375
vn 0.681640625 0.01953125 -0.73046875
vn 0 0 -1
vn 0.421875 -0.1484375 -0.89453125
vn 0 0 -1
vn 0 0 -1
vn -0.4140625 -0.171875 -0.89453125
vn 0 0 -1
vn -0.677734375 0 -0.734375
vn -0.48046875 0.48046875 -0.734375
vn 0.4140625 -0.171875 0.89453125
vn 0.677734375 0 0.734375
vn 0 0 0.998046875
vn 0.48046875 0.48046875 0.734375
vn 0 0.677734375 0.734375
vn 0.48046875 0.48046875 -0.734375
vn 0.681640625 0.01953125 -0.73046875
vn 0 0 -1
vn 0.421875 -0.1484375 -0.89453125
vn 0 0 -1
vn 0 0 -1
vn -0.4140625 -0.171875 -0.89453125
vn 0 0 -1
vn -0.677734375 0 -0.734375
vn -0.48046875 0.48046875 -0.734375
vn 0.677734375 0 0.734375
vn 0 0 0.998046875
vn 0.4140625 -0.171875 0.89453125
vn 0 0 0.998046875
vn 0 0 0.998046875
vn 0 0 0.998046875
vn -0.4140625 -0.171875 0.89453125
vn -0.677734375 0 0.734375
vn -0.48046875 0.48046875 -0.734375
vn 0 0.677734375 -0.734375
vn 0 0 -1
vn 0.48046875 0.48046875 -0.734375
vn 0.4140625 -0.171875 0.89453125
vn 0 0 0.998046875
vn 0 0 0.998046875
vn -0.4140625 -0.171875 0.89453125
vn -0.4140625 -0.171875 0.89453125
vn 0 0 0.998046875
vn -0.677734375 0 0.734375
vn -0.48046875 0.48046875 0.734375
vn -0.48046875 0.48046875 -0.734375
vn 0 0.677734375 -0.734375
vn 0 0 -1
vn 0.48046875 0.48046875 -0.734375
vn 0 0 -1
vn 0 0 -1
vn 0 0 -1
vn 0 0 -1
vn 0 0 0.998046875
vn 0 0 0.998046875
vn 0 0 0.998046875
vn 0 0 0.998046875
vn -0.48046875 0.48046875 0.734375
vn -0.677734375 0 0.734375
vn 0 0 0.998046875
vn 0 0.677734375 0.734375
vn -0.48046875 0.48046875 0.734375
vn 0 0 0.998046875
f 1/1/1 2/2/2 3/3/3
f 2/2/2 4/4/4 3/3/3
f 3/3/3 4/4/4 5/5/5
f 4/4/4 6/6/6 5/5/5
f 5/5/5 6/6/6 7/7/7
f 6/6/6 8/8/8 7/7/7
f 7/7/7 8/8/8 9/9/9
f 8/8/8 10/10/10 9/9/9
f 9/9/9 10/10/10 11/11/11
f 10/10/10 12/12/12 11/11/11
f 11/11/11 12/12/12 13/13/13
f 12/12/12 14/14/14 13/13/13
f 15/15/15 16/16/16 17/17/17
f 16/16/16 18/18/18 17/17/17
f 17/17/17 18/18/18 19/19/19
f 18/18/18 20/20/20 19/19/19
f 19/19/19 20/20/20 21/21/21
f 20/20/20 22/22/22 21/21/21
f 21/21/21 22/22/22 23/23/23
f 22/22/22 24/24/24 23/23/23
f 23/23/23 24/24/24 25/25/25
f 24/24/24 26/26/26 25/25/25
f 25/25/25 26/26/26 27/27/27
f 26/26/26 28/28/28 27/27/27
f 29/29/29 30/30/30 31/31/31
f 30/30/30 32/32/32 31/31/31
f 31/31/31 32/32/32 33/33/33
f 32/32/32 34/34/34 33/33/33
f 33/33/33 34/34/34 35/35/35
f 34/34/34 36/36/36 35/35/35
f 35/35/35 36/36/36 37/37/37
f 36/36/36 38/38/38 37/37/37
f 37/37/37 38/38/38 39/39/39
f 38/38/38 40/40/40 39/39/39
f 39/39/39 40/40/40 41/41/41
f 40/40/40 42/42/42 41/41/41
f 43/43/43 44/44/44 45/45/45
f 44/44/44 46/46/46 45/45/45
f 45/45/45 46/46/46 47/47/47
f 48/48/48 49/49/49 50/50/50
f 49/49/49 51/51/51 50/50/50
f 50/50/50 51/51/51 52/52/52
f 53/53/53 54/54/54 55/55/55
f 54/54/54 56/56/56 55/55/55
f 55/55/55 56/56/56 57/57/57
f 58/58/58 59/59/59 60/60/60
f 59/59/59 61/61/61 60/60/60
f 60/60/60 61/61/61 62/62/62
f 63/63/63 64/64/64 65/65/65
f 64/64/64 66/66/66 65/65/65
f 65/65/65 66/66/66 67/67/67
f 68/68/68 69/69/69 70/70/70
f 69/69/69 71/71/71 70/70/70
f 70/70/70 71/71/71 72/72/72
f 73/73/73 74/74/74 75/75/75
f 74/74/74 76/76/76 75/75/75
f 77/77/77 78/78/78 79/79/79
f 78/78/78 80/80/80 79/79/79
f 81/81/81 82/82/82 83/83/83
f 82/82/82 84/84/84 83/83/83
f 85/85/85 86/86/86 87/87/87
f 86/86/86 88/88/88 87/87/87
f 89/89/89 90/90/90 91/91/91
f 90/90/90 92/92/92 91/91/91
f 93/93/93 94/94/94 95/95/95
f 94/94/94 96/96/96 95/95/95
f 97/97/97 98/98/98 99/99/99
f 99/99/99 100/100/100 97/97/97
f 101/101/101 102/102/102 103/103/103
f 103/103/103 104/104/104 101/101/101
f 105/105/105 106/106/106 107/107/107
f 108/108/108 109/109/109 110/110/110
o polygon1
g polygon1
usemtl hoiro002_1
v 3.7333984375 1.5283203125 -2.677734375
v 4.839599609375 1.01708984375 -3.0322265625
v 3.127685546875 3.0732421875 -2.677734375
v 3.660400390625 4.08349609375 -3.0322265625
v 3.660400390625 4.08349609375 3.0322265625
v 4.839599609375 1.01708984375 3.0322265625
v 3.127685546875 3.0732421875 2.677734375
v 3.7333984375 1.5283203125 2.677734375
v 3.7333984375 1.5283203125 -2.677734375
v 3.7333984375 1.5283203125 2.677734375
v 4.839599609375 1.01708984375 3.0322265625
v 4.839599609375 1.01708984375 -3.0322265625
v 3.127685546875 3.0732421875 -2.677734375
v 3.127685546875 3.0732421875 2.677734375
v 3.7333984375 1.5283203125 2.677734375
v 3.7333984375 1.5283203125 -2.677734375
v 3.660400390625 4.08349609375 -3.0322265625
v 3.660400390625 4.08349609375 3.0322265625
v 3.127685546875 3.0732421875 2.677734375
v 3.127685546875 3.0732421875 -2.677734375
v -4.125 4 -3
v -3.875 3.5 -3
v -4.625 1.42919921875 -3
v -5 1.42919921875 -3
v -3.875 3.5 3
v -4.125 4 3
v -5 1.42919921875 3
v -4.625 1.42919921875 3
v -3 3.5 -3
v -3.875 3.5 -3
v -4.125 4 -3
v -3 4 -3
v -3 4 3
v -4.125 4 3
v -3.875 3.5 3
v -3 3.5 3
v 0.5 1.998291015625 -2
v 0.5 4 -2
v 2.541259765625 3 -2
v 2.82275390625 1.641845703125 -2
v 0.5 4 2
v 0.5 1.998291015625 2
v 2.82275390625 1.641845703125 2
v 2.541259765625 3 2
v 3.25 1.156982421875 -3.5
v 3.25 1.156982421875 3.5
v 2.625 3.38623046875 3.5
v 2.625 3.38623046875 -3.5
v 2.625 3.38623046875 -3.5
v 3.5 4.500732421875 -3.5
v 5 0.599853515625 -3.5
v 3.25 1.156982421875 -3.5
v 3.25 1.156982421875 3.5
v 5 0.599853515625 3.5
v 3.5 4.500732421875 3.5
v 2.625 3.38623046875 3.5
vt 0.046875 -0.0546875
vt 0.046875 -0.0546875
vt 0.046875 -0.0546875
vt 0.046875 -0.0546875
vt 0.046875 -0.0546875
vt 0.046875 -0.0546875
vt 0.046875 -0.0546875
vt 0.046875 -0.0546875
vt 0.9609375 -0.96875
vt 0.9609375 -0.96875
vt 0.9609375 -0.01953125
vt 0.9609375 -0.01953125
vt 0.140625 -0.078125
vt 0.140625 -0.078125
vt 0.140625 -0.078125
vt 0.140625 -0.078125
vt 0.046875 -0.0546875
vt 0.046875 -0.0546875
vt 0.046875 -0.0546875
vt 0.046875 -0.0546875
vt 0.7578125 -0.0546875
vt 0.1171875 -0.0546875
vt 0.1171875 -0.2578125
vt 0.7578125 -0.2578125
vt 0.7578125 -0.0546875
vt 0.1171875 -0.0546875
vt 0.1171875 -0.2578125
vt 0.7578125 -0.2578125
vt 0.7578125 -0.2578125
vt 0.7578125 -0.0546875
vt 0.1171875 -0.0546875
vt 0.1171875 -0.2578125
vt 0.7578125 -0.2578125
vt 0.7578125 -0.0546875
vt 0.1171875 -0.0546875
vt 0.1171875 -0.2578125
vt 0.7578125 -0.36328125
vt 0.1171875 -0.36328125
vt 0.1171875 -0.5703125
vt 0.7578125 -0.5703125
vt 0.7578125 -0.36328125
vt 0.1171875 -0.36328125
vt 0.1171875 -0.5703125
vt 0.7578125 -0.5703125
vt 0.140625 -0.078125
vt 0.140625 -0.078125
vt 0.140625 -0.078125
vt 0.140625 -0.078125
vt 0.0625 -0.34765625
vt 0.0625 -0.34765625
vt 0.0625 -0.34765625
vt 0.0625 -0.34765625
vt 0.0625 -0.34765625
vt 0.0625 -0.34765625
vt 0.0625 -0.34765625
vt 0.0625 -0.34765625
vn 0.35546875 0.13671875 0.923828125
vn 0.35546875 0.13671875 0.923828125
vn 0.35546875 0.13671875 0.923828125
vn 0.35546875 0.13671875 0.923828125
vn 0.361328125 0.140625 -0.921875
vn 0.361328125 0.140625 -0.921875
vn 0.361328125 0.140625 -0.921875
vn 0.361328125 0.140625 -0.921875
vn 0.419921875 0.908203125 0
vn 0.419921875 0.908203125 0
vn 0.419921875 0.908203125 0
vn 0.419921875 0.908203125 0
vn 0.931640625 0.365234375 0
vn 0.931640625 0.365234375 0
vn 0.931640625 0.365234375 0
vn 0.931640625 0.365234375 0
vn 0.884765625 -0.466796875 0
vn 0.884765625 -0.466796875 0
vn 0.884765625 -0.466796875 0
vn 0.884765625 -0.466796875 0
vn 0 0 -1
vn 0 0 -1
vn 0 0 -1
vn 0 0 -1
vn 0 0 0.998046875
vn 0 0 0.998046875
vn 0 0 0.998046875
vn 0 0 0.998046875
vn 0 0 -1
vn 0 0 -1
vn 0 0 -1
vn 0 0 -1
vn 0 0 0.998046875
vn 0 0 0.998046875
vn 0 0 0.998046875
vn 0 0 0.998046875
vn 0 0 -1
vn 0 0 -1
vn 0 0 -1
vn 0 0 -1
vn 0 0 0.998046875
vn 0 0 0.998046875
vn 0 0 0.998046875
vn 0 0 0.998046875
vn -0.962890625 -0.26953125 0
vn -0.962890625 -0.26953125 0
vn -0.962890625 -0.26953125 0
vn -0.962890625 -0.26953125 0
vn 0 0 -1
vn 0 0 -1
vn 0 0 -1
vn 0 0 -1
vn 0 0 0.998046875
vn 0 0 0.998046875
vn 0 0 0.998046875
vn 0 0 0.998046875
f 111/111/111 112/112/112 113/113/113
f 112/112/112 114/114/114 113/113/113
f 115/115/115 116/116/116 117/117/117
f 116/116/116 118/118/118 117/117/117
f 119/119/119 120/120/120 121/121/121
f 121/121/121 122/122/122 119/119/119
f 123/123/123 124/124/124 125/125/125
f 125/125/125 126/126/126 123/123/123
f 127/127/127 128/128/128 129/129/129
f 129/129/129 130/130/130 127/127/127
f 131/131/131 132/132/132 133/133/133
f 133/133/133 134/134/134 131/131/131
f 135/135/135 136/136/136 137/137/137
f 137/137/137 138/138/138 135/135/135
f 139/139/139 140/140/140 141/141/141
f 141/141/141 142/142/142 139/139/139
f 143/143/143 144/144/144 145/145/145
f 145/145/145 146/146/146 143/143/143
f 147/147/147 148/148/148 149/149/149
f 149/149/149 150/150/150 147/147/147
f 151/151/151 152/152/152 153/153/153
f 153/153/153 154/154/154 151/151/151
f 155/155/155 156/156/156 157/157/157
f 157/157/157 158/158/158 155/155/155
f 159/159/159 160/160/160 161/161/161
f 161/161/161 162/162/162 159/159/159
f 163/163/163 164/164/164 165/165/165
f 165/165/165 166/166/166 163/163/163
o polygon2
g polygon2
usemtl hoiro001_1
v -4.125 4 3
v -4.125 4 -3
v -5 1.42919921875 -3
v -5 1.42919921875 3
v -3 4 -3
v -3 4 3
v -3 3.5 3
v -3 3.5 -3
v -3 4 -3
v -4.125 4 -3
v -4.125 4 3
v -3 4 3
v 2.1162109375 4.20458984375 0.375
v 2.1162109375 4.20458984375 -0.375
v 1.294677734375 3.747314453125 -0.375
v 1.294677734375 3.747314453125 0.375
v 2.821044921875 3.681396484375 0.375
v 2.821044921875 3.681396484375 -0.375
v 2.1162109375 4.20458984375 -0.375
v 2.1162109375 4.20458984375 0.375
v -3 4 2
v 0.5 4 2
v -0.5 6.282470703125 1.75
v -3 6.282470703125 1.75
v -3 4 -2
v -3 4 2
v -3 6.282470703125 1.75
v -3 6.282470703125 -1.75
v 0.5 4 -2
v -3 4 -2
v -3 6.282470703125 -1.75
v -0.5 6.282470703125 -1.75
v 0.5 4 2
v 0.5 4 -2
v -0.5 6.282470703125 -1.75
v -0.5 6.282470703125 1.75
v -3 4 2
v -3 2.25 2
v 0.5 2.25 2
v 0.5 4 2
v 0.5 2.25 -2
v -3 2.25 -2
v -3 4 -2
v 0.5 4 -2
v -0.5 6.282470703125 1.75
v -0.5 6.282470703125 -1.75
v -3 6.282470703125 -1.75
v -3 6.282470703125 1.75
v 0.5 4 2
v 2.541259765625 3 2
v 2.541259765625 3 -2
v 0.5 4 -2
v 3.5 4.500732421875 3.5
v 5 0.599853515625 3.5
v 4.839599609375 1.01708984375 3.0322265625
v 3.660400390625 4.08349609375 3.0322265625
v 3.5 4.500732421875 -3.5
v 3.5 4.500732421875 3.5
v 3.660400390625 4.08349609375 3.0322265625
v 3.660400390625 4.08349609375 -3.0322265625
v 5 0.599853515625 -3.5
v 3.5 4.500732421875 -3.5
v 3.660400390625 4.08349609375 -3.0322265625
v 4.839599609375 1.01708984375 -3.0322265625
v 5 0.599853515625 3.5
v 5 0.599853515625 -3.5
v 4.839599609375 1.01708984375 -3.0322265625
v 4.839599609375 1.01708984375 3.0322265625
v 2.625 3.38623046875 3.5
v 3.5 4.500732421875 3.5
v 3.5 4.500732421875 -3.5
v 2.625 3.38623046875 -3.5
v 1.294677734375 3.747314453125 -0.375
v 2.1162109375 4.20458984375 -0.375
v 2.821044921875 3.681396484375 -0.375
v 2.821044921875 3.681396484375 0.375
v 2.1162109375 4.20458984375 0.375
v 1.294677734375 3.747314453125 0.375
vt 0.333984375 -0.5703125
vt 0.333984375 -0.3046875
vt 0.009765625 -0.3046875
vt 0.009765625 -0.5703125
vt 0.330078125 -0.576171875
vt 0.330078125 -0.298828125
vt 0.013671875 -0.298828125
vt 0.013671875 -0.576171875
vt 0.322265625 -0.265625
vt 0.322265625 -0.015625
vt 0.021484375 -0.015625
vt 0.021484375 -0.265625
vt 0.15234375 -0.60546875
vt 0.15234375 -0.60546875
vt 0.0078125 -0.60546875
vt 0.0078125 -0.60546875
vt 0.1796875 -0.640625
vt 0.1796875 -0.640625
vt 0.103515625 -0.640625
vt 0.103515625 -0.640625
vt 0.349609375 -0.5625
vt 0.865234375 -0.5625
vt 0.865234375 0
vt 0.349609375 0
vt 0.349609375 -0.5625
vt 0.865234375 -0.5625
vt 0.865234375 0
vt 0.349609375 0
vt 0.349609375 -0.5625
vt 0.865234375 -0.5625
vt 0.865234375 0
vt 0.349609375 0
vt 0.349609375 -0.552734375
vt 0.865234375 -0.552734375
vt 0.865234375 0
vt 0.349609375 0
vt 0.3515625 -0.5625
vt 0.3515625 -1
vt 0.9921875 -1
vt 0.9921875 -0.5625
vt 0.9921875 -1
vt 0.3515625 -1
vt 0.3515625 -0.5625
vt 0.9921875 -0.5625
vt 0.330078125 -0.26953125
vt 0.330078125 -0.01171875
vt 0.013671875 -0.01171875
vt 0.013671875 -0.26953125
vt 0.05859375 -0.99609375
vt 0.05859375 -0.66015625
vt 0.31640625 -0.66015625
vt 0.31640625 -0.99609375
vt 0.330078125 -0.576171875
vt 0.330078125 -0.298828125
vt 0.013671875 -0.298828125
vt 0.013671875 -0.576171875
vt 0.330078125 -0.568359375
vt 0.330078125 -0.306640625
vt 0.013671875 -0.306640625
vt 0.013671875 -0.568359375
vt 0.330078125 -0.576171875
vt 0.330078125 -0.298828125
vt 0.013671875 -0.298828125
vt 0.013671875 -0.576171875
vt 0.330078125 -0.568359375
vt 0.330078125 -0.306640625
vt 0.013671875 -0.306640625
vt 0.013671875 -0.568359375
vt 0.03125 -0.255859375
vt 0.3125 -0.255859375
vt 0.3125 -0.025390625
vt 0.03125 -0.025390625
vt 0.169921875 -0.642578125
vt 0.169921875 -0.642578125
vt 0.169921875 -0.642578125
vt 0.169921875 -0.642578125
vt 0.169921875 -0.642578125
vt 0.169921875 -0.642578125
vn -0.58203125 0.8125 0
vn -0.58203125 0.8125 0
vn -0.947265625 0.322265625 0
vn -0.947265625 0.322265625 0
vn 0.998046875 0.02734375 0
vn 0.998046875 0.02734375 0
vn 0.998046875 0.02734375 0
vn 0.998046875 0.02734375 0
vn 0 0.998046875 0
vn -0.58203125 0.8125 0
vn -0.58203125 0.8125 0
vn 0 0.998046875 0
vn -0.486328125 0.873046875 0
vn -0.486328125 0.873046875 0
vn -0.486328125 0.873046875 0
vn -0.486328125 0.873046875 0
vn 0.595703125 0.802734375 0
vn 0.595703125 0.802734375 0
vn 0.595703125 0.802734375 0
vn 0.595703125 0.802734375 0
vn 0 0.109375 0.994140625
vn 0 0.109375 0.994140625
vn 0 0.109375 0.994140625
vn 0 0.109375 0.994140625
vn -1 0 0
vn -1 0 0
vn -1 0 0
vn -1 0 0
vn 0 0.109375 -0.994140625
vn 0 0.109375 -0.994140625
vn 0 0.109375 -0.994140625
vn 0 0.109375 -0.994140625
vn 0.931640625 0.365234375 0
vn 0.931640625 0.365234375 0
vn 0.931640625 0.365234375 0
vn 0.931640625 0.365234375 0
vn 0 0 0.998046875
vn 0 0 0.998046875
vn 0 0 0.998046875
vn 0 0 0.998046875
vn 0 0 -1
vn 0 0 -1
vn 0 0 -1
vn 0 0 -1
vn 0 0.998046875 0
vn 0 0.998046875 0
vn 0 0.998046875 0
vn 0 0.998046875 0
vn 0.419921875 0.908203125 0
vn 0.419921875 0.908203125 0
vn 0.419921875 0.908203125 0
vn 0.419921875 0.908203125 0
vn 0.931640625 0.365234375 0
vn 0.931640625 0.365234375 0
vn 0.931640625 0.365234375 0
vn 0.931640625 0.365234375 0
vn 0.931640625 0.365234375 0
vn 0.931640625 0.365234375 0
vn 0.931640625 0.365234375 0
vn 0.931640625 0.365234375 0
vn 0.931640625 0.365234375 0
vn 0.931640625 0.365234375 0
vn 0.931640625 0.365234375 0
vn 0.931640625 0.365234375 0
vn 0.931640625 0.365234375 0
vn 0.931640625 0.365234375 0
vn 0.931640625 0.365234375 0
vn 0.931640625 0.365234375 0
vn -0.787109375 0.6171875 0
vn -0.787109375 0.6171875 0
vn -0.787109375 0.6171875 0
vn -0.787109375 0.6171875 0
vn 0 0 -1
vn 0 0 -1
vn 0 0 -1
vn 0 0 0.998046875
vn 0 0 0.998046875
vn 0 0 0.998046875
f 167/167/167 168/168/168 169/169/169
f 169/169/169 170/170/170 167/167/167
f 171/171/171 172/172/172 173/173/173
f 173/173/173 174/174/174 171/171/171
f 175/175/175 176/176/176 177/177/177
f 177/177/177 178/178/178 175/175/175
f 179/179/179 180/180/180 181/181/181
f 181/181/181 182/182/182 179/179/179
f 183/183/183 184/184/184 185/185/185
f 185/185/185 186/186/186 183/183/183
f 187/187/187 188/188/188 189/189/189
f 189/189/189 190/190/190 187/187/187
f 191/191/191 192/192/192 193/193/193
f 193/193/193 194/194/194 191/191/191
f 195/195/195 196/196/196 197/197/197
f 197/197/197 198/198/198 195/195/195
f 199/199/199 200/200/200 201/201/201
f 201/201/201 202/202/202 199/199/199
f 203/203/203 204/204/204 205/205/205
f 205/205/205 206/206/206 203/203/203
f 207/207/207 208/208/208 209/209/209
f 209/209/209 210/210/210 207/207/207
f 211/211/211 212/212/212 213/213/213
f 213/213/213 214/214/214 211/211/211
f 215/215/215 216/216/216 217/217/217
f 217/217/217 218/218/218 215/215/215
f 219/219/219 220/220/220 221/221/221
f 221/221/221 222/222/222 219/219/219
f 223/223/223 224/224/224 225/225/225
f 225/225/225 226/226/226 223/223/223
f 227/227/227 228/228/228 229/229/229
f 229/229/229 230/230/230 227/227/227
f 231/231/231 232/232/232 233/233/233
f 233/233/233 234/234/234 231/231/231
f 235/235/235 236/236/236 237/237/237
f 237/237/237 238/238/238 235/235/235
f 239/239/239 240/240/240 241/241/241
f 242/242/242 243/243/243 244/244/244
o polygon3
g polygon3
usemtl h_kage_1
v -5 0.5 4
v -4 0.5 3
v -5 0.5 -4
v -4 0.5 -3
v 5.5 0.5 -4
v 4.5 0.5 -3
v 5.5 0.5 4
v 4.5 0.5 3
v -5 0.5 4
v -4 0.5 3
v -4 0.5 3
v 4.5 0.5 3
v 4.5 0.5 -3
v -4 0.5 -3
vt 0.5 -0.125
vt 0.5 -0.875
vt 0.5 -0.125
vt 0.5 -0.875
vt 0.5 -0.125
vt 0.5 -0.875
vt 0.5 -0.125
vt 0.5 -0.875
vt 0.5 -0.125
vt 0.5 -0.875
vt 0.5 -0.875
vt 0.5 -0.875
vt 0.5 -0.875
vt 0.5 -0.875
vn 0 0.998046875 0
vn 0 0.998046875 0
vn 0 0.998046875 0
vn 0 0.998046875 0
vn 0 0.998046875 0
vn 0 0.998046875 0
vn 0 0.998046875 0
vn 0 0.998046875 0
vn 0 0.998046875 0
vn 0 0.998046875 0
vn 0 0.998046875 0
vn 0 0.998046875 0
vn 0 0.998046875 0
vn 0 0.998046875 0
f 245/245/245 246/246/246 247/247/247
f 246/246/246 248/248/248 247/247/247
f 247/247/247 248/248/248 249/249/249
f 248/248/248 250/250/250 249/249/249
f 249/249/249 250/250/250 251/251/251
f 250/250/250 252/252/252 251/251/251
f 251/251/251 252/252/252 253/253/253
f 252/252/252 254/254/254 253/253/253
f 255/255/255 256/256/256 257/257/257
f 257/257/257 258/258/258 255/255/255
