# Created with Spiky's DS Map Editor 1.8.1.0
mtllib 092.mtl
o polygon0
g polygon0
usemtl sand_tex004_1
v 3.235107421875 0.178955078125 -2.402099609375
v 3.71923828125 0.19189453125 -2.12939453125
v 4.264892578125 0.689208984375 -3.097900390625
v 3.78076171875 0.676025390625 -3.37060546875
vt 0 -1
vt 1 -1
vt 1 0
vt 0 0
vn -0.21875 0.912109375 0.345703125
vn -0.21875 0.912109375 0.345703125
vn -0.21875 0.912109375 0.345703125
vn -0.21875 0.912109375 0.345703125
f 1/1/1 2/2/2 3/3/3
f 3/3/3 4/4/4 1/1/1
o polygon1
g polygon1
usemtl h_kage_1
v 2.800048828125 0.32373046875 -3.234375
v 2.847900390625 0.32373046875 -3.234375
v 3.08935546875 0.32373046875 -4.00634765625
v 2.55859375 0.32373046875 -4.00634765625
v 2.800048828125 0.32373046875 -3.234375
v 2.028076171875 0.32373046875 -3.475830078125
v 2.028076171875 0.32373046875 -2.945068359375
v 2.800048828125 0.32373046875 -3.1865234375
v 2.847900390625 0.32373046875 -3.1865234375
v 3.619873046875 0.32373046875 -2.945068359375
v 3.619873046875 0.32373046875 -3.475830078125
v 2.847900390625 0.32373046875 -3.234375
v 2.55859375 0.32373046875 -2.41455078125
v 3.08935546875 0.32373046875 -2.41455078125
v 2.847900390625 0.32373046875 -3.1865234375
v 2.800048828125 0.32373046875 -3.1865234375
v 2.800048828125 0.32373046875 -3.234375
v 2.55859375 0.32373046875 -4.00634765625
v 2.028076171875 0.32373046875 -3.475830078125
v 2.847900390625 0.32373046875 -3.234375
v 3.619873046875 0.32373046875 -3.475830078125
v 3.08935546875 0.32373046875 -4.00634765625
v 3.08935546875 0.32373046875 -2.41455078125
v 3.619873046875 0.32373046875 -2.945068359375
v 2.847900390625 0.32373046875 -3.1865234375
v 2.028076171875 0.32373046875 -2.945068359375
v 2.55859375 0.32373046875 -2.41455078125
v 2.800048828125 0.32373046875 -3.1865234375
vt 0.09375 -0.1171875
vt 0.09375 -0.1171875
vt 0.09375 -0.1171875
vt 0.09375 -0.1171875
vt 0.09375 -0.1171875
vt 0.09375 -0.1171875
vt 0.09375 -0.1171875
vt 0.09375 -0.1171875
vt 0.09375 -0.1171875
vt 0.09375 -0.1171875
vt 0.09375 -0.1171875
vt 0.09375 -0.1171875
vt 0.09375 -0.1171875
vt 0.09375 -0.1171875
vt 0.09375 -0.1171875
vt 0.09375 -0.1171875
vt 0.09375 -0.1171875
vt 0.09375 -0.1171875
vt 0.09375 -0.1171875
vt 0.09375 -0.1171875
vt 0.09375 -0.1171875
vt 0.09375 -0.1171875
vt 0.09375 -0.1171875
vt 0.09375 -0.1171875
vt 0.09375 -0.1171875
vt 0.09375 -0.1171875
vt 0.09375 -0.1171875
vt 0.09375 -0.1171875
vn 0 0.998046875 0
vn 0 0.998046875 0
vn 0 0.998046875 0
vn 0 0.998046875 0
vn 0 0.998046875 0
vn 0 0.998046875 0
vn 0 0.998046875 0
vn 0 0.998046875 0
vn 0 0.998046875 0
vn 0 0.998046875 0
vn 0 0.998046875 0
vn 0 0.998046875 0
vn 0 0.998046875 0
vn 0 0.998046875 0
vn 0 0.998046875 0
vn 0 0.998046875 0
vn 0 0.998046875 0
vn 0 0.998046875 0
vn 0 0.998046875 0
vn 0 0.998046875 0
vn 0 0.998046875 0
vn 0 0.998046875 0
vn 0 0.998046875 0
vn 0 0.998046875 0
vn 0 0.998046875 0
vn 0 0.998046875 0
vn 0 0.998046875 0
vn 0 0.998046875 0
f 5/5/5 6/6/6 7/7/7
f 7/7/7 8/8/8 5/5/5
f 9/9/9 10/10/10 11/11/11
f 11/11/11 12/12/12 9/9/9
f 13/13/13 14/14/14 15/15/15
f 15/15/15 16/16/16 13/13/13
f 17/17/17 18/18/18 19/19/19
f 19/19/19 20/20/20 17/17/17
f 21/21/21 22/22/22 23/23/23
f 24/24/24 25/25/25 26/26/26
f 27/27/27 28/28/28 29/29/29
f 30/30/30 31/31/31 32/32/32
o polygon2
g polygon2
usemtl sand_tex001_1
v 4.5 0.25 -4.5
v -4.5 0.25 -4.5
v -4.5 0.25 4.5
v 4.5 0.25 4.5
vt 1 0
vt -3 0
vt -3 -4
vt 1 -4
vn 0 0.998046875 0
vn 0 0.998046875 0
vn 0 0.998046875 0
vn 0 0.998046875 0
f 33/33/33 34/34/34 35/35/35
f 35/35/35 36/36/36 33/33/33
o polygon3
g polygon3
usemtl sand_tex002_1
v 4.5 0.25 4.5
v -4.5 0.25 4.5
v -5 0.25 5
v 5 0.25 5
v 5 0.25 -5
v 4.5 0.25 -4.5
v 4.5 0.25 4.5
v 5 0.25 5
v -5 0.25 -5
v -4.5 0.25 -4.5
v 4.5 0.25 -4.5
v 5 0.25 -5
v -5 0 -5
v -5 0 5
v -5 0.25 5
v -5 0.25 -5
v 5 0 5
v 5 0 -5
v 5 0.25 -5
v 5 0.25 5
v -5 0.25 -5
v 5 0.25 -5
v 5 0 -5
v -5 0 -5
v -5 0.25 5
v -4.5 0.25 4.5
v -4.5 0.25 -4.5
v -5 0.25 -5
v -5 0 5
v 5 0 5
v 5 0.25 5
v -5 0.25 5
vt 2.82421875 -0.13671875
vt -1.73828125 -0.13671875
vt -1.9375 -0.3828125
vt 2.99609375 -0.3828125
vt 3.4921875 -0.3828125
vt 2.99609375 -0.01171875
vt -2.59375 -0.08984375
vt -3.0859375 -0.3828125
vt 3.4921875 -0.3828125
vt 2.99609375 -0.01171875
vt -1.9375 -0.01171875
vt -2.4296875 -0.3828125
vt 0 -0.859375
vt 1 -0.859375
vt 1 -0.5234375
vt 0 -0.5234375
vt 0 -0.859375
vt 1 -0.859375
vt 1 -0.5234375
vt 0 -0.5234375
vt 0 -0.859375
vt 1 -0.859375
vt 1 -0.5234375
vt 0 -0.5234375
vt 3.88671875 -0.3828125
vt 3.390625 -0.078125
vt -1.9375 -0.01171875
vt -2.4296875 -0.3828125
vt 0 -0.859375
vt 1 -0.859375
vt 1 -0.5234375
vt 0 -0.5234375
vn 0 0.998046875 0
vn 0 0.998046875 0
vn 0 0.998046875 0
vn 0 0.998046875 0
vn 0 0.998046875 0
vn 0 0.998046875 0
vn 0 0.998046875 0
vn 0 0.998046875 0
vn 0 0.998046875 0
vn 0 0.998046875 0
vn 0 0.998046875 0
vn 0 0.998046875 0
vn -1 0 0
vn -1 0 0
vn -1 0 0
vn -1 0 0
vn 0.998046875 0 0
vn 0.998046875 0 0
vn 0.998046875 0 0
vn 0.998046875 0 0
vn 0 0 -1
vn 0 0 -1
vn 0 0 -1
vn 0 0 -1
vn 0 0.998046875 0
vn 0 0.998046875 0
vn 0 0.998046875 0
vn 0 0.998046875 0
vn 0 0 0.998046875
vn 0 0 0.998046875
vn 0 0 0.998046875
vn 0 0 0.998046875
f 37/37/37 38/38/38 39/39/39
f 39/39/39 40/40/40 37/37/37
f 41/41/41 42/42/42 43/43/43
f 43/43/43 44/44/44 41/41/41
f 45/45/45 46/46/46 47/47/47
f 47/47/47 48/48/48 45/45/45
f 49/49/49 50/50/50 51/51/51
f 51/51/51 52/52/52 49/49/49
f 53/53/53 54/54/54 55/55/55
f 55/55/55 56/56/56 53/53/53
f 57/57/57 58/58/58 59/59/59
f 59/59/59 60/60/60 57/57/57
f 61/61/61 62/62/62 63/63/63
f 63/63/63 64/64/64 61/61/61
f 65/65/65 66/66/66 67/67/67
f 67/67/67 68/68/68 65/65/65
o polygon4
g polygon4
usemtl sand_tex003_1
v 2.289306640625 0.460693359375 -3.03173828125
v 2.016357421875 0.460693359375 -2.983154296875
v 2.54296875 0.460693359375 -2.802490234375
v 2.377197265625 0.460693359375 -2.6064453125
v 2.90234375 0.460693359375 -2.6455078125
v 2.930908203125 0.460693359375 -2.37060546875
v 3.254638671875 1.332763671875 -3.239501953125
v 2.970947265625 1.332763671875 -2.956787109375
v 2.984619140625 0.428466796875 -2.7314453125
v 3.461669921875 0.428466796875 -3.2060546875
v 3.07373046875 1.332763671875 -3.5966796875
v 3.254638671875 1.332763671875 -3.239501953125
v 3.461669921875 0.428466796875 -3.2060546875
v 3.157470703125 0.428466796875 -3.806396484375
v 2.677978515625 1.332763671875 -3.534912109375
v 3.07373046875 1.332763671875 -3.5966796875
v 3.157470703125 0.428466796875 -3.806396484375
v 2.49267578125 0.428466796875 -3.70263671875
v 2.614501953125 1.332763671875 -3.139404296875
v 2.677978515625 1.332763671875 -3.534912109375
v 2.49267578125 0.428466796875 -3.70263671875
v 2.385986328125 0.428466796875 -3.038330078125
v 2.970947265625 1.332763671875 -2.956787109375
v 2.614501953125 1.332763671875 -3.139404296875
v 2.385986328125 0.428466796875 -3.038330078125
v 2.984619140625 0.428466796875 -2.7314453125
v 2.016357421875 0.460693359375 -2.983154296875
v 2.289306640625 0.460693359375 -3.03173828125
v 2.497802734375 0.460693359375 -3.572998046875
v 2.31787109375 0.460693359375 -3.701416015625
v 2.930908203125 0.460693359375 -2.37060546875
v 3.474365234375 0.460693359375 -2.9189453125
v 3.313232421875 0.460693359375 -3.051025390625
v 2.90234375 0.460693359375 -2.6455078125
v 2.970947265625 1.332763671875 -2.956787109375
v 3.254638671875 1.332763671875 -3.239501953125
v 2.918212890625 1.332763671875 -3.29345703125
v 3.254638671875 1.332763671875 -3.239501953125
v 3.07373046875 1.332763671875 -3.5966796875
v 2.918212890625 1.332763671875 -3.29345703125
v 3.07373046875 1.332763671875 -3.5966796875
v 2.677978515625 1.332763671875 -3.534912109375
v 2.918212890625 1.332763671875 -3.29345703125
v 2.677978515625 1.332763671875 -3.534912109375
v 2.614501953125 1.332763671875 -3.139404296875
v 2.918212890625 1.332763671875 -3.29345703125
v 2.614501953125 1.332763671875 -3.139404296875
v 2.970947265625 1.332763671875 -2.956787109375
v 2.918212890625 1.332763671875 -3.29345703125
vt 1 -0.00390625
vt 1 -0.37109375
vt 0.5 -0.00390625
vt 0.5 -0.37109375
vt 1 -0.00390625
vt 1 -0.37109375
vt -0.48046875 -0.984375
vt -0.0703125 -0.984375
vt -0.0703125 -0.390625
vt -0.48046875 -0.390625
vt -0.48046875 -0.984375
vt -0.0703125 -0.984375
vt -0.0703125 -0.390625
vt -0.48046875 -0.390625
vt -0.48046875 -0.984375
vt -0.0703125 -0.984375
vt -0.0703125 -0.390625
vt -0.48046875 -0.390625
vt -0.48046875 -0.984375
vt -0.0703125 -0.984375
vt -0.0703125 -0.390625
vt -0.48046875 -0.390625
vt -0.48046875 -0.984375
vt -0.0703125 -0.984375
vt -0.0703125 -0.390625
vt -0.48046875 -0.390625
vt 0.875 -0.37109375
vt 0.875 -0.00390625
vt 1.3125 -0.00390625
vt 1.3125 -0.37109375
vt 0.875 -0.37109375
vt 1.3125 -0.37109375
vt 1.3125 -0.00390625
vt 0.875 -0.00390625
vt 0.234375 -0.7265625
vt 0.234375 -0.6015625
vt 0.4296875 -0.6640625
vt 0.234375 -0.7265625
vt 0.234375 -0.6015625
vt 0.4296875 -0.6640625
vt 0.234375 -0.7265625
vt 0.234375 -0.6015625
vt 0.4296875 -0.6640625
vt 0.234375 -0.7265625
vt 0.234375 -0.6015625
vt 0.4296875 -0.6640625
vt 0.234375 -0.7265625
vt 0.234375 -0.6015625
vt 0.4296875 -0.6640625
vn 0 0.998046875 0
vn 0 0.998046875 0
vn 0 0.998046875 0
vn 0 0.998046875 0
vn 0 0.998046875 0
vn 0 0.998046875 0
vn 0.55078125 0.830078125 0.087890625
vn 0.0859375 0.833984375 0.544921875
vn 0.15234375 0.2421875 0.958984375
vn 0.9609375 0.2265625 0.154296875
vn 0.251953125 0.833984375 -0.490234375
vn 0.55078125 0.830078125 0.087890625
vn 0.9609375 0.2265625 0.154296875
vn 0.443359375 0.2421875 -0.86328125
vn -0.3828125 0.83984375 -0.38671875
vn 0.251953125 0.833984375 -0.490234375
vn 0.443359375 0.2421875 -0.86328125
vn -0.6796875 0.265625 -0.68359375
vn -0.484375 0.83984375 0.24609375
vn -0.3828125 0.83984375 -0.38671875
vn -0.6796875 0.265625 -0.68359375
vn -0.859375 0.265625 0.4375
vn 0.0859375 0.833984375 0.544921875
vn -0.484375 0.83984375 0.24609375
vn -0.859375 0.265625 0.4375
vn 0.15234375 0.2421875 0.958984375
vn 0 0.998046875 0
vn 0 0.998046875 0
vn 0 0.998046875 0
vn 0 0.998046875 0
vn 0 0.998046875 0
vn 0 0.998046875 0
vn 0 0.998046875 0
vn 0 0.998046875 0
vn 0.0859375 0.833984375 0.544921875
vn 0.55078125 0.830078125 0.087890625
vn 0 0.998046875 0
vn 0.55078125 0.830078125 0.087890625
vn 0.251953125 0.833984375 -0.490234375
vn 0 0.998046875 0
vn 0.251953125 0.833984375 -0.490234375
vn -0.3828125 0.83984375 -0.38671875
vn 0 0.998046875 0
vn -0.3828125 0.83984375 -0.38671875
vn -0.484375 0.83984375 0.24609375
vn 0 0.998046875 0
vn -0.484375 0.83984375 0.24609375
vn 0.0859375 0.833984375 0.544921875
vn 0 0.998046875 0
f 69/69/69 70/70/70 71/71/71
f 70/70/70 72/72/72 71/71/71
f 71/71/71 72/72/72 73/73/73
f 72/72/72 74/74/74 73/73/73
f 75/75/75 76/76/76 77/77/77
f 77/77/77 78/78/78 75/75/75
f 79/79/79 80/80/80 81/81/81
f 81/81/81 82/82/82 79/79/79
f 83/83/83 84/84/84 85/85/85
f 85/85/85 86/86/86 83/83/83
f 87/87/87 88/88/88 89/89/89
f 89/89/89 90/90/90 87/87/87
f 91/91/91 92/92/92 93/93/93
f 93/93/93 94/94/94 91/91/91
f 95/95/95 96/96/96 97/97/97
f 97/97/97 98/98/98 95/95/95
f 99/99/99 100/100/100 101/101/101
f 101/101/101 102/102/102 99/99/99
f 103/103/103 104/104/104 105/105/105
f 106/106/106 107/107/107 108/108/108
f 109/109/109 110/110/110 111/111/111
f 112/112/112 113/113/113 114/114/114
f 115/115/115 116/116/116 117/117/117
