# Created with Spiky's DS Map Editor 1.8.1.0
mtllib 098.mtl
o polygon0
g polygon0
usemtl nkabe
v -5 3.947265625 2
v -5 0.5 2
v 4.5 0.5 2
v 4.5 3.947265625 2
v -5 0.5 -2
v -5 0.5 2
v -5 3.947265625 2
v -5 3.947265625 -2
vt 0 0
vt 0 -1
vt 2.994140625 -1
vt 2.994140625 0
vt -2 -1
vt -1 -1
vt -1 0
vt -2 0
vn -0.70703125 0 0.70703125
vn -0.70703125 0 0.70703125
vn 0 0 0.998046875
vn 0 0 0.998046875
vn -1 0 0
vn -0.70703125 0 0.70703125
vn -0.70703125 0 0.70703125
vn -1 0 0
f 1/1/1 2/2/2 3/3/3
f 3/3/3 4/4/4 1/1/1
f 5/5/5 6/6/6 7/7/7
f 7/7/7 8/8/8 5/5/5
o polygon1
g polygon1
usemtl nkabe2
v 4 0.5 1.25
v 4 0.5 2.25
v 4 4.25 2.25
v 4 4.25 1.25
v 5 0.5 2.25
v 5 0.5 1.25
v 5 4.25 1.25
v 5 4.25 2.25
v 4 4.25 1.25
v 5 4.25 1.25
v 5 0.5 1.25
v 4 0.5 1.25
v 4 0.5 2.25
v 5 0.5 2.25
v 5 4.25 2.25
v 4 4.25 2.25
v -4.5 3.947265625 1.5
v -5 3.947265625 2
v 4.5 3.947265625 2
v 4.5 3.947265625 1.5
v -4.5 0.5 -2
v -5 0.5 -2
v -5 3.947265625 -2
v -4.5 3.947265625 -2
v -5 3.947265625 -2
v -5 3.947265625 2
v -4.5 3.947265625 1.5
v -4.5 3.947265625 -2
v 4 4.25 2.25
v 4.5 5 1.75
v 4 4.25 1.25
v 4.5 5 1.75
v 5 4.25 2.25
v 5 4.25 1.25
v 4 4.25 2.25
v 5 4.25 2.25
v 4.5 5 1.75
v 4 4.25 1.25
v 4.5 5 1.75
v 5 4.25 1.25
vt 2.46875 -1
vt 2.828125 -1
vt 2.828125 -0.53125
vt 2.46875 -0.53125
vt 2.46875 -1
vt 2.828125 -1
vt 2.828125 -0.53125
vt 2.46875 -0.53125
vt 2.46875 -1
vt 2.828125 -1
vt 2.828125 -0.53125
vt 2.46875 -0.53125
vt 2.0703125 -1
vt 2.4296875 -1
vt 2.4296875 -0.53125
vt 2.0703125 -0.53125
vt 3.9296875 -0.1015625
vt 3.5625 -0.1015625
vt 3.5625 -0.4609375
vt 3.9296875 -0.4609375
vt 4.0625 -0.48046875
vt 4.4375 -0.48046875
vt 4.4375 -0.01953125
vt 4.0625 -0.01953125
vt 3.9296875 -0.46484375
vt 3.9296875 -0.09375
vt 3.5703125 -0.09375
vt 3.5703125 -0.46484375
vt 0.984375 -0.671875
vt 0.921875 -0.515625
vt 0.8828125 -0.671875
vt 0.921875 -0.515625
vt 0.8828125 -0.671875
vt 0.984375 -0.671875
vt 0.8828125 -0.671875
vt 0.984375 -0.671875
vt 0.921875 -0.515625
vt 0.984375 -0.671875
vt 0.921875 -0.515625
vt 0.8828125 -0.671875
vn -1 0 0
vn -1 0 0
vn -1 0 0
vn -1 0 0
vn 0.998046875 0 0
vn 0.998046875 0 0
vn 0.998046875 0 0
vn 0.998046875 0 0
vn 0 0 -1
vn 0 0 -1
vn 0 0 -1
vn 0 0 -1
vn 0 0 0.998046875
vn 0 0 0.998046875
vn 0 0 0.998046875
vn 0 0 0.998046875
vn 0 0.998046875 0
vn 0 0.998046875 0
vn 0 0.998046875 0
vn 0 0.998046875 0
vn 0 0 -1
vn 0 0 -1
vn 0 0 -1
vn 0 0 -1
vn 0 0.998046875 0
vn 0 0.998046875 0
vn 0 0.998046875 0
vn 0 0.998046875 0
vn -0.513671875 0.685546875 0.513671875
vn 0 0.998046875 0
vn -0.513671875 0.685546875 -0.513671875
vn 0 0.998046875 0
vn 0.513671875 0.685546875 0.513671875
vn 0.513671875 0.685546875 -0.513671875
vn -0.513671875 0.685546875 0.513671875
vn 0.513671875 0.685546875 0.513671875
vn 0 0.998046875 0
vn -0.513671875 0.685546875 -0.513671875
vn 0 0.998046875 0
vn 0.513671875 0.685546875 -0.513671875
f 9/9/9 10/10/10 11/11/11
f 11/11/11 12/12/12 9/9/9
f 13/13/13 14/14/14 15/15/15
f 15/15/15 16/16/16 13/13/13
f 17/17/17 18/18/18 19/19/19
f 19/19/19 20/20/20 17/17/17
f 21/21/21 22/22/22 23/23/23
f 23/23/23 24/24/24 21/21/21
f 25/25/25 26/26/26 27/27/27
f 27/27/27 28/28/28 25/25/25
f 29/29/29 30/30/30 31/31/31
f 31/31/31 32/32/32 29/29/29
f 33/33/33 34/34/34 35/35/35
f 35/35/35 36/36/36 33/33/33
f 37/37/37 38/38/38 39/39/39
f 40/40/40 41/41/41 42/42/42
f 43/43/43 44/44/44 45/45/45
f 46/46/46 47/47/47 48/48/48
o polygon2
g polygon2
usemtl nkabe3
v -4.5 0.5 1.5
v -4.5 3.947265625 1.5
v 4.5 3.947265625 1.5
v 4.5 0.5 1.5
v -4.5 3.947265625 -2
v -4.5 3.947265625 1.5
v -4.5 0.5 1.5
v -4.5 0.5 -2
vt 0 -1
vt 0 0
vt 2.994140625 0
vt 2.994140625 -1
vt -2 0
vt -1 0
vt -1 -1
vt -2 -1
vn 0.70703125 0 -0.70703125
vn 0.70703125 0 -0.70703125
vn 0 0 -1
vn 0 0 -1
vn 0.998046875 0 0
vn 0.70703125 0 -0.70703125
vn 0.70703125 0 -0.70703125
vn 0.998046875 0 0
f 49/49/49 50/50/50 51/51/51
f 51/51/51 52/52/52 49/49/49
f 53/53/53 54/54/54 55/55/55
f 55/55/55 56/56/56 53/53/53
o polygon3
g polygon3
usemtl h_kage
v -4.25 0.25 1.25
v -5.25 0.25 2.25
v 3.875 0.25 2.25
v 3.875 0.25 1.25
v -5.25 0.25 -2.25
v -5.25 0.25 2.25
v -4.25 0.25 1.25
v -4.25 0.25 -2.25
v 3.87841796875 0.25 2.375
v 5.12841796875 0.25 2.375
v 5.12841796875 0.25 1.125
v 3.87841796875 0.25 1.125
vt 3.9296875 -0.7890625
vt 3.5625 -0.7890625
vt 3.5625 -0.828125
vt 3.9296875 -0.828125
vt 3.9296875 -0.7890625
vt 3.9296875 -0.4140625
vt 3.5703125 -0.4140625
vt 3.5703125 -0.7890625
vt 0 -0.8203125
vt 1 -0.8203125
vt 1 -0.5
vt 0 -0.5
vn 0 0.998046875 0
vn 0 0.998046875 0
vn 0 0.998046875 0
vn 0 0.998046875 0
vn 0 0.998046875 0
vn 0 0.998046875 0
vn 0 0.998046875 0
vn 0 0.998046875 0
vn 0 0.998046875 0
vn 0 0.998046875 0
vn 0 0.998046875 0
vn 0 0.998046875 0
f 57/57/57 58/58/58 59/59/59
f 59/59/59 60/60/60 57/57/57
f 61/61/61 62/62/62 63/63/63
f 63/63/63 64/64/64 61/61/61
f 65/65/65 66/66/66 67/67/67
f 67/67/67 68/68/68 65/65/65
