# Created with Spiky's DS Map Editor 1.8.1.0
mtllib 106.mtl
o polygon0
g polygon0
usemtl c01thicket_c_lm1
v 4.210205078125 4.29541015625 -1.231689453125
v 2.7744140625 4.44921875 -1.295166015625
v 3.745361328125 3.382080078125 -0.854248046875
v 2.762939453125 3.495849609375 -0.901123046875
v 2.661376953125 2.900146484375 -0.65478515625
v 2.136474609375 3.044677734375 -0.714599609375
v 2.661376953125 2.327880859375 -0.418212890625
v 2.169189453125 2.673095703125 -0.56103515625
v 1.2197265625 2.128662109375 -0.3359375
v 0.8662109375 2.414794921875 -0.454345703125
v 1.47314453125 2.256591796875 -1.0234375
v -1.47314453125 2.256591796875 -1.0234375
v 1.846923828125 3.698486328125 -1.22412109375
v -1.846923828125 3.698486328125 -1.22412109375
v 1.050537109375 6.73779296875 -1.083251953125
v -1.050537109375 6.73779296875 -1.083251953125
v -1.47314453125 2.256591796875 -1.0234375
v -1.47314453125 2.256591796875 1.5234375
v -1.846923828125 3.698486328125 -1.22412109375
v -1.846923828125 3.698486328125 1.72412109375
v -1.050537109375 6.73779296875 -1.083251953125
v -1.050537109375 6.73779296875 0.51708984375
v 1.47314453125 2.256591796875 1.5234375
v 1.47314453125 2.256591796875 -1.0234375
v 1.846923828125 3.698486328125 1.72412109375
v 1.846923828125 3.698486328125 -1.22412109375
v 1.050537109375 6.73779296875 0.51708984375
v 1.050537109375 6.73779296875 -1.083251953125
v 1.2041015625 5.987548828125 0.597412109375
v 2.75732421875 7.399658203125 -0.811767578125
v 0.5009765625 6.516357421875 -0.07373046875
v 1.2041015625 5.654541015625 -0.54541015625
v -1.2041015625 5.654541015625 -0.54541015625
v -2.89306640625 7.399658203125 -0.811767578125
v -0.5009765625 6.516357421875 -0.07373046875
v -1.2041015625 5.987548828125 0.597412109375
v -1.846923828125 3.698486328125 1.72412109375
v 1.846923828125 3.698486328125 1.72412109375
v 1.050537109375 6.73779296875 0.51708984375
v -1.050537109375 6.73779296875 0.51708984375
v 1.846923828125 3.698486328125 1.72412109375
v -1.846923828125 3.698486328125 1.72412109375
v -1.47314453125 2.256591796875 1.5234375
v 1.47314453125 2.256591796875 1.5234375
v 1.050537109375 6.73779296875 0.51708984375
v 1.050537109375 6.73779296875 -1.083251953125
v -1.050537109375 6.73779296875 -1.083251953125
v -1.050537109375 6.73779296875 0.51708984375
v 1.2041015625 5.987548828125 0.597412109375
v 1.2041015625 5.654541015625 -0.54541015625
v 2.75732421875 7.399658203125 -0.811767578125
v -1.2041015625 5.654541015625 -0.54541015625
v -1.2041015625 5.987548828125 0.597412109375
v -2.89306640625 7.399658203125 -0.811767578125
vt 0.994140625 0
vt 0.51953125 0
vt 0.890625 -0.38671875
vt 0.56640625 -0.384765625
vt 0.564453125 -0.626953125
vt 0.38671875 -0.591796875
vt 0.595703125 -0.857421875
vt 0.416015625 -0.740234375
vt 0.13671875 -1
vt 0.005859375 -0.900390625
vt 1 -0.888671875
vt 0 -0.888671875
vt 1 -0.75
vt 0 -0.75
vt 0.78515625 -0.05078125
vt 0.21484375 -0.05078125
vt 0.8984375 -0.888671875
vt 0.1015625 -0.888671875
vt 1 -0.75
vt 0 -0.75
vt 0.75 -0.05078125
vt 0.25 -0.05078125
vt 0.1015625 -0.888671875
vt 0.8984375 -0.888671875
vt 0 -0.75
vt 1 -0.75
vt 0.25 -0.05078125
vt 0.75 -0.05078125
vt 1 -0.640625
vt 0.5 -0.009765625
vt 0.666015625 -0.640625
vt 0.333984375 -0.640625
vt 1 -0.640625
vt 0.5 -0.025390625
vt 0.666015625 -0.640625
vt 0.333984375 -0.640625
vt 0.21484375 -0.75
vt 0.78515625 -0.75
vt 1 -0.05078125
vt 0 -0.05078125
vt 0 -0.75
vt 0 -0.75
vt 0.1015625 -0.888671875
vt 0.1015625 -0.888671875
vt 0.8046875 -0.33984375
vt 0.8046875 -0.009765625
vt 0.326171875 -0.009765625
vt 0.326171875 -0.33984375
vt 0 -0.640625
vt 0.333984375 -0.640625
vt 0.5 -0.009765625
vt 0 -0.640625
vt 0.333984375 -0.640625
vt 0.5 -0.025390625
vn 0 0.3828125 0.923828125
vn 0 0.3828125 0.923828125
vn 0 0.3828125 0.923828125
vn 0 0.3828125 0.923828125
vn 0 0.3828125 0.923828125
vn 0 0.3828125 0.923828125
vn 0 0.3828125 0.923828125
vn 0 0.3828125 0.923828125
vn 0 0.3828125 0.923828125
vn 0 0.3828125 0.923828125
vn 0 -0.138671875 -0.990234375
vn 0 -0.138671875 -0.990234375
vn 0.697265625 -0.03125 -0.716796875
vn -0.697265625 -0.03125 -0.716796875
vn 0.5078125 0.68359375 -0.525390625
vn -0.5078125 0.68359375 -0.525390625
vn -0.96875 -0.251953125 0
vn -0.96875 -0.251953125 0
vn -0.697265625 -0.03125 -0.716796875
vn -0.70703125 0.0859375 0.701171875
vn -0.5078125 0.68359375 -0.525390625
vn -0.458984375 0.771484375 0.44140625
vn 0.96875 -0.251953125 0
vn 0.96875 -0.251953125 0
vn 0.70703125 0.0859375 0.701171875
vn 0.697265625 -0.03125 -0.716796875
vn 0.458984375 0.771484375 0.44140625
vn 0.5078125 0.68359375 -0.525390625
vn 0.619140625 0.09765625 0.779296875
vn 0.703125 0.69921875 -0.13671875
vn -0.41796875 0.87890625 -0.228515625
vn 0.404296875 -0.478515625 -0.779296875
vn -0.390625 -0.498046875 -0.775390625
vn -0.70703125 0.6953125 -0.1328125
vn 0.3984375 0.88671875 -0.232421875
vn -0.6015625 0.07421875 0.794921875
vn -0.70703125 0.0859375 0.701171875
vn 0.70703125 0.0859375 0.701171875
vn 0.458984375 0.771484375 0.44140625
vn -0.458984375 0.771484375 0.44140625
vn 0.70703125 0.0859375 0.701171875
vn -0.70703125 0.0859375 0.701171875
vn 0 -0.138671875 0.990234375
vn 0 -0.138671875 0.990234375
vn 0.458984375 0.771484375 0.44140625
vn 0.5078125 0.68359375 -0.525390625
vn -0.5078125 0.68359375 -0.525390625
vn -0.458984375 0.771484375 0.44140625
vn 0.619140625 0.09765625 0.779296875
vn 0.404296875 -0.478515625 -0.779296875
vn 0.703125 0.69921875 -0.13671875
vn -0.390625 -0.498046875 -0.775390625
vn -0.6015625 0.07421875 0.794921875
vn -0.70703125 0.6953125 -0.1328125
f 1/1/1 2/2/2 3/3/3
f 2/2/2 4/4/4 3/3/3
f 3/3/3 4/4/4 5/5/5
f 4/4/4 6/6/6 5/5/5
f 5/5/5 6/6/6 7/7/7
f 6/6/6 8/8/8 7/7/7
f 7/7/7 8/8/8 9/9/9
f 8/8/8 10/10/10 9/9/9
f 11/11/11 12/12/12 13/13/13
f 12/12/12 14/14/14 13/13/13
f 13/13/13 14/14/14 15/15/15
f 14/14/14 16/16/16 15/15/15
f 17/17/17 18/18/18 19/19/19
f 18/18/18 20/20/20 19/19/19
f 19/19/19 20/20/20 21/21/21
f 20/20/20 22/22/22 21/21/21
f 23/23/23 24/24/24 25/25/25
f 24/24/24 26/26/26 25/25/25
f 25/25/25 26/26/26 27/27/27
f 26/26/26 28/28/28 27/27/27
f 29/29/29 30/30/30 31/31/31
f 30/30/30 32/32/32 31/31/31
f 33/33/33 34/34/34 35/35/35
f 34/34/34 36/36/36 35/35/35
f 37/37/37 38/38/38 39/39/39
f 39/39/39 40/40/40 37/37/37
f 41/41/41 42/42/42 43/43/43
f 43/43/43 44/44/44 41/41/41
f 45/45/45 46/46/46 47/47/47
f 47/47/47 48/48/48 45/45/45
f 49/49/49 50/50/50 51/51/51
f 52/52/52 53/53/53 54/54/54
o polygon1
g polygon1
usemtl c01thicket_d_lm1
v -0.5 3.989013671875 -0.25
v -0.95458984375 0.7685546875 -0.70458984375
v -0.5 3.989013671875 0.75
v -0.95458984375 0.7685546875 1.20458984375
v 0.5 3.989013671875 0.75
v 0.95458984375 0.7685546875 1.20458984375
v 0.5 3.989013671875 -0.25
v 0.95458984375 0.7685546875 -0.70458984375
v 0.95458984375 0.7685546875 1.20458984375
v -0.95458984375 0.7685546875 1.20458984375
v 0.95458984375 0.7685546875 -0.70458984375
v -0.95458984375 0.7685546875 -0.70458984375
v 0.5 3.989013671875 -0.25
v -0.5 3.989013671875 -0.25
v 0.5 3.989013671875 0.75
v -0.5 3.989013671875 0.75
vt -1 0
vt -1 -1
vt 0 0
vt 0 -1
vt 1 0
vt 1 -1
vt 2 0
vt 2 -1
vt 1 3
vt 0 3
vt 1 2
vt 0 2
vt 1 1
vt 0 1
vt 1 0
vt 0 0
vn -0.5078125 0.68359375 -0.525390625
vn -0.62890625 -0.45703125 -0.62890625
vn -0.521484375 0.673828125 0.521484375
vn -0.62890625 -0.45703125 0.62890625
vn 0.521484375 0.673828125 0.521484375
vn 0.62890625 -0.45703125 0.62890625
vn 0.5078125 0.68359375 -0.525390625
vn 0.62890625 -0.45703125 -0.62890625
vn 0.62890625 -0.45703125 0.62890625
vn -0.62890625 -0.45703125 0.62890625
vn 0.62890625 -0.45703125 -0.62890625
vn -0.62890625 -0.45703125 -0.62890625
vn 0.5078125 0.68359375 -0.525390625
vn -0.5078125 0.68359375 -0.525390625
vn 0.521484375 0.673828125 0.521484375
vn -0.521484375 0.673828125 0.521484375
f 55/55/55 56/56/56 57/57/57
f 56/56/56 58/58/58 57/57/57
f 57/57/57 58/58/58 59/59/59
f 58/58/58 60/60/60 59/59/59
f 59/59/59 60/60/60 61/61/61
f 60/60/60 62/62/62 61/61/61
f 63/63/63 64/64/64 65/65/65
f 64/64/64 66/66/66 65/65/65
f 65/65/65 66/66/66 67/67/67
f 66/66/66 68/68/68 67/67/67
f 67/67/67 68/68/68 69/69/69
f 68/68/68 70/70/70 69/69/69
o polygon2
g polygon2
usemtl lambert7
v -2 0.5 2.25
v 2 0.5 2.25
v 2 0.5 -1
v -2 0.5 -1
vt 0 -0.3125
vt 1 -0.3125
vt 1 -0.3125
vt 0 -0.3125
vn 0 0.998046875 0
vn 0 0.998046875 0
vn 0 0.998046875 0
vn 0 0.998046875 0
f 71/71/71 72/72/72 73/73/73
f 73/73/73 74/74/74 71/71/71
