# Created with Spiky's DS Map Editor 1.8.1.0
mtllib 107.mtl
o polygon0
g polygon0
usemtl c01thicket_c_1
v -0.555419921875 3.58349609375 -0.29833984375
v 0.319580078125 3.135009765625 -0.2998046875
v -1.435546875 2.023193359375 -0.416015625
v 0.343505859375 2.023193359375 -0.416015625
v -0.75146484375 1.14990234375 -0.337158203125
v 0.842529296875 1.14990234375 -0.337158203125
v -1.435546875 2.023193359375 0.7626953125
v 0.343505859375 2.023193359375 0.7626953125
v -0.555419921875 3.58349609375 0.26904296875
v 0.319580078125 3.135009765625 0.441650390625
v -1.087158203125 2.918212890625 0.491455078125
v -1.087158203125 2.918212890625 -0.10595703125
v -0.775146484375 3.307373046875 -0.10595703125
v -0.775146484375 3.307373046875 0.292236328125
v -0.555419921875 3.58349609375 -0.29833984375
v -0.555419921875 3.58349609375 0.26904296875
v 0.319580078125 3.135009765625 0.441650390625
v 0.319580078125 3.135009765625 -0.2998046875
v 0.343505859375 2.023193359375 -0.416015625
v 0.343505859375 2.023193359375 0.7626953125
v 1.34521484375 1.946533203125 0.484130859375
v 1.34521484375 1.946533203125 0.015869140625
v 0.842529296875 1.14990234375 0.837158203125
v 0.842529296875 1.14990234375 -0.337158203125
v 1.34521484375 1.946533203125 0.015869140625
v 1.34521484375 1.946533203125 0.484130859375
v -1.435546875 2.023193359375 -0.416015625
v -1.435546875 2.023193359375 0.7626953125
v -0.555419921875 3.58349609375 0.26904296875
v -0.555419921875 3.58349609375 -0.29833984375
v 0.343505859375 2.023193359375 0.7626953125
v 0.343505859375 2.023193359375 -0.416015625
v 0.319580078125 3.135009765625 -0.2998046875
v 0.319580078125 3.135009765625 0.441650390625
v -1.435546875 2.023193359375 0.7626953125
v -1.435546875 2.023193359375 -0.416015625
v -0.75146484375 1.14990234375 -0.337158203125
v -0.75146484375 1.14990234375 0.837158203125
v 0.343505859375 2.023193359375 0.7626953125
v -1.435546875 2.023193359375 0.7626953125
v -0.75146484375 1.14990234375 0.837158203125
v 0.842529296875 1.14990234375 0.837158203125
v -1.55126953125 3.307373046875 0.1181640625
v -1.087158203125 2.918212890625 -0.10595703125
v -1.087158203125 2.918212890625 0.491455078125
v -1.55126953125 3.307373046875 0.1181640625
v -0.775146484375 3.307373046875 -0.10595703125
v -1.087158203125 2.918212890625 -0.10595703125
v -1.55126953125 3.307373046875 0.1181640625
v -0.775146484375 3.307373046875 0.292236328125
v -0.775146484375 3.307373046875 -0.10595703125
v -1.55126953125 3.307373046875 0.1181640625
v -1.087158203125 2.918212890625 0.491455078125
v -0.775146484375 3.307373046875 0.292236328125
v 0.842529296875 1.14990234375 -0.337158203125
v 0.343505859375 2.023193359375 -0.416015625
v 1.34521484375 1.946533203125 0.015869140625
v 0.343505859375 2.023193359375 0.7626953125
v 0.842529296875 1.14990234375 0.837158203125
v 1.34521484375 1.946533203125 0.484130859375
vt 0.40234375 -0.078125
vt 0.6875 -0.322265625
vt 0 -0.546875
vt 0.65234375 -0.546875
vt 0.271484375 -0.921875
vt 0.826171875 -0.921875
vt 0 -0.546875
vt 0.65234375 -0.546875
vt 0.40234375 -0.078125
vt 0.6875 -0.322265625
vt 1 -1
vt 2 -1
vt 2 0
vt 1 0
vt 0.21484375 0
vt 0.78515625 0
vt 0.78515625 -0.5
vt 0.21484375 -0.5
vt 0.21484375 0
vt 0.78515625 0
vt 0.78515625 -0.5
vt 0.21484375 -0.5
vt 0.826171875 -0.75
vt 0.826171875 -0.25
vt 1 -0.25
vt 1 -0.75
vt 1 -0.576171875
vt 0 -0.576171875
vt 0 -0.029296875
vt 1 -0.029296875
vt 0.134765625 -0.828125
vt 0.28515625 -0.59375
vt 0.57421875 -0.59375
vt 0.708984375 -0.828125
vt 0.271484375 -0.75
vt 0 -0.75
vt 0 -0.25
vt 0.271484375 -0.25
vt 0.65234375 -0.546875
vt 0 -0.546875
vt 0.271484375 -0.921875
vt 0.826171875 -0.921875
vt 0.21484375 -0.458984375
vt 0.78515625 -0.458984375
vt 0.5 -0.958984375
vt 0.21484375 -0.458984375
vt 0.78515625 -0.458984375
vt 0.5 -0.958984375
vt 0.78515625 0
vt 0.5 -0.5
vt 0.21484375 0
vt 0.21484375 -0.458984375
vt 0.78515625 -0.458984375
vt 0.5 -0.958984375
vt 0.826171875 -0.921875
vt 0.65234375 -0.546875
vt 1 -0.421875
vt 0.65234375 -0.546875
vt 0.826171875 -0.921875
vt 1 -0.421875
vn -0.220703125 0.806640625 -0.548828125
vn 0.72265625 0.48828125 -0.490234375
vn -0.63671875 -0.05078125 -0.76953125
vn 0.431640625 0.3359375 -0.837890625
vn -0.541015625 -0.486328125 -0.685546875
vn 0.537109375 -0.205078125 -0.818359375
vn -0.64453125 0.1015625 0.7578125
vn 0.291015625 0.427734375 0.85546875
vn -0.166015625 0.705078125 0.689453125
vn 0.677734375 0.572265625 0.462890625
vn -0.037109375 -0.716796875 0.697265625
vn -0.087890625 -0.779296875 -0.62109375
vn 0.41796875 0.484375 -0.76953125
vn 0.435546875 0.6796875 0.58984375
vn -0.220703125 0.806640625 -0.548828125
vn -0.166015625 0.705078125 0.689453125
vn 0.677734375 0.572265625 0.462890625
vn 0.72265625 0.48828125 -0.490234375
vn 0.431640625 0.3359375 -0.837890625
vn 0.291015625 0.427734375 0.85546875
vn 0.716796875 0.419921875 0.556640625
vn 0.771484375 0.357421875 -0.52734375
vn 0.501953125 -0.09375 0.859375
vn 0.537109375 -0.205078125 -0.818359375
vn 0.771484375 0.357421875 -0.52734375
vn 0.716796875 0.419921875 0.556640625
vn -0.63671875 -0.05078125 -0.76953125
vn -0.64453125 0.1015625 0.7578125
vn -0.166015625 0.705078125 0.689453125
vn -0.220703125 0.806640625 -0.548828125
vn 0.291015625 0.427734375 0.85546875
vn 0.431640625 0.3359375 -0.837890625
vn 0.72265625 0.48828125 -0.490234375
vn 0.677734375 0.572265625 0.462890625
vn -0.64453125 0.1015625 0.7578125
vn -0.63671875 -0.05078125 -0.76953125
vn -0.541015625 -0.486328125 -0.685546875
vn -0.572265625 -0.38671875 0.724609375
vn 0.291015625 0.427734375 0.85546875
vn -0.64453125 0.1015625 0.7578125
vn -0.572265625 -0.38671875 0.724609375
vn 0.501953125 -0.09375 0.859375
vn -0.732421875 0.67578125 -0.0859375
vn -0.087890625 -0.779296875 -0.62109375
vn -0.037109375 -0.716796875 0.697265625
vn -0.732421875 0.67578125 -0.0859375
vn 0.41796875 0.484375 -0.76953125
vn -0.087890625 -0.779296875 -0.62109375
vn -0.732421875 0.67578125 -0.0859375
vn 0.435546875 0.6796875 0.58984375
vn 0.41796875 0.484375 -0.76953125
vn -0.732421875 0.67578125 -0.0859375
vn -0.037109375 -0.716796875 0.697265625
vn 0.435546875 0.6796875 0.58984375
vn 0.537109375 -0.205078125 -0.818359375
vn 0.431640625 0.3359375 -0.837890625
vn 0.771484375 0.357421875 -0.52734375
vn 0.291015625 0.427734375 0.85546875
vn 0.501953125 -0.09375 0.859375
vn 0.716796875 0.419921875 0.556640625
f 1/1/1 2/2/2 3/3/3
f 2/2/2 4/4/4 3/3/3
f 3/3/3 4/4/4 5/5/5
f 4/4/4 6/6/6 5/5/5
f 7/7/7 8/8/8 9/9/9
f 8/8/8 10/10/10 9/9/9
f 11/11/11 12/12/12 13/13/13
f 13/13/13 14/14/14 11/11/11
f 15/15/15 16/16/16 17/17/17
f 17/17/17 18/18/18 15/15/15
f 19/19/19 20/20/20 21/21/21
f 21/21/21 22/22/22 19/19/19
f 23/23/23 24/24/24 25/25/25
f 25/25/25 26/26/26 23/23/23
f 27/27/27 28/28/28 29/29/29
f 29/29/29 30/30/30 27/27/27
f 31/31/31 32/32/32 33/33/33
f 33/33/33 34/34/34 31/31/31
f 35/35/35 36/36/36 37/37/37
f 37/37/37 38/38/38 35/35/35
f 39/39/39 40/40/40 41/41/41
f 41/41/41 42/42/42 39/39/39
f 43/43/43 44/44/44 45/45/45
f 46/46/46 47/47/47 48/48/48
f 49/49/49 50/50/50 51/51/51
f 52/52/52 53/53/53 54/54/54
f 55/55/55 56/56/56 57/57/57
f 58/58/58 59/59/59 60/60/60
o polygon1
g polygon1
usemtl c01thicket_e_1
v -0.30322265625 3.5732421875 -0.038330078125
v 0.1953125 3.2353515625 0.032958984375
v 0.56103515625 3.834716796875 -0.09326171875
v -0.060791015625 4.18310546875 -0.166748046875
vt 0 -1
vt 1 -1
vt 1 0
vt 0 0
vn 0 0.20703125 0.978515625
vn 0 0.20703125 0.978515625
vn 0 0.20703125 0.978515625
vn 0 0.20703125 0.978515625
f 61/61/61 62/62/62 63/63/63
f 63/63/63 64/64/64 61/61/61
o polygon2
g polygon2
usemtl c01thicket_d_1
v -0.25 1.81396484375 0
v -0.477294921875 0.430419921875 -0.227294921875
v -0.25 1.81396484375 0.5
v -0.477294921875 0.430419921875 0.727294921875
v 0.25 1.81396484375 0.5
v 0.477294921875 0.430419921875 0.727294921875
v 0.25 1.81396484375 0
v 0.477294921875 0.430419921875 -0.227294921875
v 0.477294921875 0.430419921875 -0.227294921875
v -0.477294921875 0.430419921875 -0.227294921875
v 0.25 1.81396484375 0
v -0.25 1.81396484375 0
v 0.25 1.81396484375 0.5
v -0.25 1.81396484375 0.5
vt -1 0
vt -1 -1
vt 0 0
vt 0 -1
vt 1 0
vt 1 -1
vt 2 0
vt 2 -1
vt 1 2
vt 0 2
vt 1 1
vt 0 1
vt 1 0
vt 0 0
vn -0.513671875 0.6875 -0.513671875
vn -0.689453125 0.2265625 -0.689453125
vn -0.513671875 0.6875 0.513671875
vn -0.689453125 0.2265625 0.689453125
vn 0.513671875 0.6875 0.513671875
vn 0.689453125 0.2265625 0.689453125
vn 0.513671875 0.6875 -0.513671875
vn 0.689453125 0.2265625 -0.689453125
vn 0.689453125 0.2265625 -0.689453125
vn -0.689453125 0.2265625 -0.689453125
vn 0.513671875 0.6875 -0.513671875
vn -0.513671875 0.6875 -0.513671875
vn 0.513671875 0.6875 0.513671875
vn -0.513671875 0.6875 0.513671875
f 65/65/65 66/66/66 67/67/67
f 66/66/66 68/68/68 67/67/67
f 67/67/67 68/68/68 69/69/69
f 68/68/68 70/70/70 69/69/69
f 69/69/69 70/70/70 71/71/71
f 70/70/70 72/72/72 71/71/71
f 73/73/73 74/74/74 75/75/75
f 74/74/74 76/76/76 75/75/75
f 75/75/75 76/76/76 77/77/77
f 76/76/76 78/78/78 77/77/77
o polygon3
g polygon3
usemtl h_kage_1
v -0.875 0.25 1.25
v 0.875 0.25 1.25
v 0.875 0.25 -0.375
v -0.875 0.25 -0.375
vt 0 -0.5625
vt 1 -0.5625
vt 1 -0.5625
vt 0 -0.5625
vn 0 0.998046875 0
vn 0 0.998046875 0
vn 0 0.998046875 0
vn 0 0.998046875 0
f 79/79/79 80/80/80 81/81/81
f 81/81/81 82/82/82 79/79/79
