# Created with Spiky's DS Map Editor 1.8.1.0
mtllib 112.mtl
o polygon0
g polygon0
usemtl h_kage
v -6 0.25 -3.203857421875
v -6 0.25 -2.203857421875
v 4.233642578125 0.25 -3.203857421875
v 3.233154296875 0.25 -2.203857421875
v 4.233642578125 0.25 3.203857421875
v 3.233154296875 0.25 2.203857421875
v -6 0.25 3.203857421875
v -6 0.25 2.203857421875
v 3.233154296875 0.25 -2.203857421875
v -6 0.25 -2.203857421875
v -6 0.25 2.203857421875
v 3.233154296875 0.25 2.203857421875
vt 0.5 -0.125
vt 0.5 -0.875
vt 0.5 -0.125
vt 0.5 -0.875
vt 0.5 -0.125
vt 0.5 -0.875
vt 0.5 -0.125
vt 0.5 -0.875
vt 0.625 -0.5
vt 0.625 -0.625
vt 0.75 -0.625
vt 0.75 -0.5
vn 0 0.998046875 0
vn 0 0.998046875 0
vn 0 0.998046875 0
vn 0 0.998046875 0
vn 0 0.998046875 0
vn 0 0.998046875 0
vn 0 0.998046875 0
vn 0 0.998046875 0
vn 0 0.998046875 0
vn 0 0.998046875 0
vn 0 0.998046875 0
vn 0 0.998046875 0
f 1/1/1 2/2/2 3/3/3
f 2/2/2 4/4/4 3/3/3
f 3/3/3 4/4/4 5/5/5
f 4/4/4 6/6/6 5/5/5
f 5/5/5 6/6/6 7/7/7
f 6/6/6 8/8/8 7/7/7
f 9/9/9 10/10/10 11/11/11
f 11/11/11 12/12/12 9/9/9
o polygon1
g polygon1
usemtl thous_t1
v -5.375 4.25 -2.5
v -5.375 2.5 -2.75
v -5.375 4.25 0
v -5.375 2.5 0
v -5.375 4.25 2.5
v -5.375 2.5 2.75
v -4.71826171875 5.017822265625 -2.153564453125
v -5.375 4.25 -2.5
v -4.71826171875 5.017822265625 0
v -5.375 4.25 0
v -4.71826171875 5.017822265625 2.153564453125
v -5.375 4.25 2.5
v -2.75 5.45263671875 -2.025146484375
v -4.71826171875 5.017822265625 -2.153564453125
v -2.75 5.45263671875 0
v -4.71826171875 5.017822265625 0
v -2.75 5.45263671875 2.025146484375
v -4.71826171875 5.017822265625 2.153564453125
v -2.75 2.5 -2.75
v -2.75 0.5 -2.75
v -2.75 2.5 0
v -2.75 0.5 0
v -2.75 2.5 2.75
v -2.75 0.5 2.75
v 3.125 0.5 -2.75
v 3.875 2.5 -2.75
v 3.125 0.5 0
v 3.875 2.5 0
v 3.125 0.5 2.75
v 3.875 2.5 2.75
v 3.875 2.5 -2.75
v 3.875 4.25 -2.5
v 3.875 2.5 0
v 3.875 4.25 0
v 3.875 2.5 2.75
v 3.875 4.25 2.5
v 3.244384765625 5.02978515625 -2.153564453125
v 1.125 5.45263671875 -2.025146484375
v 3.244384765625 5.02978515625 0
v 1.125 5.45263671875 0
v 3.244384765625 5.02978515625 2.153564453125
v 1.125 5.45263671875 2.025146484375
v 3.875 4.25 -2.5
v 3.244384765625 5.02978515625 -2.153564453125
v 3.875 4.25 0
v 3.244384765625 5.02978515625 0
v 3.875 4.25 2.5
v 3.244384765625 5.02978515625 2.153564453125
v -1.125 4.25 0.75
v -1.125 4.25 2.5
v -1.125 2.5 0.75
v -1.125 2.5 2.75
v -1.125 0.5 0.75
v -1.125 0.5 2.75
v 1.125 4.25 0.75
v -1.125 4.25 0.75
v 1.125 2.5 0.75
v -1.125 2.5 0.75
v 1.125 0.5 0.75
v -1.125 0.5 0.75
v 1.125 4.25 2.5
v 1.125 4.25 0.75
v 1.125 2.5 2.75
v 1.125 2.5 0.75
v 1.125 0.5 2.75
v 1.125 0.5 0.75
v -0.875 5.53662109375 -2.005126953125
v -2.75 5.45263671875 -2.025146484375
v -0.875 5.53662109375 0
v -2.75 5.45263671875 0
v -0.875 5.53662109375 2.005126953125
v -2.75 5.45263671875 2.025146484375
v 1.125 5.45263671875 -2.025146484375
v -0.875 5.53662109375 -2.005126953125
v 1.125 5.45263671875 0
v -0.875 5.53662109375 0
v 1.125 5.45263671875 2.025146484375
v -0.875 5.53662109375 2.005126953125
v -5.375 4.25 2.5
v -2.75 4.25 2.5
v -4.71826171875 5.017822265625 2.153564453125
v -2.75 5.45263671875 2.025146484375
v 3.875 4.25 2.5
v 3.244384765625 5.02978515625 2.153564453125
v 1.125 4.25 2.5
v 1.125 5.45263671875 2.025146484375
v -5.76416015625 2.502197265625 1.712646484375
v -5.3046875 2.502197265625 1.712646484375
v -5.3046875 3.639404296875 1.712646484375
v -5.76416015625 3.639404296875 1.712646484375
v -5.76416015625 3.639404296875 -1.674560546875
v -5.76416015625 3.639404296875 1.712646484375
v -5.3046875 3.639404296875 1.712646484375
v -5.3046875 3.639404296875 -1.674560546875
v -3.04736328125 2.5 2.375
v -3.04736328125 1.354248046875 2.375
v -2.738525390625 1.354248046875 2.375
v -2.738525390625 2.5 2.375
v -2.75 4.25 2.5
v -1.125 4.25 2.5
v -0.875 5.53662109375 2.005126953125
v -2.75 5.45263671875 2.025146484375
v -5.375 4.25 2.5
v -5.375 2.5 2.75
v -2.75 2.5 2.75
v -2.75 4.25 2.5
v -2.75 4.25 2.5
v -2.75 2.5 2.75
v -1.125 2.5 2.75
v -1.125 4.25 2.5
v -1.125 0.5 2.75
v 1.125 0.5 2.75
v 1.125 0.5 0.75
v -1.125 0.5 0.75
v -1.125 4.25 2.5
v 1.125 4.25 2.5
v 1.125 5.45263671875 2.025146484375
v -0.875 5.53662109375 2.005126953125
v 1.125 2.5 2.75
v 3.875 2.5 2.75
v 3.875 4.25 2.5
v 1.125 4.25 2.5
v 1.125 2.5 2.75
v 1.125 0.5 2.75
v 3.125 0.5 2.75
v 3.875 2.5 2.75
v -2.75 2.5 2.75
v -2.75 0.5 2.75
v -1.125 0.5 2.75
v -1.125 2.5 2.75
vt 0.271484375 -0.365234375
vt 0.16015625 -0.3671875
vt 0.271484375 -0.013671875
vt 0.16015625 -0.013671875
vt 0.271484375 -0.365234375
vt 0.16015625 -0.3671875
vt 0.453125 -0.365234375
vt 0.271484375 -0.365234375
vt 0.453125 -0.013671875
vt 0.271484375 -0.013671875
vt 0.453125 -0.365234375
vt 0.271484375 -0.365234375
vt 0.703125 -0.365234375
vt 0.453125 -0.365234375
vt 0.703125 -0.013671875
vt 0.453125 -0.013671875
vt 0.703125 -0.365234375
vt 0.453125 -0.365234375
vt 0.146484375 -0.3671875
vt 0.009765625 -0.365234375
vt 0.146484375 -0.013671875
vt 0.009765625 -0.013671875
vt 0.146484375 -0.3671875
vt 0.009765625 -0.365234375
vt 0.009765625 -0.365234375
vt 0.146484375 -0.3671875
vt 0.009765625 -0.013671875
vt 0.146484375 -0.013671875
vt 0.009765625 -0.365234375
vt 0.146484375 -0.3671875
vt 0.146484375 -0.3671875
vt 0.271484375 -0.365234375
vt 0.146484375 -0.013671875
vt 0.271484375 -0.013671875
vt 0.146484375 -0.3671875
vt 0.271484375 -0.365234375
vt 0.453125 -0.365234375
vt 0.703125 -0.365234375
vt 0.453125 -0.013671875
vt 0.703125 -0.013671875
vt 0.453125 -0.365234375
vt 0.703125 -0.365234375
vt 0.271484375 -0.365234375
vt 0.453125 -0.365234375
vt 0.271484375 -0.013671875
vt 0.453125 -0.013671875
vt 0.271484375 -0.365234375
vt 0.453125 -0.365234375
vt 0.39453125 -0.83203125
vt 0.39453125 -0.990234375
vt 0.283203125 -0.83203125
vt 0.283203125 -0.990234375
vt 0.171875 -0.83203125
vt 0.171875 -0.990234375
vt 0.142578125 -0.5703125
vt 0.013671875 -0.5703125
vt 0.142578125 -0.701171875
vt 0.013671875 -0.701171875
vt 0.142578125 -0.8359375
vt 0.013671875 -0.8359375
vt 0.39453125 -0.990234375
vt 0.39453125 -0.83203125
vt 0.283203125 -0.990234375
vt 0.283203125 -0.83203125
vt 0.171875 -0.990234375
vt 0.171875 -0.83203125
vt 0.98828125 -0.365234375
vt 0.703125 -0.365234375
vt 0.98828125 -0.013671875
vt 0.703125 -0.013671875
vt 0.98828125 -0.365234375
vt 0.703125 -0.365234375
vt 0.703125 -0.365234375
vt 0.98828125 -0.365234375
vt 0.703125 -0.013671875
vt 0.98828125 -0.013671875
vt 0.703125 -0.365234375
vt 0.98828125 -0.365234375
vt 0.587890625 -0.5234375
vt 0.224609375 -0.5234375
vt 0.587890625 -0.3828125
vt 0.224609375 -0.3828125
vt 0.587890625 -0.5234375
vt 0.587890625 -0.3828125
vt 0.1640625 -0.5234375
vt 0.1640625 -0.3828125
vt 0.146484375 -0.791015625
vt 0.146484375 -0.869140625
vt 0.001953125 -0.869140625
vt 0.001953125 -0.791015625
vt 0.001953125 -0.84765625
vt 0.146484375 -0.84765625
vt 0.146484375 -0.931640625
vt 0.001953125 -0.931640625
vt 0.001953125 -0.869140625
vt 0.146484375 -0.869140625
vt 0.146484375 -0.791015625
vt 0.001953125 -0.791015625
vt 0.365234375 -0.521484375
vt 0.1640625 -0.5234375
vt 0.1640625 -0.3828125
vt 0.365234375 -0.3828125
vt 0.587890625 -0.5234375
vt 0.587890625 -0.802734375
vt 0.224609375 -0.802734375
vt 0.224609375 -0.5234375
vt 0.7890625 -0.384765625
vt 0.7890625 -0.619140625
vt 0.9921875 -0.619140625
vt 0.9921875 -0.384765625
vt 0.013671875 -0.990234375
vt 0.142578125 -0.990234375
vt 0.142578125 -0.8515625
vt 0.013671875 -0.8515625
vt 0.005859375 -0.5234375
vt 0.1484375 -0.5234375
vt 0.1484375 -0.3828125
vt 0.005859375 -0.3828125
vt 0.1640625 -0.802734375
vt 0.587890625 -0.802734375
vt 0.587890625 -0.5234375
vt 0.1640625 -0.5234375
vt 0.6015625 -0.6328125
vt 0.603515625 -0.994140625
vt 0.90234375 -0.994140625
vt 0.9921875 -0.6328125
vt 0.603515625 -0.3828125
vt 0.6015625 -0.619140625
vt 0.7734375 -0.619140625
vt 0.7734375 -0.3828125
vn -1 0 0
vn -1 0 0
vn -1 0 0
vn -1 0 0
vn -1 0 0
vn -1 0 0
vn -0.759765625 0.650390625 0
vn -0.759765625 0.650390625 0
vn -0.759765625 0.650390625 0
vn -0.759765625 0.650390625 0
vn -0.759765625 0.650390625 0
vn -0.759765625 0.650390625 0
vn -0.21484375 0.9765625 0
vn -0.21484375 0.9765625 0
vn -0.21484375 0.9765625 0
vn -0.21484375 0.9765625 0
vn -0.21484375 0.9765625 0
vn -0.21484375 0.9765625 0
vn -1 0 0
vn -1 0 0
vn -1 0 0
vn -1 0 0
vn -1 0 0
vn -1 0 0
vn 0.935546875 -0.3515625 0
vn 0.935546875 -0.3515625 0
vn 0.935546875 -0.3515625 0
vn 0.935546875 -0.3515625 0
vn 0.935546875 -0.3515625 0
vn 0.935546875 -0.3515625 0
vn 0.998046875 0 0
vn 0.998046875 0 0
vn 0.998046875 0 0
vn 0.998046875 0 0
vn 0.998046875 0 0
vn 0.998046875 0 0
vn 0.1953125 0.98046875 0
vn 0.1953125 0.98046875 0
vn 0.1953125 0.98046875 0
vn 0.1953125 0.98046875 0
vn 0.1953125 0.98046875 0
vn 0.1953125 0.98046875 0
vn 0.77734375 0.62890625 0
vn 0.77734375 0.62890625 0
vn 0.77734375 0.62890625 0
vn 0.77734375 0.62890625 0
vn 0.77734375 0.62890625 0
vn 0.77734375 0.62890625 0
vn 0.998046875 0 0
vn 0.998046875 0 0
vn 0.998046875 0 0
vn 0.998046875 0 0
vn 0.998046875 0 0
vn 0.998046875 0 0
vn 0 0 0.998046875
vn 0 0 0.998046875
vn 0 0 0.998046875
vn 0 0 0.998046875
vn 0 0 0.998046875
vn 0 0 0.998046875
vn -1 0 0
vn -1 0 0
vn -1 0 0
vn -1 0 0
vn -1 0 0
vn -1 0 0
vn 0 0.998046875 0
vn 0 0.998046875 0
vn 0 0.998046875 0
vn 0 0.998046875 0
vn 0 0.998046875 0
vn 0 0.998046875 0
vn 0 0.998046875 0
vn 0 0.998046875 0
vn 0 0.998046875 0
vn 0 0.998046875 0
vn 0 0.998046875 0
vn 0 0.998046875 0
vn 0.017578125 0.3671875 0.9296875
vn 0.017578125 0.3671875 0.9296875
vn 0.017578125 0.3671875 0.9296875
vn 0.017578125 0.3671875 0.9296875
vn 0.017578125 0.3671875 0.9296875
vn 0.017578125 0.3671875 0.9296875
vn 0.017578125 0.3671875 0.9296875
vn 0.017578125 0.3671875 0.9296875
vn 0 0 0.998046875
vn 0 0 0.998046875
vn 0 0 0.998046875
vn 0 0 0.998046875
vn 0 0.998046875 0
vn 0 0.998046875 0
vn 0 0.998046875 0
vn 0 0.998046875 0
vn 0 0 0.998046875
vn 0 0 0.998046875
vn 0 0 0.998046875
vn 0 0 0.998046875
vn 0.017578125 0.3671875 0.9296875
vn 0.017578125 0.3671875 0.9296875
vn 0.017578125 0.3671875 0.9296875
vn 0.017578125 0.3671875 0.9296875
vn 0 0.140625 0.990234375
vn 0 0.140625 0.990234375
vn 0 0.140625 0.990234375
vn 0 0.140625 0.990234375
vn 0 0.140625 0.990234375
vn 0 0.140625 0.990234375
vn 0 0.140625 0.990234375
vn 0 0.140625 0.990234375
vn 0 0.998046875 0
vn 0 0.998046875 0
vn 0 0.998046875 0
vn 0 0.998046875 0
vn 0.017578125 0.3671875 0.9296875
vn 0.017578125 0.3671875 0.9296875
vn 0.017578125 0.3671875 0.9296875
vn 0.017578125 0.3671875 0.9296875
vn 0 0.140625 0.990234375
vn 0 0.140625 0.990234375
vn 0 0.140625 0.990234375
vn 0 0.140625 0.990234375
vn 0 0 0.998046875
vn 0 0 0.998046875
vn 0 0 0.998046875
vn 0 0 0.998046875
vn 0 0 0.998046875
vn 0 0 0.998046875
vn 0 0 0.998046875
vn 0 0 0.998046875
f 13/13/13 14/14/14 15/15/15
f 14/14/14 16/16/16 15/15/15
f 15/15/15 16/16/16 17/17/17
f 16/16/16 18/18/18 17/17/17
f 19/19/19 20/20/20 21/21/21
f 20/20/20 22/22/22 21/21/21
f 21/21/21 22/22/22 23/23/23
f 22/22/22 24/24/24 23/23/23
f 25/25/25 26/26/26 27/27/27
f 26/26/26 28/28/28 27/27/27
f 27/27/27 28/28/28 29/29/29
f 28/28/28 30/30/30 29/29/29
f 31/31/31 32/32/32 33/33/33
f 32/32/32 34/34/34 33/33/33
f 33/33/33 34/34/34 35/35/35
f 34/34/34 36/36/36 35/35/35
f 37/37/37 38/38/38 39/39/39
f 38/38/38 40/40/40 39/39/39
f 39/39/39 40/40/40 41/41/41
f 40/40/40 42/42/42 41/41/41
f 43/43/43 44/44/44 45/45/45
f 44/44/44 46/46/46 45/45/45
f 45/45/45 46/46/46 47/47/47
f 46/46/46 48/48/48 47/47/47
f 49/49/49 50/50/50 51/51/51
f 50/50/50 52/52/52 51/51/51
f 51/51/51 52/52/52 53/53/53
f 52/52/52 54/54/54 53/53/53
f 55/55/55 56/56/56 57/57/57
f 56/56/56 58/58/58 57/57/57
f 57/57/57 58/58/58 59/59/59
f 58/58/58 60/60/60 59/59/59
f 61/61/61 62/62/62 63/63/63
f 62/62/62 64/64/64 63/63/63
f 63/63/63 64/64/64 65/65/65
f 64/64/64 66/66/66 65/65/65
f 67/67/67 68/68/68 69/69/69
f 68/68/68 70/70/70 69/69/69
f 69/69/69 70/70/70 71/71/71
f 70/70/70 72/72/72 71/71/71
f 73/73/73 74/74/74 75/75/75
f 74/74/74 76/76/76 75/75/75
f 75/75/75 76/76/76 77/77/77
f 76/76/76 78/78/78 77/77/77
f 79/79/79 80/80/80 81/81/81
f 80/80/80 82/82/82 81/81/81
f 81/81/81 82/82/82 83/83/83
f 82/82/82 84/84/84 83/83/83
f 85/85/85 86/86/86 87/87/87
f 86/86/86 88/88/88 87/87/87
f 87/87/87 88/88/88 89/89/89
f 88/88/88 90/90/90 89/89/89
f 91/91/91 92/92/92 93/93/93
f 92/92/92 94/94/94 93/93/93
f 95/95/95 96/96/96 97/97/97
f 96/96/96 98/98/98 97/97/97
f 99/99/99 100/100/100 101/101/101
f 101/101/101 102/102/102 99/99/99
f 103/103/103 104/104/104 105/105/105
f 105/105/105 106/106/106 103/103/103
f 107/107/107 108/108/108 109/109/109
f 109/109/109 110/110/110 107/107/107
f 111/111/111 112/112/112 113/113/113
f 113/113/113 114/114/114 111/111/111
f 115/115/115 116/116/116 117/117/117
f 117/117/117 118/118/118 115/115/115
f 119/119/119 120/120/120 121/121/121
f 121/121/121 122/122/122 119/119/119
f 123/123/123 124/124/124 125/125/125
f 125/125/125 126/126/126 123/123/123
f 127/127/127 128/128/128 129/129/129
f 129/129/129 130/130/130 127/127/127
f 131/131/131 132/132/132 133/133/133
f 133/133/133 134/134/134 131/131/131
f 135/135/135 136/136/136 137/137/137
f 137/137/137 138/138/138 135/135/135
f 139/139/139 140/140/140 141/141/141
f 141/141/141 142/142/142 139/139/139
o polygon2
g polygon2
usemtl h_mado
v -4.729736328125 4.25 2.25
v -4.729736328125 2.581787109375 2.50537109375
v -3.270263671875 2.581787109375 2.50537109375
v -3.270263671875 4.25 2.25
v 2.051513671875 2.581787109375 2.50537109375
v 3.340087890625 2.581787109375 2.50537109375
v 3.340087890625 4.25 2.25
v 2.051513671875 4.25 2.25
v 3.634521484375 4.25 -2.25
v 3.01611328125 4.848388671875 -1.775146484375
v 3.01611328125 4.848388671875 0.499755859375
v 3.634521484375 4.25 0.485107421875
v -4.51611328125 4.848388671875 -1.775146484375
v -5.134521484375 4.25 -2.25
v -5.134521484375 4.25 0.485107421875
v -4.51611328125 4.848388671875 0.499755859375
vt 0.01171875 -0.01953125
vt 0.01171875 -0.96875
vt 0.984375 -0.96875
vt 0.984375 -0.01953125
vt 0.01171875 -0.96875
vt 0.984375 -0.96875
vt 0.984375 -0.01953125
vt 0.01171875 -0.01953125
vt 0.984375 -0.01953125
vt 0.01171875 -0.01953125
vt 0.01171875 -0.96875
vt 0.984375 -0.96875
vt 0.984375 -0.01953125
vt 0.01171875 -0.01953125
vt 0.01171875 -0.96875
vt 0.984375 -0.96875
vn 0 0 0.998046875
vn 0 0 0.998046875
vn 0 0 0.998046875
vn 0 0 0.998046875
vn 0 0 0.998046875
vn 0 0 0.998046875
vn 0 0 0.998046875
vn 0 0 0.998046875
vn 0 0 0.998046875
vn 0 0 0.998046875
vn 0 0 0.998046875
vn 0 0 0.998046875
vn 0 0 0.998046875
vn 0 0 0.998046875
vn 0 0 0.998046875
vn 0 0 0.998046875
f 143/143/143 144/144/144 145/145/145
f 145/145/145 146/146/146 143/143/143
f 147/147/147 148/148/148 149/149/149
f 149/149/149 150/150/150 147/147/147
f 151/151/151 152/152/152 153/153/153
f 153/153/153 154/154/154 151/151/151
f 155/155/155 156/156/156 157/157/157
f 157/157/157 158/158/158 155/155/155
