# Created with Spiky's DS Map Editor 1.8.1.0
mtllib 152.mtl
o polygon0
g polygon0
usemtl sign02a_lm1
v -1.375 4 -0.5
v -1.375 0.375 -0.5
v -1.625 4 -0.25
v -1.625 0.375 -0.25
v -1.375 4 0
v -1.375 0.375 0
v 1.375 0.375 0
v 1.625 0.375 -0.25
v 1.625 4 -0.25
v 1.375 4 0
v 1.375 0.375 -0.5
v 1.375 0.375 0
v 1.375 4 0
v 1.375 4 -0.5
v 1.625 0.375 -0.25
v 1.375 0.375 -0.5
v 1.375 4 -0.5
v 1.625 4 -0.25
v -1.375 0.375 0
v -1.375 0.375 -0.5
v -1.375 4 -0.5
v -1.375 4 0
v -1.375 3.875 -0.375
v 1.375 3.875 -0.375
v 1.375 1.875 -0.375
v -1.375 1.875 -0.375
v -1.375 3.75 -0.125
v 1.375 3.75 -0.125
v 1.375 3.875 -0.375
v -1.375 3.875 -0.375
v -1.375 1.75 -0.125
v 1.375 1.75 -0.125
v 1.375 3.75 -0.125
v -1.375 3.75 -0.125
v 1.625 4 -0.25
v 1.375 4 -0.5
v 1.375 4 0
v -1.625 4 -0.25
v -1.375 4 0
v -1.375 4 -0.5
vt 0 -1
vt 1 -1
vt 0 -0.84375
vt 1 -0.84375
vt 0 -1
vt 1 -1
vt 1 -0.84375
vt 1 -1
vt 0 -1
vt 0 -0.84375
vt 1 -0.798828125
vt 1 -0.798828125
vt 0 -0.798828125
vt 0 -0.798828125
vt 1 -0.84375
vt 1 -1
vt 0 -1
vt 0 -0.84375
vt 1 -0.798828125
vt 1 -0.798828125
vt 0 -0.798828125
vt 0 -0.798828125
vt 0.46875 -0.798828125
vt 0.46875 -0.798828125
vt 0.46875 -0.798828125
vt 0.46875 -0.798828125
vt 0 -0.09375
vt 1 -0.09375
vt 1 0
vt 0 0
vt 0 -0.75
vt 1 -0.75
vt 1 -0.09375
vt 0 -0.09375
vt 0.25 -0.0625
vt 0.25 -0.0625
vt 0.25 -0.0625
vt 0.25 -0.0625
vt 0.25 -0.0625
vt 0.25 -0.0625
vn 0.32421875 0.7265625 -0.60546875
vn 0.47265625 0 -0.880859375
vn -0.7421875 0.669921875 0
vn -1 0 0
vn 0.32421875 0.7265625 0.60546875
vn 0.47265625 0 0.880859375
vn -0.47265625 0 0.880859375
vn 0.998046875 0 0
vn 0.7421875 0.669921875 0
vn -0.32421875 0.7265625 0.60546875
vn -0.47265625 0 -0.880859375
vn -0.47265625 0 0.880859375
vn -0.32421875 0.7265625 0.60546875
vn -0.32421875 0.7265625 -0.60546875
vn 0.998046875 0 0
vn -0.47265625 0 -0.880859375
vn -0.32421875 0.7265625 -0.60546875
vn 0.7421875 0.669921875 0
vn 0.47265625 0 0.880859375
vn 0.47265625 0 -0.880859375
vn 0.32421875 0.7265625 -0.60546875
vn 0.32421875 0.7265625 0.60546875
vn 0 0 -1
vn 0 0 -1
vn 0 0 -1
vn 0 0 -1
vn 0 0.998046875 0
vn 0 0.998046875 0
vn 0 0.998046875 0
vn 0 0.998046875 0
vn 0 0 0.998046875
vn 0 0 0.998046875
vn 0 0 0.998046875
vn 0 0 0.998046875
vn 0.7421875 0.669921875 0
vn -0.32421875 0.7265625 -0.60546875
vn -0.32421875 0.7265625 0.60546875
vn -0.7421875 0.669921875 0
vn 0.32421875 0.7265625 0.60546875
vn 0.32421875 0.7265625 -0.60546875
f 1/1/1 2/2/2 3/3/3
f 2/2/2 4/4/4 3/3/3
f 3/3/3 4/4/4 5/5/5
f 4/4/4 6/6/6 5/5/5
f 7/7/7 8/8/8 9/9/9
f 9/9/9 10/10/10 7/7/7
f 11/11/11 12/12/12 13/13/13
f 13/13/13 14/14/14 11/11/11
f 15/15/15 16/16/16 17/17/17
f 17/17/17 18/18/18 15/15/15
f 19/19/19 20/20/20 21/21/21
f 21/21/21 22/22/22 19/19/19
f 23/23/23 24/24/24 25/25/25
f 25/25/25 26/26/26 23/23/23
f 27/27/27 28/28/28 29/29/29
f 29/29/29 30/30/30 27/27/27
f 31/31/31 32/32/32 33/33/33
f 33/33/33 34/34/34 31/31/31
f 35/35/35 36/36/36 37/37/37
f 38/38/38 39/39/39 40/40/40
o polygon1
g polygon1
usemtl h_kage_lm1
v 1.625 0.25 -0.75
v -1.625 0.25 -0.75
v 1.625 0.25 0
v -1.125 0.25 0
v 2.125 0.25 0.5
v -1.125 0.25 0.5
v 1.625 0.25 -0.75
v 1.625 0.25 0
v 2.125 0.25 0
v 2.125 0.25 0.5
v -1.625 0.25 -0.75
v -1.625 0.25 0
v -1.125 0.25 0
v -1.125 0.25 0.5
vt 0.5 -0.125
vt 0.5 -0.125
vt 0.5 -0.875
vt 0.5 -0.875
vt 0.5 -0.125
vt 0.5 -0.125
vt 0.5 -0.125
vt 0.5 -0.875
vt 0.5 -0.125
vt 0.5 -0.125
vt 0.5 -0.125
vt 0.5 -0.125
vt 0.5 -0.875
vt 0.5 -0.125
vn 0 0.998046875 0
vn 0 0.998046875 0
vn 0 0.998046875 0
vn 0 0.998046875 0
vn 0 0.998046875 0
vn 0 0.998046875 0
vn 0 0.998046875 0
vn 0 0.998046875 0
vn 0 0.998046875 0
vn 0 0.998046875 0
vn 0 0.998046875 0
vn 0 0.998046875 0
vn 0 0.998046875 0
vn 0 0.998046875 0
f 41/41/41 42/42/42 43/43/43
f 42/42/42 44/44/44 43/43/43
f 43/43/43 44/44/44 45/45/45
f 44/44/44 46/46/46 45/45/45
f 47/47/47 48/48/48 49/49/49
f 48/48/48 50/50/50 49/49/49
f 51/51/51 52/52/52 53/53/53
f 52/52/52 54/54/54 53/53/53
