# Created with Spiky's DS Map Editor 1.8.1.0
mtllib 180.mtl
o polygon0
g polygon0
usemtl glass
v -3.75 2.125 1.249755859375
v -3.75 2.125 1.5
v -3.75 2.8125 0.930908203125
v -3.75 2.9375 1.0947265625
v -3.75 3.1875 0.00439453125
v -3.75 3.4375 0.004638671875
v -3.75 3.1875 0.00439453125
v -3.75 3.4375 0.004638671875
v -3.75 2.8125 -0.913818359375
v -3.75 2.9375 -1.085693359375
v -3.75 2.125 -1.2509765625
v -3.75 2.125 -1.5
v -3.75 2.8125 0.930908203125
v -3.75 2.8125 -0.913818359375
v -3.75 2.125 1.249755859375
v -3.75 2.125 -1.2509765625
v -3.75 0.125 1.249755859375
v -3.750732421875 0.125 -1.2509765625
v 3.75 2.125 -1.250732421875
v 3.75 2.125 -1.5
v 3.753173828125 2.8125 -0.922119140625
v 3.75 2.9375 -1.085693359375
v 3.75 3.1875 0.004638671875
v 3.75 3.4375 0.004638671875
v 3.75 3.1875 0.004638671875
v 3.75 3.4375 0.004638671875
v 3.753173828125 2.8125 0.922607421875
v 3.75 2.9375 1.0947265625
v 3.75 2.125 1.250244140625
v 3.75 2.125 1.5
v 3.753173828125 2.8125 -0.922119140625
v 3.753173828125 2.8125 0.922607421875
v 3.75 2.125 -1.250732421875
v 3.75 2.125 1.250244140625
v 3.75 0.125 -1.250732421875
v 3.75 0.125 1.250244140625
v -3.75 0.125 1.5
v -3.75 2.125 1.5
v -3.75 2.125 1.249755859375
v -3.75 0.125 1.249755859375
v -3.75 0.125 -1.5
v -3.750732421875 0.125 -1.2509765625
v -3.75 2.125 -1.2509765625
v -3.75 2.125 -1.5
v 3.75 0.125 -1.5
v 3.75 2.125 -1.5
v 3.75 2.125 -1.250732421875
v 3.75 0.125 -1.250732421875
v 3.75 0.125 1.5
v 3.75 0.125 1.250244140625
v 3.75 2.125 1.250244140625
v 3.75 2.125 1.5
v -3.75 2.9375 1.0947265625
v 3.75 2.9375 1.0947265625
v 3.75 3.4375 0.004638671875
v -3.75 3.4375 0.004638671875
v -3.75 2.9375 -1.085693359375
v 3.75 2.9375 -1.085693359375
v 3.75 2.125 -1.5
v -3.75 2.125 -1.5
v -3.75 3.4375 0.004638671875
v 3.75 3.4375 0.004638671875
v 3.75 2.9375 -1.085693359375
v -3.75 2.9375 -1.085693359375
v -3.75 2.125 -1.5
v 3.75 2.125 -1.5
v 3.75 0.125 -1.5
v -3.75 0.125 -1.5
v -3.75 2.125 1.5
v 3.75 2.125 1.5
v 3.75 2.9375 1.0947265625
v -3.75 2.9375 1.0947265625
v -3.75 0.125 1.5
v 3.75 0.125 1.5
v 3.75 2.125 1.5
v -3.75 2.125 1.5
v -3.75 2.8125 0.930908203125
v -3.75 3.1875 0.00439453125
v -3.75 2.8125 -0.913818359375
v 3.753173828125 2.8125 -0.922119140625
v 3.75 3.1875 0.004638671875
v 3.753173828125 2.8125 0.922607421875
vt 2.1875 -2.953125
vt 2 -2.953125
vt 2.1875 -1.953125
vt 2 -1.953125
vt 2.1875 -0.9375
vt 2 -0.9375
vt 2.1875 -0.90625
vt 2 -0.90625
vt 2.1875 -1.921875
vt 2 -1.921875
vt 2.1875 -2.953125
vt 2 -2.953125
vt 3.625 -0.765625
vt 1.546875 -0.765625
vt 4 -1.6875
vt 1.171875 -1.6875
vt 4 -4.171875
vt 1.171875 -4.171875
vt 2.1875 -2.953125
vt 2 -2.953125
vt 2.1875 -1.953125
vt 2 -1.953125
vt 2.1875 -0.9375
vt 2 -0.9375
vt 2.1875 -0.90625
vt 2 -0.90625
vt 2.1875 -1.921875
vt 2 -1.921875
vt 2.1875 -2.953125
vt 2 -2.953125
vt 3.625 -0.765625
vt 1.546875 -0.765625
vt 4 -1.6875
vt 1.171875 -1.6875
vt 4 -4.171875
vt 1.171875 -4.171875
vt 2 -3.015625
vt 2 -0.9375
vt 2.1875 -0.9375
vt 2.1875 -3.015625
vt 2 -3.03125
vt 2.1875 -3.03125
vt 2.1875 -0.953125
vt 2 -0.953125
vt 2 -3.015625
vt 2 -0.9375
vt 2.1875 -0.9375
vt 2.1875 -3.015625
vt 2 -3.03125
vt 2.1875 -3.03125
vt 2.1875 -0.953125
vt 2 -0.953125
vt -2.984375 -2.125
vt 3.1875 -2.125
vt 3.171875 -1.078125
vt -2.984375 -1.078125
vt -0.984375 -2.078125
vt 5.171875 -2.078125
vt 5.1875 -3.109375
vt -0.984375 -3.109375
vt -0.984375 -1.09375
vt 5.171875 -1.09375
vt 5.171875 -2.125
vt -0.984375 -2.125
vt 1.015625 -1.09375
vt 7.1875 -1.09375
vt 7.1875 -3.171875
vt 1.015625 -3.171875
vt -2.984375 -3.109375
vt 3.1875 -3.109375
vt 3.1875 -2.078125
vt -2.984375 -2.078125
vt -4.984375 -3.1875
vt 1.1875 -3.1875
vt 1.1875 -1.109375
vt -4.984375 -1.109375
vt 3.625 -0.765625
vt 2.59375 -0.1875
vt 1.546875 -0.765625
vt 3.625 -0.765625
vt 2.59375 -0.1875
vt 1.546875 -0.765625
vn -1 0 0
vn -1 0 0
vn -1 0 0
vn -1 0 0
vn -1 0 0
vn -1 0 0
vn -1 0 0
vn -1 0 0
vn -1 0 0
vn -1 0 0
vn -1 0 0
vn -1 0 0
vn -1 0 0
vn -1 0 0
vn -1 0 0
vn -1 0 0
vn -1 0 0
vn -1 0 0
vn 0.998046875 0 0
vn 0.998046875 0 0
vn 0.998046875 0 0
vn 0.998046875 0 0
vn 0.998046875 0 0
vn 0.998046875 0 0
vn 0.998046875 0 0
vn 0.998046875 0 0
vn 0.998046875 0 0
vn 0.998046875 0 0
vn 0.998046875 0 0
vn 0.998046875 0 0
vn 0.998046875 0 0
vn 0.998046875 0 0
vn 0.998046875 0 0
vn 0.998046875 0 0
vn 0.998046875 0 0
vn 0.998046875 0 0
vn -1 0 0
vn -1 0 0
vn -1 0 0
vn -1 0 0
vn -1 0 0
vn -1 0 0
vn -1 0 0
vn -1 0 0
vn 0.998046875 0 0
vn 0.998046875 0 0
vn 0.998046875 0 0
vn 0.998046875 0 0
vn 0.998046875 0 0
vn 0.998046875 0 0
vn 0.998046875 0 0
vn 0.998046875 0 0
vn 0 0.787109375 0.615234375
vn 0 0.787109375 0.615234375
vn 0 0.998046875 0
vn 0 0.998046875 0
vn 0 0.787109375 -0.615234375
vn 0 0.787109375 -0.615234375
vn 0 0.330078125 -0.943359375
vn 0 0.330078125 -0.943359375
vn 0 0.998046875 0
vn 0 0.998046875 0
vn 0 0.787109375 -0.615234375
vn 0 0.787109375 -0.615234375
vn 0 0.330078125 -0.943359375
vn 0 0.330078125 -0.943359375
vn 0 0 -1
vn 0 0 -1
vn 0 0.330078125 0.943359375
vn 0 0.330078125 0.943359375
vn 0 0.787109375 0.615234375
vn 0 0.787109375 0.615234375
vn 0 0 0.998046875
vn 0 0 0.998046875
vn 0 0.330078125 0.943359375
vn 0 0.330078125 0.943359375
vn -1 0 0
vn -1 0 0
vn -1 0 0
vn 0.998046875 0 0
vn 0.998046875 0 0
vn 0.998046875 0 0
f 1/1/1 2/2/2 3/3/3
f 2/2/2 4/4/4 3/3/3
f 3/3/3 4/4/4 5/5/5
f 4/4/4 6/6/6 5/5/5
f 7/7/7 8/8/8 9/9/9
f 8/8/8 10/10/10 9/9/9
f 9/9/9 10/10/10 11/11/11
f 10/10/10 12/12/12 11/11/11
f 13/13/13 14/14/14 15/15/15
f 14/14/14 16/16/16 15/15/15
f 15/15/15 16/16/16 17/17/17
f 16/16/16 18/18/18 17/17/17
f 19/19/19 20/20/20 21/21/21
f 20/20/20 22/22/22 21/21/21
f 21/21/21 22/22/22 23/23/23
f 22/22/22 24/24/24 23/23/23
f 25/25/25 26/26/26 27/27/27
f 26/26/26 28/28/28 27/27/27
f 27/27/27 28/28/28 29/29/29
f 28/28/28 30/30/30 29/29/29
f 31/31/31 32/32/32 33/33/33
f 32/32/32 34/34/34 33/33/33
f 33/33/33 34/34/34 35/35/35
f 34/34/34 36/36/36 35/35/35
f 37/37/37 38/38/38 39/39/39
f 39/39/39 40/40/40 37/37/37
f 41/41/41 42/42/42 43/43/43
f 43/43/43 44/44/44 41/41/41
f 45/45/45 46/46/46 47/47/47
f 47/47/47 48/48/48 45/45/45
f 49/49/49 50/50/50 51/51/51
f 51/51/51 52/52/52 49/49/49
f 53/53/53 54/54/54 55/55/55
f 55/55/55 56/56/56 53/53/53
f 57/57/57 58/58/58 59/59/59
f 59/59/59 60/60/60 57/57/57
f 61/61/61 62/62/62 63/63/63
f 63/63/63 64/64/64 61/61/61
f 65/65/65 66/66/66 67/67/67
f 67/67/67 68/68/68 65/65/65
f 69/69/69 70/70/70 71/71/71
f 71/71/71 72/72/72 69/69/69
f 73/73/73 74/74/74 75/75/75
f 75/75/75 76/76/76 73/73/73
f 77/77/77 78/78/78 79/79/79
f 80/80/80 81/81/81 82/82/82
o polygon1
g polygon1
usemtl shadow
v -4.12890625 0.125 1.8125
v 4.00390625 0.125 1.8125
v 4.00390625 0.125 -1.8125
v -4.12890625 0.125 -1.8125
vt 0.11328125 -0.90625
vt 0.88671875 -0.90625
vt 0.88671875 -0.09375
vt 0.11328125 -0.09375
vn 0 0.998046875 0
vn 0 0.998046875 0
vn 0 0.998046875 0
vn 0 0.998046875 0
f 83/83/83 84/84/84 85/85/85
f 85/85/85 86/86/86 83/83/83
