# Created with Spiky's DS Map Editor 1.8.1.0
mtllib 314.mtl
o polygon0
g polygon0
usemtl c13_ho02b
v -0.0625 3.3125 1.6875
v 1.0625 3.3125 1.6875
v -0.0625 3.5625 1.6875
v 1.0625 3.5625 1.6875
v -0.0625 3.8125 1.6875
v 1.0625 3.8125 1.6875
v -0.6875 1 1.625
v -0.6875 3 1.625
v -1.4375 3 1.625
v -1.4375 1 1.625
v 2.4375 3 1.625
v 1.6875 3 1.625
v 1.6875 1 1.625
v 2.4375 1 1.625
vt -1 -0.0625
vt -0.5 -0.0625
vt -1 0
vt -0.5 0
vt -1 -0.0625
vt -0.5 -0.0625
vt -1 -1
vt -1 -0.078125
vt -0.5 -0.078125
vt -0.5 -1
vt -0.5 -0.078125
vt -1 -0.078125
vt -1 -1
vt -0.5 -1
vn 0 0 0.998046875
vn 0 0 0.998046875
vn 0 0 0.998046875
vn 0 0 0.998046875
vn 0 0 0.998046875
vn 0 0 0.998046875
vn 0 0 0.998046875
vn 0 0 0.998046875
vn 0 0 0.998046875
vn 0 0 0.998046875
vn 0 0 0.998046875
vn 0 0 0.998046875
vn 0 0 0.998046875
vn 0 0 0.998046875
f 1/1/1 2/2/2 3/3/3
f 2/2/2 4/4/4 3/3/3
f 3/3/3 4/4/4 5/5/5
f 4/4/4 6/6/6 5/5/5
f 7/7/7 8/8/8 9/9/9
f 9/9/9 10/10/10 7/7/7
f 11/11/11 12/12/12 13/13/13
f 13/13/13 14/14/14 11/11/11
o polygon1
g polygon1
usemtl c13_ho02a
v -0.75 0.5 1.625
v -0.75 0.5 1.5
v -1.75 0.5 1.625
v -1.625 0.5 1.5
v -1.75 0.5 0.75
v -1.625 0.5 0.75
v -1.75 0.5 -2.75
v -1.625 0.5 -2.75
v -1.75 0.5 -3.625
v -1.625 0.5 -3.5
v 2.75 0.5 -3.625
v 2.625 0.5 -3.5
v 2.75 0.5 -2.75
v 2.625 0.5 -2.75
v 2.75 0.5 0.75
v 2.625 0.5 0.75
v 2.75 0.5 1.625
v 2.625 0.5 1.5
v 1.75 0.5 1.625
v 1.75 0.5 1.5
v 2.625 3.25 -3.625
v 2.75 3.375 -3.625
v 2.625 3.25 -2.75
v 2.75 3.375 -2.75
v 2.625 3.25 -2
v 2.75 3.375 -2
v 2.625 3.25 0
v 2.75 3.375 0
v 2.625 3.25 0.75
v 2.75 3.375 0.75
v 2.625 3.25 1.625
v 2.75 3.375 1.625
v -1.625 3.25 1.625
v -1.75 3.375 1.625
v -1.625 3.25 0.75
v -1.75 3.375 0.75
v -1.625 3.25 0
v -1.75 3.375 0
v -1.625 3.25 -2
v -1.75 3.375 -2
v -1.625 3.25 -2.75
v -1.75 3.375 -2.75
v -1.625 3.25 -3.625
v -1.75 3.375 -3.625
v 2.625 3.25 1.625
v 2.75 3.375 1.625
v 1.75 4 1.625
v 1.875 4.1875 1.625
v 0.5 4.375 1.625
v 0.5 4.625 1.625
v -0.75 4 1.625
v -0.875 4.1875 1.625
v -1.625 3.25 1.625
v -1.75 3.375 1.625
v 2.75 0.25 -3.625
v 2.75 0.5 -3.625
v 2.75 0.25 -2.75
v 2.75 0.5 -2.75
v 2.75 0.25 0.75
v 2.75 0.5 0.75
v 2.75 0.25 1.625
v 2.75 0.5 1.625
v -1.75 0.25 1.625
v -1.75 0.5 1.625
v -1.75 0.25 0.75
v -1.75 0.5 0.75
v -1.75 0.25 -2.75
v -1.75 0.5 -2.75
v -1.75 0.25 -3.625
v -1.75 0.5 -3.625
v -1.625 0.5 1.5
v -1.625 2.5 1.5
v -1.625 0.5 0.75
v -1.625 2.5 0.75
v -1.625 0.5 -2.75
v -1.625 2.5 -2.75
v -1.625 0.5 -3.5
v -1.625 2.5 -3.5
v -1.625 2.5 1.5
v -1.625 3.25 1.5
v -1.625 2.5 0.75
v -1.625 3.25 0.75
v -1.625 2.5 -2.75
v -1.625 3.25 -2.75
v -1.625 2.5 -3.5
v -1.625 3.25 -3.5
v -0.75 3.25 1.5
v -0.75 2.5 1.5
v 0.5 3.25 1.5
v 0.5 2.5 1.5
v 1.75 3.25 1.5
v 1.75 2.5 1.5
v 2.625 3.25 1.5
v 2.625 2.5 1.5
v 2.625 3.25 1.5
v 2.625 2.5 1.5
v 2.625 3.25 0.75
v 2.625 2.5 0.75
v 2.625 3.25 -2.75
v 2.625 2.5 -2.75
v 2.625 3.25 -3.5
v 2.625 2.5 -3.5
v 2.625 0.5 -3.5
v 2.625 2.5 -3.5
v 2.625 0.5 -2.75
v 2.625 2.5 -2.75
v 2.625 0.5 0.75
v 2.625 2.5 0.75
v 2.625 0.5 1.5
v 2.625 2.5 1.5
v -1.625 0.5 1.5
v -0.75 0.5 1.5
v -1.625 2.5 1.5
v -0.75 2.5 1.5
v -1.625 3.25 1.5
v -0.75 3.25 1.5
v 1.75 0.5 1.5
v 1.75 2.5 1.5
v 0.5 0.5 1.5
v 0.5 2.5 1.5
v -0.75 0.5 1.5
v -0.75 2.5 1.5
v 1.75 0.25 1.5
v 1.75 0.5 1.5
v 0.5 0.25 1.5
v 0.5 0.5 1.5
v -0.75 0.25 1.5
v -0.75 0.5 1.5
v 1.75 4 1.5
v 0.5 4.375 1.5
v 0.5 3.25 1.5
v -0.75 4 1.5
v -0.75 3.25 1.5
v -1.625 3.25 1.5
v 2.625 3.25 1.5
v 1.75 4 1.5
v 1.75 3.25 1.5
v 0.5 3.25 1.5
v -0.75 0.25 1.625
v -0.75 0.5 1.625
v -1.75 0.5 1.625
v -1.75 0.25 1.625
v 2.625 2.5 1.5
v 1.75 2.5 1.5
v 1.75 0.5 1.5
v 2.625 0.5 1.5
v 2.75 0.5 1.625
v 1.75 0.5 1.625
v 1.75 0.25 1.625
v 2.75 0.25 1.625
v 0.875 3.625 1.625
v 0.125 3.625 1.625
v 0.125 3.4375 1.625
v 0.875 3.4375 1.625
v 2.75 3.375 -2
v 1.875 4.1875 -2
v 1.875 4.1875 0
v 2.75 3.375 0
v 0.5 4.625 -2
v -0.875 4.1875 -2
v -0.875 4.1875 0
v 0.5 4.625 0
v 0.5 4.625 -2
v 1.875 4.1875 -2
v 1.875 4.1875 -2.75
v 0.5 4.625 -2.75
v -1.75 3.375 -2
v -0.875 4.1875 -2
v -0.875 4.1875 -2.75
v -1.75 3.375 -2.75
v 2.75 3.375 -2.75
v 1.875 4.1875 -2.75
v 1.875 4.1875 -2
v 2.75 3.375 -2
v 0.5 4.625 -2.75
v -0.875 4.1875 -2.75
v -0.875 4.1875 -2
v 0.5 4.625 -2
v 2.75 3.375 1.625
v 2.75 3.375 0.75
v 1.875 4.1875 0.75
v 1.875 4.1875 1.625
v 0.5 4.625 1.625
v 0.5 4.625 0.75
v -0.875 4.1875 0.75
v -0.875 4.1875 1.625
v 0.5 4.625 0
v -0.875 4.1875 0
v -0.875 4.1875 0.75
v 0.5 4.625 0.75
v 2.75 3.375 0
v 1.875 4.1875 0
v 1.875 4.1875 0.75
v 2.75 3.375 0.75
v 2.75 3.375 -3.625
v 1.875 4.1875 -3.625
v 1.875 4.1875 -2.75
v 2.75 3.375 -2.75
v -0.75 0.25 1.5
v -0.75 0.5 1.5
v -0.75 0.5 1.625
v -0.75 0.25 1.625
v 0.5 4.625 1.625
v 1.875 4.1875 1.625
v 1.875 4.1875 0.75
v 0.5 4.625 0.75
v -1.75 3.375 1.625
v -0.875 4.1875 1.625
v -0.875 4.1875 0.75
v -1.75 3.375 0.75
v -1.75 3.375 0
v -0.875 4.1875 0
v -0.875 4.1875 -2
v -1.75 3.375 -2
v 0.5 4.625 0
v 1.875 4.1875 0
v 1.875 4.1875 -2
v 0.5 4.625 -2
v 0.5 4.625 -3.625
v -0.875 4.1875 -3.625
v -0.875 4.1875 -2.75
v 0.5 4.625 -2.75
v 0.5 4.625 -3.625
v 0.5 4.625 -2.75
v 1.875 4.1875 -2.75
v 1.875 4.1875 -3.625
v 0.5 4.625 0.75
v 1.875 4.1875 0.75
v 1.875 4.1875 0
v 0.5 4.625 0
v -1.75 3.375 0.75
v -0.875 4.1875 0.75
v -0.875 4.1875 0
v -1.75 3.375 0
v 1.75 0.5 1.5
v 1.75 0.25 1.5
v 1.75 0.25 1.625
v 1.75 0.5 1.625
v -1.75 3.375 -3.625
v -1.75 3.375 -2.75
v -0.875 4.1875 -2.75
v -0.875 4.1875 -3.625
vt 0.1015625 -0.390625
vt 0.1015625 -0.390625
vt 0.1015625 -0.390625
vt 0.1015625 -0.390625
vt 0.1015625 -0.390625
vt 0.1015625 -0.390625
vt 0.1015625 -0.390625
vt 0.1015625 -0.390625
vt 0.1015625 -0.390625
vt 0.1015625 -0.390625
vt 0.1015625 -0.390625
vt 0.1015625 -0.390625
vt 0.1015625 -0.390625
vt 0.1015625 -0.390625
vt 0.1015625 -0.390625
vt 0.1015625 -0.390625
vt 0.1015625 -0.390625
vt 0.1015625 -0.390625
vt 0.1015625 -0.390625
vt 0.1015625 -0.390625
vt 0.0390625 -0.84375
vt 0.0390625 -0.84375
vt 0.0390625 -0.84375
vt 0.0390625 -0.84375
vt 0.0390625 -0.84375
vt 0.0390625 -0.84375
vt 0.0390625 -0.84375
vt 0.0390625 -0.84375
vt 0.0390625 -0.84375
vt 0.0390625 -0.84375
vt 0.0390625 -0.84375
vt 0.0390625 -0.84375
vt 0.0390625 -0.84375
vt 0.0390625 -0.84375
vt 0.0390625 -0.84375
vt 0.0390625 -0.84375
vt 0.0390625 -0.84375
vt 0.0390625 -0.84375
vt 0.0390625 -0.84375
vt 0.0390625 -0.84375
vt 0.0390625 -0.84375
vt 0.0390625 -0.84375
vt 0.0390625 -0.84375
vt 0.0390625 -0.84375
vt 0.1015625 -1
vt 0.1015625 -0.890625
vt 0.046875 -1
vt 0.046875 -0.890625
vt 0 -1
vt 0 -0.890625
vt 0.046875 -1
vt 0.046875 -0.890625
vt 0.1015625 -1
vt 0.1015625 -0.890625
vt 0.1015625 -0.84375
vt 0.1015625 -0.84375
vt 0.1015625 -0.84375
vt 0.1015625 -0.84375
vt 0.1015625 -0.84375
vt 0.1015625 -0.84375
vt 0.1015625 -0.84375
vt 0.1015625 -0.84375
vt 0.1015625 -0.84375
vt 0.1015625 -0.84375
vt 0.1015625 -0.84375
vt 0.1015625 -0.84375
vt 0.1015625 -0.84375
vt 0.1015625 -0.84375
vt 0.1015625 -0.84375
vt 0.1015625 -0.84375
vt -0.7578125 -1
vt -0.7578125 -0.265625
vt -0.8828125 -1
vt -0.8828125 -0.265625
vt -0.8828125 -1
vt -0.8828125 -0.265625
vt -0.7578125 -1
vt -0.7578125 -0.265625
vt -0.7578125 -0.265625
vt -0.7578125 0
vt -0.8828125 -0.265625
vt -0.8828125 0
vt -0.8828125 -0.265625
vt -0.8828125 0
vt -0.7578125 -0.265625
vt -0.7578125 0
vt -0.6328125 0
vt -0.6328125 -0.265625
vt -0.6328125 0
vt -0.6328125 -0.265625
vt -0.6328125 0
vt -0.6328125 -0.265625
vt -0.7421875 0
vt -0.7421875 -0.265625
vt -0.7578125 0
vt -0.7578125 -0.265625
vt -0.8828125 0
vt -0.8828125 -0.265625
vt -0.8828125 0
vt -0.8828125 -0.265625
vt -0.7578125 0
vt -0.7578125 -0.265625
vt -0.7578125 -1
vt -0.7578125 -0.265625
vt -0.8828125 -1
vt -0.8828125 -0.265625
vt -0.8828125 -1
vt -0.8828125 -0.265625
vt -0.7578125 -1
vt -0.7578125 -0.265625
vt -0.7421875 -1
vt -0.6328125 -1
vt -0.7421875 -0.265625
vt -0.6328125 -0.265625
vt -0.7421875 0
vt -0.6328125 0
vt -0.6171875 -0.90625
vt -0.6171875 -0.265625
vt -0.4375 -0.90625
vt -0.4375 -0.265625
vt -0.6171875 -0.90625
vt -0.6171875 -0.265625
vt -0.6171875 -1
vt -0.6171875 -0.90625
vt -0.4375 -1
vt -0.4375 -0.90625
vt -0.6171875 -1
vt -0.6171875 -0.90625
vt -0.6171875 -0.015625
vt -0.4765625 -0.015625
vt -0.4765625 -0.234375
vt -0.6171875 -0.015625
vt -0.5390625 -0.234375
vt -0.6171875 -0.234375
vt -0.6171875 -0.234375
vt -0.6171875 -0.015625
vt -0.5390625 -0.234375
vt -0.4765625 -0.234375
vt 0.1015625 -0.59375
vt 0.1015625 -0.59375
vt 0.1015625 -0.59375
vt 0.1015625 -0.59375
vt -0.7421875 -0.265625
vt -0.6328125 -0.265625
vt -0.6328125 -1
vt -0.7421875 -1
vt 0.1015625 -0.59375
vt 0.1015625 -0.59375
vt 0.1015625 -0.59375
vt 0.1015625 -0.59375
vt -0.423828125 -0.53125
vt -0.576171875 -0.53125
vt -0.576171875 -0.640625
vt -0.423828125 -0.640625
vt 0.1015625 -0.859375
vt 0.1015625 -0.484375
vt 0.1015625 -0.484375
vt 0.1015625 -0.859375
vt 0.1015625 0
vt 0.1015625 -0.484375
vt 0.1015625 -0.484375
vt 0.1015625 0
vt 0.0859375 0
vt 0.0859375 -0.484375
vt 0.0078125 -0.484375
vt 0.0078125 0
vt 0.0859375 -0.859375
vt 0.0859375 -0.484375
vt 0.0078125 -0.484375
vt 0.0078125 -0.859375
vt 0.0078125 -0.859375
vt 0.0078125 -0.484375
vt 0.0859375 -0.484375
vt 0.0859375 -0.859375
vt 0.0078125 0
vt 0.0078125 -0.484375
vt 0.0859375 -0.484375
vt 0.0859375 0
vt 0.1015625 -0.859375
vt 0.1015625 -0.859375
vt 0.1015625 -0.484375
vt 0.1015625 -0.484375
vt 0.1015625 0
vt 0.1015625 0
vt 0.1015625 -0.484375
vt 0.1015625 -0.484375
vt 0.0078125 0
vt 0.0078125 -0.484375
vt 0.0859375 -0.484375
vt 0.0859375 0
vt 0.0078125 -0.859375
vt 0.0078125 -0.484375
vt 0.0859375 -0.484375
vt 0.0859375 -0.859375
vt 0.1015625 -0.859375
vt 0.1015625 -0.484375
vt 0.1015625 -0.484375
vt 0.1015625 -0.859375
vt 0.1015625 -0.84375
vt 0.1015625 -0.84375
vt 0.1015625 -0.84375
vt 0.1015625 -0.84375
vt 0.1015625 0
vt 0.1015625 -0.484375
vt 0.1015625 -0.484375
vt 0.1015625 0
vt 0.1015625 -0.859375
vt 0.1015625 -0.484375
vt 0.1015625 -0.484375
vt 0.1015625 -0.859375
vt 0.1015625 -0.859375
vt 0.1015625 -0.484375
vt 0.1015625 -0.484375
vt 0.1015625 -0.859375
vt 0.1015625 0
vt 0.1015625 -0.484375
vt 0.1015625 -0.484375
vt 0.1015625 0
vt 0.1015625 0
vt 0.1015625 -0.484375
vt 0.1015625 -0.484375
vt 0.1015625 0
vt 0.1015625 0
vt 0.1015625 0
vt 0.1015625 -0.484375
vt 0.1015625 -0.484375
vt 0.0859375 0
vt 0.0859375 -0.484375
vt 0.0078125 -0.484375
vt 0.0078125 0
vt 0.0859375 -0.859375
vt 0.0859375 -0.484375
vt 0.0078125 -0.484375
vt 0.0078125 -0.859375
vt 0.1015625 -0.84375
vt 0.1015625 -0.84375
vt 0.1015625 -0.84375
vt 0.1015625 -0.84375
vt 0.1015625 -0.859375
vt 0.1015625 -0.859375
vt 0.1015625 -0.484375
vt 0.1015625 -0.484375
vn 0 0.998046875 0
vn 0 0.998046875 0
vn 0 0.998046875 0
vn 0 0.998046875 0
vn 0 0.998046875 0
vn 0 0.998046875 0
vn 0 0.998046875 0
vn 0 0.998046875 0
vn 0 0.998046875 0
vn 0 0.998046875 0
vn 0 0.998046875 0
vn 0 0.998046875 0
vn 0 0.998046875 0
vn 0 0.998046875 0
vn 0 0.998046875 0
vn 0 0.998046875 0
vn 0 0.998046875 0
vn 0 0.998046875 0
vn 0 0.998046875 0
vn 0 0.998046875 0
vn 0.998046875 0 0
vn 0.70703125 -0.70703125 0
vn 0.70703125 -0.70703125 0
vn 0.70703125 -0.70703125 0
vn 0.70703125 -0.70703125 0
vn 0.70703125 -0.70703125 0
vn 0.70703125 -0.70703125 0
vn 0.70703125 -0.70703125 0
vn 0.70703125 -0.70703125 0
vn 0.70703125 -0.70703125 0
vn 0.70703125 -0.70703125 0
vn 0.998046875 0 0
vn -1 0 0
vn -1 0 0
vn -0.70703125 -0.70703125 0
vn -0.70703125 -0.70703125 0
vn -0.70703125 -0.70703125 0
vn -0.70703125 -0.70703125 0
vn -0.70703125 -0.70703125 0
vn -0.70703125 -0.70703125 0
vn -0.70703125 -0.70703125 0
vn -0.70703125 -0.70703125 0
vn -1 0 0
vn -1 0 0
vn 0 0 0.998046875
vn 0 0 0.998046875
vn 0 0 0.998046875
vn 0 0 0.998046875
vn 0 0 0.998046875
vn 0 0 0.998046875
vn 0 0 0.998046875
vn 0 0 0.998046875
vn 0 0 0.998046875
vn 0 0 0.998046875
vn 0.998046875 0 0
vn 0.998046875 0 0
vn 0.998046875 0 0
vn 0.998046875 0 0
vn 0.998046875 0 0
vn 0.998046875 0 0
vn 0.998046875 0 0
vn 0.998046875 0 0
vn -1 0 0
vn -1 0 0
vn -1 0 0
vn -1 0 0
vn -1 0 0
vn -1 0 0
vn -1 0 0
vn -1 0 0
vn -1 0 0
vn -1 0 0
vn -1 0 0
vn -1 0 0
vn -1 0 0
vn -1 0 0
vn -1 0 0
vn -1 0 0
vn -1 0 0
vn -1 0 0
vn -1 0 0
vn -1 0 0
vn -1 0 0
vn -1 0 0
vn -1 0 0
vn -1 0 0
vn 0 0 0.998046875
vn 0 0 0.998046875
vn 0 0 0.998046875
vn 0 0 0.998046875
vn 0 0 0.998046875
vn 0 0 0.998046875
vn 0 0 0.998046875
vn 0 0 0.998046875
vn 0.998046875 0 0
vn 0.998046875 0 0
vn 0.998046875 0 0
vn 0.998046875 0 0
vn 0.998046875 0 0
vn 0.998046875 0 0
vn 0.998046875 0 0
vn 0.998046875 0 0
vn 0.998046875 0 0
vn 0.998046875 0 0
vn 0.998046875 0 0
vn 0.998046875 0 0
vn 0.998046875 0 0
vn 0.998046875 0 0
vn 0.998046875 0 0
vn 0.998046875 0 0
vn 0 0 0.998046875
vn 0 0 0.998046875
vn 0 0 0.998046875
vn 0 0 0.998046875
vn 0 0 0.998046875
vn 0 0 0.998046875
vn 0 0 0.998046875
vn 0 0 0.998046875
vn 0 0 0.998046875
vn 0 0 0.998046875
vn 0 0 0.998046875
vn 0 0 0.998046875
vn 0 0 0.998046875
vn 0 0 0.998046875
vn 0 0 0.998046875
vn 0 0 0.998046875
vn 0 0 0.998046875
vn 0 0 0.998046875
vn 0 0 0.998046875
vn 0 0 0.998046875
vn 0 0 0.998046875
vn 0 0 0.998046875
vn 0 0 0.998046875
vn 0 0 0.998046875
vn 0 0 0.998046875
vn 0 0 0.998046875
vn 0 0 0.998046875
vn 0 0 0.998046875
vn 0 0 0.998046875
vn 0 0 0.998046875
vn 0 0 0.998046875
vn 0 0 0.998046875
vn 0 0 0.998046875
vn 0 0 0.998046875
vn 0 0 0.998046875
vn 0 0 0.998046875
vn 0 0 0.998046875
vn 0 0 0.998046875
vn 0 0 0.998046875
vn 0 0 0.998046875
vn 0 0 0.998046875
vn 0 0 0.998046875
vn 0 0 0.998046875
vn 0 0 0.998046875
vn 0.6796875 0.732421875 0
vn 0.6796875 0.732421875 0
vn 0.6796875 0.732421875 0
vn 0.6796875 0.732421875 0
vn -0.302734375 0.953125 0
vn -0.302734375 0.953125 0
vn -0.302734375 0.953125 0
vn -0.302734375 0.953125 0
vn 0.302734375 0.953125 0
vn 0.302734375 0.953125 0
vn 0.302734375 0.953125 0
vn 0.302734375 0.953125 0
vn -0.6796875 0.732421875 0
vn -0.6796875 0.732421875 0
vn -0.6796875 0.732421875 0
vn -0.6796875 0.732421875 0
vn 0.6796875 0.732421875 0
vn 0.6796875 0.732421875 0
vn 0.6796875 0.732421875 0
vn 0.6796875 0.732421875 0
vn -0.302734375 0.953125 0
vn -0.302734375 0.953125 0
vn -0.302734375 0.953125 0
vn -0.302734375 0.953125 0
vn 0.5546875 0.83203125 0
vn 0.6796875 0.732421875 0
vn 0.6796875 0.732421875 0
vn 0.5546875 0.83203125 0
vn -0.1640625 0.986328125 0
vn -0.302734375 0.953125 0
vn -0.302734375 0.953125 0
vn -0.1640625 0.986328125 0
vn -0.302734375 0.953125 0
vn -0.302734375 0.953125 0
vn -0.302734375 0.953125 0
vn -0.302734375 0.953125 0
vn 0.6796875 0.732421875 0
vn 0.6796875 0.732421875 0
vn 0.6796875 0.732421875 0
vn 0.6796875 0.732421875 0
vn 0.5546875 0.83203125 0
vn 0.6796875 0.732421875 0
vn 0.6796875 0.732421875 0
vn 0.6796875 0.732421875 0
vn 0.998046875 0 0
vn 0.998046875 0 0
vn 0.998046875 0 0
vn 0.998046875 0 0
vn 0.1640625 0.986328125 0
vn 0.302734375 0.953125 0
vn 0.302734375 0.953125 0
vn 0.302734375 0.953125 0
vn -0.5546875 0.83203125 0
vn -0.6796875 0.732421875 0
vn -0.6796875 0.732421875 0
vn -0.6796875 0.732421875 0
vn -0.6796875 0.732421875 0
vn -0.6796875 0.732421875 0
vn -0.6796875 0.732421875 0
vn -0.6796875 0.732421875 0
vn 0.302734375 0.953125 0
vn 0.302734375 0.953125 0
vn 0.302734375 0.953125 0
vn 0.302734375 0.953125 0
vn -0.1640625 0.986328125 0
vn -0.302734375 0.953125 0
vn -0.302734375 0.953125 0
vn -0.302734375 0.953125 0
vn 0.1640625 0.986328125 0
vn 0.302734375 0.953125 0
vn 0.302734375 0.953125 0
vn 0.1640625 0.986328125 0
vn 0.302734375 0.953125 0
vn 0.302734375 0.953125 0
vn 0.302734375 0.953125 0
vn 0.302734375 0.953125 0
vn -0.6796875 0.732421875 0
vn -0.6796875 0.732421875 0
vn -0.6796875 0.732421875 0
vn -0.6796875 0.732421875 0
vn -1 0 0
vn -1 0 0
vn -1 0 0
vn -1 0 0
vn -0.5546875 0.83203125 0
vn -0.6796875 0.732421875 0
vn -0.6796875 0.732421875 0
vn -0.5546875 0.83203125 0
f 15/15/15 16/16/16 17/17/17
f 16/16/16 18/18/18 17/17/17
f 17/17/17 18/18/18 19/19/19
f 18/18/18 20/20/20 19/19/19
f 19/19/19 20/20/20 21/21/21
f 20/20/20 22/22/22 21/21/21
f 21/21/21 22/22/22 23/23/23
f 22/22/22 24/24/24 23/23/23
f 23/23/23 24/24/24 25/25/25
f 24/24/24 26/26/26 25/25/25
f 25/25/25 26/26/26 27/27/27
f 26/26/26 28/28/28 27/27/27
f 27/27/27 28/28/28 29/29/29
f 28/28/28 30/30/30 29/29/29
f 29/29/29 30/30/30 31/31/31
f 30/30/30 32/32/32 31/31/31
f 31/31/31 32/32/32 33/33/33
f 32/32/32 34/34/34 33/33/33
f 35/35/35 36/36/36 37/37/37
f 36/36/36 38/38/38 37/37/37
f 37/37/37 38/38/38 39/39/39
f 38/38/38 40/40/40 39/39/39
f 39/39/39 40/40/40 41/41/41
f 40/40/40 42/42/42 41/41/41
f 41/41/41 42/42/42 43/43/43
f 42/42/42 44/44/44 43/43/43
f 43/43/43 44/44/44 45/45/45
f 44/44/44 46/46/46 45/45/45
f 47/47/47 48/48/48 49/49/49
f 48/48/48 50/50/50 49/49/49
f 49/49/49 50/50/50 51/51/51
f 50/50/50 52/52/52 51/51/51
f 51/51/51 52/52/52 53/53/53
f 52/52/52 54/54/54 53/53/53
f 53/53/53 54/54/54 55/55/55
f 54/54/54 56/56/56 55/55/55
f 55/55/55 56/56/56 57/57/57
f 56/56/56 58/58/58 57/57/57
f 59/59/59 60/60/60 61/61/61
f 60/60/60 62/62/62 61/61/61
f 61/61/61 62/62/62 63/63/63
f 62/62/62 64/64/64 63/63/63
f 63/63/63 64/64/64 65/65/65
f 64/64/64 66/66/66 65/65/65
f 65/65/65 66/66/66 67/67/67
f 66/66/66 68/68/68 67/67/67
f 69/69/69 70/70/70 71/71/71
f 70/70/70 72/72/72 71/71/71
f 71/71/71 72/72/72 73/73/73
f 72/72/72 74/74/74 73/73/73
f 73/73/73 74/74/74 75/75/75
f 74/74/74 76/76/76 75/75/75
f 77/77/77 78/78/78 79/79/79
f 78/78/78 80/80/80 79/79/79
f 79/79/79 80/80/80 81/81/81
f 80/80/80 82/82/82 81/81/81
f 81/81/81 82/82/82 83/83/83
f 82/82/82 84/84/84 83/83/83
f 85/85/85 86/86/86 87/87/87
f 86/86/86 88/88/88 87/87/87
f 87/87/87 88/88/88 89/89/89
f 88/88/88 90/90/90 89/89/89
f 89/89/89 90/90/90 91/91/91
f 90/90/90 92/92/92 91/91/91
f 93/93/93 94/94/94 95/95/95
f 94/94/94 96/96/96 95/95/95
f 95/95/95 96/96/96 97/97/97
f 96/96/96 98/98/98 97/97/97
f 97/97/97 98/98/98 99/99/99
f 98/98/98 100/100/100 99/99/99
f 101/101/101 102/102/102 103/103/103
f 102/102/102 104/104/104 103/103/103
f 103/103/103 104/104/104 105/105/105
f 104/104/104 106/106/106 105/105/105
f 105/105/105 106/106/106 107/107/107
f 106/106/106 108/108/108 107/107/107
f 109/109/109 110/110/110 111/111/111
f 110/110/110 112/112/112 111/111/111
f 111/111/111 112/112/112 113/113/113
f 112/112/112 114/114/114 113/113/113
f 113/113/113 114/114/114 115/115/115
f 114/114/114 116/116/116 115/115/115
f 117/117/117 118/118/118 119/119/119
f 118/118/118 120/120/120 119/119/119
f 119/119/119 120/120/120 121/121/121
f 120/120/120 122/122/122 121/121/121
f 121/121/121 122/122/122 123/123/123
f 122/122/122 124/124/124 123/123/123
f 125/125/125 126/126/126 127/127/127
f 126/126/126 128/128/128 127/127/127
f 127/127/127 128/128/128 129/129/129
f 128/128/128 130/130/130 129/129/129
f 131/131/131 132/132/132 133/133/133
f 132/132/132 134/134/134 133/133/133
f 133/133/133 134/134/134 135/135/135
f 134/134/134 136/136/136 135/135/135
f 137/137/137 138/138/138 139/139/139
f 138/138/138 140/140/140 139/139/139
f 139/139/139 140/140/140 141/141/141
f 140/140/140 142/142/142 141/141/141
f 143/143/143 144/144/144 145/145/145
f 144/144/144 146/146/146 145/145/145
f 145/145/145 146/146/146 147/147/147
f 146/146/146 148/148/148 147/147/147
f 149/149/149 150/150/150 151/151/151
f 150/150/150 152/152/152 151/151/151
f 153/153/153 154/154/154 155/155/155
f 155/155/155 156/156/156 153/153/153
f 157/157/157 158/158/158 159/159/159
f 159/159/159 160/160/160 157/157/157
f 161/161/161 162/162/162 163/163/163
f 163/163/163 164/164/164 161/161/161
f 165/165/165 166/166/166 167/167/167
f 167/167/167 168/168/168 165/165/165
f 169/169/169 170/170/170 171/171/171
f 171/171/171 172/172/172 169/169/169
f 173/173/173 174/174/174 175/175/175
f 175/175/175 176/176/176 173/173/173
f 177/177/177 178/178/178 179/179/179
f 179/179/179 180/180/180 177/177/177
f 181/181/181 182/182/182 183/183/183
f 183/183/183 184/184/184 181/181/181
f 185/185/185 186/186/186 187/187/187
f 187/187/187 188/188/188 185/185/185
f 189/189/189 190/190/190 191/191/191
f 191/191/191 192/192/192 189/189/189
f 193/193/193 194/194/194 195/195/195
f 195/195/195 196/196/196 193/193/193
f 197/197/197 198/198/198 199/199/199
f 199/199/199 200/200/200 197/197/197
f 201/201/201 202/202/202 203/203/203
f 203/203/203 204/204/204 201/201/201
f 205/205/205 206/206/206 207/207/207
f 207/207/207 208/208/208 205/205/205
f 209/209/209 210/210/210 211/211/211
f 211/211/211 212/212/212 209/209/209
f 213/213/213 214/214/214 215/215/215
f 215/215/215 216/216/216 213/213/213
f 217/217/217 218/218/218 219/219/219
f 219/219/219 220/220/220 217/217/217
f 221/221/221 222/222/222 223/223/223
f 223/223/223 224/224/224 221/221/221
f 225/225/225 226/226/226 227/227/227
f 227/227/227 228/228/228 225/225/225
f 229/229/229 230/230/230 231/231/231
f 231/231/231 232/232/232 229/229/229
f 233/233/233 234/234/234 235/235/235
f 235/235/235 236/236/236 233/233/233
f 237/237/237 238/238/238 239/239/239
f 239/239/239 240/240/240 237/237/237
f 241/241/241 242/242/242 243/243/243
f 243/243/243 244/244/244 241/241/241
f 245/245/245 246/246/246 247/247/247
f 247/247/247 248/248/248 245/245/245
f 249/249/249 250/250/250 251/251/251
f 251/251/251 252/252/252 249/249/249
f 253/253/253 254/254/254 255/255/255
f 255/255/255 256/256/256 253/253/253
o polygon2
g polygon2
usemtl h_kage
v 3 0.125 2
v 2.5 0.125 1.5
v -2 0.125 2
v -1.5 0.125 1.5
v -2 0.125 -4
v -1.5 0.125 -3.5
v 3 0.125 -4
v 2.5 0.125 -3.5
v 3 0.125 2
v 2.5 0.125 1.5
v 2.5 0.125 1.5
v 2.5 0.125 -3.5
v -1.5 0.125 -3.5
v -1.5 0.125 1.5
vt 0.5 -0.125
vt 0.5 -0.875
vt 0.5 -0.125
vt 0.5 -0.875
vt 0.5 -0.125
vt 0.5 -0.875
vt 0.5 -0.125
vt 0.5 -0.875
vt 0.5 -0.125
vt 0.5 -0.875
vt 0.5 -0.875
vt 0.5 -0.875
vt 0.5 -0.875
vt 0.5 -0.875
vn 0 0.998046875 0
vn 0 0.998046875 0
vn 0 0.998046875 0
vn 0 0.998046875 0
vn 0 0.998046875 0
vn 0 0.998046875 0
vn 0 0.998046875 0
vn 0 0.998046875 0
vn 0 0.998046875 0
vn 0 0.998046875 0
vn 0 0.998046875 0
vn 0 0.998046875 0
vn 0 0.998046875 0
vn 0 0.998046875 0
f 257/257/257 258/258/258 259/259/259
f 258/258/258 260/260/260 259/259/259
f 259/259/259 260/260/260 261/261/261
f 260/260/260 262/262/262 261/261/261
f 261/261/261 262/262/262 263/263/263
f 262/262/262 264/264/264 263/263/263
f 263/263/263 264/264/264 265/265/265
f 264/264/264 266/266/266 265/265/265
f 267/267/267 268/268/268 269/269/269
f 269/269/269 270/270/270 267/267/267
