# Created with Spiky's DS Map Editor 1.8.1.0
mtllib 325.mtl
o polygon0
g polygon0
usemtl r4_r03_parts
v 1.8125 3.0625 0.6875
v 1.8125 3.0625 1.375
v 2.375 3.0625 1.375
v 2.375 3.0625 0.6875
v 0.192138671875 3.5 -2
v 0.192138671875 3.5 1.375
v 1.8125 3.5 1.375
v 1.8125 3.5 0.6875
v -1.375 3.125 1.375
v 0 3.125 1.375
v 0 3.125 -2
v -1.375 3.125 -2
v 0.375 3.957763671875 1.19482421875
v 1.408203125 3.957763671875 1.19482421875
v 1.408203125 3.957763671875 0.80517578125
v 0.375 3.957763671875 0.80517578125
v 1.0205078125 4 -1.91796875
v 1.0205078125 4 -1.54296875
v 1.8955078125 4 -1.54296875
v 2.2705078125 4 -1.91796875
v 2.2705078125 4 -1.91796875
v 1.8955078125 4 -1.54296875
v 1.8955078125 4 -0.114990234375
v 2.2705078125 4 -0.114990234375
v -1.1875 3.6875 1.163818359375
v -0.875 3.6875 0.75
v -0.875 3.6875 -1.084716796875
v -1.1875 3.6875 -1.084716796875
v -0.875 3.6875 0.75
v -1.1875 3.6875 1.163818359375
v -0.1875 3.6875 1.163818359375
v -0.1875 3.6875 0.75
v -0.20703125 2.180908203125 1.375
v -0.20703125 0.375 1.375
v -0.20703125 0.375 0
v -0.20703125 2.180908203125 0
v 1.20703125 0.375 1.375
v 1.20703125 2.180908203125 1.375
v 1.20703125 2.180908203125 0
v 1.20703125 0.375 0
v -0.20703125 0.375 1.375
v 1.20703125 0.375 1.375
v 1.20703125 0.375 0
v -0.20703125 0.375 0
v -0.20703125 0.375 0
v 1.20703125 0.375 0
v 1.20703125 2.180908203125 0
v -0.20703125 2.180908203125 0
v 0.192138671875 3.5 -2
v 1.8125 3.5 0.6875
v 2.375 3.5 -2
v 2.375 3.5 -2
v 1.8125 3.5 0.6875
v 2.375 3.5 0.6875
vt 2.859375 0.1396484375
vt 2.859375 0.015625
vt 2.9833984375 0.015625
vt 2.9833984375 0.1396484375
vt 2.5625 0.6240234375
vt 2.5625 0.037109375
vt 2.859375 0.0400390625
vt 2.859375 0.1591796875
vt 2.2509765625 0.0380859375
vt 2.5283203125 0.0380859375
vt 2.5283203125 0.6240234375
vt 2.2509765625 0.6240234375
vt 3.70703125 0.6416015625
vt 3.9873046875 0.6416015625
vt 3.9873046875 0.7177734375
vt 3.70703125 0.7177734375
vt 3.236328125 1.71484375
vt 3.236328125 1.640625
vt 3.5126953125 1.640625
vt 3.6318359375 1.71484375
vt 3.23046875 1.578125
vt 3.158203125 1.4580078125
vt 3.158203125 1.0009765625
vt 3.23046875 1.0009765625
vt 3.1591796875 0.0166015625
vt 3.2314453125 0.119140625
vt 3.2314453125 0.57421875
vt 3.1591796875 0.57421875
vt 3.80859375 0.71875
vt 3.7236328125 0.6435546875
vt 3.9951171875 0.6435546875
vt 3.9951171875 0.71875
vt 3.005859375 -1.0029296875
vt 3.005859375 -1.0869140625
vt 3.0546875 -1.0869140625
vt 3.0546875 -1.0029296875
vt 3.0009765625 -1.0849609375
vt 3.0009765625 -1.0009765625
vt 3.060546875 -1.0009765625
vt 3.060546875 -1.0849609375
vt 3.005859375 -1.1337890625
vt 3.0556640625 -1.1337890625
vt 3.0556640625 -1.0009765625
vt 3.005859375 -1.0009765625
vt 3.00390625 -1.0859375
vt 3.0546875 -1.0859375
vt 3.0546875 -1.0029296875
vt 3.00390625 -1.0029296875
vt 2.5625 0.6240234375
vt 2.8603515625 0.162109375
vt 2.9833984375 0.6240234375
vt 2.9833984375 0.6240234375
vt 2.861328125 0.1611328125
vt 2.982421875 0.162109375
vn 0 0.998046875 0
vn 0 0.998046875 0
vn 0 0.998046875 0
vn 0 0.998046875 0
vn 0 0.998046875 0
vn 0 0.998046875 0
vn 0 0.998046875 0
vn 0 0.998046875 0
vn 0 0.998046875 0
vn 0 0.998046875 0
vn 0 0.998046875 0
vn 0 0.998046875 0
vn 0 0.998046875 0
vn 0 0.998046875 0
vn 0 0.998046875 0
vn 0 0.998046875 0
vn 0 0.998046875 0
vn 0 0.998046875 0
vn 0 0.998046875 0
vn 0 0.998046875 0
vn 0 0.998046875 0
vn 0 0.998046875 0
vn 0 0.998046875 0
vn 0 0.998046875 0
vn 0 0.998046875 0
vn 0 0.998046875 0
vn 0 0.998046875 0
vn 0 0.998046875 0
vn 0 0.998046875 0
vn 0 0.998046875 0
vn 0 0.998046875 0
vn 0 0.998046875 0
vn 0.998046875 0 0
vn 0.998046875 0 0
vn 0.998046875 0 0
vn 0.998046875 0 0
vn -1 0 0
vn -1 0 0
vn -1 0 0
vn -1 0 0
vn 0 0.998046875 0
vn 0 0.998046875 0
vn 0 0.998046875 0
vn 0 0.998046875 0
vn 0 0 0.998046875
vn 0 0 0.998046875
vn 0 0 0.998046875
vn 0 0 0.998046875
vn 0 0.998046875 0
vn 0 0.998046875 0
vn 0 0.998046875 0
vn 0 0.998046875 0
vn 0 0.998046875 0
vn 0 0.998046875 0
f 1/1/1 2/2/2 3/3/3
f 3/3/3 4/4/4 1/1/1
f 5/5/5 6/6/6 7/7/7
f 7/7/7 8/8/8 5/5/5
f 9/9/9 10/10/10 11/11/11
f 11/11/11 12/12/12 9/9/9
f 13/13/13 14/14/14 15/15/15
f 15/15/15 16/16/16 13/13/13
f 17/17/17 18/18/18 19/19/19
f 19/19/19 20/20/20 17/17/17
f 21/21/21 22/22/22 23/23/23
f 23/23/23 24/24/24 21/21/21
f 25/25/25 26/26/26 27/27/27
f 27/27/27 28/28/28 25/25/25
f 29/29/29 30/30/30 31/31/31
f 31/31/31 32/32/32 29/29/29
f 33/33/33 34/34/34 35/35/35
f 35/35/35 36/36/36 33/33/33
f 37/37/37 38/38/38 39/39/39
f 39/39/39 40/40/40 37/37/37
f 41/41/41 42/42/42 43/43/43
f 43/43/43 44/44/44 41/41/41
f 45/45/45 46/46/46 47/47/47
f 47/47/47 48/48/48 45/45/45
f 49/49/49 50/50/50 51/51/51
f 52/52/52 53/53/53 54/54/54
o polygon1
g polygon1
usemtl r4_r03_kabe
v 1.5 0.375 1.375
v 2.375 0.375 1.375
v 1.5 2.64599609375 1.375
v 1.8125 3.0625 1.375
v 0 3.125 1.375
v 0.192138671875 3.5 1.375
v -1.375 0.375 -2
v -1.375 3.125 -2
v 0 0.375 -2
v 0 3.125 -2
v 2.375 0.375 -2
v 1.5 2.64599609375 1.375
v 0 3.125 1.375
v -0.5 2.64599609375 1.375
v -1.375 3.125 1.375
v -0.875 3.0625 1.163818359375
v -0.1875 3.0625 1.163818359375
v -1.1875 3.0625 1.163818359375
v -1.1875 3.6875 1.163818359375
v 0.375 3.388427734375 1.19482421875
v 1.625 3.388427734375 1.19482421875
v 1.408203125 3.957763671875 1.19482421875
v 0.375 3.957763671875 1.19482421875
v 1.8955078125 4 -0.114990234375
v 1.8955078125 4 -1.54296875
v 1.8955078125 3.4375 -1.54296875
v 1.8955078125 3.4375 -0.114990234375
v 1.8955078125 4 -1.54296875
v 1.0205078125 4 -1.54296875
v 1.0205078125 3.4375 -1.54296875
v 1.8955078125 3.4375 -1.54296875
v 2.375 3.5 0.6875
v 1.8125 3.5 0.6875
v 1.8125 3.0625 0.6875
v 2.375 3.0625 0.6875
v 1.0205078125 3.4375 -1.91796875
v 1.0205078125 4 -1.91796875
v 2.2705078125 4 -1.91796875
v 2.2705078125 3.4375 -1.91796875
v 1.8955078125 3.4375 -0.114990234375
v 2.2705078125 3.4375 -0.114990234375
v 2.2705078125 4 -0.114990234375
v 1.8955078125 4 -0.114990234375
v 2.2705078125 4 -1.91796875
v 2.2705078125 4 -0.114990234375
v 2.2705078125 3.4375 -0.114990234375
v 2.2705078125 3.4375 -1.91796875
v -0.875 3.0625 0.75
v -0.875 3.6875 0.75
v -0.1875 3.6875 0.75
v -0.1875 3.0625 0.75
v -0.1875 3.0625 1.163818359375
v -0.1875 3.0625 0.75
v -0.1875 3.6875 0.75
v -0.1875 3.6875 1.163818359375
v -1.1875 3.0625 -1.084716796875
v -1.1875 3.0625 1.163818359375
v -1.1875 3.6875 1.163818359375
v -1.1875 3.6875 -1.084716796875
v -0.875 3.0625 0.75
v -0.875 3.0625 -1.084716796875
v -0.875 3.6875 -1.084716796875
v -0.875 3.6875 0.75
v -1.1875 3.6875 -1.084716796875
v -0.875 3.6875 -1.084716796875
v -0.875 3.0625 -1.084716796875
v -1.1875 3.0625 -1.084716796875
v 1.8125 3.5 0.6875
v 1.8125 3.5 1.375
v 1.8125 3.0625 1.375
v 1.8125 3.0625 0.6875
v 0.192138671875 3.5 1.375
v 0.192138671875 3.5 -2
v 0 3.125 -2
v 0 3.125 1.375
v -0.5 2.64599609375 1.375
v -0.5 0.375 1.375
v -0.20703125 0.375 1.375
v -0.20703125 2.180908203125 1.375
v 1.5 2.64599609375 1.375
v -0.5 2.64599609375 1.375
v -0.20703125 2.180908203125 1.375
v 1.20703125 2.180908203125 1.375
v 1.5 0.375 1.375
v 1.5 2.64599609375 1.375
v 1.20703125 2.180908203125 1.375
v 1.20703125 0.375 1.375
v 0.375 3.388427734375 0.80517578125
v 0.375 3.388427734375 1.19482421875
v 0.375 3.957763671875 1.19482421875
v 0.375 3.957763671875 0.80517578125
v -1.375 0.375 -2
v -1.375 0.375 1.375
v -1.375 3.125 1.375
v -1.375 3.125 -2
v 2.375 0.375 -2
v 0 3.125 -2
v 0.192138671875 3.5 -2
v 2.375 3.5 -2
v 1.0205078125 3.4375 -1.91796875
v 1.0205078125 3.4375 -1.54296875
v 1.0205078125 4 -1.54296875
v 1.0205078125 4 -1.91796875
v 1.625 3.388427734375 1.19482421875
v 1.625 3.388427734375 0.80517578125
v 1.408203125 3.957763671875 0.80517578125
v 1.408203125 3.957763671875 1.19482421875
v 0.375 3.957763671875 0.80517578125
v 1.408203125 3.957763671875 0.80517578125
v 1.625 3.388427734375 0.80517578125
v 0.375 3.388427734375 0.80517578125
v -1.375 3.125 1.375
v -1.375 0.375 1.375
v -0.5 0.375 1.375
v -0.5 2.64599609375 1.375
v 2.375 0.375 1.375
v 2.375 3.0625 1.375
v 1.8125 3.0625 1.375
v 1.8125 3.5 1.375
v 0.192138671875 3.5 1.375
v 1.8125 3.0625 1.375
v -0.1875 3.6875 1.163818359375
v -1.1875 3.6875 1.163818359375
v -0.1875 3.0625 1.163818359375
v 2.375 3.0625 0.6875
v 2.375 3.5 -2
v 2.375 3.5 0.6875
v 2.375 3.0625 1.375
v 2.375 0.375 1.375
v 2.375 3.0625 0.6875
v 2.375 3.0625 0.6875
v 2.375 0.375 -2
v 2.375 3.5 -2
v 2.375 3.0625 0.6875
v 2.375 0.375 1.375
v 2.375 0.375 -2
vt -4.6142578125 -0.7734375
vt -4.5 -0.7734375
vt -4.6142578125 -0.2275390625
vt -4.57421875 -0.126953125
vt -4.8046875 -0.1123046875
vt -4.7802734375 -0.021484375
vt -1.98046875 -0.7763671875
vt -1.98046875 -0.1103515625
vt -1.787109375 -0.7763671875
vt -1.787109375 -0.1103515625
vt -1.46484375 -0.7763671875
vt -4.6142578125 -0.2275390625
vt -4.8046875 -0.1123046875
vt -4.869140625 -0.2275390625
vt -4.978515625 -0.1123046875
vt -0.8076171875 -0.10546875
vt -0.6220703125 -0.10546875
vt -0.8916015625 -0.10546875
vt -0.8916015625 -0.0029296875
vt -0.88671875 -0.09375
vt -0.548828125 -0.09375
vt -0.607421875 -0.0009765625
vt -0.88671875 -0.0009765625
vt 1 -1.00390625
vt 1.4130859375 -1.00390625
vt 1.4130859375 -1.107421875
vt 1 -1.107421875
vt -0.6279296875 -0.00390625
vt -0.86328125 -0.00390625
vt -0.86328125 -0.0966796875
vt -0.6279296875 -0.0966796875
vt 1 0
vt 0.828125 0
vt 0.828125 -0.1396484375
vt 1 -0.1396484375
vt -2.6474609375 -0.10546875
vt -2.6474609375 -0.0009765625
vt -2.2880859375 -0.0009765625
vt -2.2880859375 -0.10546875
vt -0.888671875 -0.0966796875
vt -0.787109375 -0.0966796875
vt -0.787109375 -0.00390625
vt -0.888671875 -0.00390625
vt -3.44140625 -0.00390625
vt -3.998046875 -0.00390625
vt -3.998046875 -0.0947265625
vt -3.44140625 -0.0947265625
vt -2.6474609375 -0.10546875
vt -2.6474609375 -0.0009765625
vt -2.4404296875 -0.0009765625
vt -2.4404296875 -0.10546875
vt -3.123046875 -0.10546875
vt -2.9951171875 -0.10546875
vt -2.9951171875 -0.00390625
vt -3.123046875 -0.00390625
vt 1.642578125 -1.107421875
vt 1 -1.107421875
vt 1 -1.00390625
vt 1.642578125 -1.00390625
vt -4.0068359375 -0.1064453125
vt -3.4404296875 -0.1064453125
vt -3.4404296875 -0.0048828125
vt -4.0068359375 -0.0048828125
vt -2.6474609375 -0.0009765625
vt -2.5390625 -0.0009765625
vt -2.5390625 -0.10546875
vt -2.6474609375 -0.10546875
vt -2.8974609375 -0.021484375
vt -2.99609375 -0.021484375
vt -2.99609375 -0.1259765625
vt -2.8974609375 -0.1259765625
vt 1.0361328125 -1.00390625
vt 2 -1.00390625
vt 2 -1.107421875
vt 1.0361328125 -1.1064453125
vt -0.0390625 0.33203125
vt -0.9638671875 0.33203125
vt -0.9638671875 0.1982421875
vt -0.177734375 0.1982421875
vt 0.974609375 0.9951171875
vt 0.0185546875 0.9951171875
vt 0.1591796875 0.908203125
vt 0.833984375 0.908203125
vt 0.083984375 1.3017578125
vt 0.9443359375 1.3017578125
vt 0.8154296875 1.201171875
vt 0.083984375 1.201171875
vt 1.11328125 -1.107421875
vt 1 -1.107421875
vt 1 -1.00390625
vt 1.11328125 -1.00390625
vt -3.0234375 -0.7744140625
vt -3.498046875 -0.7744140625
vt -3.498046875 -0.123046875
vt -3.0234375 -0.1220703125
vt -1.46484375 -0.7763671875
vt -1.787109375 -0.1103515625
vt -1.76171875 -0.01953125
vt -1.46484375 -0.01953125
vt 1.111328125 -1.107421875
vt 1 -1.107421875
vt 1 -1.00390625
vt 1.111328125 -1.00390625
vt -3.1103515625 -0.0966796875
vt -2.990234375 -0.0966796875
vt -2.990234375 -0.00390625
vt -3.1103515625 -0.00390625
vt -2.6474609375 -0.0009765625
vt -2.3466796875 -0.0009765625
vt -2.2880859375 -0.10546875
vt -2.6474609375 -0.10546875
vt -4.978515625 -0.1123046875
vt -4.978515625 -0.7734375
vt -4.869140625 -0.7734375
vt -4.869140625 -0.2275390625
vt -4.5 -0.7734375
vt -4.5 -0.126953125
vt -4.57421875 -0.126953125
vt -4.57421875 -0.021484375
vt -4.7802734375 -0.021484375
vt -4.57421875 -0.126953125
vt -0.6220703125 -0.0029296875
vt -0.8916015625 -0.0029296875
vt -0.6220703125 -0.10546875
vt -2.8798828125 -0.125
vt -2.4921875 -0.021484375
vt -2.87890625 -0.0224609375
vt -2.9775390625 -0.1259765625
vt -2.978515625 -0.76953125
vt -2.880859375 -0.1259765625
vt -2.87890625 -0.1259765625
vt -2.4921875 -0.76953125
vt -2.4921875 -0.021484375
vt -2.8798828125 -0.1259765625
vt -2.978515625 -0.76953125
vt -2.4921875 -0.76953125
vn 0 0 0.998046875
vn 0 0 0.998046875
vn 0 0 0.998046875
vn 0 0 0.998046875
vn 0 0 0.998046875
vn 0 0 0.998046875
vn 0 0 -1
vn 0 0 -1
vn 0 0 -1
vn 0 0 -1
vn 0 0 -1
vn 0 0 0.998046875
vn 0 0 0.998046875
vn 0 0 0.998046875
vn 0 0 0.998046875
vn 0 0 0.998046875
vn 0 0 0.998046875
vn 0 0 0.998046875
vn 0 0 0.998046875
vn 0 0 0.998046875
vn 0 0 0.998046875
vn 0 0 0.998046875
vn 0 0 0.998046875
vn -1 0 0
vn -1 0 0
vn -1 0 0
vn -1 0 0
vn 0 0 0.998046875
vn 0 0 0.998046875
vn 0 0 0.998046875
vn 0 0 0.998046875
vn 0 0 0.998046875
vn 0 0 0.998046875
vn 0 0 0.998046875
vn 0 0 0.998046875
vn 0 0 -1
vn 0 0 -1
vn 0 0 -1
vn 0 0 -1
vn 0 0 0.998046875
vn 0 0 0.998046875
vn 0 0 0.998046875
vn 0 0 0.998046875
vn 0.998046875 0 0
vn 0.998046875 0 0
vn 0.998046875 0 0
vn 0.998046875 0 0
vn 0.70703125 0 -0.70703125
vn 0.70703125 0 -0.70703125
vn 0.70703125 0 -0.70703125
vn 0.70703125 0 -0.70703125
vn 0.998046875 0 0
vn 0.70703125 0 -0.70703125
vn 0.70703125 0 -0.70703125
vn 0.998046875 0 0
vn -1 0 0
vn -1 0 0
vn -1 0 0
vn -1 0 0
vn 0.70703125 0 -0.70703125
vn 0.998046875 0 0
vn 0.998046875 0 0
vn 0.70703125 0 -0.70703125
vn 0 0 -1
vn 0 0 -1
vn 0 0 -1
vn 0 0 -1
vn 0.998046875 0 0
vn 0.998046875 0 0
vn 0.998046875 0 0
vn 0.998046875 0 0
vn -0.890625 0.455078125 0
vn -0.890625 0.455078125 0
vn -0.890625 0.455078125 0
vn -0.890625 0.455078125 0
vn 0 0 0.998046875
vn 0 0 0.998046875
vn 0 0 0.998046875
vn 0 0 0.998046875
vn 0 0 0.998046875
vn 0 0 0.998046875
vn 0 0 0.998046875
vn 0 0 0.998046875
vn 0 0 0.998046875
vn 0 0 0.998046875
vn 0 0 0.998046875
vn 0 0 0.998046875
vn -1 0 0
vn -1 0 0
vn -1 0 0
vn -1 0 0
vn -1 0 0
vn -1 0 0
vn -1 0 0
vn -1 0 0
vn 0 0 -1
vn 0 0 -1
vn 0 0 -1
vn 0 0 -1
vn -1 0 0
vn -1 0 0
vn -1 0 0
vn -1 0 0
vn 0.93359375 0.35546875 0
vn 0.93359375 0.35546875 0
vn 0.93359375 0.35546875 0
vn 0.93359375 0.35546875 0
vn 0 0 -1
vn 0 0 -1
vn 0 0 -1
vn 0 0 -1
vn 0 0 0.998046875
vn 0 0 0.998046875
vn 0 0 0.998046875
vn 0 0 0.998046875
vn 0 0 0.998046875
vn 0 0 0.998046875
vn 0 0 0.998046875
vn 0 0 0.998046875
vn 0 0 0.998046875
vn 0 0 0.998046875
vn 0 0 0.998046875
vn 0 0 0.998046875
vn 0 0 0.998046875
vn 0.998046875 0 0
vn 0.998046875 0 0
vn 0.998046875 0 0
vn 0.998046875 0 0
vn 0.998046875 0 0
vn 0.998046875 0 0
vn 0.998046875 0 0
vn 0.998046875 0 0
vn 0.998046875 0 0
vn 0.998046875 0 0
vn 0.998046875 0 0
vn 0.998046875 0 0
f 55/55/55 56/56/56 57/57/57
f 56/56/56 58/58/58 57/57/57
f 57/57/57 58/58/58 59/59/59
f 58/58/58 60/60/60 59/59/59
f 61/61/61 62/62/62 63/63/63
f 62/62/62 64/64/64 63/63/63
f 63/63/63 64/64/64 65/65/65
f 66/66/66 67/67/67 68/68/68
f 67/67/67 69/69/69 68/68/68
f 70/70/70 71/71/71 72/72/72
f 71/71/71 73/73/73 72/72/72
f 74/74/74 75/75/75 76/76/76
f 76/76/76 77/77/77 74/74/74
f 78/78/78 79/79/79 80/80/80
f 80/80/80 81/81/81 78/78/78
f 82/82/82 83/83/83 84/84/84
f 84/84/84 85/85/85 82/82/82
f 86/86/86 87/87/87 88/88/88
f 88/88/88 89/89/89 86/86/86
f 90/90/90 91/91/91 92/92/92
f 92/92/92 93/93/93 90/90/90
f 94/94/94 95/95/95 96/96/96
f 96/96/96 97/97/97 94/94/94
f 98/98/98 99/99/99 100/100/100
f 100/100/100 101/101/101 98/98/98
f 102/102/102 103/103/103 104/104/104
f 104/104/104 105/105/105 102/102/102
f 106/106/106 107/107/107 108/108/108
f 108/108/108 109/109/109 106/106/106
f 110/110/110 111/111/111 112/112/112
f 112/112/112 113/113/113 110/110/110
f 114/114/114 115/115/115 116/116/116
f 116/116/116 117/117/117 114/114/114
f 118/118/118 119/119/119 120/120/120
f 120/120/120 121/121/121 118/118/118
f 122/122/122 123/123/123 124/124/124
f 124/124/124 125/125/125 122/122/122
f 126/126/126 127/127/127 128/128/128
f 128/128/128 129/129/129 126/126/126
f 130/130/130 131/131/131 132/132/132
f 132/132/132 133/133/133 130/130/130
f 134/134/134 135/135/135 136/136/136
f 136/136/136 137/137/137 134/134/134
f 138/138/138 139/139/139 140/140/140
f 140/140/140 141/141/141 138/138/138
f 142/142/142 143/143/143 144/144/144
f 144/144/144 145/145/145 142/142/142
f 146/146/146 147/147/147 148/148/148
f 148/148/148 149/149/149 146/146/146
f 150/150/150 151/151/151 152/152/152
f 152/152/152 153/153/153 150/150/150
f 154/154/154 155/155/155 156/156/156
f 156/156/156 157/157/157 154/154/154
f 158/158/158 159/159/159 160/160/160
f 160/160/160 161/161/161 158/158/158
f 162/162/162 163/163/163 164/164/164
f 164/164/164 165/165/165 162/162/162
f 166/166/166 167/167/167 168/168/168
f 168/168/168 169/169/169 166/166/166
f 170/170/170 171/171/171 172/172/172
f 173/173/173 174/174/174 175/175/175
f 176/176/176 177/177/177 178/178/178
f 179/179/179 180/180/180 181/181/181
f 182/182/182 183/183/183 184/184/184
f 185/185/185 186/186/186 187/187/187
f 188/188/188 189/189/189 190/190/190
o polygon2
g polygon2
usemtl h_kage
v 1.636962890625 3.161376953125 0.923095703125
v 2.28564453125 3.161376953125 1.23974609375
v 2.28564453125 3.161376953125 0.645751953125
v 0.97021484375 3.161376953125 1.23974609375
v 1.636962890625 3.161376953125 0.923095703125
v 0.97021484375 3.161376953125 0.645751953125
v 1.636962890625 3.161376953125 0.923095703125
v 2.28564453125 3.161376953125 0.645751953125
v 0.97021484375 3.161376953125 0.645751953125
v 0.97021484375 3.161376953125 1.23974609375
v 2.28564453125 3.161376953125 1.23974609375
v 1.636962890625 3.161376953125 0.923095703125
v -0.6025390625 3.26416015625 1.241943359375
v -1.293212890625 3.26416015625 1.57958984375
v 0.0029296875 3.26416015625 1.57958984375
v -1.293212890625 3.26416015625 0.89501953125
v -0.6025390625 3.26416015625 1.241943359375
v 0.0029296875 3.26416015625 0.89501953125
v -0.6025390625 3.26416015625 1.241943359375
v 0.0029296875 3.26416015625 1.57958984375
v 0.0029296875 3.26416015625 0.89501953125
v -1.293212890625 3.26416015625 0.89501953125
v -1.293212890625 3.26416015625 1.57958984375
v -0.6025390625 3.26416015625 1.241943359375
v 2.13427734375 3.637939453125 -0.41162109375
v 2.34912109375 3.637939453125 0.243896484375
v 2.34912109375 3.637939453125 -1.849853515625
v 1.913330078125 3.637939453125 0.243896484375
v 2.13427734375 3.637939453125 -0.41162109375
v 1.913330078125 3.637939453125 -1.849853515625
v 2.13427734375 3.637939453125 -0.41162109375
v 2.34912109375 3.637939453125 -1.849853515625
v 1.913330078125 3.637939453125 -1.849853515625
v 1.913330078125 3.637939453125 0.243896484375
v 2.34912109375 3.637939453125 0.243896484375
v 2.13427734375 3.637939453125 -0.41162109375
v 0.975830078125 3.637939453125 1.08935546875
v 1.62451171875 3.637939453125 1.406005859375
v 1.62451171875 3.637939453125 0.81201171875
v 0.30908203125 3.637939453125 1.406005859375
v 0.975830078125 3.637939453125 1.08935546875
v 0.30908203125 3.637939453125 0.81201171875
v 0.975830078125 3.637939453125 1.08935546875
v 1.62451171875 3.637939453125 0.81201171875
v 0.30908203125 3.637939453125 0.81201171875
v 0.30908203125 3.637939453125 1.406005859375
v 1.62451171875 3.637939453125 1.406005859375
v 0.975830078125 3.637939453125 1.08935546875
v 1.74560546875 3.637939453125 -1.53955078125
v 2.30517578125 3.637939453125 -1.158203125
v 2.30517578125 3.637939453125 -1.873779296875
v 1.17041015625 3.637939453125 -1.158203125
v 1.74560546875 3.637939453125 -1.53955078125
v 1.17041015625 3.637939453125 -1.873779296875
v 1.74560546875 3.637939453125 -1.53955078125
v 2.30517578125 3.637939453125 -1.873779296875
v 1.17041015625 3.637939453125 -1.873779296875
v 1.17041015625 3.637939453125 -1.158203125
v 2.30517578125 3.637939453125 -1.158203125
v 1.74560546875 3.637939453125 -1.53955078125
v -0.98046875 3.3125 -0.179443359375
v -0.52734375 3.3125 0.829833984375
v -0.52734375 3.3125 -1.063720703125
v -1.174560546875 3.3125 0.829833984375
v -0.98046875 3.3125 -0.179443359375
v -1.174560546875 3.3125 -1.063720703125
v -0.98046875 3.3125 -0.179443359375
v -0.52734375 3.3125 -1.063720703125
v -1.174560546875 3.3125 -1.063720703125
v -1.174560546875 3.3125 0.829833984375
v -0.52734375 3.3125 0.829833984375
v -0.98046875 3.3125 -0.179443359375
v 0.5341796875 0.25 -0.398193359375
v 2.625 0.25 2
v 2.625 0.25 -2.5
v -1.625 0.25 2
v 0.5341796875 0.25 -0.398193359375
v -1.625 0.25 -2.5
v 0.5341796875 0.25 -0.398193359375
v 2.625 0.25 -2.5
v -1.625 0.25 -2.5
v -1.625 0.25 2
v 2.625 0.25 2
v 0.5341796875 0.25 -0.398193359375
vt 3.5234375 -0.6484375
vt 3.875 -0.15625
vt 3.2109375 -0.15625
vt 1.3359375 -0.1640625
vt 1.71875 -0.6953125
vt 2.0703125 -0.1640625
vt 2.640625 -0.6875
vt 2.9453125 -0.1171875
vt 2.3359375 -0.1171875
vt 3.6640625 -1.1875
vt 4.3671875 -1.1875
vt 4.015625 -0.4765625
vt 3.5234375 -0.75
vt 3.875 -0.078125
vt 3.2109375 -0.078125
vt 1.3359375 -0.140625
vt 1.71875 -0.671875
vt 2.0703125 -0.140625
vt 2.640625 -0.734375
vt 2.9453125 -0.15625
vt 2.3359375 -0.15625
vt 3.6640625 -1.0546875
vt 4.3671875 -1.0546875
vt 4.015625 -0.3515625
vt 3.5234375 -0.75
vt 3.875 -0.078125
vt 3.2109375 -0.078125
vt 1.3359375 -0.09375
vt 1.71875 -0.625
vt 2.0703125 -0.09375
vt 2.640625 -0.734375
vt 2.9453125 -0.15625
vt 2.3359375 -0.15625
vt 3.6640625 -1.1875
vt 4.3671875 -1.1875
vt 4.015625 -0.4765625
vt 3.5234375 -0.6484375
vt 3.875 -0.15625
vt 3.2109375 -0.15625
vt 1.3359375 -0.1640625
vt 1.71875 -0.6953125
vt 2.0703125 -0.1640625
vt 2.640625 -0.6875
vt 2.9453125 -0.1171875
vt 2.3359375 -0.1171875
vt 3.6640625 -1.1875
vt 4.3671875 -1.1875
vt 4.015625 -0.4765625
vt 3.5234375 -0.75
vt 3.875 -0.078125
vt 3.2109375 -0.078125
vt 1.3359375 -0.1640625
vt 1.71875 -0.6953125
vt 2.0703125 -0.1640625
vt 2.640625 -0.734375
vt 2.9453125 -0.15625
vt 2.3359375 -0.15625
vt 3.6640625 -1.1015625
vt 4.3671875 -1.1015625
vt 4.015625 -0.390625
vt 3.5234375 -0.75
vt 3.875 -0.078125
vt 3.2109375 -0.078125
vt 1.3359375 -0.234375
vt 1.71875 -0.7578125
vt 2.0703125 -0.234375
vt 2.640625 -0.8046875
vt 2.9453125 -0.09375
vt 2.3359375 -0.09375
vt 3.6640625 -1.0625
vt 4.3671875 -1.0625
vt 4.015625 -0.359375
vt 3.5234375 -0.8984375
vt 3.875 -0.2265625
vt 3.2109375 -0.2265625
vt 1.3359375 -0.234375
vt 1.71875 -0.7578125
vt 2.0703125 -0.234375
vt 2.640625 -0.8046875
vt 2.9453125 -0.234375
vt 2.3359375 -0.234375
vt 3.6640625 -1.015625
vt 4.3671875 -1.015625
vt 4.015625 -0.3125
vn 0 0.998046875 0
vn 0 0.998046875 0
vn 0 0.998046875 0
vn 0 0.998046875 0
vn 0 0.998046875 0
vn 0 0.998046875 0
vn 0 0.998046875 0
vn 0 0.998046875 0
vn 0 0.998046875 0
vn 0 0.998046875 0
vn 0 0.998046875 0
vn 0 0.998046875 0
vn 0 0.998046875 0
vn 0 0.998046875 0
vn 0 0.998046875 0
vn 0 0.998046875 0
vn 0 0.998046875 0
vn 0 0.998046875 0
vn 0 0.998046875 0
vn 0 0.998046875 0
vn 0 0.998046875 0
vn 0 0.998046875 0
vn 0 0.998046875 0
vn 0 0.998046875 0
vn 0 0.998046875 0
vn 0 0.998046875 0
vn 0 0.998046875 0
vn 0 0.998046875 0
vn 0 0.998046875 0
vn 0 0.998046875 0
vn 0 0.998046875 0
vn 0 0.998046875 0
vn 0 0.998046875 0
vn 0 0.998046875 0
vn 0 0.998046875 0
vn 0 0.998046875 0
vn 0 0.998046875 0
vn 0 0.998046875 0
vn 0 0.998046875 0
vn 0 0.998046875 0
vn 0 0.998046875 0
vn 0 0.998046875 0
vn 0 0.998046875 0
vn 0 0.998046875 0
vn 0 0.998046875 0
vn 0 0.998046875 0
vn 0 0.998046875 0
vn 0 0.998046875 0
vn 0 0.998046875 0
vn 0 0.998046875 0
vn 0 0.998046875 0
vn 0 0.998046875 0
vn 0 0.998046875 0
vn 0 0.998046875 0
vn 0 0.998046875 0
vn 0 0.998046875 0
vn 0 0.998046875 0
vn 0 0.998046875 0
vn 0 0.998046875 0
vn 0 0.998046875 0
vn 0 0.998046875 0
vn 0 0.998046875 0
vn 0 0.998046875 0
vn 0 0.998046875 0
vn 0 0.998046875 0
vn 0 0.998046875 0
vn 0 0.998046875 0
vn 0 0.998046875 0
vn 0 0.998046875 0
vn 0 0.998046875 0
vn 0 0.998046875 0
vn 0 0.998046875 0
vn 0 0.998046875 0
vn 0 0.998046875 0
vn 0 0.998046875 0
vn 0 0.998046875 0
vn 0 0.998046875 0
vn 0 0.998046875 0
vn 0 0.998046875 0
vn 0 0.998046875 0
vn 0 0.998046875 0
vn 0 0.998046875 0
vn 0 0.998046875 0
vn 0 0.998046875 0
f 191/191/191 192/192/192 193/193/193
f 194/194/194 195/195/195 196/196/196
f 197/197/197 198/198/198 199/199/199
f 200/200/200 201/201/201 202/202/202
f 203/203/203 204/204/204 205/205/205
f 206/206/206 207/207/207 208/208/208
f 209/209/209 210/210/210 211/211/211
f 212/212/212 213/213/213 214/214/214
f 215/215/215 216/216/216 217/217/217
f 218/218/218 219/219/219 220/220/220
f 221/221/221 222/222/222 223/223/223
f 224/224/224 225/225/225 226/226/226
f 227/227/227 228/228/228 229/229/229
f 230/230/230 231/231/231 232/232/232
f 233/233/233 234/234/234 235/235/235
f 236/236/236 237/237/237 238/238/238
f 239/239/239 240/240/240 241/241/241
f 242/242/242 243/243/243 244/244/244
f 245/245/245 246/246/246 247/247/247
f 248/248/248 249/249/249 250/250/250
f 251/251/251 252/252/252 253/253/253
f 254/254/254 255/255/255 256/256/256
f 257/257/257 258/258/258 259/259/259
f 260/260/260 261/261/261 262/262/262
f 263/263/263 264/264/264 265/265/265
f 266/266/266 267/267/267 268/268/268
f 269/269/269 270/270/270 271/271/271
f 272/272/272 273/273/273 274/274/274
