# Created with Spiky's DS Map Editor 1.8.1.0
mtllib 326.mtl
o polygon0
g polygon0
usemtl r4_r04_kabe1
v 1.6875 3.5 1.375
v 0.192138671875 3.5 1.375
v 1.6875 3.125 1.375
v 0 3.125 1.375
v 2.375 3.125 1.375
v -1.375 3.125 1.375
v 2.375 0.375 1.375
v -1.375 0.375 1.375
v 0.324462890625 3.957763671875 0.80517578125
v 0.1875 3.388427734375 0.80517578125
v 0.324462890625 3.957763671875 1.0625
v 0.1875 3.388427734375 1.19482421875
v 0.300537109375 3.875 1.19482421875
v -1.375 0.375 -2
v -1.375 3.125 -2
v 0 0.375 -2
v 0 3.125 -2
v 2.375 0.375 -2
v 1.625 3.388427734375 1.19482421875
v 1.625 3.388427734375 0.80517578125
v 1.375 3.957763671875 1.0625
v 1.375 3.957763671875 0.80517578125
v -0.875 3.0625 1.125
v -0.1875 3.0625 1.125
v -1.1875 3.0625 1.125
v -1.1875 3.625 1.125
v 1.875 3.4375 -0.114990234375
v 2.25 3.4375 -0.114990234375
v 2.25 3.9375 -0.114990234375
v 2.1875 4 -0.114990234375
v 2.25 3.9375 -1.875
v 2.25 3.9375 -0.114990234375
v 2.25 3.4375 -0.114990234375
v 2.25 3.4375 -1.875
v -1.1875 3.625 -1.0625
v -1.0625 3.6875 -1.0625
v -0.8125 3.0625 -1.0625
v -1.1875 3.0625 -1.0625
v -0.8125 3.0625 0.75
v -0.8125 3.6875 0.75
v -0.1875 3.6875 0.75
v -0.1875 3.0625 0.75
v -0.1875 3.0625 1.125
v -0.1875 3.0625 0.75
v -0.1875 3.6875 1
v -0.1875 3.625 1.125
v -1.1875 3.0625 -1.0625
v -1.1875 3.0625 1.125
v -1.1875 3.625 1.125
v -1.1875 3.625 -1.0625
v -1.375 0.375 -2
v -1.375 0.375 1.375
v -1.375 3.125 1.375
v -1.375 3.125 -2
v 1.875 4 -1.5
v 1.0625 4 -1.5
v 1.0625 3.4375 -1.5
v 1.875 3.4375 -1.5
v -0.8125 3.0625 0.75
v -0.8125 3.0625 -1.0625
v -0.8125 3.6875 -1.0625
v -0.8125 3.6875 0.75
v 2.375 3.5 0.6875
v 1.6875 3.5 0.6875
v 1.6875 3.125 0.6875
v 2.375 3.125 0.6875
v 1.6875 3.5 0.6875
v 1.6875 3.5 1.375
v 1.6875 3.125 1.375
v 1.6875 3.125 0.6875
v 0.192138671875 3.5 1.375
v 0.192138671875 3.5 -2
v 0 3.125 -2
v 0 3.125 1.375
v 2.375 0.375 -2
v 0 3.125 -2
v 0.192138671875 3.5 -2
v 2.375 3.5 -2
v 0.324462890625 3.957763671875 0.80517578125
v 1.375 3.957763671875 0.80517578125
v 1.625 3.388427734375 0.80517578125
v 0.1875 3.388427734375 0.80517578125
v 0.1875 3.388427734375 1.19482421875
v 1.625 3.388427734375 1.19482421875
v 1.375 3.875 1.19482421875
v 0.300537109375 3.875 1.19482421875
v 1.0625 3.4375 -1.875
v 1.0625 3.4375 -1.5
v 1.0625 4 -1.8125
v 1.0625 3.9375 -1.875
v 1.875 4 -0.114990234375
v 1.875 4 -1.5
v 1.875 3.4375 -1.5
v 1.875 3.4375 -0.114990234375
v 1.0625 3.4375 -1.875
v 1.0625 3.9375 -1.875
v 2.25 3.9375 -1.875
v 2.25 3.4375 -1.875
v 2.375 3.125 0.6875
v 2.375 0.375 -2
v 2.375 3.5 -2
v 1.875 3.4375 -0.114990234375
v 2.1875 4 -0.114990234375
v 1.875 4 -0.114990234375
v 1.625 3.388427734375 1.19482421875
v 1.375 3.957763671875 1.0625
v 1.375 3.875 1.19482421875
v -0.8125 3.0625 -1.0625
v -1.0625 3.6875 -1.0625
v -0.8125 3.6875 -1.0625
v 1.0625 4 -1.8125
v 1.0625 3.4375 -1.5
v 1.0625 4 -1.5
v 2.375 3.125 0.6875
v 2.375 0.375 1.375
v 2.375 0.375 -2
v 2.375 3.125 1.375
v 2.375 0.375 1.375
v 2.375 3.125 0.6875
v -0.1875 3.6875 1
v -0.1875 3.0625 0.75
v -0.1875 3.6875 0.75
v 2.375 3.125 0.6875
v 2.375 3.5 -2
v 2.375 3.5 0.6875
v -0.1875 3.625 1.125
v -1.1875 3.625 1.125
v -0.1875 3.0625 1.125
vt -0.53125 -0.015625
vt -0.7578125 -0.015625
vt -0.53125 -0.115234375
vt -0.7841796875 -0.115234375
vt -0.4345703125 -0.115234375
vt -0.994140625 -0.115234375
vt -0.4345703125 -0.78125
vt -0.994140625 -0.78125
vt -1.671875 -1.4365234375
vt -1.671875 -1.5869140625
vt -1.7919921875 -1.4365234375
vt -1.853515625 -1.5869140625
vt -1.853515625 -1.4580078125
vt -1.98046875 -0.7763671875
vt -1.98046875 -0.1103515625
vt -1.787109375 -0.7763671875
vt -1.787109375 -0.1103515625
vt -1.46484375 -0.7763671875
vt -1.6123046875 -1.10546875
vt -1.396484375 -1.10546875
vt -1.5390625 -1.0068359375
vt -1.396484375 -1.0068359375
vt -0.8076171875 -0.10546875
vt -0.6220703125 -0.10546875
vt -0.8916015625 -0.10546875
vt -0.8916015625 -0.0029296875
vt -0.888671875 -0.0966796875
vt -0.787109375 -0.0966796875
vt -0.787109375 -0.00390625
vt -0.8134765625 -0.00390625
vt -3.44140625 -0.00390625
vt -3.998046875 -0.00390625
vt -3.998046875 -0.0947265625
vt -3.44140625 -0.0947265625
vt -2.6474609375 -0.0009765625
vt -2.6025390625 -0.0009765625
vt -2.5390625 -0.10546875
vt -2.6474609375 -0.10546875
vt -2.6474609375 -0.10546875
vt -2.6474609375 -0.0009765625
vt -2.4404296875 -0.0009765625
vt -2.4404296875 -0.10546875
vt 0.0146484375 -0.6123046875
vt 1.0146484375 -0.6123046875
vt 0.3486328125 -0.3876953125
vt 0.0146484375 -0.41015625
vt 1.642578125 -1.107421875
vt 1 -1.107421875
vt 1 -1.00390625
vt 1.642578125 -1.00390625
vt -3.0234375 -0.7744140625
vt -3.498046875 -0.7744140625
vt -3.498046875 -0.123046875
vt -3.0234375 -0.1220703125
vt -0.6279296875 -0.00390625
vt -0.86328125 -0.00390625
vt -0.86328125 -0.0966796875
vt -0.6279296875 -0.0966796875
vt -4.0068359375 -0.1064453125
vt -3.4404296875 -0.1064453125
vt -3.4404296875 -0.0048828125
vt -4.0068359375 -0.0048828125
vt 1 -0.0048828125
vt 0.828125 -0.0048828125
vt 0.828125 -0.10546875
vt 1 -0.10546875
vt -2.8974609375 -0.005859375
vt -2.99609375 -0.005859375
vt -2.99609375 -0.1103515625
vt -2.8974609375 -0.1103515625
vt 1.0361328125 -1.00390625
vt 2 -1.00390625
vt 2 -1.107421875
vt 1.0361328125 -1.1064453125
vt -1.46484375 -0.7763671875
vt -1.787109375 -0.1103515625
vt -1.76171875 -0.01953125
vt -1.46484375 -0.01953125
vt -2.6474609375 -0.0009765625
vt -2.3466796875 -0.0009765625
vt -2.2880859375 -0.10546875
vt -2.6474609375 -0.10546875
vt -1.70703125 -0.1123046875
vt -1.259765625 -0.1123046875
vt -1.349609375 -0.0048828125
vt -1.6396484375 -0.0048828125
vt 1.111328125 -1.107421875
vt 1 -1.107421875
vt 1.0751953125 -1.00390625
vt 1.111328125 -1.00390625
vt 1 -1.00390625
vt 1.4130859375 -1.00390625
vt 1.4130859375 -1.107421875
vt 1 -1.107421875
vt -2.6474609375 -0.10546875
vt -2.6474609375 -0.0009765625
vt -2.2880859375 -0.0009765625
vt -2.2880859375 -0.10546875
vt -2.87890625 -0.125
vt -2.4921875 -0.76953125
vt -2.4921875 -0.021484375
vt -0.888671875 -0.0966796875
vt -0.8134765625 -0.00390625
vt -0.888671875 -0.00390625
vt -1.6123046875 -1.10546875
vt -1.5390625 -1.0068359375
vt -1.6123046875 -1.0205078125
vt -2.5390625 -0.10546875
vt -2.6025390625 -0.0009765625
vt -2.5390625 -0.0009765625
vt 1.0751953125 -1.00390625
vt 1 -1.107421875
vt 1 -1.00390625
vt -2.8798828125 -0.1259765625
vt -2.978515625 -0.76953125
vt -2.4921875 -0.76953125
vt -2.99609375 -0.1259765625
vt -2.99609375 -0.76953125
vt -2.8974609375 -0.1259765625
vt 0.3486328125 -0.3876953125
vt 1.0146484375 -0.6123046875
vt 1.0146484375 -0.3876953125
vt -2.8798828125 -0.1240234375
vt -2.4921875 -0.021484375
vt -2.87890625 -0.0234375
vt -0.6220703125 -0.0029296875
vt -0.8916015625 -0.0029296875
vt -0.6220703125 -0.10546875
vn 0 0 0.998046875
vn 0 0 0.998046875
vn 0 0 0.998046875
vn 0 0 0.998046875
vn 0 0 0.998046875
vn 0 0 0.998046875
vn 0 0 0.998046875
vn 0 0 0.998046875
vn -0.97265625 0.2265625 -0.03515625
vn -0.97265625 0.2265625 -0.03515625
vn -0.97265625 0.2265625 -0.03515625
vn -0.97265625 0.2265625 -0.03515625
vn -0.97265625 0.2265625 -0.03515625
vn 0 0 -1
vn 0 0 -1
vn 0 0 -1
vn 0 0 -1
vn 0 0 -1
vn 0.916015625 0.40234375 0
vn 0.916015625 0.40234375 0
vn 0.916015625 0.40234375 0
vn 0.916015625 0.40234375 0
vn 0 0 0.998046875
vn 0 0 0.998046875
vn 0 0 0.998046875
vn 0 0 0.998046875
vn 0 0 0.998046875
vn 0 0 0.998046875
vn 0 0 0.998046875
vn 0 0 0.998046875
vn 0.998046875 0 0
vn 0.998046875 0 0
vn 0.998046875 0 0
vn 0.998046875 0 0
vn 0 0 -1
vn 0 0 -1
vn 0 0 -1
vn 0 0 -1
vn 0.70703125 0 -0.70703125
vn 0.70703125 0 -0.70703125
vn 0.70703125 0 -0.70703125
vn 0.70703125 0 -0.70703125
vn 0.998046875 0 0
vn 0.998046875 0 0
vn 0.998046875 0 0
vn 0.998046875 0 0
vn -1 0 0
vn -1 0 0
vn -1 0 0
vn -1 0 0
vn -1 0 0
vn -1 0 0
vn -1 0 0
vn -1 0 0
vn 0 0 0.998046875
vn 0 0 0.998046875
vn 0 0 0.998046875
vn 0 0 0.998046875
vn 0.70703125 0 -0.70703125
vn 0.998046875 0 0
vn 0.998046875 0 0
vn 0.70703125 0 -0.70703125
vn 0 0 0.998046875
vn 0 0 0.998046875
vn 0 0 0.998046875
vn 0 0 0.998046875
vn 0.998046875 0 0
vn 0.998046875 0 0
vn 0.998046875 0 0
vn 0.998046875 0 0
vn -0.890625 0.455078125 0
vn -0.890625 0.455078125 0
vn -0.890625 0.455078125 0
vn -0.890625 0.455078125 0
vn 0 0 -1
vn 0 0 -1
vn 0 0 -1
vn 0 0 -1
vn 0 0 -1
vn 0 0 -1
vn 0 0 -1
vn 0 0 -1
vn 0 0 0.998046875
vn 0 0 0.998046875
vn 0 0 0.998046875
vn 0 0 0.998046875
vn -1 0 0
vn -1 0 0
vn -1 0 0
vn -1 0 0
vn -1 0 0
vn -1 0 0
vn -1 0 0
vn -1 0 0
vn 0 0 -1
vn 0 0 -1
vn 0 0 -1
vn 0 0 -1
vn 0.998046875 0 0
vn 0.998046875 0 0
vn 0.998046875 0 0
vn 0 0 0.998046875
vn 0 0 0.998046875
vn 0 0 0.998046875
vn 0.85546875 0.439453125 0.275390625
vn 0.85546875 0.439453125 0.275390625
vn 0.85546875 0.439453125 0.275390625
vn 0 0 -1
vn 0 0 -1
vn 0 0 -1
vn -1 0 0
vn -1 0 0
vn -1 0 0
vn 0.998046875 0 0
vn 0.998046875 0 0
vn 0.998046875 0 0
vn 0.998046875 0 0
vn 0.998046875 0 0
vn 0.998046875 0 0
vn 0.998046875 0 0
vn 0.70703125 0 -0.70703125
vn 0.70703125 0 -0.70703125
vn 0.998046875 0 0
vn 0.998046875 0 0
vn 0.998046875 0 0
vn 0 0 0.998046875
vn 0 0 0.998046875
vn 0 0 0.998046875
f 1/1/1 2/2/2 3/3/3
f 2/2/2 4/4/4 3/3/3
f 3/3/3 4/4/4 5/5/5
f 4/4/4 6/6/6 5/5/5
f 5/5/5 6/6/6 7/7/7
f 6/6/6 8/8/8 7/7/7
f 9/9/9 10/10/10 11/11/11
f 10/10/10 12/12/12 11/11/11
f 11/11/11 12/12/12 13/13/13
f 14/14/14 15/15/15 16/16/16
f 15/15/15 17/17/17 16/16/16
f 16/16/16 17/17/17 18/18/18
f 19/19/19 20/20/20 21/21/21
f 20/20/20 22/22/22 21/21/21
f 23/23/23 24/24/24 25/25/25
f 24/24/24 26/26/26 25/25/25
f 27/27/27 28/28/28 29/29/29
f 29/29/29 30/30/30 27/27/27
f 31/31/31 32/32/32 33/33/33
f 33/33/33 34/34/34 31/31/31
f 35/35/35 36/36/36 37/37/37
f 37/37/37 38/38/38 35/35/35
f 39/39/39 40/40/40 41/41/41
f 41/41/41 42/42/42 39/39/39
f 43/43/43 44/44/44 45/45/45
f 45/45/45 46/46/46 43/43/43
f 47/47/47 48/48/48 49/49/49
f 49/49/49 50/50/50 47/47/47
f 51/51/51 52/52/52 53/53/53
f 53/53/53 54/54/54 51/51/51
f 55/55/55 56/56/56 57/57/57
f 57/57/57 58/58/58 55/55/55
f 59/59/59 60/60/60 61/61/61
f 61/61/61 62/62/62 59/59/59
f 63/63/63 64/64/64 65/65/65
f 65/65/65 66/66/66 63/63/63
f 67/67/67 68/68/68 69/69/69
f 69/69/69 70/70/70 67/67/67
f 71/71/71 72/72/72 73/73/73
f 73/73/73 74/74/74 71/71/71
f 75/75/75 76/76/76 77/77/77
f 77/77/77 78/78/78 75/75/75
f 79/79/79 80/80/80 81/81/81
f 81/81/81 82/82/82 79/79/79
f 83/83/83 84/84/84 85/85/85
f 85/85/85 86/86/86 83/83/83
f 87/87/87 88/88/88 89/89/89
f 89/89/89 90/90/90 87/87/87
f 91/91/91 92/92/92 93/93/93
f 93/93/93 94/94/94 91/91/91
f 95/95/95 96/96/96 97/97/97
f 97/97/97 98/98/98 95/95/95
f 99/99/99 100/100/100 101/101/101
f 102/102/102 103/103/103 104/104/104
f 105/105/105 106/106/106 107/107/107
f 108/108/108 109/109/109 110/110/110
f 111/111/111 112/112/112 113/113/113
f 114/114/114 115/115/115 116/116/116
f 117/117/117 118/118/118 119/119/119
f 120/120/120 121/121/121 122/122/122
f 123/123/123 124/124/124 125/125/125
f 126/126/126 127/127/127 128/128/128
o polygon1
g polygon1
usemtl r4_r04_parts
v 1.6875 3.125 0.6875
v 1.6875 3.125 1.375
v 2.375 3.125 1.375
v 2.375 3.125 0.6875
v 0.324462890625 3.957763671875 1.0625
v 1.375 3.957763671875 1.0625
v 1.375 3.957763671875 0.80517578125
v 0.324462890625 3.957763671875 0.80517578125
v 0.300537109375 3.875 1.19482421875
v 1.375 3.875 1.19482421875
v 1.375 3.957763671875 1.0625
v 0.324462890625 3.957763671875 1.0625
v 2.25 3.9375 -1.875
v 2.1875 4 -1.8125
v 2.1875 4 -0.114990234375
v 2.25 3.9375 -0.114990234375
v 1.0625 4 -1.8125
v 1.0625 4 -1.5
v 1.875 4 -1.5
v 2.1875 4 -1.8125
v 1.0625 3.9375 -1.875
v 1.0625 4 -1.8125
v 2.1875 4 -1.8125
v 2.25 3.9375 -1.875
v 2.1875 4 -0.114990234375
v 2.1875 4 -1.8125
v 1.875 4 -1.5
v 1.875 4 -0.114990234375
v -1.0625 3.6875 -1.0625
v -1.0625 3.6875 1
v -0.8125 3.6875 0.75
v -0.8125 3.6875 -1.0625
v -0.8125 3.6875 0.75
v -1.0625 3.6875 1
v -0.1875 3.6875 1
v -0.1875 3.6875 0.75
v -1.1875 3.625 1.125
v -1.0625 3.6875 1
v -1.0625 3.6875 -1.0625
v -1.1875 3.625 -1.0625
v -1.0625 3.6875 1
v -1.1875 3.625 1.125
v -0.1875 3.625 1.125
v -0.1875 3.6875 1
v 0.192138671875 3.5 -2
v 0.192138671875 3.5 1.375
v 1.6875 3.5 1.375
v 1.6875 3.5 0.6875
v -1.375 3.125 1.375
v 0 3.125 1.375
v 0 3.125 -2
v -1.375 3.125 -2
v 0.192138671875 3.5 -2
v 1.6875 3.5 0.6875
v 2.375 3.5 -2
v 2.375 3.5 -2
v 1.6875 3.5 0.6875
v 2.375 3.5 0.6875
vt 2.859375 0.1396484375
vt 2.859375 0.015625
vt 2.9833984375 0.015625
vt 2.9833984375 0.1396484375
vt 3.70703125 0.673828125
vt 3.9873046875 0.666015625
vt 3.9873046875 0.7177734375
vt 3.70703125 0.7177734375
vt 3.70703125 0.6416015625
vt 3.9873046875 0.6416015625
vt 3.9873046875 0.666015625
vt 3.70703125 0.673828125
vt 3.23046875 1.578125
vt 3.2109375 1.5458984375
vt 3.2119140625 1.0009765625
vt 3.23046875 1.0009765625
vt 3.236328125 1.6904296875
vt 3.236328125 1.640625
vt 3.5126953125 1.640625
vt 3.599609375 1.6953125
vt 3.236328125 1.71484375
vt 3.236328125 1.6904296875
vt 3.599609375 1.6953125
vt 3.6318359375 1.71484375
vt 3.2119140625 1.0009765625
vt 3.2109375 1.5458984375
vt 3.158203125 1.4580078125
vt 3.158203125 1.0009765625
vt 3.189453125 0.57421875
vt 3.181640625 0.0478515625
vt 3.2314453125 0.119140625
vt 3.2314453125 0.57421875
vt 3.80859375 0.71875
vt 3.75 0.6669921875
vt 3.9951171875 0.6669921875
vt 3.9951171875 0.71875
vt 3.1591796875 0.0166015625
vt 3.181640625 0.0478515625
vt 3.189453125 0.57421875
vt 3.1591796875 0.57421875
vt 3.75 0.6669921875
vt 3.7236328125 0.6435546875
vt 3.9951171875 0.6435546875
vt 3.9951171875 0.6669921875
vt 2.5625 0.6240234375
vt 2.5625 0.037109375
vt 2.859375 0.0400390625
vt 2.859375 0.1591796875
vt 2.2509765625 0.0380859375
vt 2.5283203125 0.0380859375
vt 2.5283203125 0.6240234375
vt 2.2509765625 0.6240234375
vt 2.5625 0.6240234375
vt 2.859375 0.162109375
vt 2.9833984375 0.6240234375
vt 2.9833984375 0.6240234375
vt 2.8603515625 0.1611328125
vt 2.982421875 0.162109375
vn 0 0.998046875 0
vn 0 0.998046875 0
vn 0 0.998046875 0
vn 0 0.998046875 0
vn 0 0.998046875 0
vn 0 0.998046875 0
vn 0 0.998046875 0
vn 0 0.998046875 0
vn 0 0.84765625 0.529296875
vn 0 0.84765625 0.529296875
vn 0 0.84765625 0.529296875
vn 0 0.84765625 0.529296875
vn 0.70703125 0.70703125 0
vn 0.70703125 0.70703125 0
vn 0.70703125 0.70703125 0
vn 0.70703125 0.70703125 0
vn 0 0.998046875 0
vn 0 0.998046875 0
vn 0 0.998046875 0
vn 0 0.998046875 0
vn 0 0.70703125 -0.70703125
vn 0 0.70703125 -0.70703125
vn 0 0.70703125 -0.70703125
vn 0 0.70703125 -0.70703125
vn 0 0.998046875 0
vn 0 0.998046875 0
vn 0 0.998046875 0
vn 0 0.998046875 0
vn 0 0.998046875 0
vn 0 0.998046875 0
vn 0 0.998046875 0
vn 0 0.998046875 0
vn 0 0.998046875 0
vn 0 0.998046875 0
vn 0 0.998046875 0
vn 0 0.998046875 0
vn -0.447265625 0.89453125 0
vn -0.447265625 0.89453125 0
vn -0.447265625 0.89453125 0
vn -0.447265625 0.89453125 0
vn 0 0.89453125 0.447265625
vn 0 0.89453125 0.447265625
vn 0 0.89453125 0.447265625
vn 0 0.89453125 0.447265625
vn 0 0.998046875 0
vn 0 0.998046875 0
vn 0 0.998046875 0
vn 0 0.998046875 0
vn 0 0.998046875 0
vn 0 0.998046875 0
vn 0 0.998046875 0
vn 0 0.998046875 0
vn 0 0.998046875 0
vn 0 0.998046875 0
vn 0 0.998046875 0
vn 0 0.998046875 0
vn 0 0.998046875 0
vn 0 0.998046875 0
f 129/129/129 130/130/130 131/131/131
f 131/131/131 132/132/132 129/129/129
f 133/133/133 134/134/134 135/135/135
f 135/135/135 136/136/136 133/133/133
f 137/137/137 138/138/138 139/139/139
f 139/139/139 140/140/140 137/137/137
f 141/141/141 142/142/142 143/143/143
f 143/143/143 144/144/144 141/141/141
f 145/145/145 146/146/146 147/147/147
f 147/147/147 148/148/148 145/145/145
f 149/149/149 150/150/150 151/151/151
f 151/151/151 152/152/152 149/149/149
f 153/153/153 154/154/154 155/155/155
f 155/155/155 156/156/156 153/153/153
f 157/157/157 158/158/158 159/159/159
f 159/159/159 160/160/160 157/157/157
f 161/161/161 162/162/162 163/163/163
f 163/163/163 164/164/164 161/161/161
f 165/165/165 166/166/166 167/167/167
f 167/167/167 168/168/168 165/165/165
f 169/169/169 170/170/170 171/171/171
f 171/171/171 172/172/172 169/169/169
f 173/173/173 174/174/174 175/175/175
f 175/175/175 176/176/176 173/173/173
f 177/177/177 178/178/178 179/179/179
f 179/179/179 180/180/180 177/177/177
f 181/181/181 182/182/182 183/183/183
f 184/184/184 185/185/185 186/186/186
o polygon2
g polygon2
usemtl h_kage
v 1.636962890625 3.25 0.923095703125
v 2.28564453125 3.25 1.23974609375
v 2.28564453125 3.25 0.645751953125
v 0.97021484375 3.25 1.23974609375
v 1.636962890625 3.25 0.923095703125
v 0.97021484375 3.25 0.645751953125
v 1.636962890625 3.25 0.923095703125
v 2.28564453125 3.25 0.645751953125
v 0.97021484375 3.25 0.645751953125
v 0.97021484375 3.25 1.23974609375
v 2.28564453125 3.25 1.23974609375
v 1.636962890625 3.25 0.923095703125
v -0.6025390625 3.25 1.116943359375
v -1.293212890625 3.25 1.45458984375
v 0.0029296875 3.25 1.45458984375
v -1.293212890625 3.25 0.77001953125
v -0.6025390625 3.25 1.116943359375
v 0.0029296875 3.25 0.77001953125
v -0.6025390625 3.25 1.116943359375
v 0.0029296875 3.25 1.45458984375
v 0.0029296875 3.25 0.77001953125
v -1.293212890625 3.25 0.77001953125
v -1.293212890625 3.25 1.45458984375
v -0.6025390625 3.25 1.116943359375
v 2.13427734375 3.637939453125 -0.41162109375
v 2.34912109375 3.637939453125 0.243896484375
v 2.34912109375 3.637939453125 -1.849853515625
v 1.913330078125 3.637939453125 0.243896484375
v 2.13427734375 3.637939453125 -0.41162109375
v 1.913330078125 3.637939453125 -1.849853515625
v 2.13427734375 3.637939453125 -0.41162109375
v 2.34912109375 3.637939453125 -1.849853515625
v 1.913330078125 3.637939453125 -1.849853515625
v 1.913330078125 3.637939453125 0.243896484375
v 2.34912109375 3.637939453125 0.243896484375
v 2.13427734375 3.637939453125 -0.41162109375
v 0.975830078125 3.637939453125 1.08935546875
v 1.62451171875 3.637939453125 1.406005859375
v 1.62451171875 3.637939453125 0.81201171875
v 0.30908203125 3.637939453125 1.406005859375
v 0.975830078125 3.637939453125 1.08935546875
v 0.30908203125 3.637939453125 0.81201171875
v 0.975830078125 3.637939453125 1.08935546875
v 1.62451171875 3.637939453125 0.81201171875
v 0.30908203125 3.637939453125 0.81201171875
v 0.30908203125 3.637939453125 1.406005859375
v 1.62451171875 3.637939453125 1.406005859375
v 0.975830078125 3.637939453125 1.08935546875
v 1.74560546875 3.637939453125 -1.53955078125
v 2.30517578125 3.637939453125 -1.158203125
v 2.30517578125 3.637939453125 -1.873779296875
v 1.17041015625 3.637939453125 -1.158203125
v 1.74560546875 3.637939453125 -1.53955078125
v 1.17041015625 3.637939453125 -1.873779296875
v 1.74560546875 3.637939453125 -1.53955078125
v 2.30517578125 3.637939453125 -1.873779296875
v 1.17041015625 3.637939453125 -1.873779296875
v 1.17041015625 3.637939453125 -1.158203125
v 2.30517578125 3.637939453125 -1.158203125
v 1.74560546875 3.637939453125 -1.53955078125
v -0.85546875 3.3125 -0.054443359375
v -0.40234375 3.3125 0.954833984375
v -0.40234375 3.3125 -0.938720703125
v -1.049560546875 3.3125 0.954833984375
v -0.85546875 3.3125 -0.054443359375
v -1.049560546875 3.3125 -0.938720703125
v -0.85546875 3.3125 -0.054443359375
v -0.40234375 3.3125 -0.938720703125
v -1.049560546875 3.3125 -0.938720703125
v -1.049560546875 3.3125 0.954833984375
v -0.40234375 3.3125 0.954833984375
v -0.85546875 3.3125 -0.054443359375
v 0.5341796875 0.25 -0.398193359375
v 2.625 0.25 2
v 2.625 0.25 -2.5
v -1.625 0.25 2
v 0.5341796875 0.25 -0.398193359375
v -1.625 0.25 -2.5
v 0.5341796875 0.25 -0.398193359375
v 2.625 0.25 -2.5
v -1.625 0.25 -2.5
v -1.625 0.25 2
v 2.625 0.25 2
v 0.5341796875 0.25 -0.398193359375
vt 3.5234375 -0.6484375
vt 3.875 -0.15625
vt 3.2109375 -0.15625
vt 1.3359375 -0.1640625
vt 1.71875 -0.6953125
vt 2.0703125 -0.1640625
vt 2.640625 -0.6875
vt 2.9453125 -0.1171875
vt 2.3359375 -0.1171875
vt 3.6640625 -1.1875
vt 4.3671875 -1.1875
vt 4.015625 -0.4765625
vt 3.5234375 -0.75
vt 3.875 -0.078125
vt 3.2109375 -0.078125
vt 1.3359375 -0.140625
vt 1.71875 -0.671875
vt 2.0703125 -0.140625
vt 2.640625 -0.734375
vt 2.9453125 -0.15625
vt 2.3359375 -0.15625
vt 3.6640625 -1.0546875
vt 4.3671875 -1.0546875
vt 4.015625 -0.3515625
vt 3.5234375 -0.75
vt 3.875 -0.078125
vt 3.2109375 -0.078125
vt 1.3359375 -0.09375
vt 1.71875 -0.625
vt 2.0703125 -0.09375
vt 2.640625 -0.734375
vt 2.9453125 -0.15625
vt 2.3359375 -0.15625
vt 3.6640625 -1.1875
vt 4.3671875 -1.1875
vt 4.015625 -0.4765625
vt 3.5234375 -0.6484375
vt 3.875 -0.15625
vt 3.2109375 -0.15625
vt 1.3359375 -0.1640625
vt 1.71875 -0.6953125
vt 2.0703125 -0.1640625
vt 2.640625 -0.6875
vt 2.9453125 -0.1171875
vt 2.3359375 -0.1171875
vt 3.6640625 -1.1875
vt 4.3671875 -1.1875
vt 4.015625 -0.4765625
vt 3.5234375 -0.75
vt 3.875 -0.078125
vt 3.2109375 -0.078125
vt 1.3359375 -0.1640625
vt 1.71875 -0.6953125
vt 2.0703125 -0.1640625
vt 2.640625 -0.734375
vt 2.9453125 -0.15625
vt 2.3359375 -0.15625
vt 3.6640625 -1.1015625
vt 4.3671875 -1.1015625
vt 4.015625 -0.390625
vt 3.5234375 -0.75
vt 3.875 -0.078125
vt 3.2109375 -0.078125
vt 1.3359375 -0.234375
vt 1.71875 -0.7578125
vt 2.0703125 -0.234375
vt 2.640625 -0.8046875
vt 2.9453125 -0.09375
vt 2.3359375 -0.09375
vt 3.6640625 -1.0625
vt 4.3671875 -1.0625
vt 4.015625 -0.359375
vt 3.5234375 -0.8984375
vt 3.875 -0.2265625
vt 3.2109375 -0.2265625
vt 1.3359375 -0.234375
vt 1.71875 -0.7578125
vt 2.0703125 -0.234375
vt 2.640625 -0.8046875
vt 2.9453125 -0.234375
vt 2.3359375 -0.234375
vt 3.6640625 -1.015625
vt 4.3671875 -1.015625
vt 4.015625 -0.3125
vn 0 0.998046875 0
vn 0 0.998046875 0
vn 0 0.998046875 0
vn 0 0.998046875 0
vn 0 0.998046875 0
vn 0 0.998046875 0
vn 0 0.998046875 0
vn 0 0.998046875 0
vn 0 0.998046875 0
vn 0 0.998046875 0
vn 0 0.998046875 0
vn 0 0.998046875 0
vn 0 0.998046875 0
vn 0 0.998046875 0
vn 0 0.998046875 0
vn 0 0.998046875 0
vn 0 0.998046875 0
vn 0 0.998046875 0
vn 0 0.998046875 0
vn 0 0.998046875 0
vn 0 0.998046875 0
vn 0 0.998046875 0
vn 0 0.998046875 0
vn 0 0.998046875 0
vn 0 0.998046875 0
vn 0 0.998046875 0
vn 0 0.998046875 0
vn 0 0.998046875 0
vn 0 0.998046875 0
vn 0 0.998046875 0
vn 0 0.998046875 0
vn 0 0.998046875 0
vn 0 0.998046875 0
vn 0 0.998046875 0
vn 0 0.998046875 0
vn 0 0.998046875 0
vn 0 0.998046875 0
vn 0 0.998046875 0
vn 0 0.998046875 0
vn 0 0.998046875 0
vn 0 0.998046875 0
vn 0 0.998046875 0
vn 0 0.998046875 0
vn 0 0.998046875 0
vn 0 0.998046875 0
vn 0 0.998046875 0
vn 0 0.998046875 0
vn 0 0.998046875 0
vn 0 0.998046875 0
vn 0 0.998046875 0
vn 0 0.998046875 0
vn 0 0.998046875 0
vn 0 0.998046875 0
vn 0 0.998046875 0
vn 0 0.998046875 0
vn 0 0.998046875 0
vn 0 0.998046875 0
vn 0 0.998046875 0
vn 0 0.998046875 0
vn 0 0.998046875 0
vn 0 0.998046875 0
vn 0 0.998046875 0
vn 0 0.998046875 0
vn 0 0.998046875 0
vn 0 0.998046875 0
vn 0 0.998046875 0
vn 0 0.998046875 0
vn 0 0.998046875 0
vn 0 0.998046875 0
vn 0 0.998046875 0
vn 0 0.998046875 0
vn 0 0.998046875 0
vn 0 0.998046875 0
vn 0 0.998046875 0
vn 0 0.998046875 0
vn 0 0.998046875 0
vn 0 0.998046875 0
vn 0 0.998046875 0
vn 0 0.998046875 0
vn 0 0.998046875 0
vn 0 0.998046875 0
vn 0 0.998046875 0
vn 0 0.998046875 0
vn 0 0.998046875 0
f 187/187/187 188/188/188 189/189/189
f 190/190/190 191/191/191 192/192/192
f 193/193/193 194/194/194 195/195/195
f 196/196/196 197/197/197 198/198/198
f 199/199/199 200/200/200 201/201/201
f 202/202/202 203/203/203 204/204/204
f 205/205/205 206/206/206 207/207/207
f 208/208/208 209/209/209 210/210/210
f 211/211/211 212/212/212 213/213/213
f 214/214/214 215/215/215 216/216/216
f 217/217/217 218/218/218 219/219/219
f 220/220/220 221/221/221 222/222/222
f 223/223/223 224/224/224 225/225/225
f 226/226/226 227/227/227 228/228/228
f 229/229/229 230/230/230 231/231/231
f 232/232/232 233/233/233 234/234/234
f 235/235/235 236/236/236 237/237/237
f 238/238/238 239/239/239 240/240/240
f 241/241/241 242/242/242 243/243/243
f 244/244/244 245/245/245 246/246/246
f 247/247/247 248/248/248 249/249/249
f 250/250/250 251/251/251 252/252/252
f 253/253/253 254/254/254 255/255/255
f 256/256/256 257/257/257 258/258/258
f 259/259/259 260/260/260 261/261/261
f 262/262/262 263/263/263 264/264/264
f 265/265/265 266/266/266 267/267/267
f 268/268/268 269/269/269 270/270/270
