# Created with Spiky's DS Map Editor 1.8.1.0
mtllib 348.mtl
o polygon0
g polygon0
usemtl c14_h1_body
v -1.25 2.515869140625 -1.375
v -1.25 0.625 -1.375
v -1.25 0.953369140625 -1.21923828125
v -1.25 2.36865234375 -1.21923828125
v -1.25 2.515869140625 -0.125
v -1.25 2.515869140625 -1.375
v -1.25 2.36865234375 -1.21923828125
v -1.25 2.36865234375 -0.28076171875
v -1.25 0.625 -0.125
v -1.25 2.515869140625 -0.125
v -1.25 2.36865234375 -0.28076171875
v -1.25 0.953369140625 -0.28076171875
v -1.25 0.625 -1.375
v -1.25 0.625 -0.125
v -1.25 0.953369140625 -0.28076171875
v -1.25 0.953369140625 -1.21923828125
v 2.25 2.515869140625 -0.125
v 2.25 0.625 -0.125
v 2.25 0.953369140625 -0.28076171875
v 2.25 2.36865234375 -0.28076171875
v 2.25 2.515869140625 -1.375
v 2.25 2.515869140625 -0.125
v 2.25 2.36865234375 -0.28076171875
v 2.25 2.36865234375 -1.21923828125
v 2.25 0.625 -1.375
v 2.25 2.515869140625 -1.375
v 2.25 2.36865234375 -1.21923828125
v 2.25 0.953369140625 -1.21923828125
v 2.25 0.625 -0.125
v 2.25 0.625 -1.375
v 2.25 0.953369140625 -1.21923828125
v 2.25 0.953369140625 -0.28076171875
v -1.25 2.75 -2.0625
v -1.25 0.625 -2.0625
v -1.25 0.625 -1.375
v -1.25 2.515869140625 -1.375
v -1.25 2.75 0.5625
v -1.25 2.75 -2.0625
v -1.25 2.515869140625 -1.375
v -1.25 2.515869140625 -0.125
v -1.25 0.625 0.5625
v -1.25 2.75 0.5625
v -1.25 2.515869140625 -0.125
v -1.25 0.625 -0.125
v 2.25 2.75 0.5625
v 2.25 0.625 0.5625
v 2.25 0.625 -0.125
v 2.25 2.515869140625 -0.125
v 2.25 2.75 -2.0625
v 2.25 2.75 0.5625
v 2.25 2.515869140625 -0.125
v 2.25 2.515869140625 -1.375
v 2.25 0.625 -2.0625
v 2.25 2.75 -2.0625
v 2.25 2.515869140625 -1.375
v 2.25 0.625 -1.375
v -1.25 2.75 -2.25
v -1.25 0.625 -2.25
v -1.25 0.625 -2.0625
v -1.25 2.75 -2.0625
v -1.25 0.625 0.75
v -1.25 2.75 0.75
v -1.25 2.75 0.5625
v -1.25 0.625 0.5625
v 2.25 2.75 0.75
v 2.25 0.625 0.75
v 2.25 0.625 0.5625
v 2.25 2.75 0.5625
v 2.25 0.625 -2.25
v 2.25 2.75 -2.25
v 2.25 2.75 -2.0625
v 2.25 0.625 -2.0625
v -0.25 2.75 0.75
v -0.25 0.625 0.75
v -0.25 0.625 -0.25
v -0.25 2.75 -0.25
v 1.228515625 0.625 0.75
v 1.228515625 2.75 0.75
v 1.228515625 2.75 -0.25
v 1.228515625 0.625 -0.25
v -0.4375 2.75 0.75
v -0.4375 0.625 0.75
v -0.25 0.625 0.75
v -0.25 2.75 0.75
v 1.4375 0.625 0.75
v 1.4375 2.75 0.75
v 1.228515625 2.75 0.75
v 1.228515625 0.625 0.75
v -1.0625 2.75 0.75
v -1.0625 0.625 0.75
v -0.4375 0.625 0.75
v -0.4375 2.75 0.75
v 2.0625 0.625 0.75
v 2.0625 2.75 0.75
v 1.4375 2.75 0.75
v 1.4375 0.625 0.75
v -1.25 2.75 0.75
v -1.25 0.625 0.75
v -1.0625 0.625 0.75
v -1.0625 2.75 0.75
v 2.25 0.625 0.75
v 2.25 2.75 0.75
v 2.0625 2.75 0.75
v 2.0625 0.625 0.75
v -1.25 0.953369140625 -1.21923828125
v -1.25 0.953369140625 -0.28076171875
v -1.25 2.36865234375 -0.28076171875
v -1.25 2.36865234375 -1.21923828125
v 2.25 0.953369140625 -0.28076171875
v 2.25 0.953369140625 -1.21923828125
v 2.25 2.36865234375 -1.21923828125
v 2.25 2.36865234375 -0.28076171875
v -0.25 0.625 -0.25
v 1.228515625 0.625 -0.25
v 1.228515625 2.75 -0.25
v -0.25 2.75 -0.25
v -0.25 0.625 0.75
v 1.228515625 0.625 0.75
v 1.228515625 0.625 -0.25
v -0.25 0.625 -0.25
vt 2.05859375 -3.0654296875
vt 2.05859375 -3.2900390625
vt 2.00390625 -3.2724609375
vt 2.00390625 -3.0830078125
vt 2.068359375 -3.0009765625
vt 2.2578125 -3.0009765625
vt 2.234375 -3.0615234375
vt 2.091796875 -3.0615234375
vt 2.0009765625 -3.2919921875
vt 2.0009765625 -3.0673828125
vt 2.060546875 -3.0849609375
vt 2.060546875 -3.2744140625
vt 2.08984375 -3.0615234375
vt 2.2333984375 -3.0615234375
vt 2.2158203125 -3.0029296875
vt 2.107421875 -3.0029296875
vt 2.0009765625 -3.0673828125
vt 2.0009765625 -3.2919921875
vt 2.060546875 -3.2744140625
vt 2.060546875 -3.0849609375
vt 2.2578125 -3.0009765625
vt 2.068359375 -3.0009765625
vt 2.091796875 -3.0615234375
vt 2.234375 -3.0615234375
vt 2.060546875 -3.2900390625
vt 2.060546875 -3.0654296875
vt 2.0029296875 -3.0830078125
vt 2.0029296875 -3.2724609375
vt 2.2333984375 -3.060546875
vt 2.08984375 -3.060546875
vt 2.107421875 -3.001953125
vt 2.2158203125 -3.001953125
vt 4.2119140625 -2.3671875
vt 4.2119140625 -2.9951171875
vt 4.0634765625 -2.9951171875
vt 4.0634765625 -2.4375
vt 4.0869140625 -2.3671875
vt 4.201171875 -2.3671875
vt 4.1708984375 -2.4375
vt 4.1162109375 -2.4375
vt 4.06640625 -2.9951171875
vt 4.06640625 -2.3671875
vt 4.21484375 -2.4375
vt 4.21484375 -2.9951171875
vt 4.06640625 -2.3671875
vt 4.06640625 -2.9951171875
vt 4.21484375 -2.9951171875
vt 4.21484375 -2.4375
vt 4.201171875 -2.3671875
vt 4.0869140625 -2.3671875
vt 4.1162109375 -2.4375
vt 4.1708984375 -2.4375
vt 4.2119140625 -2.9951171875
vt 4.2119140625 -2.3671875
vt 4.0634765625 -2.4375
vt 4.0634765625 -2.9951171875
vt 4.7998046875 -0.03515625
vt 4.7998046875 -0.2451171875
vt 4.919921875 -0.2451171875
vt 4.919921875 -0.03515625
vt 4.7978515625 -0.24609375
vt 4.7978515625 -0.0341796875
vt 4.916015625 -0.0341796875
vt 4.916015625 -0.24609375
vt 4.7978515625 -0.0341796875
vt 4.7978515625 -0.24609375
vt 4.916015625 -0.24609375
vt 4.916015625 -0.0341796875
vt 4.7998046875 -0.2451171875
vt 4.7998046875 -0.03515625
vt 4.919921875 -0.03515625
vt 4.919921875 -0.2451171875
vt 1.943359375 0.8818359375
vt 1.943359375 0.951171875
vt 1.9775390625 0.951171875
vt 1.9775390625 0.8818359375
vt 1.943359375 0.8818359375
vt 1.943359375 0.951171875
vt 1.9775390625 0.951171875
vt 1.9775390625 0.8818359375
vt 3 -0.048828125
vt 3 -0.296875
vt 3.0625 -0.296875
vt 3.0625 -0.048828125
vt 3 -0.296875
vt 3 -0.048828125
vt 3.0625 -0.048828125
vt 3.0625 -0.296875
vt 0.609375 -3.373046875
vt 0.609375 -3.998046875
vt 0.982421875 -3.998046875
vt 0.982421875 -3.3740234375
vt 0.982421875 -3.998046875
vt 0.982421875 -3.373046875
vt 0.609375 -3.3740234375
vt 0.609375 -3.998046875
vt 3.798828125 -0.03515625
vt 3.798828125 -0.2470703125
vt 3.91796875 -0.2470703125
vt 3.91796875 -0.03515625
vt 3.798828125 -0.248046875
vt 3.798828125 -0.0341796875
vt 3.919921875 -0.0341796875
vt 3.919921875 -0.248046875
vt -2.4248046875 0
vt -2.7802734375 0
vt -2.7802734375 0.6875
vt -2.4248046875 0.6875
vt -2.78125 0
vt -2.421875 0
vt -2.421875 0.6875
vt -2.78125 0.6875
vt 1.943359375 0.8818359375
vt 1.943359375 0.951171875
vt 1.9775390625 0.951171875
vt 1.9775390625 0.8818359375
vt -2.0341796875 0.7529296875
vt -2.0341796875 0.7529296875
vt -2.0341796875 0.9951171875
vt -2.0341796875 0.9951171875
vn -1 0 0
vn -1 0 0
vn -1 0 0
vn -1 0 0
vn -1 0 0
vn -1 0 0
vn -1 0 0
vn -1 0 0
vn -1 0 0
vn -1 0 0
vn -1 0 0
vn -1 0 0
vn -1 0 0
vn -1 0 0
vn -1 0 0
vn -1 0 0
vn 0.998046875 0 0
vn 0.998046875 0 0
vn 0.998046875 0 0
vn 0.998046875 0 0
vn 0.998046875 0 0
vn 0.998046875 0 0
vn 0.998046875 0 0
vn 0.998046875 0 0
vn 0.998046875 0 0
vn 0.998046875 0 0
vn 0.998046875 0 0
vn 0.998046875 0 0
vn 0.998046875 0 0
vn 0.998046875 0 0
vn 0.998046875 0 0
vn 0.998046875 0 0
vn -1 0 0
vn -1 0 0
vn -1 0 0
vn -1 0 0
vn -1 0 0
vn -1 0 0
vn -1 0 0
vn -1 0 0
vn -1 0 0
vn -1 0 0
vn -1 0 0
vn -1 0 0
vn 0.998046875 0 0
vn 0.998046875 0 0
vn 0.998046875 0 0
vn 0.998046875 0 0
vn 0.998046875 0 0
vn 0.998046875 0 0
vn 0.998046875 0 0
vn 0.998046875 0 0
vn 0.998046875 0 0
vn 0.998046875 0 0
vn 0.998046875 0 0
vn 0.998046875 0 0
vn -1 0 0
vn -1 0 0
vn -1 0 0
vn -1 0 0
vn -1 0 0
vn -1 0 0
vn -1 0 0
vn -1 0 0
vn 0.998046875 0 0
vn 0.998046875 0 0
vn 0.998046875 0 0
vn 0.998046875 0 0
vn 0.998046875 0 0
vn 0.998046875 0 0
vn 0.998046875 0 0
vn 0.998046875 0 0
vn 0.998046875 0 0
vn 0.998046875 0 0
vn 0.998046875 0 0
vn 0.998046875 0 0
vn -1 0 0
vn -1 0 0
vn -1 0 0
vn -1 0 0
vn 0 0 0.998046875
vn 0 0 0.998046875
vn 0 0 0.998046875
vn 0 0 0.998046875
vn 0 0 0.998046875
vn 0 0 0.998046875
vn 0 0 0.998046875
vn 0 0 0.998046875
vn 0 0 0.998046875
vn 0 0 0.998046875
vn 0 0 0.998046875
vn 0 0 0.998046875
vn 0 0 0.998046875
vn 0 0 0.998046875
vn 0 0 0.998046875
vn 0 0 0.998046875
vn 0 0 0.998046875
vn 0 0 0.998046875
vn 0 0 0.998046875
vn 0 0 0.998046875
vn 0 0 0.998046875
vn 0 0 0.998046875
vn 0 0 0.998046875
vn 0 0 0.998046875
vn -1 0 0
vn -1 0 0
vn -1 0 0
vn -1 0 0
vn 0.998046875 0 0
vn 0.998046875 0 0
vn 0.998046875 0 0
vn 0.998046875 0 0
vn 0 0 0.998046875
vn 0 0 0.998046875
vn 0 0 0.998046875
vn 0 0 0.998046875
vn 0 0.998046875 0
vn 0 0.998046875 0
vn 0 0.998046875 0
vn 0 0.998046875 0
f 1/1/1 2/2/2 3/3/3
f 3/3/3 4/4/4 1/1/1
f 5/5/5 6/6/6 7/7/7
f 7/7/7 8/8/8 5/5/5
f 9/9/9 10/10/10 11/11/11
f 11/11/11 12/12/12 9/9/9
f 13/13/13 14/14/14 15/15/15
f 15/15/15 16/16/16 13/13/13
f 17/17/17 18/18/18 19/19/19
f 19/19/19 20/20/20 17/17/17
f 21/21/21 22/22/22 23/23/23
f 23/23/23 24/24/24 21/21/21
f 25/25/25 26/26/26 27/27/27
f 27/27/27 28/28/28 25/25/25
f 29/29/29 30/30/30 31/31/31
f 31/31/31 32/32/32 29/29/29
f 33/33/33 34/34/34 35/35/35
f 35/35/35 36/36/36 33/33/33
f 37/37/37 38/38/38 39/39/39
f 39/39/39 40/40/40 37/37/37
f 41/41/41 42/42/42 43/43/43
f 43/43/43 44/44/44 41/41/41
f 45/45/45 46/46/46 47/47/47
f 47/47/47 48/48/48 45/45/45
f 49/49/49 50/50/50 51/51/51
f 51/51/51 52/52/52 49/49/49
f 53/53/53 54/54/54 55/55/55
f 55/55/55 56/56/56 53/53/53
f 57/57/57 58/58/58 59/59/59
f 59/59/59 60/60/60 57/57/57
f 61/61/61 62/62/62 63/63/63
f 63/63/63 64/64/64 61/61/61
f 65/65/65 66/66/66 67/67/67
f 67/67/67 68/68/68 65/65/65
f 69/69/69 70/70/70 71/71/71
f 71/71/71 72/72/72 69/69/69
f 73/73/73 74/74/74 75/75/75
f 75/75/75 76/76/76 73/73/73
f 77/77/77 78/78/78 79/79/79
f 79/79/79 80/80/80 77/77/77
f 81/81/81 82/82/82 83/83/83
f 83/83/83 84/84/84 81/81/81
f 85/85/85 86/86/86 87/87/87
f 87/87/87 88/88/88 85/85/85
f 89/89/89 90/90/90 91/91/91
f 91/91/91 92/92/92 89/89/89
f 93/93/93 94/94/94 95/95/95
f 95/95/95 96/96/96 93/93/93
f 97/97/97 98/98/98 99/99/99
f 99/99/99 100/100/100 97/97/97
f 101/101/101 102/102/102 103/103/103
f 103/103/103 104/104/104 101/101/101
f 105/105/105 106/106/106 107/107/107
f 107/107/107 108/108/108 105/105/105
f 109/109/109 110/110/110 111/111/111
f 111/111/111 112/112/112 109/109/109
f 113/113/113 114/114/114 115/115/115
f 115/115/115 116/116/116 113/113/113
f 117/117/117 118/118/118 119/119/119
f 119/119/119 120/120/120 117/117/117
o polygon1
g polygon1
usemtl c14_h1_yane
v -1.5 3.0791015625 -2.5
v -0.5 3.5 -1.6328125
v 1.5 3.5 -1.6328125
v 2.5 3.0791015625 -2.5
v 1.5 3.5 -1.6328125
v 1.5 3.5 0.1171875
v 2.5 3.0791015625 1
v 2.5 3.0791015625 -2.5
v -1.5 3.0791015625 1
v 2.5 3.0791015625 1
v 1.5 3.5 0.1171875
v -0.5 3.5 0.1171875
v -1.5 3.0791015625 1
v -0.5 3.5 0.1171875
v -0.5 3.5 -1.6328125
v -1.5 3.0791015625 -2.5
v -1.5 2.7041015625 -2.5
v -1.5 2.7041015625 1
v -1.5 3.0791015625 1
v -1.5 3.0791015625 -2.5
v 2.5 2.7041015625 1
v 2.5 2.7041015625 -2.5
v 2.5 3.0791015625 -2.5
v 2.5 3.0791015625 1
v -1.5 2.7041015625 1
v 2.5 2.7041015625 1
v 2.5 3.0791015625 1
v -1.5 3.0791015625 1
v -0.5 3.5 -1.6328125
v -0.5 3.5 0.1171875
v 0.5 4.6875 -0.765380859375
v -0.5 3.5 -1.6328125
v 0.5 4.6875 -0.765380859375
v 1.5 3.5 -1.6328125
v 0.5 4.6875 -0.765380859375
v 1.5 3.5 0.1171875
v 1.5 3.5 -1.6328125
v -0.5 3.5 0.1171875
v 1.5 3.5 0.1171875
v 0.5 4.6875 -0.765380859375
vt -1.1875 1
vt -1.59375 1
vt -2 0.59375
vt -2 0.1875
vt -1.59375 1
vt -2 0.59375
vt -2 0.1875
vt -1.1875 1
vt -2 0.1875
vt -1.1875 1
vt -1.59375 1
vt -2 0.59375
vt -1.1875 1
vt -1.59375 1
vt -2 0.59375
vt -2 0.1875
vt -1 0
vt -2 0
vt -2.0009765625 0.171875
vt -1 0.171875
vt -2 0
vt -1 0
vt -1 0.171875
vt -2.0009765625 0.171875
vt -2 0
vt -1 0
vt -1 0.1708984375
vt -2 0.171875
vt -2 0.59375
vt -1.59375 1
vt -2 1
vt -1.59375 1
vt -2 1
vt -2 0.59375
vt -2 1
vt -2 0.59375
vt -1.59375 1
vt -2 0.59375
vt -1.59375 1
vt -2 1
vn 0 0.900390625 -0.4375
vn -0.330078125 0.875 -0.35546875
vn 0.330078125 0.875 -0.35546875
vn 0 0.900390625 -0.4375
vn 0.330078125 0.875 -0.35546875
vn 0.330078125 0.875 0.3515625
vn 0.388671875 0.921875 0
vn 0.388671875 0.921875 0
vn 0 0.90234375 0.4296875
vn 0 0.90234375 0.4296875
vn 0.330078125 0.875 0.3515625
vn -0.330078125 0.875 0.3515625
vn -0.388671875 0.921875 0
vn -0.330078125 0.875 0.3515625
vn -0.330078125 0.875 -0.35546875
vn -0.388671875 0.921875 0
vn -1 0 0
vn -1 0 0
vn -1 0 0
vn -1 0 0
vn 0.998046875 0 0
vn 0.998046875 0 0
vn 0.998046875 0 0
vn 0.998046875 0 0
vn 0 0 0.998046875
vn 0 0 0.998046875
vn 0 0 0.998046875
vn 0 0 0.998046875
vn -0.330078125 0.875 -0.35546875
vn -0.330078125 0.875 0.3515625
vn -0.765625 0.64453125 0
vn -0.330078125 0.875 -0.35546875
vn 0 0.58984375 -0.806640625
vn 0.330078125 0.875 -0.35546875
vn 0.765625 0.64453125 0
vn 0.330078125 0.875 0.3515625
vn 0.330078125 0.875 -0.35546875
vn -0.330078125 0.875 0.3515625
vn 0.330078125 0.875 0.3515625
vn 0 0.595703125 0.802734375
f 121/121/121 122/122/122 123/123/123
f 123/123/123 124/124/124 121/121/121
f 125/125/125 126/126/126 127/127/127
f 127/127/127 128/128/128 125/125/125
f 129/129/129 130/130/130 131/131/131
f 131/131/131 132/132/132 129/129/129
f 133/133/133 134/134/134 135/135/135
f 135/135/135 136/136/136 133/133/133
f 137/137/137 138/138/138 139/139/139
f 139/139/139 140/140/140 137/137/137
f 141/141/141 142/142/142 143/143/143
f 143/143/143 144/144/144 141/141/141
f 145/145/145 146/146/146 147/147/147
f 147/147/147 148/148/148 145/145/145
f 149/149/149 150/150/150 151/151/151
f 152/152/152 153/153/153 154/154/154
f 155/155/155 156/156/156 157/157/157
f 158/158/158 159/159/159 160/160/160
o polygon2
g polygon2
usemtl h_mado
v 1.371337890625 1.25 0.65625
v 2.15625 1.25 0.65625
v 2.15625 2.375 0.65625
v 1.371337890625 2.375 0.65625
v -1.125 0.625 -1.75
v -1.125 0.625 0.25
v -1.125 2.5 0.25
v -1.125 2.5 -1.75
v 2.125 0.625 0.25
v 2.125 0.625 -1.75
v 2.125 2.5 -1.75
v 2.125 2.5 0.25
v -1.15625 1.25 0.65625
v -0.3125 1.25 0.65625
v -0.3125 2.37744140625 0.65625
v -1.15625 2.37744140625 0.65625
vt -14.0078125 4.00390625
vt -11.6484375 4.00390625
vt -11.6484375 5.01953125
vt -14.0078125 5.01953125
vt -8.421875 -1.015625
vt -5.45703125 -1.015625
vt -5.45703125 0.0625
vt -8.421875 0.0625
vt -8.40625 -1.01953125
vt -5.44140625 -1.01953125
vt -5.44140625 0.0703125
vt -8.40625 0.0703125
vt -14.28515625 4.01953125
vt -11.7421875 4.01953125
vt -11.7421875 5.03125
vt -14.28515625 5.03125
vn 0 0 0.998046875
vn 0 0 0.998046875
vn 0 0 0.998046875
vn 0 0 0.998046875
vn 0 0 0.998046875
vn 0 0 0.998046875
vn 0 0 0.998046875
vn 0 0 0.998046875
vn 0 0 0.998046875
vn 0 0 0.998046875
vn 0 0 0.998046875
vn 0 0 0.998046875
vn 0 0 0.998046875
vn 0 0 0.998046875
vn 0 0 0.998046875
vn 0 0 0.998046875
f 161/161/161 162/162/162 163/163/163
f 163/163/163 164/164/164 161/161/161
f 165/165/165 166/166/166 167/167/167
f 167/167/167 168/168/168 165/165/165
f 169/169/169 170/170/170 171/171/171
f 171/171/171 172/172/172 169/169/169
f 173/173/173 174/174/174 175/175/175
f 175/175/175 176/176/176 173/173/173
