# Created with Spiky's DS Map Editor 1.8.1.0
mtllib 349.mtl
o polygon0
g polygon0
usemtl h_mado
v -1.125 0.625 -1.625
v -1.125 0.625 0.25
v -1.125 2.5 0.25
v -1.125 2.5 -1.625
v 2.125 0.625 0.25
v 2.125 0.625 -1.625
v 2.125 2.5 -1.625
v 2.125 2.5 0.25
v -0.68359375 0.625 0.5
v 1.690185546875 0.625 0.5
v 1.690185546875 2.5 0.5
v -0.68359375 2.5 0.5
vt -8.60546875 -1.53125
vt -6.3828125 -1.53125
vt -6.3828125 0.50390625
vt -8.60546875 0.50390625
vt -8.58984375 -1.54296875
vt -6.37109375 -1.54296875
vt -6.37109375 0.515625
vt -8.58984375 0.515625
vt -8.5234375 -1.12109375
vt -4.29296875 -1.12109375
vt -4.29296875 0.078125
vt -8.5234375 0.078125
vn 0 0 0.998046875
vn 0 0 0.998046875
vn 0 0 0.998046875
vn 0 0 0.998046875
vn 0 0 0.998046875
vn 0 0 0.998046875
vn 0 0 0.998046875
vn 0 0 0.998046875
vn 0 0 0.998046875
vn 0 0 0.998046875
vn 0 0 0.998046875
vn 0 0 0.998046875
f 1/1/1 2/2/2 3/3/3
f 3/3/3 4/4/4 1/1/1
f 5/5/5 6/6/6 7/7/7
f 7/7/7 8/8/8 5/5/5
f 9/9/9 10/10/10 11/11/11
f 11/11/11 12/12/12 9/9/9
o polygon1
g polygon1
usemtl c14_h2_kabe2
v -1.25 0.625 -1.625
v -1.25 1.3125 -1.25
v -1.25 2.5 -1.625
v -1.25 2.125 -1.25
v -1.25 2.5 0.125
v -1.25 2.125 -0.25
v -1.25 0.625 0.125
v -1.25 1.3125 -0.25
v -1.25 0.625 -1.625
v -1.25 1.3125 -1.25
v 2.25 0.625 0.125
v 2.25 1.3125 -0.25
v 2.25 2.5 0.125
v 2.25 2.125 -0.25
v 2.25 2.5 -1.625
v 2.25 2.125 -1.25
v 2.25 0.625 -1.625
v 2.25 1.3125 -1.25
v 2.25 0.625 0.125
v 2.25 1.3125 -0.25
v 0.5 2.5 0.75
v 0.6875 2.25 0.75
v 1.625 2.5 0.75
v 1.4375 2.25 0.75
v 1.625 0.625 0.75
v 1.4375 0.875 0.75
v 0.5 0.625 0.75
v 0.6875 0.875 0.75
v 0.5 2.5 0.75
v 0.6875 2.25 0.75
v -0.625 0.625 0.75
v -0.375 0.875 0.75
v -0.625 2.5 0.75
v -0.375 2.25 0.75
v 0.5 2.5 0.75
v 0.3125 2.25 0.75
v 0.5 0.625 0.75
v 0.3125 0.875 0.75
v -0.625 0.625 0.75
v -0.375 0.875 0.75
v -1.25 1.3125 -1.25
v -1.25 1.3125 -0.25
v -1.25 2.125 -0.25
v -1.25 2.125 -1.25
v -1.25 0.625 -1.75
v -1.25 0.625 -1.625
v -1.25 2.5 -1.625
v -1.25 2.5 -1.75
v 2.25 1.3125 -0.25
v 2.25 1.3125 -1.25
v 2.25 2.125 -1.25
v 2.25 2.125 -0.25
v 2.25 0.625 0.25
v 2.25 0.625 0.125
v 2.25 2.5 0.125
v 2.25 2.5 0.25
v 0.6875 0.875 0.75
v 1.4375 0.875 0.75
v 1.4375 2.25 0.75
v 0.6875 2.25 0.75
v -0.75 0.625 0.75
v -0.625 0.625 0.75
v -0.625 2.5 0.75
v -0.75 2.5 0.75
v -0.375 0.875 0.75
v 0.3125 0.875 0.75
v 0.3125 2.25 0.75
v -0.375 2.25 0.75
v -1.25 2.5 0.25
v -1.25 0.625 0.25
v -0.75 0.625 0.75
v -0.75 2.5 0.75
v 2.25 0.625 0.25
v 2.25 2.5 0.25
v 1.75 2.5 0.75
v 1.75 0.625 0.75
v -1.25 0.625 0.25
v -1.25 2.5 0.25
v -1.25 2.5 0.125
v -1.25 0.625 0.125
v 2.25 0.625 -1.75
v 2.25 2.5 -1.75
v 2.25 2.5 -1.625
v 2.25 0.625 -1.625
v 1.75 0.625 0.75
v 1.75 2.5 0.75
v 1.625 2.5 0.75
v 1.625 0.625 0.75
vt -1.6142578125 -0.9755859375
vt -1.6484375 -0.7373046875
vt -1.6142578125 -0.32421875
vt -1.6484375 -0.455078125
vt -1.7744140625 -0.32421875
vt -1.740234375 -0.455078125
vt -1.7744140625 -0.9755859375
vt -1.740234375 -0.7373046875
vt -1.6142578125 -0.9755859375
vt -1.6484375 -0.7373046875
vt -1.7890625 -0.0009765625
vt -1.748046875 0.2470703125
vt -1.7890625 0.677734375
vt -1.748046875 0.5419921875
vt -1.5986328125 0.677734375
vt -1.6396484375 0.5419921875
vt -1.5986328125 -0.0009765625
vt -1.6396484375 0.2470703125
vt -1.7890625 -0.0009765625
vt -1.748046875 0.2470703125
vt 2.3447265625 -0.314453125
vt 2.3564453125 -0.404296875
vt 2.4150390625 -0.314453125
vt 2.4033203125 -0.404296875
vt 2.4150390625 -0.9912109375
vt 2.4033203125 -0.900390625
vt 2.3447265625 -0.9912109375
vt 2.3564453125 -0.900390625
vt 2.3447265625 -0.314453125
vt 2.3564453125 -0.404296875
vt 2.2744140625 -0.9912109375
vt 2.2900390625 -0.900390625
vt 2.2744140625 -0.314453125
vt 2.2900390625 -0.404296875
vt 2.3447265625 -0.314453125
vt 2.3330078125 -0.404296875
vt 2.3447265625 -0.9912109375
vt 2.3330078125 -0.900390625
vt 2.2744140625 -0.9912109375
vt 2.2900390625 -0.900390625
vt 4.78125 -1
vt 5 -1
vt 5 -0.484375
vt 4.78125 -0.484375
vt 0.8955078125 2.8056640625
vt 0.998046875 2.8076171875
vt 0.99609375 2.9931640625
vt 0.892578125 2.9912109375
vt 3.78125 -1
vt 4 -1
vt 4 -0.484375
vt 3.78125 -0.484375
vt 2.8955078125 0.8056640625
vt 2.9970703125 0.8056640625
vt 2.9970703125 0.9951171875
vt 2.8955078125 0.9951171875
vt 0.78515625 4.009765625
vt 0.9912109375 4.009765625
vt 0.9921875 4.509765625
vt 0.78515625 4.509765625
vt 1.8955078125 -0.1787109375
vt 1.9921875 -0.1787109375
vt 1.9921875 -0.001953125
vt 1.8955078125 -0.001953125
vt 0.7880859375 4.001953125
vt 0.994140625 4.001953125
vt 0.994140625 4.51171875
vt 0.7890625 4.51171875
vt -3 -0.314453125
vt -3 -0.9931640625
vt -2.7861328125 -0.9931640625
vt -2.7861328125 -0.314453125
vt 3.2119140625 0.0048828125
vt 3.2119140625 0.6875
vt 3.0048828125 0.6875
vt 3.0048828125 0.0048828125
vt 1.89453125 -5.19921875
vt 1.89453125 -5.00390625
vt 1.9970703125 -5.00390625
vt 1.9970703125 -5.19921875
vt 3.8916015625 1.8037109375
vt 3.8916015625 1.99609375
vt 3.9970703125 1.99609375
vt 3.9970703125 1.8037109375
vt 2.8916015625 -0.2001953125
vt 2.8916015625 -0.0009765625
vt 2.9931640625 -0.0009765625
vt 2.9931640625 -0.2001953125
vn -1 0 0
vn -1 0 0
vn -1 0 0
vn -1 0 0
vn -1 0 0
vn -1 0 0
vn -1 0 0
vn -1 0 0
vn -1 0 0
vn -1 0 0
vn 0.998046875 0 0
vn 0.998046875 0 0
vn 0.998046875 0 0
vn 0.998046875 0 0
vn 0.998046875 0 0
vn 0.998046875 0 0
vn 0.998046875 0 0
vn 0.998046875 0 0
vn 0.998046875 0 0
vn 0.998046875 0 0
vn 0 0 0.998046875
vn 0 0 0.998046875
vn 0 0 0.998046875
vn 0 0 0.998046875
vn 0 0 0.998046875
vn 0 0 0.998046875
vn 0 0 0.998046875
vn 0 0 0.998046875
vn 0 0 0.998046875
vn 0 0 0.998046875
vn 0 0 0.998046875
vn 0 0 0.998046875
vn 0 0 0.998046875
vn 0 0 0.998046875
vn 0 0 0.998046875
vn 0 0 0.998046875
vn 0 0 0.998046875
vn 0 0 0.998046875
vn 0 0 0.998046875
vn 0 0 0.998046875
vn -1 0 0
vn -1 0 0
vn -1 0 0
vn -1 0 0
vn -1 0 0
vn -1 0 0
vn -1 0 0
vn -1 0 0
vn 0.998046875 0 0
vn 0.998046875 0 0
vn 0.998046875 0 0
vn 0.998046875 0 0
vn 0.923828125 0 0.3828125
vn 0.998046875 0 0
vn 0.998046875 0 0
vn 0.923828125 0 0.3828125
vn 0 0 0.998046875
vn 0 0 0.998046875
vn 0 0 0.998046875
vn 0 0 0.998046875
vn 0 0 0.998046875
vn 0 0 0.998046875
vn 0 0 0.998046875
vn 0 0 0.998046875
vn 0 0 0.998046875
vn 0 0 0.998046875
vn 0 0 0.998046875
vn 0 0 0.998046875
vn -0.923828125 0 0.3828125
vn -0.923828125 0 0.3828125
vn -0.70703125 0 0.70703125
vn -0.70703125 0 0.70703125
vn 0.923828125 0 0.3828125
vn 0.923828125 0 0.3828125
vn 0.70703125 0 0.70703125
vn 0.70703125 0 0.70703125
vn -0.923828125 0 0.3828125
vn -0.923828125 0 0.3828125
vn -1 0 0
vn -1 0 0
vn 0.998046875 0 0
vn 0.998046875 0 0
vn 0.998046875 0 0
vn 0.998046875 0 0
vn 0 0 0.998046875
vn 0 0 0.998046875
vn 0 0 0.998046875
vn 0 0 0.998046875
f 13/13/13 14/14/14 15/15/15
f 14/14/14 16/16/16 15/15/15
f 15/15/15 16/16/16 17/17/17
f 16/16/16 18/18/18 17/17/17
f 17/17/17 18/18/18 19/19/19
f 18/18/18 20/20/20 19/19/19
f 19/19/19 20/20/20 21/21/21
f 20/20/20 22/22/22 21/21/21
f 23/23/23 24/24/24 25/25/25
f 24/24/24 26/26/26 25/25/25
f 25/25/25 26/26/26 27/27/27
f 26/26/26 28/28/28 27/27/27
f 27/27/27 28/28/28 29/29/29
f 28/28/28 30/30/30 29/29/29
f 29/29/29 30/30/30 31/31/31
f 30/30/30 32/32/32 31/31/31
f 33/33/33 34/34/34 35/35/35
f 34/34/34 36/36/36 35/35/35
f 35/35/35 36/36/36 37/37/37
f 36/36/36 38/38/38 37/37/37
f 37/37/37 38/38/38 39/39/39
f 38/38/38 40/40/40 39/39/39
f 39/39/39 40/40/40 41/41/41
f 40/40/40 42/42/42 41/41/41
f 43/43/43 44/44/44 45/45/45
f 44/44/44 46/46/46 45/45/45
f 45/45/45 46/46/46 47/47/47
f 46/46/46 48/48/48 47/47/47
f 47/47/47 48/48/48 49/49/49
f 48/48/48 50/50/50 49/49/49
f 49/49/49 50/50/50 51/51/51
f 50/50/50 52/52/52 51/51/51
f 53/53/53 54/54/54 55/55/55
f 55/55/55 56/56/56 53/53/53
f 57/57/57 58/58/58 59/59/59
f 59/59/59 60/60/60 57/57/57
f 61/61/61 62/62/62 63/63/63
f 63/63/63 64/64/64 61/61/61
f 65/65/65 66/66/66 67/67/67
f 67/67/67 68/68/68 65/65/65
f 69/69/69 70/70/70 71/71/71
f 71/71/71 72/72/72 69/69/69
f 73/73/73 74/74/74 75/75/75
f 75/75/75 76/76/76 73/73/73
f 77/77/77 78/78/78 79/79/79
f 79/79/79 80/80/80 77/77/77
f 81/81/81 82/82/82 83/83/83
f 83/83/83 84/84/84 81/81/81
f 85/85/85 86/86/86 87/87/87
f 87/87/87 88/88/88 85/85/85
f 89/89/89 90/90/90 91/91/91
f 91/91/91 92/92/92 89/89/89
f 93/93/93 94/94/94 95/95/95
f 95/95/95 96/96/96 93/93/93
f 97/97/97 98/98/98 99/99/99
f 99/99/99 100/100/100 97/97/97
o polygon2
g polygon2
usemtl c14_h2_yane1
v -1.5 2.4814453125 0.25
v -1.5 2.4814453125 -1.75
v -1.5 2.3125 -1.75
v -1.5 2.3125 0.25
v -0.75 2.4814453125 1
v -1.5 2.4814453125 0.25
v -1.5 2.3125 0.25
v -0.75 2.3125 1
v 1.75 2.4814453125 1
v -0.75 2.4814453125 1
v -0.75 2.3125 1
v 1.75 2.3125 1
v 2.5 2.4814453125 0.25
v 1.75 2.4814453125 1
v 1.75 2.3125 1
v 2.5 2.3125 0.25
v 2.5 2.4814453125 -1.75
v 2.5 2.4814453125 0.25
v 2.5 2.3125 0.25
v 2.5 2.3125 -1.75
v -0.75 2.4814453125 -2.5
v -1.5 2.4814453125 -1.75
v 0.5 5.25 -0.75
v 1.75 2.4814453125 -2.5
v -0.75 2.4814453125 -2.5
v 0.5 5.25 -0.75
v -0.75 2.4814453125 1
v 1.75 2.4814453125 1
v 0.5 5.25 -0.75
v 1.75 2.4814453125 1
v 2.5 2.4814453125 0.25
v 0.5 5.25 -0.75
v 2.5 2.4814453125 -1.75
v 1.75 2.4814453125 -2.5
v 0.5 5.25 -0.75
v 2.5 2.4814453125 0.25
v 2.5 2.4814453125 -1.75
v 0.5 5.25 -0.75
v -1.5 2.4814453125 0.25
v -0.75 2.4814453125 1
v 0.5 5.25 -0.75
v -1.5 2.4814453125 -1.75
v -1.5 2.4814453125 0.25
v 0.5 5.25 -0.75
vt 2.20703125 -1.8798828125
vt 2.921875 -1.8798828125
vt 2.921875 -1.9951171875
vt 2.20703125 -1.9951171875
vt 4.9287109375 -0.8779296875
vt 4.078125 -0.8779296875
vt 4.078125 -0.9931640625
vt 4.9287109375 -0.9931640625
vt 0.0546875 -1.8828125
vt -0.9072265625 -1.8828125
vt -0.9072265625 -1.998046875
vt 0.0546875 -1.998046875
vt 4.92578125 -0.876953125
vt 4.072265625 -0.876953125
vt 4.072265625 -0.9931640625
vt 4.92578125 -0.9931640625
vt 2.921875 -1.8798828125
vt 2.20703125 -1.8798828125
vt 2.20703125 -1.9951171875
vt 2.921875 -1.9951171875
vt -1 -0.875
vt -0.125 0
vt -1 0
vt -1 -0.875
vt -0.125 0
vt -1 0
vt -1 -0.875
vt -0.125 0
vt -1 0
vt -1 -0.875
vt -0.125 0
vt -1 0
vt -1 -0.875
vt -0.125 0
vt -1 0
vt -1 -0.875
vt -0.125 0
vt -1 0
vt -1 -0.875
vt -0.125 0
vt -1 0
vt -1 -0.875
vt -0.125 0
vt -1 0
vn -0.80859375 0.486328125 0.33203125
vn -0.80859375 0.486328125 -0.33203125
vn -1 0 0
vn -1 0 0
vn -0.33203125 0.46484375 0.822265625
vn -0.80859375 0.486328125 0.33203125
vn -0.70703125 0 0.70703125
vn -0.70703125 0 0.70703125
vn 0.33203125 0.46484375 0.822265625
vn -0.33203125 0.46484375 0.822265625
vn 0 0 0.998046875
vn 0 0 0.998046875
vn 0.80859375 0.486328125 0.33203125
vn 0.33203125 0.46484375 0.822265625
vn 0.70703125 0 0.70703125
vn 0.70703125 0 0.70703125
vn 0.80859375 0.486328125 -0.33203125
vn 0.80859375 0.486328125 0.33203125
vn 0.998046875 0 0
vn 0.998046875 0 0
vn -0.33203125 0.46484375 -0.822265625
vn -0.80859375 0.486328125 -0.33203125
vn -0.560546875 0.607421875 -0.560546875
vn 0.33203125 0.46484375 -0.822265625
vn -0.33203125 0.46484375 -0.822265625
vn 0 0.53515625 -0.845703125
vn -0.33203125 0.46484375 0.822265625
vn 0.33203125 0.46484375 0.822265625
vn 0 0.53515625 0.845703125
vn 0.33203125 0.46484375 0.822265625
vn 0.80859375 0.486328125 0.33203125
vn 0.560546875 0.607421875 0.560546875
vn 0.80859375 0.486328125 -0.33203125
vn 0.33203125 0.46484375 -0.822265625
vn 0.560546875 0.607421875 -0.560546875
vn 0.80859375 0.486328125 0.33203125
vn 0.80859375 0.486328125 -0.33203125
vn 0.810546875 0.5859375 0
vn -0.80859375 0.486328125 0.33203125
vn -0.33203125 0.46484375 0.822265625
vn -0.560546875 0.607421875 0.560546875
vn -0.80859375 0.486328125 -0.33203125
vn -0.80859375 0.486328125 0.33203125
vn -0.810546875 0.5859375 0
f 101/101/101 102/102/102 103/103/103
f 103/103/103 104/104/104 101/101/101
f 105/105/105 106/106/106 107/107/107
f 107/107/107 108/108/108 105/105/105
f 109/109/109 110/110/110 111/111/111
f 111/111/111 112/112/112 109/109/109
f 113/113/113 114/114/114 115/115/115
f 115/115/115 116/116/116 113/113/113
f 117/117/117 118/118/118 119/119/119
f 119/119/119 120/120/120 117/117/117
f 121/121/121 122/122/122 123/123/123
f 124/124/124 125/125/125 126/126/126
f 127/127/127 128/128/128 129/129/129
f 130/130/130 131/131/131 132/132/132
f 133/133/133 134/134/134 135/135/135
f 136/136/136 137/137/137 138/138/138
f 139/139/139 140/140/140 141/141/141
f 142/142/142 143/143/143 144/144/144
