# Created with Spiky's DS Map Editor 1.8.1.0
mtllib 436.mtl
o polygon0
g polygon0
usemtl c15_whouse_3
v 4.43115234375 2.72265625 -2.34765625
v 3.19384765625 2.72265625 -2.34765625
v 3.19384765625 1.52734375 -2.02734375
v 4.43115234375 1.52734375 -2.02734375
v 4.43115234375 2.72265625 1.40234375
v 3.19384765625 2.72265625 1.40234375
v 3.19384765625 1.52734375 1.72265625
v 4.43115234375 1.52734375 1.72265625
vt 0.5 0
vt 0 0
vt 0 -1
vt 0.5 -1
vt 0.5 0
vt 0 0
vt 0 -1
vt 0.5 -1
vn NaN 0 0
vn NaN 0 0
vn NaN 0 0
vn NaN 0 0
vn NaN 0 0
vn NaN 0 0
vn NaN 0 0
vn NaN 0 0
f 1/1/1 2/2/2 3/3/3
f 3/3/3 4/4/4 1/1/1
f 5/5/5 6/6/6 7/7/7
f 7/7/7 8/8/8 5/5/5
o polygon1
g polygon1
usemtl c15_whouse_1
v 3.6875 0.125 -2.625
v 3.6875 2.53125 -2.625
v 3.6875 0.125 -0.59375
v 3.6875 2.53125 -0.59375
v 3.6875 0.125 1.4375
v 3.6875 2.53125 1.4375
v 3.6875 2.53125 1.4375
v 1 3.5 1.4375
v 3.6875 0.125 1.4375
v 0.5 3.5 1.4375
v 0.5 0.125 1.4375
v 0 3.5 1.4375
v -2.6875 0.125 1.4375
v -2.6875 2.53125 1.4375
v 3.9375 1.875 -2.375
v 3.9375 2.3125 -2.375
v 3.6875 2.3125 -2.375
v 3.6875 1.875 -2.375
v 3.9375 1.875 -2.375
v 3.9375 1.875 -2.5625
v 3.9375 2.3125 -2.5625
v 3.9375 2.3125 -2.375
v 3.6875 2.3125 -2.375
v 3.9375 2.3125 -2.375
v 3.9375 2.3125 -2.5625
v 3.6875 2.3125 -2.5625
v 3.9375 1.875 1.375
v 3.9375 2.3125 1.375
v 3.6875 2.3125 1.375
v 3.6875 1.875 1.375
v 3.9375 1.875 1.375
v 3.9375 1.875 1.1875
v 3.9375 2.3125 1.1875
v 3.9375 2.3125 1.375
v 3.6875 2.3125 1.375
v 3.9375 2.3125 1.375
v 3.9375 2.3125 1.1875
v 3.6875 2.3125 1.1875
v 2.25 2.875 1.5625
v 0.5 2.875 1.5625
v 0.5 2.375 1.5625
v 2.25 2.375 1.5625
v 0.5 2.875 1.5625
v -1.25 2.875 1.5625
v -1.25 2.375 1.5625
v 0.5 2.375 1.5625
v 2.3125 2.125 1.75
v 2.3125 2.1875 1.4375
v -1.3125 2.1875 1.4375
v -1.3125 2.125 1.75
v 2.3125 2 1.4375
v 2.3125 2.1875 1.4375
v 2.3125 2.125 1.75
v 2.3125 2 1.75
v 2.3125 2.125 1.75
v -1.3125 2.125 1.75
v -1.3125 2 1.75
v 2.3125 2 1.75
vt 0.4111328125 -1.99609375
vt 0.4111328125 -1.29296875
vt 0.7158203125 -1.99609375
vt 0.7158203125 -1.29296875
vt 0.4111328125 -1.99609375
vt 0.4111328125 -1.29296875
vt 0.4951171875 -1.29296875
vt 0.0849609375 -1.0078125
vt 0.4951171875 -1.99609375
vt 0.0078125 -1.0078125
vt 0.0078125 -1.99609375
vt 0.0849609375 -1.0078125
vt 0.4951171875 -1.99609375
vt 0.4951171875 -1.29296875
vt 0.7568359375 -1.2421875
vt 0.7568359375 -1.0078125
vt 0.6904296875 -1.0078125
vt 0.6904296875 -1.2421875
vt 0.7568359375 -1.2421875
vt 0.8037109375 -1.2421875
vt 0.8037109375 -1.0078125
vt 0.7568359375 -1.0078125
vt 0.6162109375 -1.09375
vt 0.681640625 -1.09375
vt 0.681640625 -1.0078125
vt 0.6162109375 -1.0078125
vt 0.755859375 -1.23828125
vt 0.755859375 -1.00390625
vt 0.689453125 -1.00390625
vt 0.689453125 -1.23828125
vt 0.755859375 -1.23828125
vt 0.8017578125 -1.23828125
vt 0.8017578125 -1.00390625
vt 0.755859375 -1.00390625
vt 0.6123046875 -1.08984375
vt 0.677734375 -1.08984375
vt 0.677734375 -1.00390625
vt 0.6123046875 -1.00390625
vt 0.908203125 -1.22265625
vt 0.908203125 -1.89453125
vt 0.9990234375 -1.89453125
vt 0.9990234375 -1.22265625
vt 0.908203125 -1.32421875
vt 0.908203125 -1.99609375
vt 0.9990234375 -1.99609375
vt 0.9990234375 -1.32421875
vt 0.873046875 -1.8984375
vt 0.8154296875 -1.8984375
vt 0.8154296875 -1.0078125
vt 0.873046875 -1.0078125
vt 0.8154296875 -1.99609375
vt 0.8154296875 -1.921875
vt 0.873046875 -1.94140625
vt 0.873046875 -1.99609375
vt 0.8759765625 -1.8984375
vt 0.8759765625 -1.0078125
vt 0.90234375 -1.0078125
vt 0.90234375 -1.8984375
vn 0.998046875 0 0
vn 0.998046875 0 0
vn 0.998046875 0 0
vn 0.998046875 0 0
vn 0.998046875 0 0
vn 0.998046875 0 0
vn 0 0 0.998046875
vn 0 0 0.998046875
vn 0 0 0.998046875
vn 0 0 0.998046875
vn 0 0 0.998046875
vn 0 0 0.998046875
vn 0 0 0.998046875
vn 0 0 0.998046875
vn 0 0 0.998046875
vn 0 0 0.998046875
vn 0 0 0.998046875
vn 0 0 0.998046875
vn 0.998046875 0 0
vn 0.998046875 0 0
vn 0.998046875 0 0
vn 0.998046875 0 0
vn 0 0.998046875 0
vn 0 0.998046875 0
vn 0 0.998046875 0
vn 0 0.998046875 0
vn 0 0 0.998046875
vn 0 0 0.998046875
vn 0 0 0.998046875
vn 0 0 0.998046875
vn 0.998046875 0 0
vn 0.998046875 0 0
vn 0.998046875 0 0
vn 0.998046875 0 0
vn 0 0.998046875 0
vn 0 0.998046875 0
vn 0 0.998046875 0
vn 0 0.998046875 0
vn 0 0 0.998046875
vn 0 0 0.998046875
vn 0 0 0.998046875
vn 0 0 0.998046875
vn 0 0 0.998046875
vn 0 0 0.998046875
vn 0 0 0.998046875
vn 0 0 0.998046875
vn 0 0.98046875 0.1953125
vn 0 0.98046875 0.1953125
vn 0 0.98046875 0.1953125
vn 0 0.98046875 0.1953125
vn 0.998046875 0 0
vn 0.998046875 0 0
vn 0.998046875 0 0
vn 0.998046875 0 0
vn 0 0 0.998046875
vn 0 0 0.998046875
vn 0 0 0.998046875
vn 0 0 0.998046875
f 9/9/9 10/10/10 11/11/11
f 10/10/10 12/12/12 11/11/11
f 11/11/11 12/12/12 13/13/13
f 12/12/12 14/14/14 13/13/13
f 15/15/15 16/16/16 17/17/17
f 16/16/16 18/18/18 17/17/17
f 17/17/17 18/18/18 19/19/19
f 18/18/18 20/20/20 19/19/19
f 19/19/19 20/20/20 21/21/21
f 20/20/20 22/22/22 21/21/21
f 23/23/23 24/24/24 25/25/25
f 25/25/25 26/26/26 23/23/23
f 27/27/27 28/28/28 29/29/29
f 29/29/29 30/30/30 27/27/27
f 31/31/31 32/32/32 33/33/33
f 33/33/33 34/34/34 31/31/31
f 35/35/35 36/36/36 37/37/37
f 37/37/37 38/38/38 35/35/35
f 39/39/39 40/40/40 41/41/41
f 41/41/41 42/42/42 39/39/39
f 43/43/43 44/44/44 45/45/45
f 45/45/45 46/46/46 43/43/43
f 47/47/47 48/48/48 49/49/49
f 49/49/49 50/50/50 47/47/47
f 51/51/51 52/52/52 53/53/53
f 53/53/53 54/54/54 51/51/51
f 55/55/55 56/56/56 57/57/57
f 57/57/57 58/58/58 55/55/55
f 59/59/59 60/60/60 61/61/61
f 61/61/61 62/62/62 59/59/59
f 63/63/63 64/64/64 65/65/65
f 65/65/65 66/66/66 63/63/63
o polygon2
g polygon2
usemtl c15_whouse_2
v 3.8125 2.46875 1.6875
v 3.8125 2.71875 1.6875
v 1 3.5 1.6875
v 1 3.75 1.6875
v 0 3.5 1.6875
v 0 3.75 1.6875
v 3.8125 2.46875 1.6875
v 3.8125 2.46875 -2.75
v 3.8125 2.71875 -2.75
v 3.8125 2.71875 1.6875
v -2.8125 2.46875 1.6875
v 0 3.5 1.6875
v 0 3.75 1.6875
v -2.8125 2.71875 1.6875
v 1 3.75 -2.75
v 1 3.75 1.6875
v 3.8125 2.71875 1.6875
v 3.8125 2.71875 -2.75
v 0 3.75 -2.75
v 0 3.75 1.6875
v 1 3.75 1.6875
v 1 3.75 -2.75
v -2.8125 2.71875 -2.75
v -2.8125 2.71875 1.6875
v 0 3.75 1.6875
v 0 3.75 -2.75
vt 0.890625 -1.99609375
vt 0.890625 -1.9375
vt 0.2001953125 -1.99609375
vt 0.2001953125 -1.9375
vt 0.0029296875 -1.99609375
vt 0.0029296875 -1.9375
vt 0.919921875 -1.92578125
vt 0.919921875 -1.00390625
vt 0.890625 -1.00390625
vt 0.890625 -1.92578125
vt 0.890625 -1.99609375
vt 0.2001953125 -1.99609375
vt 0.2001953125 -1.9375
vt 0.890625 -1.9375
vt 0.2001953125 -1.00390625
vt 0.2001953125 -1.92578125
vt 0.890625 -1.92578125
vt 0.890625 -1.00390625
vt 0.0029296875 -1.00390625
vt 0.0029296875 -1.92578125
vt 0.2001953125 -1.92578125
vt 0.2001953125 -1.00390625
vt 0.890625 -1.00390625
vt 0.890625 -1.92578125
vt 0.2001953125 -1.92578125
vt 0.2001953125 -1.00390625
vn 0 0 0.998046875
vn 0 0 0.998046875
vn 0 0 0.998046875
vn 0 0 0.998046875
vn 0 0 0.998046875
vn 0 0 0.998046875
vn 0.998046875 0 0
vn 0.998046875 0 0
vn 0.998046875 0 0
vn 0.998046875 0 0
vn 0 0 0.998046875
vn 0 0 0.998046875
vn 0 0 0.998046875
vn 0 0 0.998046875
vn 0.34375 0.939453125 0
vn 0.34375 0.939453125 0
vn 0.34375 0.939453125 0
vn 0.34375 0.939453125 0
vn 0 0.998046875 0
vn 0 0.998046875 0
vn 0 0.998046875 0
vn 0 0.998046875 0
vn -0.34375 0.939453125 0
vn -0.34375 0.939453125 0
vn -0.34375 0.939453125 0
vn -0.34375 0.939453125 0
f 67/67/67 68/68/68 69/69/69
f 68/68/68 70/70/70 69/69/69
f 69/69/69 70/70/70 71/71/71
f 70/70/70 72/72/72 71/71/71
f 73/73/73 74/74/74 75/75/75
f 75/75/75 76/76/76 73/73/73
f 77/77/77 78/78/78 79/79/79
f 79/79/79 80/80/80 77/77/77
f 81/81/81 82/82/82 83/83/83
f 83/83/83 84/84/84 81/81/81
f 85/85/85 86/86/86 87/87/87
f 87/87/87 88/88/88 85/85/85
f 89/89/89 90/90/90 91/91/91
f 91/91/91 92/92/92 89/89/89
o polygon3
g polygon3
usemtl h_kage
v 3.6875 2.03125 1.46875
v 3.6875 2.53125 1.46875
v 3.4375 2.122802734375 1.6875
v 3.4375 2.622802734375 1.6875
v 1 3 1.6875
v 1 3.5 1.6875
v 0 3 1.6875
v 0 3.5 1.6875
v -2.4375 2.122802734375 1.6875
v -2.4375 2.622802734375 1.6875
v -2.6875 2.03125 1.46875
v -2.6875 2.53125 1.46875
v 3.8125 1.96875 -2.5
v 3.8125 2.46875 -2.5
v 3.8125 1.96875 1.1875
v 3.8125 2.46875 1.1875
v 3.6875 2.03125 1.46875
v 3.6875 2.53125 1.46875
v 4 0.125 -2.875
v 0.5 0.125 -0.59375
v 4 0.125 1.6875
v 4 0.125 1.6875
v 0.5 0.125 -0.59375
v -3 0.125 1.6875
v 0.5 0.125 -0.59375
v -3 0.125 -2.875
v -3 0.125 1.6875
v 4 0.125 -2.875
v -3 0.125 -2.875
v 0.5 0.125 -0.59375
vt 0.515625 -0.1015625
vt 0.515625 -0.34375
vt 0.484375 -0.1015625
vt 0.484375 -0.34375
vt 0.1015625 -0.1015625
vt 0.1015625 -0.34375
vt -0.109375 -0.1015625
vt -0.109375 -0.34375
vt -0.484375 -0.1015625
vt -0.484375 -0.34375
vt -0.5234375 -0.1015625
vt -0.5234375 -0.34375
vt 0.9921875 -0.1015625
vt 0.9921875 -0.34375
vt 0.546875 -0.1015625
vt 0.546875 -0.34375
vt 0.515625 -0.1015625
vt 0.515625 -0.34375
vt -0.625 -0.2109375
vt -0.28125 -0.8984375
vt 0.0625 -0.2109375
vt 0.8515625 -0.2109375
vt 0.5078125 -0.8984375
vt 0.1640625 -0.2109375
vt -0.28125 -0.8984375
vt -0.625 -0.2109375
vt 0.0625 -0.2109375
vt 0.8515625 -0.2109375
vt 0.1640625 -0.2109375
vt 0.5078125 -0.8984375
vn 0.658203125 0 0.751953125
vn 0.658203125 0 0.751953125
vn 0.3515625 0 0.935546875
vn 0.3515625 0 0.935546875
vn 0 0 0.998046875
vn 0 0 0.998046875
vn 0 0 0.998046875
vn 0 0 0.998046875
vn -0.3515625 0 0.935546875
vn -0.3515625 0 0.935546875
vn -0.658203125 0 0.751953125
vn -0.658203125 0 0.751953125
vn 0.998046875 0 0
vn 0.998046875 0 0
vn 0.978515625 0 0.20703125
vn 0.978515625 0 0.20703125
vn 0.9140625 0 0.40625
vn 0.9140625 0 0.40625
vn 0 0.998046875 0
vn 0 0.998046875 0
vn 0 0.998046875 0
vn 0 0.998046875 0
vn 0 0.998046875 0
vn 0 0.998046875 0
vn 0 0.998046875 0
vn 0 0.998046875 0
vn 0 0.998046875 0
vn 0 0.998046875 0
vn 0 0.998046875 0
vn 0 0.998046875 0
f 93/93/93 94/94/94 95/95/95
f 94/94/94 96/96/96 95/95/95
f 95/95/95 96/96/96 97/97/97
f 96/96/96 98/98/98 97/97/97
f 97/97/97 98/98/98 99/99/99
f 98/98/98 100/100/100 99/99/99
f 99/99/99 100/100/100 101/101/101
f 100/100/100 102/102/102 101/101/101
f 101/101/101 102/102/102 103/103/103
f 102/102/102 104/104/104 103/103/103
f 105/105/105 106/106/106 107/107/107
f 106/106/106 108/108/108 107/107/107
f 107/107/107 108/108/108 109/109/109
f 108/108/108 110/110/110 109/109/109
f 111/111/111 112/112/112 113/113/113
f 114/114/114 115/115/115 116/116/116
f 117/117/117 118/118/118 119/119/119
f 120/120/120 121/121/121 122/122/122
