# Created with Spiky's DS Map Editor 1.8.1.0
mtllib 437.mtl
o polygon0
g polygon0
usemtl c15_trailr_2
v -2.056396484375 4.635986328125 2.70654296875
v -0.7958984375 4.635986328125 2.70654296875
v -0.7958984375 5.68603515625 2.24462890625
v -2.056396484375 5.68603515625 2.24462890625
v 0.255615234375 4.64013671875 2.705078125
v 1.517333984375 4.64013671875 2.705078125
v 1.517333984375 5.68212890625 2.24609375
v 0.255615234375 5.68212890625 2.24609375
vt 0.01171875 -0.390625
vt 0.396484375 -0.390625
vt 0.396484375 -0.013671875
vt 0.01171875 -0.013671875
vt 0.01171875 -0.390625
vt 0.396484375 -0.390625
vt 0.396484375 -0.013671875
vt 0.01171875 -0.013671875
vn 0 0.40234375 0.916015625
vn 0 0.40234375 0.916015625
vn 0 0.40234375 0.916015625
vn 0 0.40234375 0.916015625
vn 0 0.40234375 0.916015625
vn 0 0.40234375 0.916015625
vn 0 0.40234375 0.916015625
vn 0 0.40234375 0.916015625
f 1/1/1 2/2/2 3/3/3
f 3/3/3 4/4/4 1/1/1
f 5/5/5 6/6/6 7/7/7
f 7/7/7 8/8/8 5/5/5
o polygon1
g polygon1
usemtl c15_trailr_1
v -5.375 5.66162109375 -2.005126953125
v -5.375 5.66162109375 2.005126953125
v -2.75 5.66162109375 -2.005126953125
v -2.75 5.66162109375 2.005126953125
v -0.375 5.66162109375 -2.005126953125
v -0.375 5.66162109375 2.005126953125
v 2 5.66162109375 -2.005126953125
v 2 5.66162109375 2.005126953125
v 4.625 5.66162109375 -2.005126953125
v 4.625 5.66162109375 2.005126953125
v 1.875 0.5 3.75
v 1.875 1.125 2.75
v -0.375 0.5 3.75
v -0.375 1.125 2.75
v -2.5 0.5 3.75
v -2.5 1.125 2.75
v 2 4.5 2.5
v 2 5.66162109375 2.005126953125
v -0.375 4.5 2.5
v -0.375 5.66162109375 2.005126953125
v -2.75 4.5 2.5
v -2.75 5.66162109375 2.005126953125
v 4.625 0.5 2.75
v 4.625 0.5 -2.75
v 4.625 2.5 2.75
v 4.625 2.5 -2.75
v 4.625 4.5 2.5
v 4.625 4.5 -2.5
v -2.125 5.91162109375 0.567626953125
v -3.375 5.91162109375 0.567626953125
v -3.375 5.53662109375 0.567626953125
v -2.125 5.53662109375 0.567626953125
v -3.375 5.53662109375 -0.630126953125
v -3.375 5.53662109375 0.567626953125
v -3.375 5.91162109375 0.567626953125
v -3.375 5.91162109375 -0.630126953125
v 2.6875 5.53662109375 0.567626953125
v 2.6875 5.53662109375 -0.630126953125
v 2.6875 5.91162109375 -0.630126953125
v 2.6875 5.91162109375 0.567626953125
v 2.6875 5.91162109375 0.567626953125
v 1.4375 5.91162109375 0.567626953125
v 1.4375 5.53662109375 0.567626953125
v 2.6875 5.53662109375 0.567626953125
v 1.4375 5.53662109375 -0.630126953125
v 1.4375 5.53662109375 0.567626953125
v 1.4375 5.91162109375 0.567626953125
v 1.4375 5.91162109375 -0.630126953125
v -3.375 5.91162109375 0.567626953125
v -2.125 5.91162109375 0.567626953125
v -2.125 5.91162109375 -0.630126953125
v -3.375 5.91162109375 -0.630126953125
v 1.4375 5.91162109375 0.567626953125
v 2.6875 5.91162109375 0.567626953125
v 2.6875 5.91162109375 -0.630126953125
v 1.4375 5.91162109375 -0.630126953125
v -0.375 4.5 2.5
v -0.375 2.5 2.75
v 2 2.5 2.75
v 2 4.5 2.5
v -0.375 2.5 2.75
v -0.375 0.5 2.75
v 2 0.5 2.75
v 2 2.5 2.75
v -2.75 2.5 2.75
v -2.75 4.5 2.5
v -5.375 4.5 2.5
v -5.375 2.5 2.75
v -5.76416015625 2.502197265625 1.712646484375
v -5.3046875 2.502197265625 1.712646484375
v -5.3046875 3.639404296875 1.712646484375
v -5.76416015625 3.639404296875 1.712646484375
v -5.76416015625 3.639404296875 -1.674560546875
v -5.76416015625 3.639404296875 1.712646484375
v -5.3046875 3.639404296875 1.712646484375
v -5.3046875 3.639404296875 -1.674560546875
v -3.04736328125 2.5 2.375
v -3.04736328125 1.354248046875 2.375
v -2.738525390625 1.354248046875 2.375
v -2.738525390625 2.5 2.375
v -2.75 5.66162109375 2.005126953125
v -5.375 5.66162109375 2.005126953125
v -5.375 4.5 2.5
v -2.75 4.5 2.5
v -2.75 4.5 2.5
v -2.75 2.5 2.75
v -0.375 2.5 2.75
v -0.375 4.5 2.5
v -2.125 5.53662109375 0.567626953125
v -2.125 5.53662109375 -0.630126953125
v -2.125 5.91162109375 -0.630126953125
v -2.125 5.91162109375 0.567626953125
v 4.625 4.5 2.5
v 4.625 5.66162109375 2.005126953125
v 2 5.66162109375 2.005126953125
v 2 4.5 2.5
v -5.375 2.5 -2.75
v -5.375 2.5 2.75
v -5.375 4.5 2.5
v -5.375 4.5 -2.5
v -5.375 4.5 2.5
v -5.375 5.66162109375 2.005126953125
v -5.375 5.66162109375 -2.005126953125
v -5.375 4.5 -2.5
v -2.75 0.5 -2.75
v -2.75 0.5 2.75
v -2.75 2.5 2.75
v -2.75 2.5 -2.75
v 4.625 5.66162109375 2.005126953125
v 4.625 4.5 2.5
v 4.625 4.5 -2.5
v 4.625 5.66162109375 -2.005126953125
v 4.625 2.5 2.75
v 4.625 4.5 2.5
v 2 4.5 2.5
v 2 2.5 2.75
v 2 0.5 2.75
v 4.625 0.5 2.75
v 4.625 2.5 2.75
v 2 2.5 2.75
v -2.75 2.5 2.75
v -2.75 0.5 2.75
v -0.375 0.5 2.75
v -0.375 2.5 2.75
v 1.875 1.125 2.75
v 1.875 0.5 3.75
v 1.875 0.5 2.75
v -2.5 0.5 3.75
v -2.5 1.125 2.75
v -2.5 0.5 2.75
vt 0.279296875 0.154296875
vt 0.279296875 -0.154296875
vt 0.1201171875 0.154296875
vt 0.1201171875 -0.154296875
vt -0.0419921875 0.154296875
vt -0.0419921875 -0.154296875
vt 0.115234375 0.154296875
vt 0.115234375 -0.154296875
vt 0.279296875 0.154296875
vt 0.279296875 -0.154296875
vt 0.435546875 -0.08984375
vt 0.435546875 -0.01953125
vt 0.28515625 -0.08984375
vt 0.28515625 -0.01953125
vt 0.435546875 -0.08984375
vt 0.435546875 -0.01953125
vt 0.2041015625 -0.392578125
vt 0.3115234375 -0.392578125
vt 0.2041015625 -0.591796875
vt 0.3115234375 -0.591796875
vt 0.2041015625 -0.392578125
vt 0.3115234375 -0.392578125
vt -0.1865234375 -0.4970703125
vt 0.1865234375 -0.4970703125
vt -0.1865234375 -0.34375
vt 0.1865234375 -0.34375
vt -0.1865234375 -0.203125
vt 0.1865234375 -0.203125
vt 0.4384765625 -0.0654296875
vt 0.560546875 -0.0654296875
vt 0.560546875 -0.0908203125
vt 0.4384765625 -0.0908203125
vt 0.560546875 -0.0908203125
vt 0.4384765625 -0.0908203125
vt 0.4384765625 -0.0654296875
vt 0.560546875 -0.0654296875
vt 0.560546875 -0.0908203125
vt 0.4384765625 -0.0908203125
vt 0.4384765625 -0.0654296875
vt 0.560546875 -0.0654296875
vt 0.4384765625 -0.0654296875
vt 0.560546875 -0.0654296875
vt 0.560546875 -0.0908203125
vt 0.4384765625 -0.0908203125
vt 0.560546875 -0.0908203125
vt 0.4384765625 -0.0908203125
vt 0.4384765625 -0.0654296875
vt 0.560546875 -0.0654296875
vt 0.560546875 -0.0595703125
vt 0.4384765625 -0.0595703125
vt 0.4384765625 0.060546875
vt 0.560546875 0.060546875
vt 0.560546875 -0.0595703125
vt 0.4384765625 -0.0595703125
vt 0.4384765625 0.060546875
vt 0.560546875 0.060546875
vt -0.123046875 -0.203125
vt -0.123046875 -0.34375
vt 0.107421875 -0.34375
vt 0.107421875 -0.203125
vt -0.123046875 -0.34375
vt -0.123046875 -0.4970703125
vt 0.107421875 -0.4970703125
vt 0.107421875 -0.34375
vt 0.5751953125 -0.34375
vt 0.5751953125 -0.203125
vt 0.361328125 -0.203125
vt 0.361328125 -0.34375
vt 0.4072265625 -0.00390625
vt 0.4072265625 -0.0205078125
vt 0.333984375 -0.0205078125
vt 0.333984375 -0.00390625
vt 0.3134765625 -0.01953125
vt 0.4169921875 -0.01953125
vt 0.4169921875 -0.060546875
vt 0.3134765625 -0.060546875
vt 0.333984375 -0.0205078125
vt 0.4072265625 -0.0205078125
vt 0.4072265625 -0.00390625
vt 0.333984375 -0.00390625
vt 0.5751953125 -0.095703125
vt 0.361328125 -0.095703125
vt 0.361328125 -0.203125
vt 0.5751953125 -0.203125
vt -0.123046875 -0.203125
vt -0.123046875 -0.34375
vt 0.107421875 -0.34375
vt 0.107421875 -0.203125
vt 0.560546875 -0.0908203125
vt 0.4384765625 -0.0908203125
vt 0.4384765625 -0.0654296875
vt 0.560546875 -0.0654296875
vt 0.361328125 -0.203125
vt 0.361328125 -0.095703125
vt 0.5751953125 -0.095703125
vt 0.5751953125 -0.203125
vt -0.1865234375 -0.34375
vt 0.1865234375 -0.34375
vt 0.1865234375 -0.203125
vt -0.1865234375 -0.203125
vt 0.2041015625 -0.685546875
vt 0.3115234375 -0.685546875
vt 0.3115234375 -0.3154296875
vt 0.2041015625 -0.3154296875
vt -0.1865234375 -0.4970703125
vt 0.1865234375 -0.4970703125
vt 0.1865234375 -0.34375
vt -0.1865234375 -0.34375
vt 0.3115234375 -0.3154296875
vt 0.2041015625 -0.3154296875
vt 0.2041015625 -0.685546875
vt 0.3115234375 -0.685546875
vt 0.361328125 -0.34375
vt 0.361328125 -0.203125
vt 0.5751953125 -0.203125
vt 0.5751953125 -0.34375
vt 0.5751953125 -0.4970703125
vt 0.361328125 -0.4970703125
vt 0.361328125 -0.34375
vt 0.5751953125 -0.34375
vt -0.123046875 -0.34375
vt -0.123046875 -0.4970703125
vt 0.107421875 -0.4970703125
vt 0.107421875 -0.34375
vt 0.28515625 -0.029296875
vt 0.318359375 -0.029296875
vt 0.28515625 -0.0009765625
vt 0.318359375 -0.029296875
vt 0.28515625 -0.029296875
vt 0.28515625 -0.0009765625
vn 0 0.998046875 0
vn 0 0.998046875 0
vn 0 0.998046875 0
vn 0 0.998046875 0
vn 0 0.998046875 0
vn 0 0.998046875 0
vn 0 0.998046875 0
vn 0 0.998046875 0
vn 0 0.998046875 0
vn 0 0.998046875 0
vn 0 0.84765625 0.529296875
vn 0 0.84765625 0.529296875
vn 0 0.84765625 0.529296875
vn 0 0.84765625 0.529296875
vn 0 0.84765625 0.529296875
vn 0 0.84765625 0.529296875
vn 0 0.40234375 0.916015625
vn 0 0.40234375 0.916015625
vn 0 0.40234375 0.916015625
vn 0 0.40234375 0.916015625
vn 0 0.40234375 0.916015625
vn 0 0.40234375 0.916015625
vn 0.998046875 0 0
vn 0.998046875 0 0
vn 0.998046875 0 0
vn 0.998046875 0 0
vn 0.998046875 0 0
vn 0.998046875 0 0
vn 0 0 0.998046875
vn 0 0 0.998046875
vn 0 0 0.998046875
vn 0 0 0.998046875
vn -1 0 0
vn -1 0 0
vn -1 0 0
vn -1 0 0
vn 0.998046875 0 0
vn 0.998046875 0 0
vn 0.998046875 0 0
vn 0.998046875 0 0
vn 0 0 0.998046875
vn 0 0 0.998046875
vn 0 0 0.998046875
vn 0 0 0.998046875
vn -1 0 0
vn -1 0 0
vn -1 0 0
vn -1 0 0
vn 0 0.998046875 0
vn 0 0.998046875 0
vn 0 0.998046875 0
vn 0 0.998046875 0
vn 0 0.998046875 0
vn 0 0.998046875 0
vn 0 0.998046875 0
vn 0 0.998046875 0
vn 0 0.125 0.9921875
vn 0 0.125 0.9921875
vn 0 0.125 0.9921875
vn 0 0.125 0.9921875
vn 0 0 0.998046875
vn 0 0 0.998046875
vn 0 0 0.998046875
vn 0 0 0.998046875
vn 0 0.125 0.9921875
vn 0 0.125 0.9921875
vn 0 0.125 0.9921875
vn 0 0.125 0.9921875
vn 0 0 0.998046875
vn 0 0 0.998046875
vn 0 0 0.998046875
vn 0 0 0.998046875
vn 0 0.998046875 0
vn 0 0.998046875 0
vn 0 0.998046875 0
vn 0 0.998046875 0
vn 0 0 0.998046875
vn 0 0 0.998046875
vn 0 0 0.998046875
vn 0 0 0.998046875
vn 0 0.40234375 0.916015625
vn 0 0.40234375 0.916015625
vn 0 0.40234375 0.916015625
vn 0 0.40234375 0.916015625
vn 0 0.125 0.9921875
vn 0 0.125 0.9921875
vn 0 0.125 0.9921875
vn 0 0.125 0.9921875
vn 0.998046875 0 0
vn 0.998046875 0 0
vn 0.998046875 0 0
vn 0.998046875 0 0
vn 0 0.40234375 0.916015625
vn 0 0.40234375 0.916015625
vn 0 0.40234375 0.916015625
vn 0 0.40234375 0.916015625
vn -1 0 0
vn -1 0 0
vn -1 0 0
vn -1 0 0
vn -1 0 0
vn -1 0 0
vn -1 0 0
vn -1 0 0
vn -1 0 0
vn -1 0 0
vn -1 0 0
vn -1 0 0
vn 0.998046875 0 0
vn 0.998046875 0 0
vn 0.998046875 0 0
vn 0.998046875 0 0
vn 0 0.125 0.9921875
vn 0 0.125 0.9921875
vn 0 0.125 0.9921875
vn 0 0.125 0.9921875
vn 0 0 0.998046875
vn 0 0 0.998046875
vn 0 0 0.998046875
vn 0 0 0.998046875
vn 0 0 0.998046875
vn 0 0 0.998046875
vn 0 0 0.998046875
vn 0 0 0.998046875
vn 0.998046875 0 0
vn 0.998046875 0 0
vn 0.998046875 0 0
vn -1 0 0
vn -1 0 0
vn -1 0 0
f 9/9/9 10/10/10 11/11/11
f 10/10/10 12/12/12 11/11/11
f 11/11/11 12/12/12 13/13/13
f 12/12/12 14/14/14 13/13/13
f 13/13/13 14/14/14 15/15/15
f 14/14/14 16/16/16 15/15/15
f 15/15/15 16/16/16 17/17/17
f 16/16/16 18/18/18 17/17/17
f 19/19/19 20/20/20 21/21/21
f 20/20/20 22/22/22 21/21/21
f 21/21/21 22/22/22 23/23/23
f 22/22/22 24/24/24 23/23/23
f 25/25/25 26/26/26 27/27/27
f 26/26/26 28/28/28 27/27/27
f 27/27/27 28/28/28 29/29/29
f 28/28/28 30/30/30 29/29/29
f 31/31/31 32/32/32 33/33/33
f 32/32/32 34/34/34 33/33/33
f 33/33/33 34/34/34 35/35/35
f 34/34/34 36/36/36 35/35/35
f 37/37/37 38/38/38 39/39/39
f 39/39/39 40/40/40 37/37/37
f 41/41/41 42/42/42 43/43/43
f 43/43/43 44/44/44 41/41/41
f 45/45/45 46/46/46 47/47/47
f 47/47/47 48/48/48 45/45/45
f 49/49/49 50/50/50 51/51/51
f 51/51/51 52/52/52 49/49/49
f 53/53/53 54/54/54 55/55/55
f 55/55/55 56/56/56 53/53/53
f 57/57/57 58/58/58 59/59/59
f 59/59/59 60/60/60 57/57/57
f 61/61/61 62/62/62 63/63/63
f 63/63/63 64/64/64 61/61/61
f 65/65/65 66/66/66 67/67/67
f 67/67/67 68/68/68 65/65/65
f 69/69/69 70/70/70 71/71/71
f 71/71/71 72/72/72 69/69/69
f 73/73/73 74/74/74 75/75/75
f 75/75/75 76/76/76 73/73/73
f 77/77/77 78/78/78 79/79/79
f 79/79/79 80/80/80 77/77/77
f 81/81/81 82/82/82 83/83/83
f 83/83/83 84/84/84 81/81/81
f 85/85/85 86/86/86 87/87/87
f 87/87/87 88/88/88 85/85/85
f 89/89/89 90/90/90 91/91/91
f 91/91/91 92/92/92 89/89/89
f 93/93/93 94/94/94 95/95/95
f 95/95/95 96/96/96 93/93/93
f 97/97/97 98/98/98 99/99/99
f 99/99/99 100/100/100 97/97/97
f 101/101/101 102/102/102 103/103/103
f 103/103/103 104/104/104 101/101/101
f 105/105/105 106/106/106 107/107/107
f 107/107/107 108/108/108 105/105/105
f 109/109/109 110/110/110 111/111/111
f 111/111/111 112/112/112 109/109/109
f 113/113/113 114/114/114 115/115/115
f 115/115/115 116/116/116 113/113/113
f 117/117/117 118/118/118 119/119/119
f 119/119/119 120/120/120 117/117/117
f 121/121/121 122/122/122 123/123/123
f 123/123/123 124/124/124 121/121/121
f 125/125/125 126/126/126 127/127/127
f 127/127/127 128/128/128 125/125/125
f 129/129/129 130/130/130 131/131/131
f 131/131/131 132/132/132 129/129/129
f 133/133/133 134/134/134 135/135/135
f 136/136/136 137/137/137 138/138/138
o polygon2
g polygon2
usemtl h_kage
v 1.983154296875 0.25 0
v 5.108642578125 0.25 -3.078857421875
v -6 0.25 -3.078857421875
v -6 0.25 0
v 5.108642578125 0.25 3.078857421875
v 1.983154296875 0.25 0
v -6 0.25 0
v -6 0.25 3.078857421875
v 5.108642578125 0.25 -3.078857421875
v 1.983154296875 0.25 0
v 5.108642578125 0.25 3.078857421875
vt 0.5078125 -0.984375
vt 0.34375 -0.1640625
vt 0.1015625 -0.1640625
vt 0.1015625 -0.984375
vt 0.671875 -0.1640625
vt 0.5078125 -0.984375
vt 0.921875 -0.984375
vt 0.921875 -0.1640625
vt 0.34375 -0.1640625
vt 0.5078125 -0.984375
vt 0.671875 -0.1640625
vn 0 0.998046875 0
vn 0 0.998046875 0
vn 0 0.998046875 0
vn 0 0.998046875 0
vn 0 0.998046875 0
vn 0 0.998046875 0
vn 0 0.998046875 0
vn 0 0.998046875 0
vn 0 0.998046875 0
vn 0 0.998046875 0
vn 0 0.998046875 0
f 139/139/139 140/140/140 141/141/141
f 141/141/141 142/142/142 139/139/139
f 143/143/143 144/144/144 145/145/145
f 145/145/145 146/146/146 143/143/143
f 147/147/147 148/148/148 149/149/149
