# Created with Spiky's DS Map Editor 1.8.1.0
mtllib 131.mtl
o polygon0
g polygon0
usemtl sea_mizu1
v 2 -1.75 2
v 2 -1.75 -2
v -2 -1.75 -2
v -2 -1.75 2
v 2 -1.75 -2
v 2 -1.75 -6
v -2 -1.75 -6
v -2 -1.75 -2
vt -4 3
vt -4 -5
vt 4 -5
vt 4 3
vt -4 11
vt -4 3
vt 4 3
vt 4 11
vn 0 0.998046875 0
vn 0 0.998046875 0
vn 0 0.998046875 0
vn 0 0.998046875 0
vn 0 0.998046875 0
vn 0 0.998046875 0
vn 0 0.998046875 0
vn 0 0.998046875 0
f 1/1/1 2/2/2 3/3/3
f 3/3/3 4/4/4 1/1/1
f 5/5/5 6/6/6 7/7/7
f 7/7/7 8/8/8 5/5/5
o polygon1
g polygon1
usemtl sea_mizu1_1
v -2 -1.6484375 -2
v -2 -1.6484375 2
v 2 -1.6484375 2
v 2 -1.6484375 -2
v -2 -1.6484375 -6
v -2 -1.6484375 -2
v 2 -1.6484375 -2
v 2 -1.6484375 -6
vt -4 3
vt -4 -5
vt 4 -5
vt 4 3
vt -4 11
vt -4 3
vt 4 3
vt 4 11
vn 0 0.998046875 0
vn 0 0.998046875 0
vn 0 0.998046875 0
vn 0 0.998046875 0
vn 0 0.998046875 0
vn 0 0.998046875 0
vn 0 0.998046875 0
vn 0 0.998046875 0
f 9/9/9 10/10/10 11/11/11
f 11/11/11 12/12/12 9/9/9
f 13/13/13 14/14/14 15/15/15
f 15/15/15 16/16/16 13/13/13
