# Created with Spiky's DS Map Editor 1.8.1.0
mtllib 171.mtl
o polygon0
g polygon0
usemtl out21_2
v -4.03125 2.820556640625 -3.467529296875
v -4.03125 2.533935546875 -3.32763671875
v -3.45458984375 2.79052734375 -3.452880859375
v -3.491455078125 2.507568359375 -3.314697265625
v -2.85302734375 2.6259765625 -3.37255859375
v -2.927978515625 2.353271484375 -3.239501953125
v -2.22265625 2.35595703125 -3.240966796875
v -2.337890625 2.100830078125 -3.116455078125
v -1.643310546875 1.987548828125 -3.061279296875
v -1.795654296875 1.699462890625 -2.920654296875
v -1.087646484375 1.529541015625 -2.837890625
v -1.275390625 1.214599609375 -2.68408203125
v -0.5390625 0.993408203125 -2.576171875
v -0.76171875 0.656494140625 -2.411865234375
v -0.06201171875 0.32958984375 -2.282958984375
v -0.315185546875 -0.025146484375 -2.110107421875
v 0.375732421875 -0.378173828125 -1.93798828125
v 0.0361328125 -0.74755859375 -1.7578125
v 0.849609375 -1.51318359375 -1.38427734375
v 0.41748046875 -1.8388671875 -1.225341796875
v -0.315185546875 -0.134765625 -2.334716796875
v -0.315185546875 -0.025146484375 -2.110107421875
v -0.76171875 0.546875 -2.63671875
v -0.76171875 0.656494140625 -2.411865234375
v -1.275390625 1.10498046875 -2.908935546875
v -1.275390625 1.214599609375 -2.68408203125
v -1.795654296875 1.590087890625 -3.1455078125
v -1.795654296875 1.699462890625 -2.920654296875
v -2.337890625 1.9912109375 -3.341064453125
v -2.337890625 2.100830078125 -3.116455078125
v -2.927978515625 2.243896484375 -3.46435546875
v -2.927978515625 2.353271484375 -3.239501953125
v -3.491455078125 2.39794921875 -3.53955078125
v -3.491455078125 2.507568359375 -3.314697265625
v -4.03125 2.424560546875 -3.552490234375
v -4.03125 2.533935546875 -3.32763671875
v -4.03125 2.424560546875 -3.552490234375
v -4.03125 2.7109375 -3.692138671875
v -3.491455078125 2.39794921875 -3.53955078125
v -3.45458984375 2.680908203125 -3.677490234375
v -2.927978515625 2.243896484375 -3.46435546875
v -2.85302734375 2.516357421875 -3.59716796875
v -2.337890625 1.9912109375 -3.341064453125
v -2.22265625 2.246337890625 -3.465576171875
v -1.795654296875 1.590087890625 -3.1455078125
v -1.643310546875 1.8779296875 -3.285888671875
v -1.275390625 1.10498046875 -2.908935546875
v -1.087646484375 1.419921875 -3.0625
v -0.76171875 0.546875 -2.63671875
v -0.5390625 0.8837890625 -2.801025390625
v 1.21875 -4.38232421875 -0.262939453125
v 0.6875 -4.3828125 -0.262939453125
v 1.21875 -2.999755859375 -0.937255859375
v 0.640625 -2.999755859375 -0.937255859375
v 0.849609375 -1.622802734375 -1.60888671875
v 0.41748046875 -1.948486328125 -1.4501953125
v 0.375732421875 -0.487548828125 -2.16259765625
v 0.0361328125 -0.857177734375 -1.982421875
v -0.06201171875 0.219970703125 -2.5078125
v -0.315185546875 -0.134765625 -2.334716796875
v 0.640625 -2.999755859375 -0.937255859375
v 0.640625 -2.890380859375 -0.712646484375
v 0.41748046875 -1.948486328125 -1.4501953125
v 0.41748046875 -1.8388671875 -1.225341796875
v 0.0361328125 -0.857177734375 -1.982421875
v 0.0361328125 -0.74755859375 -1.7578125
v 1.21875 -2.890380859375 -0.712646484375
v 0.640625 -2.890380859375 -0.712646484375
v 0.6875 -4.2734375 -0.038330078125
v 1.21875 -4.272705078125 -0.038330078125
v 0.640625 -2.890380859375 -0.712646484375
v 0.640625 -2.999755859375 -0.937255859375
v 0.6875 -4.3828125 -0.262939453125
v 0.6875 -4.2734375 -0.038330078125
v 0.0361328125 -0.857177734375 -1.982421875
v 0.0361328125 -0.74755859375 -1.7578125
v -0.315185546875 -0.025146484375 -2.110107421875
v -0.315185546875 -0.134765625 -2.334716796875
v 1.21875 -2.890380859375 -0.712646484375
v 0.849609375 -1.51318359375 -1.38427734375
v 0.41748046875 -1.8388671875 -1.225341796875
v 0.640625 -2.890380859375 -0.712646484375
v -4 0.109375 -2.5
v -4 -0.203125 -2.5
v 2.75 -0.203125 -2.5
v 2.75 0.109375 -2.5
v 2.75 -0.203125 -2.5
v -4 -0.203125 -2.5
v -4 -0.328125 -2.625
v 2.75 -0.328125 -2.625
vt 0.005859375 -0.046875
vt 0.994140625 -0.046875
vt 0.005859375 -0.046875
vt 0.994140625 -0.046875
vt 0.005859375 -0.046875
vt 0.994140625 -0.046875
vt 0.005859375 -0.046875
vt 0.994140625 -0.046875
vt 0.005859375 -0.046875
vt 0.994140625 -0.046875
vt 0.005859375 -0.046875
vt 0.994140625 -0.046875
vt 0.005859375 -0.046875
vt 0.994140625 -0.046875
vt 0.005859375 -0.046875
vt 0.994140625 -0.046875
vt 0.005859375 -0.046875
vt 0.994140625 -0.046875
vt 0.005859375 -0.046875
vt 0.994140625 -0.046875
vt 0.916015625 -0.015625
vt 0.98828125 -0.015625
vt 0.916015625 -0.015625
vt 0.98828125 -0.015625
vt 0.916015625 -0.015625
vt 0.98828125 -0.015625
vt 0.916015625 -0.015625
vt 0.98828125 -0.015625
vt 0.916015625 -0.015625
vt 0.98828125 -0.015625
vt 0.916015625 -0.015625
vt 0.98828125 -0.015625
vt 0.916015625 -0.015625
vt 0.98828125 -0.015625
vt 0.916015625 -0.015625
vt 0.98828125 -0.015625
vt 0.005859375 -0.046875
vt 0.994140625 -0.046875
vt 0.005859375 -0.046875
vt 0.994140625 -0.046875
vt 0.005859375 -0.046875
vt 0.994140625 -0.046875
vt 0.005859375 -0.046875
vt 0.994140625 -0.046875
vt 0.005859375 -0.046875
vt 0.994140625 -0.046875
vt 0.005859375 -0.046875
vt 0.994140625 -0.046875
vt 0.005859375 -0.046875
vt 0.994140625 -0.046875
vt 0.994140625 -0.046875
vt 0.005859375 -0.046875
vt 0.994140625 -0.046875
vt 0.005859375 -0.046875
vt 0.994140625 -0.046875
vt 0.005859375 -0.046875
vt 0.994140625 -0.046875
vt 0.005859375 -0.046875
vt 0.994140625 -0.046875
vt 0.005859375 -0.046875
vt 0.916015625 -0.015625
vt 0.98828125 -0.015625
vt 0.916015625 -0.015625
vt 0.98828125 -0.015625
vt 0.916015625 -0.015625
vt 0.98828125 -0.015625
vt 0.005859375 -0.046875
vt 0.994140625 -0.046875
vt 0.994140625 -0.046875
vt 0.005859375 -0.046875
vt 0.916015625 -0.015625
vt 0.916015625 -0.015625
vt 0.98828125 -0.015625
vt 0.98828125 -0.015625
vt 0.98828125 -0.015625
vt 0.916015625 -0.015625
vt 0.916015625 -0.015625
vt 0.98828125 -0.015625
vt 0.015625 -0.046875
vt 0.015625 -0.046875
vt 0.984375 -0.046875
vt 0.984375 -0.046875
vt 0.1875 -0.046875
vt 0.78125 -0.046875
vt 0.78125 -0.046875
vt 0.1875 -0.046875
vt 0.912109375 -0.015625
vt 0.912109375 -0.015625
vt 0.9609375 -0.015625
vt 0.9609375 -0.015625
vn 0 0.4375 0.8984375
vn 0 0.4375 0.8984375
vn 0 0.4375 0.8984375
vn 0 0.4375 0.8984375
vn 0 0.4375 0.8984375
vn 0 0.4375 0.8984375
vn 0 0.4375 0.8984375
vn 0 0.4375 0.8984375
vn 0 0.4375 0.8984375
vn 0 0.4375 0.8984375
vn 0 0.4375 0.8984375
vn 0 0.4375 0.8984375
vn 0 0.4375 0.8984375
vn 0 0.4375 0.8984375
vn 0 0.4375 0.8984375
vn 0 0.4375 0.8984375
vn 0 0.4375 0.8984375
vn 0 0.4375 0.8984375
vn 0 0.4375 0.8984375
vn 0 0.4375 0.8984375
vn -0.888671875 -0.412109375 0.201171875
vn -0.888671875 -0.412109375 0.201171875
vn -0.81640625 -0.51953125 0.25390625
vn -0.81640625 -0.51953125 0.25390625
vn -0.74609375 -0.599609375 0.29296875
vn -0.74609375 -0.599609375 0.29296875
vn -0.6796875 -0.66015625 0.322265625
vn -0.6796875 -0.66015625 0.322265625
vn -0.537109375 -0.7578125 0.369140625
vn -0.537109375 -0.7578125 0.369140625
vn -0.361328125 -0.837890625 0.408203125
vn -0.361328125 -0.837890625 0.408203125
vn -0.173828125 -0.884765625 0.431640625
vn -0.173828125 -0.884765625 0.431640625
vn -0.0546875 -0.896484375 0.4375
vn -0.0546875 -0.896484375 0.4375
vn 0 -0.4375 -0.8984375
vn 0 -0.4375 -0.8984375
vn 0 -0.4375 -0.8984375
vn 0 -0.4375 -0.8984375
vn 0 -0.4375 -0.8984375
vn 0 -0.4375 -0.8984375
vn 0 -0.4375 -0.8984375
vn 0 -0.4375 -0.8984375
vn 0 -0.4375 -0.8984375
vn 0 -0.4375 -0.8984375
vn 0 -0.4375 -0.8984375
vn 0 -0.4375 -0.8984375
vn 0 -0.4375 -0.8984375
vn 0 -0.4375 -0.8984375
vn 0 -0.4375 -0.8984375
vn 0 -0.4375 -0.8984375
vn 0 -0.4375 -0.8984375
vn 0 -0.4375 -0.8984375
vn 0 -0.4375 -0.8984375
vn 0 -0.4375 -0.8984375
vn 0 -0.4375 -0.8984375
vn 0 -0.4375 -0.8984375
vn 0 -0.4375 -0.8984375
vn 0 -0.4375 -0.8984375
vn -0.994140625 -0.09765625 0.048828125
vn -0.994140625 -0.09765625 0.048828125
vn -0.970703125 -0.21875 0.107421875
vn -0.970703125 -0.21875 0.107421875
vn -0.9375 -0.314453125 0.154296875
vn -0.9375 -0.314453125 0.154296875
vn 0 0.4375 0.8984375
vn 0 0.4375 0.8984375
vn 0 0.4375 0.8984375
vn 0 0.4375 0.8984375
vn -0.994140625 -0.09765625 0.048828125
vn -0.994140625 -0.09765625 0.048828125
vn -1 -0.02734375 0.013671875
vn -1 -0.02734375 0.013671875
vn -0.9375 -0.314453125 0.154296875
vn -0.9375 -0.314453125 0.154296875
vn -0.888671875 -0.412109375 0.201171875
vn -0.888671875 -0.412109375 0.201171875
vn 0 0.4375 0.8984375
vn 0 0.4375 0.8984375
vn 0 0.4375 0.8984375
vn 0 0.4375 0.8984375
vn 0 0 0.998046875
vn 0 0 0.998046875
vn 0 0 0.998046875
vn 0 0 0.998046875
vn 0 -0.70703125 0.70703125
vn 0 -0.70703125 0.70703125
vn 0 -0.70703125 0.70703125
vn 0 -0.70703125 0.70703125
f 1/1/1 2/2/2 3/3/3
f 2/2/2 4/4/4 3/3/3
f 3/3/3 4/4/4 5/5/5
f 4/4/4 6/6/6 5/5/5
f 5/5/5 6/6/6 7/7/7
f 6/6/6 8/8/8 7/7/7
f 7/7/7 8/8/8 9/9/9
f 8/8/8 10/10/10 9/9/9
f 9/9/9 10/10/10 11/11/11
f 10/10/10 12/12/12 11/11/11
f 11/11/11 12/12/12 13/13/13
f 12/12/12 14/14/14 13/13/13
f 13/13/13 14/14/14 15/15/15
f 14/14/14 16/16/16 15/15/15
f 15/15/15 16/16/16 17/17/17
f 16/16/16 18/18/18 17/17/17
f 17/17/17 18/18/18 19/19/19
f 18/18/18 20/20/20 19/19/19
f 21/21/21 22/22/22 23/23/23
f 22/22/22 24/24/24 23/23/23
f 23/23/23 24/24/24 25/25/25
f 24/24/24 26/26/26 25/25/25
f 25/25/25 26/26/26 27/27/27
f 26/26/26 28/28/28 27/27/27
f 27/27/27 28/28/28 29/29/29
f 28/28/28 30/30/30 29/29/29
f 29/29/29 30/30/30 31/31/31
f 30/30/30 32/32/32 31/31/31
f 31/31/31 32/32/32 33/33/33
f 32/32/32 34/34/34 33/33/33
f 33/33/33 34/34/34 35/35/35
f 34/34/34 36/36/36 35/35/35
f 37/37/37 38/38/38 39/39/39
f 38/38/38 40/40/40 39/39/39
f 39/39/39 40/40/40 41/41/41
f 40/40/40 42/42/42 41/41/41
f 41/41/41 42/42/42 43/43/43
f 42/42/42 44/44/44 43/43/43
f 43/43/43 44/44/44 45/45/45
f 44/44/44 46/46/46 45/45/45
f 45/45/45 46/46/46 47/47/47
f 46/46/46 48/48/48 47/47/47
f 47/47/47 48/48/48 49/49/49
f 48/48/48 50/50/50 49/49/49
f 51/51/51 52/52/52 53/53/53
f 52/52/52 54/54/54 53/53/53
f 53/53/53 54/54/54 55/55/55
f 54/54/54 56/56/56 55/55/55
f 55/55/55 56/56/56 57/57/57
f 56/56/56 58/58/58 57/57/57
f 57/57/57 58/58/58 59/59/59
f 58/58/58 60/60/60 59/59/59
f 61/61/61 62/62/62 63/63/63
f 62/62/62 64/64/64 63/63/63
f 63/63/63 64/64/64 65/65/65
f 64/64/64 66/66/66 65/65/65
f 67/67/67 68/68/68 69/69/69
f 69/69/69 70/70/70 67/67/67
f 71/71/71 72/72/72 73/73/73
f 73/73/73 74/74/74 71/71/71
f 75/75/75 76/76/76 77/77/77
f 77/77/77 78/78/78 75/75/75
f 79/79/79 80/80/80 81/81/81
f 81/81/81 82/82/82 79/79/79
f 83/83/83 84/84/84 85/85/85
f 85/85/85 86/86/86 83/83/83
f 87/87/87 88/88/88 89/89/89
f 89/89/89 90/90/90 87/87/87
o polygon1
g polygon1
usemtl out21_7
v 2.75 0.171875 -2.5625
v -4 0.171875 -2.5625
v -4 0.109375 -2.5
v 2.75 0.109375 -2.5
v 2.75 -0.203125 -2.8125
v -4 -0.203125 -2.8125
v -4 -0.140625 -2.75
v 2.75 -0.140625 -2.75
v 2.75 -0.140625 -2.75
v -4 -0.140625 -2.75
v -4 0.109375 -2.65625
v 2.75 0.109375 -2.65625
v 2.75 0.109375 -2.65625
v -4 0.109375 -2.65625
v -4 0.171875 -2.5625
v 2.75 0.171875 -2.5625
vt 0.982421875 -0.02734375
vt 0.982421875 -0.02734375
vt 0.5390625 -0.02734375
vt 0.5390625 -0.02734375
vt 1 -0.15234375
vt -22.837890625 -0.15234375
vt -22.837890625 -0.15234375
vt 1 -0.15234375
vt 0.23828125 -0.21875
vt 0.23828125 -0.21875
vt 0.009765625 -0.21875
vt 0.009765625 -0.21875
vt 0.5390625 -0.02734375
vt 0.5390625 -0.02734375
vt 0.982421875 -0.02734375
vt 0.982421875 -0.02734375
vn 0 0.70703125 0.70703125
vn 0 0.70703125 0.70703125
vn 0 0.70703125 0.70703125
vn 0 0.70703125 0.70703125
vn 0 0.70703125 -0.70703125
vn 0 0.70703125 -0.70703125
vn 0 0.541015625 -0.83984375
vn 0 0.541015625 -0.83984375
vn 0 0.541015625 -0.83984375
vn 0 0.541015625 -0.83984375
vn 0 0.3515625 -0.935546875
vn 0 0.3515625 -0.935546875
vn 0 0.83203125 -0.5546875
vn 0 0.83203125 -0.5546875
vn 0 0.83203125 -0.5546875
vn 0 0.83203125 -0.5546875
f 91/91/91 92/92/92 93/93/93
f 93/93/93 94/94/94 91/91/91
f 95/95/95 96/96/96 97/97/97
f 97/97/97 98/98/98 95/95/95
f 99/99/99 100/100/100 101/101/101
f 101/101/101 102/102/102 99/99/99
f 103/103/103 104/104/104 105/105/105
f 105/105/105 106/106/106 103/103/103
o polygon2
g polygon2
usemtl out21_kage
v -4 -3.359375 -2.5
v 4 -3.359375 -2.5
v 4 -3.359375 -3.75
v -4 -3.359375 -3.75
v 4 -3.359375 -5
v -4 -3.359375 -5
v -4 -3.359375 -3.75
v 4 -3.359375 -3.75
vt 0.9375 -0.98046875
vt 0.9375 -0.98046875
vt 0.9375 -0.03125
vt 0.9375 -0.03125
vt 0.9375 -0.98046875
vt 0.9375 -0.98046875
vt 0.9375 -0.03125
vt 0.9375 -0.03125
vn 0 0.998046875 0
vn 0 0.998046875 0
vn 0 0.998046875 0
vn 0 0.998046875 0
vn 0 0.998046875 0
vn 0 0.998046875 0
vn 0 0.998046875 0
vn 0 0.998046875 0
f 107/107/107 108/108/108 109/109/109
f 109/109/109 110/110/110 107/107/107
f 111/111/111 112/112/112 113/113/113
f 113/113/113 114/114/114 111/111/111
o polygon3
g polygon3
usemtl sea_mizu1
v 0 -3.765625 4
v 4 -3.765625 4
v 0 -3.765625 0
v 4 -3.765625 0
v 0 -3.765625 -4
v 4 -3.765625 -4
v 0 -3.765625 -4
v -4 -3.765625 -4
v 0 -3.765625 0
v -4 -3.765625 0
v 0 -3.765625 4
v -4 -3.765625 4
vt -4 -9
vt 0 -9
vt -4 -5
vt 0 -5
vt -4 -1
vt 0 -1
vt -4 -1
vt -8 -1
vt -4 -5
vt -8 -5
vt -4 -9
vt -8 -9
vn 0 0.998046875 0
vn 0 0.998046875 0
vn 0 0.998046875 0
vn 0 0.998046875 0
vn 0 0.998046875 0
vn 0 0.998046875 0
vn 0 0.998046875 0
vn 0 0.998046875 0
vn 0 0.998046875 0
vn 0 0.998046875 0
vn 0 0.998046875 0
vn 0 0.998046875 0
f 115/115/115 116/116/116 117/117/117
f 116/116/116 118/118/118 117/117/117
f 117/117/117 118/118/118 119/119/119
f 118/118/118 120/120/120 119/119/119
f 121/121/121 122/122/122 123/123/123
f 122/122/122 124/124/124 123/123/123
f 123/123/123 124/124/124 125/125/125
f 124/124/124 126/126/126 125/125/125
o polygon4
g polygon4
usemtl out21_michi_1
v -4 -0.046875 -3.5
v -4 -0.046875 -2.6875
v 2.75 -0.046875 -2.6875
v 2.75 -0.046875 -3.5
vt -11 -1
vt -11 -0.5
vt 9 -0.5
vt 9 -1
vn 0 0.998046875 0
vn 0 0.998046875 0
vn 0 0.998046875 0
vn 0 0.998046875 0
f 127/127/127 128/128/128 129/129/129
f 129/129/129 130/130/130 127/127/127
o polygon5
g polygon5
usemtl out21_9
v 2.75 -0.046875 -3.5
v 2.75 -0.046875 -3.75
v -4 -0.046875 -3.75
v -4 -0.046875 -3.5
vt 1.6953125 0
vt 1.6953125 -1
vt 9 -1
vt 9 0
vn 0 0.998046875 0
vn 0 0.998046875 0
vn 0 0.998046875 0
vn 0 0.998046875 0
f 131/131/131 132/132/132 133/133/133
f 133/133/133 134/134/134 131/131/131
o polygon6
g polygon6
usemtl out21_8
v -0.315185546875 -0.134765625 -2.334716796875
v -0.76171875 0.546875 -2.63671875
v -0.5390625 0.8837890625 -2.801025390625
v -0.06201171875 0.219970703125 -2.5078125
vt 0.0078125 -1
vt 0.0078125 0
vt 0.9921875 0
vt 0.9921875 -1
vn 0 -0.4375 -0.8984375
vn 0 -0.4375 -0.8984375
vn 0 -0.4375 -0.8984375
vn 0 -0.4375 -0.8984375
f 135/135/135 136/136/136 137/137/137
f 137/137/137 138/138/138 135/135/135
o polygon7
g polygon7
usemtl out21_1
v -4.03125 2.7109375 -3.692138671875
v -4.03125 2.820556640625 -3.467529296875
v -3.45458984375 2.680908203125 -3.677490234375
v -3.45458984375 2.79052734375 -3.452880859375
v -2.85302734375 2.516357421875 -3.59716796875
v -2.85302734375 2.6259765625 -3.37255859375
v -2.22265625 2.246337890625 -3.465576171875
v -2.22265625 2.35595703125 -3.240966796875
v -1.643310546875 1.8779296875 -3.285888671875
v -1.643310546875 1.987548828125 -3.061279296875
v -1.087646484375 1.419921875 -3.0625
v -1.087646484375 1.529541015625 -2.837890625
v 1.21875 -2.890380859375 -0.712646484375
v 1.21875 -2.999755859375 -0.937255859375
v 0.849609375 -1.51318359375 -1.38427734375
v 0.849609375 -1.622802734375 -1.60888671875
v 0.375732421875 -0.378173828125 -1.93798828125
v 0.375732421875 -0.487548828125 -2.16259765625
v -0.06201171875 0.32958984375 -2.282958984375
v -0.06201171875 0.219970703125 -2.5078125
v 1.21875 -2.999755859375 -0.937255859375
v 1.21875 -2.890380859375 -0.712646484375
v 1.21875 -4.272705078125 -0.038330078125
v 1.21875 -4.38232421875 -0.262939453125
v -0.5390625 0.8837890625 -2.801025390625
v -1.087646484375 1.419921875 -3.0625
v -1.087646484375 1.529541015625 -2.837890625
v -0.5390625 0.993408203125 -2.576171875
v -0.06201171875 0.219970703125 -2.5078125
v -0.5390625 0.8837890625 -2.801025390625
v -0.5390625 0.993408203125 -2.576171875
v -0.06201171875 0.32958984375 -2.282958984375
vt 0 -0.0546875
vt 1 -0.0546875
vt 0 -0.0546875
vt 1 -0.0546875
vt 0 -0.0546875
vt 1 -0.0546875
vt 0 -0.0546875
vt 1 -0.0546875
vt 0 -0.0546875
vt 1 -0.0546875
vt 0 -0.0546875
vt 1 -0.0546875
vt 0 -0.94921875
vt 1 -0.94921875
vt 0 -0.94921875
vt 1 -0.94921875
vt 0 -0.94921875
vt 1 -0.94921875
vt 0 -0.94921875
vt 1 -0.94921875
vt 1 0
vt 0 0
vt 0 -1
vt 1 -1
vt 0 -0.9296875
vt 0 -0.015625
vt 1 -0.015625
vt 1 -0.9296875
vt 0.9921875 -0.984375
vt 0.9921875 -0.90234375
vt 0.0078125 -0.94140625
vt 0.0078125 -0.99609375
vn 0.05859375 0.896484375 -0.4375
vn 0.05859375 0.896484375 -0.4375
vn 0.17578125 0.884765625 -0.431640625
vn 0.17578125 0.884765625 -0.431640625
vn 0.361328125 0.837890625 -0.408203125
vn 0.361328125 0.837890625 -0.408203125
vn 0.505859375 0.775390625 -0.37890625
vn 0.505859375 0.775390625 -0.37890625
vn 0.62890625 0.69921875 -0.341796875
vn 0.62890625 0.69921875 -0.341796875
vn 0.70703125 0.63671875 -0.310546875
vn 0.70703125 0.63671875 -0.310546875
vn 0.9921875 0.10546875 -0.05078125
vn 0.9921875 0.10546875 -0.05078125
vn 0.955078125 0.263671875 -0.12890625
vn 0.955078125 0.263671875 -0.12890625
vn 0.908203125 0.376953125 -0.18359375
vn 0.908203125 0.376953125 -0.18359375
vn 0.85546875 0.46484375 -0.2265625
vn 0.85546875 0.46484375 -0.2265625
vn 0.9921875 0.10546875 -0.05078125
vn 0.9921875 0.10546875 -0.05078125
vn 0.998046875 0 0
vn 0.998046875 0 0
vn 0.7890625 0.552734375 -0.26953125
vn 0.70703125 0.63671875 -0.310546875
vn 0.70703125 0.63671875 -0.310546875
vn 0.7890625 0.552734375 -0.26953125
vn 0.85546875 0.46484375 -0.2265625
vn 0.7890625 0.552734375 -0.26953125
vn 0.7890625 0.552734375 -0.26953125
vn 0.85546875 0.46484375 -0.2265625
f 139/139/139 140/140/140 141/141/141
f 140/140/140 142/142/142 141/141/141
f 141/141/141 142/142/142 143/143/143
f 142/142/142 144/144/144 143/143/143
f 143/143/143 144/144/144 145/145/145
f 144/144/144 146/146/146 145/145/145
f 145/145/145 146/146/146 147/147/147
f 146/146/146 148/148/148 147/147/147
f 147/147/147 148/148/148 149/149/149
f 148/148/148 150/150/150 149/149/149
f 151/151/151 152/152/152 153/153/153
f 152/152/152 154/154/154 153/153/153
f 153/153/153 154/154/154 155/155/155
f 154/154/154 156/156/156 155/155/155
f 155/155/155 156/156/156 157/157/157
f 156/156/156 158/158/158 157/157/157
f 159/159/159 160/160/160 161/161/161
f 161/161/161 162/162/162 159/159/159
f 163/163/163 164/164/164 165/165/165
f 165/165/165 166/166/166 163/163/163
f 167/167/167 168/168/168 169/169/169
f 169/169/169 170/170/170 167/167/167
