# Created with Spiky's DS Map Editor 1.8.1.0
mtllib 187.mtl
o polygon0
g polygon0
usemtl kawa_soko
v -0.5 -0.59375 -1
v -4.5 -0.59375 -1
v -4.5 -0.59375 1
v -0.5 -0.59375 1
v 4.5 -0.59375 -1
v 0.5 -0.59375 -1
v 0.5 -0.59375 1
v 4.5 -0.59375 1
vt -8 7
vt 20 7
vt 20 -9
vt -8 -9
vt -20 7
vt 8 7
vt 8 -9
vt -20 -9
vn 0 0.998046875 0
vn 0 0.998046875 0
vn 0 0.998046875 0
vn 0 0.998046875 0
vn 0 0.998046875 0
vn 0 0.998046875 0
vn 0 0.998046875 0
vn 0 0.998046875 0
f 1/1/1 2/2/2 3/3/3
f 3/3/3 4/4/4 1/1/1
f 5/5/5 6/6/6 7/7/7
f 7/7/7 8/8/8 5/5/5
o polygon1
g polygon1
usemtl h03_05
v 0.44091796875 -0.0390625 1
v 0.44091796875 -0.0390625 -0.787841796875
v 0 -0.0390625 1
v 0 -0.0390625 -0.787841796875
v -0.44091796875 -0.0390625 1
v -0.44091796875 -0.0390625 -0.787841796875
vt 9.24609375 -3.1171875
vt -8.73828125 14.87109375
vt 5.828125 -6.53125
vt -12.15625 11.453125
vt 2.4140625 -9.94921875
vt -15.57421875 8.03515625
vn 0 0.998046875 0
vn 0 0.998046875 0
vn 0 0.998046875 0
vn 0 0.998046875 0
vn 0 0.998046875 0
vn 0 0.998046875 0
f 9/9/9 10/10/10 11/11/11
f 10/10/10 12/12/12 11/11/11
f 11/11/11 12/12/12 13/13/13
f 12/12/12 14/14/14 13/13/13
o polygon2
g polygon2
usemtl h03_04
v 0.46875 -0.5390625 1
v 0.46875 -0.5390625 -0.787841796875
v 0 -0.5390625 1
v 0 -0.5390625 -0.787841796875
v -0.46875 -0.5390625 1
v -0.46875 -0.5390625 -0.787841796875
v 0.46875 -0.5390625 -0.787841796875
v 0.46875 -0.5390625 1
v 0.53125 -0.0390625 1
v 0.53125 -0.0390625 -0.787841796875
v -0.46875 -0.5390625 -0.787841796875
v -0.53125 -0.0703125 -0.787841796875
v -0.53125 -0.0390625 1
v -0.46875 -0.5390625 1
vt -0.0751953125 2.015625
vt -0.0751953125 -2.482421875
vt 1.025390625 2.015625
vt 1.025390625 -2.482421875
vt -0.0751953125 2.015625
vt -0.0751953125 -2.482421875
vt -0.0751953125 0
vt -0.0751953125 0
vt -0.0751953125 0
vt -0.0751953125 0
vt -0.0751953125 0.033203125
vt -0.0751953125 0.033203125
vt -0.0751953125 0.033203125
vt -0.0751953125 0.033203125
vn 0 0.998046875 0
vn 0 0.998046875 0
vn 0 0.998046875 0
vn 0 0.998046875 0
vn 0 0.998046875 0
vn 0 0.998046875 0
vn -0.9921875 0.125 0
vn -0.9921875 0.125 0
vn -0.9921875 0.125 0
vn -0.9921875 0.125 0
vn 0.9921875 0.12890625 -0.001953125
vn 0.9921875 0.12890625 -0.001953125
vn 0.9921875 0.12890625 -0.001953125
vn 0.9921875 0.12890625 -0.001953125
f 15/15/15 16/16/16 17/17/17
f 16/16/16 18/18/18 17/17/17
f 17/17/17 18/18/18 19/19/19
f 18/18/18 20/20/20 19/19/19
f 21/21/21 22/22/22 23/23/23
f 23/23/23 24/24/24 21/21/21
f 25/25/25 26/26/26 27/27/27
f 27/27/27 28/28/28 25/25/25
o polygon3
g polygon3
usemtl h03_02
v 0.438720703125 -0.0078125 -1
v 0.40966796875 -0.0078125 -1
v 0.438720703125 -0.0078125 -0.787841796875
v 0.40966796875 -0.0078125 -0.787841796875
v 0.438720703125 -0.0078125 1
v 0.40966796875 -0.0078125 1
v -0.40966796875 -0.0078125 -1
v -0.438720703125 -0.0078125 -1
v -0.40966796875 -0.0078125 -0.787841796875
v -0.438720703125 -0.0078125 -0.787841796875
v -0.40966796875 -0.0078125 1
v -0.438720703125 -0.0078125 1
v 0.21875 -0.0078125 1
v 0.21875 -0.0078125 -0.787841796875
v 0 -0.0078125 -0.787841796875
v 0 -0.0078125 1
v 0.40966796875 -0.0078125 1
v 0.40966796875 -0.0078125 -0.787841796875
v 0.21875 -0.0078125 -0.787841796875
v 0.21875 -0.0078125 1
v -0.21875 -0.0078125 1
v 0 -0.0078125 1
v 0 -0.0078125 -0.787841796875
v -0.21875 -0.0078125 -0.787841796875
v -0.40966796875 -0.0078125 1
v -0.21875 -0.0078125 1
v -0.21875 -0.0078125 -0.787841796875
v -0.40966796875 -0.0078125 -0.787841796875
vt 0.525390625 -4.666015625
vt 0.376953125 -4.666015625
vt 0.525390625 -3.458984375
vt 0.376953125 -3.458984375
vt 0.525390625 6.166015625
vt 0.376953125 6.166015625
vt 0.376953125 -4.666015625
vt 0.525390625 -4.666015625
vt 0.376953125 -3.458984375
vt 0.525390625 -3.458984375
vt 0.376953125 6.166015625
vt 0.525390625 6.166015625
vt 0.337890625 3.203125
vt 0.337890625 -1.2421875
vt -0.42578125 -1.2421875
vt -0.42578125 3.203125
vt 0.37109375 3.203125
vt 0.37109375 -1.2421875
vt -0.4296875 -1.2421875
vt -0.4296875 3.203125
vt -0.431640625 3.203125
vt 0.33203125 3.203125
vt 0.33203125 -1.2421875
vt -0.431640625 -1.2421875
vt -0.46484375 3.203125
vt 0.3359375 3.203125
vt 0.3359375 -1.2421875
vt -0.46484375 -1.2421875
vn 0 0.998046875 0
vn 0 0.998046875 0
vn 0 0.998046875 0
vn 0 0.998046875 0
vn 0 0.998046875 0
vn 0 0.998046875 0
vn 0 0.998046875 0
vn 0 0.998046875 0
vn 0 0.998046875 0
vn 0 0.998046875 0
vn 0 0.998046875 0
vn 0 0.998046875 0
vn 0 0.998046875 0
vn 0 0.998046875 0
vn 0 0.998046875 0
vn 0 0.998046875 0
vn 0 0.998046875 0
vn 0 0.998046875 0
vn 0 0.998046875 0
vn 0 0.998046875 0
vn 0 0.998046875 0
vn 0 0.998046875 0
vn 0 0.998046875 0
vn 0 0.998046875 0
vn 0 0.998046875 0
vn 0 0.998046875 0
vn 0 0.998046875 0
vn 0 0.998046875 0
f 29/29/29 30/30/30 31/31/31
f 30/30/30 32/32/32 31/31/31
f 31/31/31 32/32/32 33/33/33
f 32/32/32 34/34/34 33/33/33
f 35/35/35 36/36/36 37/37/37
f 36/36/36 38/38/38 37/37/37
f 37/37/37 38/38/38 39/39/39
f 38/38/38 40/40/40 39/39/39
f 41/41/41 42/42/42 43/43/43
f 43/43/43 44/44/44 41/41/41
f 45/45/45 46/46/46 47/47/47
f 47/47/47 48/48/48 45/45/45
f 49/49/49 50/50/50 51/51/51
f 51/51/51 52/52/52 49/49/49
f 53/53/53 54/54/54 55/55/55
f 55/55/55 56/56/56 53/53/53
o polygon4
g polygon4
usemtl h03_03
v 0.21875 -0.0078125 -0.787841796875
v 0.21875 -0.0078125 -1
v 0 -0.0078125 -1
v 0 -0.0078125 -0.787841796875
v 0.21875 -0.0078125 -0.787841796875
v 0.40966796875 -0.0078125 -0.787841796875
v 0.40966796875 -0.0078125 -1
v 0.21875 -0.0078125 -1
v -0.21875 -0.0078125 -0.787841796875
v 0 -0.0078125 -0.787841796875
v 0 -0.0078125 -1
v -0.21875 -0.0078125 -1
v -0.21875 -0.0078125 -0.787841796875
v -0.21875 -0.0078125 -1
v -0.40966796875 -0.0078125 -1
v -0.40966796875 -0.0078125 -0.787841796875
vt 0.33984375 0.2265625
vt 0.33984375 0.78515625
vt -0.42578125 0.78515625
vt -0.42578125 0.2265625
vt -0.4296875 0.2265625
vt 0.373046875 0.2265625
vt 0.373046875 0.78515625
vt -0.4296875 0.78515625
vt -0.43359375 0.2265625
vt 0.33203125 0.2265625
vt 0.33203125 0.78515625
vt -0.43359375 0.78515625
vt 0.3359375 0.2265625
vt 0.3359375 0.78515625
vt -0.466796875 0.78515625
vt -0.466796875 0.2265625
vn 0 0.998046875 0
vn 0 0.998046875 0
vn 0 0.998046875 0
vn 0 0.998046875 0
vn 0 0.998046875 0
vn 0 0.998046875 0
vn 0 0.998046875 0
vn 0 0.998046875 0
vn 0 0.998046875 0
vn 0 0.998046875 0
vn 0 0.998046875 0
vn 0 0.998046875 0
vn 0 0.998046875 0
vn 0 0.998046875 0
vn 0 0.998046875 0
vn 0 0.998046875 0
f 57/57/57 58/58/58 59/59/59
f 59/59/59 60/60/60 57/57/57
f 61/61/61 62/62/62 63/63/63
f 63/63/63 64/64/64 61/61/61
f 65/65/65 66/66/66 67/67/67
f 67/67/67 68/68/68 65/65/65
f 69/69/69 70/70/70 71/71/71
f 71/71/71 72/72/72 69/69/69
o polygon5
g polygon5
usemtl h03_12
v 0.438720703125 -0.0078125 1
v 0.498779296875 -0.0078125 1
v 0.438720703125 -0.0078125 -0.787841796875
v 0.498779296875 -0.0078125 -0.787841796875
v 0.438720703125 -0.0078125 -1
v 0.498779296875 -0.0078125 -1
v -0.498779296875 -0.0078125 1
v -0.438720703125 -0.0078125 1
v -0.498779296875 -0.0078125 -0.787841796875
v -0.438720703125 -0.0078125 -0.787841796875
v -0.498779296875 -0.0078125 -1
v -0.438720703125 -0.0078125 -1
vt -23.837890625 -9.521484375
vt -23.837890625 -8.79296875
vt -13.435546875 -9.521484375
vt -13.435546875 -8.79296875
vt -12.201171875 -9.521484375
vt -12.201171875 -8.79296875
vt -23.837890625 -8.79296875
vt -23.837890625 -9.521484375
vt -13.435546875 -8.79296875
vt -13.435546875 -9.521484375
vt -12.201171875 -8.79296875
vt -12.201171875 -9.521484375
vn 0 0.998046875 0
vn 0 0.998046875 0
vn 0 0.998046875 0
vn 0 0.998046875 0
vn 0 0.998046875 0
vn 0 0.998046875 0
vn 0 0.998046875 0
vn 0 0.998046875 0
vn 0 0.998046875 0
vn 0 0.998046875 0
vn 0 0.998046875 0
vn 0 0.998046875 0
f 73/73/73 74/74/74 75/75/75
f 74/74/74 76/76/76 75/75/75
f 75/75/75 76/76/76 77/77/77
f 76/76/76 78/78/78 77/77/77
f 79/79/79 80/80/80 81/81/81
f 80/80/80 82/82/82 81/81/81
f 81/81/81 82/82/82 83/83/83
f 82/82/82 84/84/84 83/83/83
o polygon6
g polygon6
usemtl h03_13
v 0.498779296875 -0.0078125 1
v 0.5625 -0.0078125 1
v 0.498779296875 -0.0078125 -0.787841796875
v 0.5625 -0.0078125 -0.787841796875
v 0.498779296875 -0.0078125 -1
v 0.5625 -0.0078125 -1
v -0.5625 -0.0078125 1
v -0.498779296875 -0.0078125 1
v -0.5625 -0.0078125 -0.787841796875
v -0.498779296875 -0.0078125 -0.787841796875
v -0.5625 -0.0078125 -1
v -0.498779296875 -0.0078125 -1
vt -23.837890625 -8.79296875
vt -23.837890625 -8.064453125
vt -13.435546875 -8.79296875
vt -13.435546875 -8.064453125
vt -12.201171875 -8.79296875
vt -12.201171875 -8.064453125
vt -23.837890625 -8.064453125
vt -23.837890625 -8.79296875
vt -13.435546875 -8.064453125
vt -13.435546875 -8.79296875
vt -12.201171875 -8.064453125
vt -12.201171875 -8.79296875
vn 0 0.998046875 0
vn 0 0.998046875 0
vn 0 0.998046875 0
vn 0 0.998046875 0
vn 0 0.998046875 0
vn 0 0.998046875 0
vn 0 0.998046875 0
vn 0 0.998046875 0
vn 0 0.998046875 0
vn 0 0.998046875 0
vn 0 0.998046875 0
vn 0 0.998046875 0
f 85/85/85 86/86/86 87/87/87
f 86/86/86 88/88/88 87/87/87
f 87/87/87 88/88/88 89/89/89
f 88/88/88 90/90/90 89/89/89
f 91/91/91 92/92/92 93/93/93
f 92/92/92 94/94/94 93/93/93
f 93/93/93 94/94/94 95/95/95
f 94/94/94 96/96/96 95/95/95
