# Created with Spiky's DS Map Editor 1.8.1.0
mtllib 351.mtl
o polygon0
g polygon0
usemtl sea_mizu1_1
v 4 -2.171875 3.875
v 3.875 -2.171875 3.875
v 3.875 -2.171875 4
v 4 -2.171875 4
v 4 -1.421875 -4
v -4 -1.421875 -4
v -4 -1.421875 3
v 4 -1.421875 3
vt 4 -3.875
vt 3.875 -3.875
vt 3.875 -4
vt 4 -4
vt 4 3
vt -4 3
vt -4 -4
vt 4 -4
vn 0 0.998046875 0
vn 0 0.998046875 0
vn 0 0.998046875 0
vn 0 0.998046875 0
vn 0 0.998046875 0
vn 0 0.998046875 0
vn 0 0.998046875 0
vn 0 0.998046875 0
f 1/1/1 2/2/2 3/3/3
f 3/3/3 4/4/4 1/1/1
f 5/5/5 6/6/6 7/7/7
f 7/7/7 8/8/8 5/5/5
o polygon1
g polygon1
usemtl sea_mizu1
v -4 -1.625 3
v 4 -1.625 3
v 4 -1.625 -4
v -4 -1.625 -4
vt 4 2
vt -4 2
vt -4 -5
vt 4 -5
vn 0 0.998046875 0
vn 0 0.998046875 0
vn 0 0.998046875 0
vn 0 0.998046875 0
f 9/9/9 10/10/10 11/11/11
f 11/11/11 12/12/12 9/9/9
