# Created with Spiky's DS Map Editor 1.8.1.0
mtllib 379.mtl
o polygon0
g polygon0
usemtl sea_mizu1
v 0 -1.125 4
v 4 -1.125 4
v 4 -1.125 0
v 0 -1.125 0
v -4 -1.125 4
v 0 -1.125 4
v 0 -1.125 0
v -4 -1.125 0
v -4 -1.125 0
v 0 -1.125 0
v 0 -1.125 -4
v -4 -1.125 -4
v 0 -1.125 0
v 4 -1.125 0
v 4 -1.125 -4
v 0 -1.125 -4
vt 2 1
vt -2 1
vt -2 -3
vt 2 -3
vt 2 1
vt -2 1
vt -2 -3
vt 2 -3
vt 2 1
vt -2 1
vt -2 -3
vt 2 -3
vt 2 1
vt -2 1
vt -2 -3
vt 2 -3
vn 0 0.998046875 0
vn 0 0.998046875 0
vn 0 0.998046875 0
vn 0 0.998046875 0
vn 0 0.998046875 0
vn 0 0.998046875 0
vn 0 0.998046875 0
vn 0 0.998046875 0
vn 0 0.998046875 0
vn 0 0.998046875 0
vn 0 0.998046875 0
vn 0 0.998046875 0
vn 0 0.998046875 0
vn 0 0.998046875 0
vn 0 0.998046875 0
vn 0 0.998046875 0
f 1/1/1 2/2/2 3/3/3
f 3/3/3 4/4/4 1/1/1
f 5/5/5 6/6/6 7/7/7
f 7/7/7 8/8/8 5/5/5
f 9/9/9 10/10/10 11/11/11
f 11/11/11 12/12/12 9/9/9
f 13/13/13 14/14/14 15/15/15
f 15/15/15 16/16/16 13/13/13
o polygon1
g polygon1
usemtl sea_mizu1_1
v 4 -0.921875 0
v 0 -0.921875 0
v 0 -0.921875 4
v 4 -0.921875 4
v 0 -0.921875 0
v -4 -0.921875 0
v -4 -0.921875 4
v 0 -0.921875 4
v 0 -0.921875 -4
v -4 -0.921875 -4
v -4 -0.921875 0
v 0 -0.921875 0
v 4 -0.921875 -4
v 0 -0.921875 -4
v 0 -0.921875 0
v 4 -0.921875 0
vt 2 1
vt -2 1
vt -2 -3
vt 2 -3
vt 2 1
vt -2 1
vt -2 -3
vt 2 -3
vt 2 1
vt -2 1
vt -2 -3
vt 2 -3
vt 2 1
vt -2 1
vt -2 -3
vt 2 -3
vn 0 0.998046875 0
vn 0 0.998046875 0
vn 0 0.998046875 0
vn 0 0.998046875 0
vn 0 0.998046875 0
vn 0 0.998046875 0
vn 0 0.998046875 0
vn 0 0.998046875 0
vn 0 0.998046875 0
vn 0 0.998046875 0
vn 0 0.998046875 0
vn 0 0.998046875 0
vn 0 0.998046875 0
vn 0 0.998046875 0
vn 0 0.998046875 0
vn 0 0.998046875 0
f 17/17/17 18/18/18 19/19/19
f 19/19/19 20/20/20 17/17/17
f 21/21/21 22/22/22 23/23/23
f 23/23/23 24/24/24 21/21/21
f 25/25/25 26/26/26 27/27/27
f 27/27/27 28/28/28 25/25/25
f 29/29/29 30/30/30 31/31/31
f 31/31/31 32/32/32 29/29/29
