# Created with Spiky's DS Map Editor 1.8.1.0
mtllib 381.mtl
o polygon0
g polygon0
usemtl grass01ax
v 4 1.25 4
v 4 1.25 3.75
v 2 1.25 4
v 2 1.25 3.75
v -0.75 1.25 4
v -0.75 1.25 3.75
v -2.75 1.25 4
v -2.75 1.25 3.75
v -4 1.25 4
v -4 1.25 3.75
vt 12 -5
vt 12 -4.75
vt 10 -5
vt 10 -4.75
vt 7.25 -5
vt 7.25 -4.75
vt 5.25 -5
vt 5.25 -4.75
vt 4 -5
vt 4 -4.75
vn 0 0.998046875 0
vn 0 0.998046875 0
vn 0 0.998046875 0
vn 0 0.998046875 0
vn 0 0.998046875 0
vn 0 0.998046875 0
vn 0 0.998046875 0
vn 0 0.998046875 0
vn 0 0.998046875 0
vn 0 0.998046875 0
f 1/1/1 2/2/2 3/3/3
f 2/2/2 4/4/4 3/3/3
f 3/3/3 4/4/4 5/5/5
f 4/4/4 6/6/6 5/5/5
f 5/5/5 6/6/6 7/7/7
f 6/6/6 8/8/8 7/7/7
f 7/7/7 8/8/8 9/9/9
f 8/8/8 10/10/10 9/9/9
o polygon1
g polygon1
usemtl gake01a
v -4 1.25 4
v 4 1.25 4
v 4 1.5 3.875
v -4 1.5 3.875
vt -32 -1
vt 0 -1
vt 0 0
vt -32 0
vn 0 0.447265625 0.89453125
vn 0 0.447265625 0.89453125
vn 0 0.189453125 0.982421875
vn 0 0.189453125 0.982421875
f 11/11/11 12/12/12 13/13/13
f 13/13/13 14/14/14 11/11/11
o polygon2
g polygon2
usemtl yamagake01
v -3.25 1.625 3.875
v -3.125 2.5 3.875
v -3.375 1.625 3.9375
v -3.375 2.5 4
v -3.5 1.625 3.875
v -3.625 2.5 3.875
v 1.75 2 3.875
v 1.75 2.3125 3.875
v 1.625 2 4
v 1.625 2.3125 4
v 1.5 2 3.875
v 1.5 2.3125 3.875
v 2.75 1.625 3.875
v 2.875 2.5 3.875
v 2.625 1.625 3.9375
v 2.625 2.5 4
v 2.5 1.625 3.875
v 2.375 2.5 3.875
v -1 1.625 3.875
v -0.875 2.5 3.875
v -1.125 1.625 3.9375
v -1.125 2.5 4
v -1.25 1.625 3.875
v -1.375 2.5 3.875
v -0.25 1.875 3.875
v -0.25 2.1875 3.875
v -0.375 1.875 4
v -0.375 2.1875 4
v -0.5 1.875 3.875
v -0.5 2.1875 3.875
v 1.75 2 3.875
v 1.625 2 4
v 1.625 1.75 3.875
v 1.5 2 3.875
v -0.25 1.875 3.875
v -0.375 1.875 4
v -0.375 1.625 3.875
v -0.5 1.875 3.875
v -4 1.5 3.875
v 4 1.5 3.875
v 4 2.4375 3.875
v -4 2.4375 3.875
vt 0 -0.79296875
vt 0 -0.259765625
vt -1.5 -0.79296875
vt -1.5 -0.259765625
vt -3 -0.79296875
vt -3 -0.259765625
vt 0 -0.5
vt 0 0
vt -0.5 -0.5
vt -0.5 0
vt -1 -0.5
vt -1 0
vt 0 -0.79296875
vt 0 -0.259765625
vt -1.5 -0.79296875
vt -1.5 -0.259765625
vt -3 -0.79296875
vt -3 -0.259765625
vt 0 -0.79296875
vt 0 -0.259765625
vt -1.5 -0.79296875
vt -1.5 -0.259765625
vt -3 -0.79296875
vt -3 -0.259765625
vt 0 -0.5
vt 0 0
vt -0.5 -0.5
vt -0.5 0
vt -1 -0.5
vt -1 0
vt 0 -0.5
vt -0.5 -0.5
vt -0.5 -0.875
vt -1 -0.5
vt 0 -0.5
vt -0.5 -0.5
vt -0.5 -0.875
vt -1 -0.5
vt -32 -1
vt 0 -1
vt 0 0
vt -32 0
vn 0.447265625 -0.064453125 0.892578125
vn 0.326171875 0.68359375 0.65234375
vn 0 -0.0703125 0.998046875
vn 0 0.724609375 0.689453125
vn -0.447265625 -0.064453125 0.892578125
vn -0.326171875 0.68359375 0.65234375
vn 0 0.189453125 0.982421875
vn 0 0.27734375 0.9609375
vn 0 -0.23046875 0.97265625
vn 0 0.525390625 0.8515625
vn 0 0.189453125 0.982421875
vn 0 0.27734375 0.9609375
vn 0.447265625 -0.064453125 0.892578125
vn 0.326171875 0.68359375 0.65234375
vn 0 -0.0703125 0.998046875
vn 0 0.724609375 0.689453125
vn -0.447265625 -0.064453125 0.892578125
vn -0.326171875 0.68359375 0.65234375
vn 0.447265625 -0.064453125 0.892578125
vn 0.326171875 0.68359375 0.65234375
vn 0 -0.0703125 0.998046875
vn 0 0.724609375 0.689453125
vn -0.447265625 -0.064453125 0.892578125
vn -0.326171875 0.68359375 0.65234375
vn 0 0.189453125 0.982421875
vn 0 0.27734375 0.9609375
vn 0 -0.23046875 0.97265625
vn 0 0.525390625 0.8515625
vn 0 0.189453125 0.982421875
vn 0 0.27734375 0.9609375
vn 0 0.189453125 0.982421875
vn 0 -0.23046875 0.97265625
vn 0 0 0.998046875
vn 0 0.189453125 0.982421875
vn 0 0.189453125 0.982421875
vn 0 -0.23046875 0.97265625
vn 0 0 0.998046875
vn 0 0.189453125 0.982421875
vn 0 0.189453125 0.982421875
vn 0 0.189453125 0.982421875
vn 0 0.27734375 0.9609375
vn 0 0.27734375 0.9609375
f 15/15/15 16/16/16 17/17/17
f 16/16/16 18/18/18 17/17/17
f 17/17/17 18/18/18 19/19/19
f 18/18/18 20/20/20 19/19/19
f 21/21/21 22/22/22 23/23/23
f 22/22/22 24/24/24 23/23/23
f 23/23/23 24/24/24 25/25/25
f 24/24/24 26/26/26 25/25/25
f 27/27/27 28/28/28 29/29/29
f 28/28/28 30/30/30 29/29/29
f 29/29/29 30/30/30 31/31/31
f 30/30/30 32/32/32 31/31/31
f 33/33/33 34/34/34 35/35/35
f 34/34/34 36/36/36 35/35/35
f 35/35/35 36/36/36 37/37/37
f 36/36/36 38/38/38 37/37/37
f 39/39/39 40/40/40 41/41/41
f 40/40/40 42/42/42 41/41/41
f 41/41/41 42/42/42 43/43/43
f 42/42/42 44/44/44 43/43/43
f 45/45/45 46/46/46 47/47/47
f 46/46/46 48/48/48 47/47/47
f 49/49/49 50/50/50 51/51/51
f 50/50/50 52/52/52 51/51/51
f 53/53/53 54/54/54 55/55/55
f 55/55/55 56/56/56 53/53/53
o polygon3
g polygon3
usemtl gake1_1
v -3.125 2.5 3.875
v -3 2.5 3.75
v -3.375 2.5 4
v -3.375 2.5 3.75
v -3.625 2.5 3.875
v -3.75 2.5 3.75
v 2.875 2.5 3.875
v 3 2.5 3.75
v 2.625 2.5 4
v 2.625 2.5 3.75
v 2.375 2.5 3.875
v 2.25 2.5 3.75
v -0.875 2.5 3.875
v -0.75 2.5 3.75
v -1.125 2.5 4
v -1.125 2.5 3.75
v -1.375 2.5 3.875
v -1.5 2.5 3.75
v 1.75 2.3125 3.875
v 1.625 2.375 3.875
v 1.625 2.3125 4
v 1.5 2.3125 3.875
v -0.25 2.1875 3.875
v -0.375 2.25 3.875
v -0.375 2.1875 4
v -0.5 2.1875 3.875
v -4 2.4375 3.875
v 4 2.4375 3.875
v 4 2.5 3.75
v -4 2.5 3.75
vt 0 -1
vt 0 0
vt -1.5 -1
vt -1.5 0
vt -3 -1
vt -3 0
vt 0 -1
vt 0 0
vt -1.5 -1
vt -1.5 0
vt -3 -1
vt -3 0
vt 0 -1
vt 0 0
vt -1.5 -1
vt -1.5 0
vt -3 -1
vt -3 0
vt -2 -1
vt -2.5 0
vt -2.5 -1
vt -3 -1
vt -2 -1
vt -2.5 0
vt -2.5 -1
vt -3 -1
vt -32 -1
vt 0 -1
vt 0 0
vt -32 0
vn 0.326171875 0.68359375 0.65234375
vn 0 0.998046875 0
vn 0 0.724609375 0.689453125
vn 0 0.998046875 0
vn -0.326171875 0.68359375 0.65234375
vn 0 0.998046875 0
vn 0.326171875 0.68359375 0.65234375
vn 0 0.998046875 0
vn 0 0.724609375 0.689453125
vn 0 0.998046875 0
vn -0.326171875 0.68359375 0.65234375
vn 0 0.998046875 0
vn 0.326171875 0.68359375 0.65234375
vn 0 0.998046875 0
vn 0 0.724609375 0.689453125
vn 0 0.998046875 0
vn -0.326171875 0.68359375 0.65234375
vn 0 0.998046875 0
vn 0 0.27734375 0.9609375
vn 0 0.998046875 0
vn 0 0.525390625 0.8515625
vn 0 0.27734375 0.9609375
vn 0 0.27734375 0.9609375
vn 0 0.998046875 0
vn 0 0.525390625 0.8515625
vn 0 0.27734375 0.9609375
vn 0 0.27734375 0.9609375
vn 0 0.27734375 0.9609375
vn 0 0.998046875 0
vn 0 0.998046875 0
f 57/57/57 58/58/58 59/59/59
f 58/58/58 60/60/60 59/59/59
f 59/59/59 60/60/60 61/61/61
f 60/60/60 62/62/62 61/61/61
f 63/63/63 64/64/64 65/65/65
f 64/64/64 66/66/66 65/65/65
f 65/65/65 66/66/66 67/67/67
f 66/66/66 68/68/68 67/67/67
f 69/69/69 70/70/70 71/71/71
f 70/70/70 72/72/72 71/71/71
f 71/71/71 72/72/72 73/73/73
f 72/72/72 74/74/74 73/73/73
f 75/75/75 76/76/76 77/77/77
f 76/76/76 78/78/78 77/77/77
f 79/79/79 80/80/80 81/81/81
f 80/80/80 82/82/82 81/81/81
f 83/83/83 84/84/84 85/85/85
f 85/85/85 86/86/86 83/83/83
o polygon4
g polygon4
usemtl out59_wall
v 2.875 2.53125 1.5625
v 2.875 2.53125 1.9375
v 2.875 3.4775390625 1.9375
v 2.875 3.4775390625 1.5625
v 3.125 2.53125 1.9375
v 3.125 2.53125 1.5625
v 3.125 3.4775390625 1.5625
v 3.125 3.4775390625 1.9375
v 2.875 3.4775390625 1.9375
v 3.125 3.4775390625 1.9375
v 3.125 3.4775390625 1.5625
v 2.875 3.4775390625 1.5625
v 2.875 2.53125 1.9375
v 3.125 2.53125 1.9375
v 3.125 3.4775390625 1.9375
v 2.875 3.4775390625 1.9375
v 3.09375 2.53125 1.875
v 4 2.53125 1.875
v 4 3.375 1.875
v 3.09375 3.375 1.875
v 3.09375 3.375 1.875
v 4 3.375 1.875
v 4 3.375 1.625
v 3.09375 3.375 1.625
v 0.375 2.53125 1.5625
v 0.375 2.53125 1.9375
v 0.375 3.4775390625 1.9375
v 0.375 3.4775390625 1.5625
v 0.625 2.53125 1.9375
v 0.625 2.53125 1.5625
v 0.625 3.4775390625 1.5625
v 0.625 3.4775390625 1.9375
v 0.375 3.4775390625 1.9375
v 0.625 3.4775390625 1.9375
v 0.625 3.4775390625 1.5625
v 0.375 3.4775390625 1.5625
v 0.375 2.53125 1.9375
v 0.625 2.53125 1.9375
v 0.625 3.4775390625 1.9375
v 0.375 3.4775390625 1.9375
v -1.90625 2.53125 1.875
v 0.40625 2.53125 1.875
v 0.40625 3.375 1.875
v -1.90625 3.375 1.875
v -1.90625 3.375 1.875
v 0.40625 3.375 1.875
v 0.40625 3.375 1.625
v -1.90625 3.375 1.625
v 0.59375 2.53125 1.875
v 2.90625 2.53125 1.875
v 2.90625 3.375 1.875
v 0.59375 3.375 1.875
v 0.59375 3.375 1.875
v 2.90625 3.375 1.875
v 2.90625 3.375 1.625
v 0.59375 3.375 1.625
v -2.125 2.53125 1.5625
v -2.125 2.53125 1.9375
v -2.125 3.4775390625 1.9375
v -2.125 3.4775390625 1.5625
v -1.875 2.53125 1.9375
v -1.875 2.53125 1.5625
v -1.875 3.4775390625 1.5625
v -1.875 3.4775390625 1.9375
v -2.125 3.4775390625 1.9375
v -1.875 3.4775390625 1.9375
v -1.875 3.4775390625 1.5625
v -2.125 3.4775390625 1.5625
v -2.125 2.53125 1.9375
v -1.875 2.53125 1.9375
v -1.875 3.4775390625 1.9375
v -2.125 3.4775390625 1.9375
vt 3.9951171875 -0.98828125
vt 3.9833984375 -0.98828125
vt 3.9833984375 -0.15625
vt 3.9951171875 -0.15625
vt 3.9833984375 -0.98828125
vt 3.9951171875 -0.98828125
vt 3.9951171875 -0.15625
vt 3.9833984375 -0.15625
vt 2.8935546875 -0.15625
vt 2.9814453125 -0.15625
vt 2.9814453125 0
vt 2.8935546875 0
vt 2.8935546875 -0.9921875
vt 2.9814453125 -0.9921875
vt 2.9814453125 -0.15625
vt 2.8935546875 -0.15625
vt 2.0068359375 -0.9921875
vt 2.349609375 -0.9921875
vt 2.349609375 -0.166015625
vt 2.0068359375 -0.166015625
vt 2.0068359375 -0.1484375
vt 2.349609375 -0.1484375
vt 2.349609375 -0.001953125
vt 2.0068359375 -0.001953125
vt 3.9951171875 -0.98828125
vt 3.9833984375 -0.98828125
vt 3.9833984375 -0.15625
vt 3.9951171875 -0.15625
vt 3.9833984375 -0.98828125
vt 3.9951171875 -0.98828125
vt 3.9951171875 -0.15625
vt 3.9833984375 -0.15625
vt 2.8935546875 -0.15625
vt 2.9814453125 -0.15625
vt 2.9814453125 0
vt 2.8935546875 0
vt 2.8935546875 -0.9921875
vt 2.9814453125 -0.9921875
vt 2.9814453125 -0.15625
vt 2.8935546875 -0.15625
vt 2.0068359375 -0.9921875
vt 2.8828125 -0.9921875
vt 2.8828125 -0.166015625
vt 2.0068359375 -0.166015625
vt 2.0068359375 -0.1484375
vt 2.8828125 -0.1484375
vt 2.8828125 -0.001953125
vt 2.0068359375 -0.001953125
vt 2.0068359375 -0.9921875
vt 2.8828125 -0.9921875
vt 2.8828125 -0.166015625
vt 2.0068359375 -0.166015625
vt 2.0068359375 -0.1484375
vt 2.8828125 -0.1484375
vt 2.8828125 -0.001953125
vt 2.0068359375 -0.001953125
vt 3.9951171875 -0.98828125
vt 3.9833984375 -0.98828125
vt 3.9833984375 -0.15625
vt 3.9951171875 -0.15625
vt 3.9833984375 -0.98828125
vt 3.9951171875 -0.98828125
vt 3.9951171875 -0.15625
vt 3.9833984375 -0.15625
vt 2.8935546875 -0.15625
vt 2.9814453125 -0.15625
vt 2.9814453125 0
vt 2.8935546875 0
vt 2.8935546875 -0.9921875
vt 2.9814453125 -0.9921875
vt 2.9814453125 -0.15625
vt 2.8935546875 -0.15625
vn -1 0 0
vn -1 0 0
vn -1 0 0
vn -1 0 0
vn 0.998046875 0 0
vn 0.998046875 0 0
vn 0.998046875 0 0
vn 0.998046875 0 0
vn 0 0.998046875 0
vn 0 0.998046875 0
vn 0 0.998046875 0
vn 0 0.998046875 0
vn 0 0 0.998046875
vn 0 0 0.998046875
vn 0 0 0.998046875
vn 0 0 0.998046875
vn 0 0 0.998046875
vn 0 0 0.998046875
vn 0 0 0.998046875
vn 0 0 0.998046875
vn 0 0.998046875 0
vn 0 0.998046875 0
vn 0 0.998046875 0
vn 0 0.998046875 0
vn -1 0 0
vn -1 0 0
vn -1 0 0
vn -1 0 0
vn 0.998046875 0 0
vn 0.998046875 0 0
vn 0.998046875 0 0
vn 0.998046875 0 0
vn 0 0.998046875 0
vn 0 0.998046875 0
vn 0 0.998046875 0
vn 0 0.998046875 0
vn 0 0 0.998046875
vn 0 0 0.998046875
vn 0 0 0.998046875
vn 0 0 0.998046875
vn 0 0 0.998046875
vn 0 0 0.998046875
vn 0 0 0.998046875
vn 0 0 0.998046875
vn 0 0.998046875 0
vn 0 0.998046875 0
vn 0 0.998046875 0
vn 0 0.998046875 0
vn 0 0 0.998046875
vn 0 0 0.998046875
vn 0 0 0.998046875
vn 0 0 0.998046875
vn 0 0.998046875 0
vn 0 0.998046875 0
vn 0 0.998046875 0
vn 0 0.998046875 0
vn -1 0 0
vn -1 0 0
vn -1 0 0
vn -1 0 0
vn 0.998046875 0 0
vn 0.998046875 0 0
vn 0.998046875 0 0
vn 0.998046875 0 0
vn 0 0.998046875 0
vn 0 0.998046875 0
vn 0 0.998046875 0
vn 0 0.998046875 0
vn 0 0 0.998046875
vn 0 0 0.998046875
vn 0 0 0.998046875
vn 0 0 0.998046875
f 87/87/87 88/88/88 89/89/89
f 89/89/89 90/90/90 87/87/87
f 91/91/91 92/92/92 93/93/93
f 93/93/93 94/94/94 91/91/91
f 95/95/95 96/96/96 97/97/97
f 97/97/97 98/98/98 95/95/95
f 99/99/99 100/100/100 101/101/101
f 101/101/101 102/102/102 99/99/99
f 103/103/103 104/104/104 105/105/105
f 105/105/105 106/106/106 103/103/103
f 107/107/107 108/108/108 109/109/109
f 109/109/109 110/110/110 107/107/107
f 111/111/111 112/112/112 113/113/113
f 113/113/113 114/114/114 111/111/111
f 115/115/115 116/116/116 117/117/117
f 117/117/117 118/118/118 115/115/115
f 119/119/119 120/120/120 121/121/121
f 121/121/121 122/122/122 119/119/119
f 123/123/123 124/124/124 125/125/125
f 125/125/125 126/126/126 123/123/123
f 127/127/127 128/128/128 129/129/129
f 129/129/129 130/130/130 127/127/127
f 131/131/131 132/132/132 133/133/133
f 133/133/133 134/134/134 131/131/131
f 135/135/135 136/136/136 137/137/137
f 137/137/137 138/138/138 135/135/135
f 139/139/139 140/140/140 141/141/141
f 141/141/141 142/142/142 139/139/139
f 143/143/143 144/144/144 145/145/145
f 145/145/145 146/146/146 143/143/143
f 147/147/147 148/148/148 149/149/149
f 149/149/149 150/150/150 147/147/147
f 151/151/151 152/152/152 153/153/153
f 153/153/153 154/154/154 151/151/151
f 155/155/155 156/156/156 157/157/157
f 157/157/157 158/158/158 155/155/155
o polygon5
g polygon5
usemtl h_kage
v 3 2.53125 2.0400390625
v 4 2.53125 2.0400390625
v 4 2.53125 1.53125
v 3 2.53125 1.53125
v -2.15625 2.53125 2.040283203125
v 3 2.53125 2.0400390625
v 3 2.53125 1.53125
v -2.15625 2.53125 1.53125
v -2.21875 2.53125 2.040283203125
v -2.15625 2.53125 2.040283203125
v -2.15625 2.53125 1.53125
v -2.21875 2.53125 1.53125
vt 0.03125 -0.2265625
vt 0.2109375 -0.2265625
vt 0.2109375 -0.4296875
vt 0.03125 -0.4296875
vt 0.5 -0.2265625
vt 0.96875 -0.2265625
vt 0.96875 -0.4296875
vt 0.5 -0.4296875
vt 0.390625 -0.1640625
vt 0.609375 -0.1640625
vt 0.609375 -0.109375
vt 0.390625 -0.109375
vn 0 0.998046875 0
vn 0 0.998046875 0
vn 0 0.998046875 0
vn 0 0.998046875 0
vn 0 0.998046875 0
vn 0 0.998046875 0
vn 0 0.998046875 0
vn 0 0.998046875 0
vn 0 0.998046875 0
vn 0 0.998046875 0
vn 0 0.998046875 0
vn 0 0.998046875 0
f 159/159/159 160/160/160 161/161/161
f 161/161/161 162/162/162 159/159/159
f 163/163/163 164/164/164 165/165/165
f 165/165/165 166/166/166 163/163/163
f 167/167/167 168/168/168 169/169/169
f 169/169/169 170/170/170 167/167/167
o polygon6
g polygon6
usemtl out59_yuka2
v -2.5 2.5 2
v -3 2.5 2.5
v 0.5 2.5 2
v 0.5 2.5 2.5
v 4 2.5 2
v 4 2.5 2.5
v 4 2.5 3.25
v -4 2.5 3.25
v -4 2.5 3.707763671875
v 4 2.5 3.707763671875
v -3 2.5 0
v -3 2.5 2.5
v -2.5 2.5 2
v -2.5 2.5 0
vt 1.6259765625 8.35546875
vt 1.25244140625 8.857421875
vt 1.6259765625 5.2802734375
vt 1.25244140625 5.26953125
vt 1.6259765625 1.6923828125
vt 1.25244140625 1.6826171875
vt 0.87451171875 -0.84375
vt 0.87451171875 7.1884765625
vt 1.2451171875 7.1884765625
vt 1.2451171875 -0.84375
vt 1.25244140625 12.2021484375
vt 1.25244140625 9.6865234375
vt 1.6259765625 10.189453125
vt 1.6259765625 12.2021484375
vn 0 0.998046875 0
vn 0 0.998046875 0
vn 0 0.998046875 0
vn 0 0.998046875 0
vn 0 0.998046875 0
vn 0 0.998046875 0
vn 0 0.998046875 0
vn 0 0.998046875 0
vn 0 0.998046875 0
vn 0 0.998046875 0
vn 0 0.998046875 0
vn 0 0.998046875 0
vn 0 0.998046875 0
vn 0 0.998046875 0
f 171/171/171 172/172/172 173/173/173
f 172/172/172 174/174/174 173/173/173
f 173/173/173 174/174/174 175/175/175
f 174/174/174 176/176/176 175/175/175
f 177/177/177 178/178/178 179/179/179
f 179/179/179 180/180/180 177/177/177
f 181/181/181 182/182/182 183/183/183
f 183/183/183 184/184/184 181/181/181
o polygon7
g polygon7
usemtl grass01ax
v -2.5 2.5 0
v -2.5 2.5 2
v 0.5 2.5 0
v 0.5 2.5 2
v 4 2.5 0
v 4 2.5 2
vt 5.5 -1
vt 5.5 -3
vt 8.5 -1
vt 8.5 -3
vt 12 -1
vt 12 -3
vn 0 0.998046875 0
vn 0 0.998046875 0
vn 0 0.998046875 0
vn 0 0.998046875 0
vn 0 0.998046875 0
vn 0 0.998046875 0
f 185/185/185 186/186/186 187/187/187
f 186/186/186 188/188/188 187/187/187
f 187/187/187 188/188/188 189/189/189
f 188/188/188 190/190/190 189/189/189
o polygon8
g polygon8
usemtl out59_yuka
v -4.097900390625 2.5 2.875
v -3.6259765625 2.5 2.875
v -4.097900390625 2.5 2.5
v -3.6259765625 2.5 2.5
v -4.097900390625 2.5 0
v -3.626220703125 2.5 0
v -3.5 2.5 0
v -3.626220703125 2.5 0
v -3.5 2.5 2.5
v -3.6259765625 2.5 2.5
v -3.5 2.5 2.875
v -3.6259765625 2.5 2.875
v 3.21875 2.5 3.25
v 3.5625 2.5 3.25
v 3.5625 2.5 2.5
v 3.21875 2.5 2.5
v 3.5625 2.5 3.25
v 4.015625 2.5 3.25
v 4.015625 2.5 2.5
v 3.5625 2.5 2.5
v -3.5 2.5 3.25
v -3.5 2.5 3.15673828125
v -4 2.5 3.15673828125
v -4 2.5 3.25
v -4.097900390625 2.5 2.875
v -4 2.5 3.15673828125
v -3.5 2.5 2.875
v -3.6259765625 2.5 2.875
v 4 2.5 3.707763671875
v -4 2.5 3.707763671875
v -4 2.5 3.75
v 4 2.5 3.75
v -2.6875 2.5 2.5
v -3 2.5 2.875732421875
v -3 2.5 3.15673828125
v -2.6875 2.5 3.25
v -3.5 2.5 0
v -3.5 2.5 2.5
v -3.138916015625 2.5 2.5
v -3.135986328125 2.5 0
v -2.6875 2.5 2.5
v -2.6875 2.5 3.25
v -1.78125 2.5 3.25
v -1.78125 2.5 2.5
v -1.78125 2.5 2.5
v -1.78125 2.5 3.25
v -1.4375 2.5 3.25
v -1.4375 2.5 2.5
v -1.4375 2.5 2.5
v -1.4375 2.5 3.25
v -0.53125 2.5 3.25
v -0.53125 2.5 2.5
v 0.71875 2.5 2.5
v 0.71875 2.5 3.25
v 1.0625 2.5 3.25
v 1.0625 2.5 2.5
v 2.3125 2.5 2.5
v 2.3125 2.5 3.25
v 3.21875 2.5 3.25
v 3.21875 2.5 2.5
v 1.96875 2.5 2.5
v 1.96875 2.5 3.25
v 2.3125 2.5 3.25
v 2.3125 2.5 2.5
v -3 2.5 2.875732421875
v -3 2.5 2.5
v -3.138916015625 2.5 2.5
v -3.5 2.5 2.875
v -3.135986328125 2.5 0
v -3.138916015625 2.5 2.5
v -3 2.5 2.5
v -3 2.5 0
v -0.1875 2.5 2.5
v -0.1875 2.5 3.25
v 0.71875 2.5 3.25
v 0.71875 2.5 2.5
v -0.53125 2.5 2.5
v -0.53125 2.5 3.25
v -0.1875 2.5 3.25
v -0.1875 2.5 2.5
v 1.0625 2.5 2.5
v 1.0625 2.5 3.25
v 1.96875 2.5 3.25
v 1.96875 2.5 2.5
v -3 2.5 3.15673828125
v -3.5 2.5 3.15673828125
v -3.5 2.5 3.25
v -3 2.5 3.25
v -4 2.5 3.15673828125
v -3.5 2.5 3.15673828125
v -3.5 2.5 2.875
v -4 2.5 3.15673828125
v -4.09912109375 2.5 3.193115234375
v -4 2.5 3.25
v -4.09912109375 2.5 3.193115234375
v -4 2.5 3.15673828125
v -4.097900390625 2.5 2.875
v -2.6875 2.5 3.25
v -3 2.5 3.15673828125
v -3 2.5 3.25
v -3 2.5 2.875732421875
v -3.5 2.5 3.15673828125
v -3 2.5 3.15673828125
v -3.5 2.5 3.15673828125
v -3 2.5 2.875732421875
v -3.5 2.5 2.875
v -3.5 2.5 2.875
v -3.138916015625 2.5 2.5
v -3.5 2.5 2.5
v -3 2.5 2.5
v -3 2.5 2.875732421875
v -2.6875 2.5 2.5
vt 0.126953125 -0.81640625
vt 0.498046875 -0.814453125
vt 0.126953125 -0.779296875
vt 0.498046875 -0.77734375
vt 0.126953125 -0.541015625
vt 0.498046875 -0.541015625
vt 0.564453125 -0.541015625
vt 0.501953125 -0.541015625
vt 0.564453125 -0.7734375
vt 0.501953125 -0.77734375
vt 0.564453125 -0.814453125
vt 0.501953125 -0.814453125
vt 2 -0.009765625
vt 2 -0.494140625
vt 3 -0.494140625
vt 3 -0.009765625
vt 0 -0.662109375
vt 0 -0.658203125
vt 1 -0.65625
vt 1 -0.66015625
vt 1 -0.775390625
vt 1.125 -0.775390625
vt 1.125 -0.58984375
vt 1 -0.58984375
vt 2.126953125 -0.599609375
vt 2.16796875 -0.904296875
vt 2.49609375 -0.599609375
vt 2.44140625 -0.599609375
vt 1.693359375 -0.91796875
vt 1.27734375 -0.91796875
vt 1.27734375 -0.9296875
vt 1.693359375 -0.9296875
vt 3 -0.494140625
vt 2.498046875 -0.009765625
vt 2.125 -0.009765625
vt 2 -0.494140625
vt 0.5 0.400390625
vt 0.5 0.263671875
vt 0.873046875 0.263671875
vt 0.873046875 0.400390625
vt 1 -0.6171875
vt 0 -0.587890625
vt 0 -0.619140625
vt 1 -0.62890625
vt 3 -0.009765625
vt 2 -0.009765625
vt 2 -0.494140625
vt 3 -0.494140625
vt 1 -0.646484375
vt 0 -0.6328125
vt 0 -0.650390625
vt 1 -0.66015625
vt 3 -0.009765625
vt 2 -0.009765625
vt 2 -0.494140625
vt 3 -0.494140625
vt 1 -0.802734375
vt 0 -0.798828125
vt 0 -0.822265625
vt 1 -0.826171875
vt 3 -0.009765625
vt 2 -0.009765625
vt 2 -0.494140625
vt 3 -0.494140625
vt 0.576171875 0.177734375
vt 0.98046875 0.197265625
vt 0.873046875 0.197265625
vt 0.5 0.177734375
vt 0.876953125 0.400390625
vt 0.876953125 0.263671875
vt 0.98046875 0.263671875
vt 0.98046875 0.400390625
vt 1 -0.68359375
vt 0 -0.6640625
vt 0 -0.703125
vt 1 -0.716796875
vt 3 -0.009765625
vt 2 -0.009765625
vt 2 -0.494140625
vt 3 -0.494140625
vt 1 -0.751953125
vt 0 -0.7421875
vt 0 -0.779296875
vt 1 -0.78515625
vt 1.11328125 -0.671875
vt 1.11328125 -0.435546875
vt 1.0390625 -0.435546875
vt 1.0390625 -0.671875
vt 1.125 -0.58984375
vt 1.125 -0.775390625
vt 1.5 -0.775390625
vt 1.125 -0.58984375
vt 1.076171875 -0.564453125
vt 1 -0.58984375
vt 2.126953125 -0.943359375
vt 2.16796875 -0.904296875
vt 2.126953125 -0.599609375
vt 2 -0.494140625
vt 2.125 -0.009765625
vt 2 -0.009765625
vt 2.498046875 -0.69140625
vt 2.130859375 -0.5859375
vt 2.130859375 -0.736328125
vt 1.126953125 -0.55078125
vt 1.5 -0.849609375
vt 1.5 -0.55078125
vt 0.5 0.2421875
vt 0.873046875 0.263671875
vt 0.5 0.263671875
vt 3 -0.009765625
vt 2.498046875 -0.009765625
vt 3 -0.494140625
vn 0 0.998046875 0
vn 0 0.998046875 0
vn 0 0.998046875 0
vn 0 0.998046875 0
vn 0 0.998046875 0
vn 0 0.998046875 0
vn 0 0.998046875 0
vn 0 0.998046875 0
vn 0 0.998046875 0
vn 0 0.998046875 0
vn 0 0.998046875 0
vn 0 0.998046875 0
vn 0 0.998046875 0
vn 0 0.998046875 0
vn 0 0.998046875 0
vn 0 0.998046875 0
vn 0 0.998046875 0
vn 0 0.998046875 0
vn 0 0.998046875 0
vn 0 0.998046875 0
vn 0 0.998046875 0
vn 0 0.998046875 0
vn 0 0.998046875 0
vn 0 0.998046875 0
vn 0 0.998046875 0
vn 0 0.998046875 0
vn 0 0.998046875 0
vn 0 0.998046875 0
vn 0 0.998046875 0
vn 0 0.998046875 0
vn 0 0.998046875 0
vn 0 0.998046875 0
vn 0 0.998046875 0
vn 0 0.998046875 0
vn 0 0.998046875 0
vn 0 0.998046875 0
vn 0 0.998046875 0
vn 0 0.998046875 0
vn 0 0.998046875 0
vn 0 0.998046875 0
vn 0 0.998046875 0
vn 0 0.998046875 0
vn 0 0.998046875 0
vn 0 0.998046875 0
vn 0 0.998046875 0
vn 0 0.998046875 0
vn 0 0.998046875 0
vn 0 0.998046875 0
vn 0 0.998046875 0
vn 0 0.998046875 0
vn 0 0.998046875 0
vn 0 0.998046875 0
vn 0 0.998046875 0
vn 0 0.998046875 0
vn 0 0.998046875 0
vn 0 0.998046875 0
vn 0 0.998046875 0
vn 0 0.998046875 0
vn 0 0.998046875 0
vn 0 0.998046875 0
vn 0 0.998046875 0
vn 0 0.998046875 0
vn 0 0.998046875 0
vn 0 0.998046875 0
vn 0 0.998046875 0
vn 0 0.998046875 0
vn 0 0.998046875 0
vn 0 0.998046875 0
vn 0 0.998046875 0
vn 0 0.998046875 0
vn 0 0.998046875 0
vn 0 0.998046875 0
vn 0 0.998046875 0
vn 0 0.998046875 0
vn 0 0.998046875 0
vn 0 0.998046875 0
vn 0 0.998046875 0
vn 0 0.998046875 0
vn 0 0.998046875 0
vn 0 0.998046875 0
vn 0 0.998046875 0
vn 0 0.998046875 0
vn 0 0.998046875 0
vn 0 0.998046875 0
vn 0 0.998046875 0
vn 0 0.998046875 0
vn 0 0.998046875 0
vn 0 0.998046875 0
vn 0 0.998046875 0
vn 0 0.998046875 0
vn 0 0.998046875 0
vn 0 0.998046875 0
vn 0 0.998046875 0
vn 0 0.998046875 0
vn 0 0.998046875 0
vn 0 0.998046875 0
vn 0 0.998046875 0
vn 0 0.998046875 0
vn 0 0.998046875 0
vn 0 0.998046875 0
vn 0 0.998046875 0
vn 0 0.998046875 0
vn 0 0.998046875 0
vn 0 0.998046875 0
vn 0 0.998046875 0
vn 0 0.998046875 0
vn 0 0.998046875 0
vn 0 0.998046875 0
vn 0 0.998046875 0
vn 0 0.998046875 0
vn 0 0.998046875 0
vn 0 0.998046875 0
f 191/191/191 192/192/192 193/193/193
f 192/192/192 194/194/194 193/193/193
f 193/193/193 194/194/194 195/195/195
f 194/194/194 196/196/196 195/195/195
f 197/197/197 198/198/198 199/199/199
f 198/198/198 200/200/200 199/199/199
f 199/199/199 200/200/200 201/201/201
f 200/200/200 202/202/202 201/201/201
f 203/203/203 204/204/204 205/205/205
f 205/205/205 206/206/206 203/203/203
f 207/207/207 208/208/208 209/209/209
f 209/209/209 210/210/210 207/207/207
f 211/211/211 212/212/212 213/213/213
f 213/213/213 214/214/214 211/211/211
f 215/215/215 216/216/216 217/217/217
f 217/217/217 218/218/218 215/215/215
f 219/219/219 220/220/220 221/221/221
f 221/221/221 222/222/222 219/219/219
f 223/223/223 224/224/224 225/225/225
f 225/225/225 226/226/226 223/223/223
f 227/227/227 228/228/228 229/229/229
f 229/229/229 230/230/230 227/227/227
f 231/231/231 232/232/232 233/233/233
f 233/233/233 234/234/234 231/231/231
f 235/235/235 236/236/236 237/237/237
f 237/237/237 238/238/238 235/235/235
f 239/239/239 240/240/240 241/241/241
f 241/241/241 242/242/242 239/239/239
f 243/243/243 244/244/244 245/245/245
f 245/245/245 246/246/246 243/243/243
f 247/247/247 248/248/248 249/249/249
f 249/249/249 250/250/250 247/247/247
f 251/251/251 252/252/252 253/253/253
f 253/253/253 254/254/254 251/251/251
f 255/255/255 256/256/256 257/257/257
f 257/257/257 258/258/258 255/255/255
f 259/259/259 260/260/260 261/261/261
f 261/261/261 262/262/262 259/259/259
f 263/263/263 264/264/264 265/265/265
f 265/265/265 266/266/266 263/263/263
f 267/267/267 268/268/268 269/269/269
f 269/269/269 270/270/270 267/267/267
f 271/271/271 272/272/272 273/273/273
f 273/273/273 274/274/274 271/271/271
f 275/275/275 276/276/276 277/277/277
f 277/277/277 278/278/278 275/275/275
f 279/279/279 280/280/280 281/281/281
f 282/282/282 283/283/283 284/284/284
f 285/285/285 286/286/286 287/287/287
f 288/288/288 289/289/289 290/290/290
f 291/291/291 292/292/292 293/293/293
f 294/294/294 295/295/295 296/296/296
f 297/297/297 298/298/298 299/299/299
f 300/300/300 301/301/301 302/302/302
