# Created with Spiky's DS Map Editor 1.8.1.0
mtllib 382.mtl
o polygon0
g polygon0
usemtl gake1_1
v -2.375 2.5 3.875
v -2.25 2.5 3.75
v -2.625 2.5 4
v -2.625 2.5 3.75
v -2.875 2.5 3.875
v -3 2.5 3.75
v -3 2.1875 3.875
v -3.125 2.25 3.875
v -3.125 2.1875 4
v -3.25 2.1875 3.875
v -4 2.4375 3.875
v -1.875 2.4375 3.875
v -1.75 2.5 3.75
v -4 2.5 3.75
v -1.875 2.4375 3.875
v -1.875 2.4375 4
v -1.75 2.5 4
v -1.75 2.5 3.75
vt 0 -1
vt 0 0
vt -1.5 -1
vt -1.5 0
vt -3 -1
vt -3 0
vt -2 -1
vt -2.5 0
vt -2.5 -1
vt -3 -1
vt -9 -1
vt -0.5 -1
vt 0 0
vt -9 0
vt -0.5 -1
vt 0 -1
vt 0 0
vt -1 0
vn 0.326171875 0.68359375 0.65234375
vn 0 0.998046875 0
vn 0 0.724609375 0.689453125
vn 0 0.998046875 0
vn -0.326171875 0.68359375 0.65234375
vn 0 0.998046875 0
vn 0 0.27734375 0.9609375
vn 0 0.998046875 0
vn 0 0.525390625 0.8515625
vn 0 0.27734375 0.9609375
vn 0 0.27734375 0.9609375
vn 0 0.27734375 0.9609375
vn 0 0.998046875 0
vn 0 0.998046875 0
vn -0.9609375 0.27734375 0
vn -0.9609375 0.27734375 0
vn 0 0.998046875 0
vn 0 0.998046875 0
f 1/1/1 2/2/2 3/3/3
f 2/2/2 4/4/4 3/3/3
f 3/3/3 4/4/4 5/5/5
f 4/4/4 6/6/6 5/5/5
f 7/7/7 8/8/8 9/9/9
f 8/8/8 10/10/10 9/9/9
f 11/11/11 12/12/12 13/13/13
f 13/13/13 14/14/14 11/11/11
f 15/15/15 16/16/16 17/17/17
f 17/17/17 18/18/18 15/15/15
o polygon1
g polygon1
usemtl out59_yuka
v -0.59326171875 2.5 4
v -0.59326171875 2.5 2.593994140625
v -0.875 2.5 4
v -0.875 2.5 2.875
v -1.15576171875 2.5 4
v -1.156005859375 2.5 3.1572265625
v -1.25 2.5 3.25
v -1.156005859375 2.5 3.1572265625
v -1.25 2.5 2.875
v -1.25 2.5 2.5
v -1.9375 2.5 2.5
v -2.28125 2.5 2.5
v -1.9375 2.5 2.875
v -1.9375 2.5 3.25
v -3.984375 2.5 3.25
v -3.53125 2.5 3.25
v -3.53125 2.5 2.5
v -3.984375 2.5 2.5
v -1.9375 2.5 3.25
v -1.25 2.5 3.25
v -1.25 2.5 2.875
v -1.9375 2.5 2.875
v -1.25 2.5 2.5
v -1.156005859375 2.5 3.1572265625
v -0.875 2.5 2.875
v -0.59326171875 2.5 2.593994140625
v -1.156005859375 2.5 3.1572265625
v -1.25 2.5 3.25
v -1.25 2.5 4
v -1.15576171875 2.5 4
v -0.5 2.5 2.5
v -0.59326171875 2.5 2.593994140625
v -0.59326171875 2.5 4
v -0.5 2.5 4
v -3.1875 2.5 3.25
v -2.28125 2.5 3.25
v -2.28125 2.5 2.5
v -3.1875 2.5 2.5
v -3.53125 2.5 3.25
v -3.1875 2.5 3.25
v -3.1875 2.5 2.5
v -3.53125 2.5 2.5
v -1.9375 2.5 2.875
v -1.25 2.5 2.875
v -1.25 2.5 2.5
v -1.9375 2.5 2.5
v -1.875 2.5 2
v -1.875 2.5 2.5
v -1.75 2.5 2.5
v -1.75 2.5 2
v -1.84716796875 2.5 3.707763671875
v -1.75 2.5 3.75
v -1.75 2.5 3.25
v -1.84716796875 2.5 3.25
v -4 2.5 3.75
v -1.75 2.5 3.75
v -1.84716796875 2.5 3.707763671875
v -4 2.5 3.707763671875
v -1.25 2.5 2.5
v -0.59326171875 2.5 2.593994140625
v -0.5 2.5 2.5
v -2.28125 2.5 3.25
v -1.9375 2.5 3.25
v -2.28125 2.5 2.5
vt 0.873046875 -0.634765625
vt 0.873046875 -0.55859375
vt 0.5 -0.640625
vt 0.5 -0.58203125
vt 0.125 -0.646484375
vt 0.125 -0.603515625
vt 0 -0.59375
vt 0.123046875 -0.5703125
vt 0.5 -0.619140625
vt 1 -0.64453125
vt 3 -0.494140625
vt 3 -0.009765625
vt 2.5 -0.494140625
vt 2 -0.494140625
vt 0 -0.658203125
vt 0 -0.65625
vt 1 -0.65234375
vt 1 -0.65625
vt 0 -0.849609375
vt 0 -0.59375
vt 0.494140625 -0.619140625
vt 0.494140625 -0.822265625
vt 1 -0.64453125
vt 0.123046875 -0.5703125
vt 0.5 -0.5625
vt 0.875 -0.5546875
vt 0.123046875 -0.603515625
vt 0 -0.611328125
vt 0 -0.6484375
vt 0.125 -0.64453125
vt 1 -0.55078125
vt 0.876953125 -0.55859375
vt 0.876953125 -0.638671875
vt 1 -0.634765625
vt 0 -0.650390625
vt 0 -0.64453125
vt 1 -0.638671875
vt 1 -0.646484375
vt 2 -0.009765625
vt 2 -0.494140625
vt 3 -0.494140625
vt 3 -0.009765625
vt 0.501953125 -0.822265625
vt 0.501953125 -0.619140625
vt 1 -0.64453125
vt 1 -0.796875
vt 2.767578125 -0.875
vt 2.8515625 -0.875
vt 2.8515625 -0.892578125
vt 2.767578125 -0.892578125
vt 2.228515625 -0.91015625
vt 2.23828125 -0.931640625
vt 2.14453125 -0.931640625
vt 2.14453125 -0.91015625
vt 1.720703125 -0.9296875
vt 1.8984375 -0.9296875
vt 1.890625 -0.91796875
vt 1.720703125 -0.91796875
vt 1 -0.64453125
vt 0.875 -0.5546875
vt 1 -0.552734375
vt 2 -0.009765625
vt 2 -0.494140625
vt 3 -0.009765625
vn 0 0.998046875 0
vn 0 0.998046875 0
vn 0 0.998046875 0
vn 0 0.998046875 0
vn 0 0.998046875 0
vn 0 0.998046875 0
vn 0 0.998046875 0
vn 0 0.998046875 0
vn 0 0.998046875 0
vn 0 0.998046875 0
vn 0 0.998046875 0
vn 0 0.998046875 0
vn 0 0.998046875 0
vn 0 0.998046875 0
vn 0 0.998046875 0
vn 0 0.998046875 0
vn 0 0.998046875 0
vn 0 0.998046875 0
vn 0 0.998046875 0
vn 0 0.998046875 0
vn 0 0.998046875 0
vn 0 0.998046875 0
vn 0 0.998046875 0
vn 0 0.998046875 0
vn 0 0.998046875 0
vn 0 0.998046875 0
vn 0 0.998046875 0
vn 0 0.998046875 0
vn 0 0.998046875 0
vn 0 0.998046875 0
vn 0 0.998046875 0
vn 0 0.998046875 0
vn 0 0.998046875 0
vn 0 0.998046875 0
vn 0 0.998046875 0
vn 0 0.998046875 0
vn 0 0.998046875 0
vn 0 0.998046875 0
vn 0 0.998046875 0
vn 0 0.998046875 0
vn 0 0.998046875 0
vn 0 0.998046875 0
vn 0 0.998046875 0
vn 0 0.998046875 0
vn 0 0.998046875 0
vn 0 0.998046875 0
vn 0 0.998046875 0
vn 0 0.998046875 0
vn 0 0.998046875 0
vn 0 0.998046875 0
vn 0 0.998046875 0
vn 0 0.998046875 0
vn 0 0.998046875 0
vn 0 0.998046875 0
vn 0 0.998046875 0
vn 0 0.998046875 0
vn 0 0.998046875 0
vn 0 0.998046875 0
vn 0 0.998046875 0
vn 0 0.998046875 0
vn 0 0.998046875 0
vn 0 0.998046875 0
vn 0 0.998046875 0
vn 0 0.998046875 0
f 19/19/19 20/20/20 21/21/21
f 20/20/20 22/22/22 21/21/21
f 21/21/21 22/22/22 23/23/23
f 22/22/22 24/24/24 23/23/23
f 25/25/25 26/26/26 27/27/27
f 26/26/26 28/28/28 27/27/27
f 29/29/29 30/30/30 31/31/31
f 30/30/30 32/32/32 31/31/31
f 33/33/33 34/34/34 35/35/35
f 35/35/35 36/36/36 33/33/33
f 37/37/37 38/38/38 39/39/39
f 39/39/39 40/40/40 37/37/37
f 41/41/41 42/42/42 43/43/43
f 43/43/43 44/44/44 41/41/41
f 45/45/45 46/46/46 47/47/47
f 47/47/47 48/48/48 45/45/45
f 49/49/49 50/50/50 51/51/51
f 51/51/51 52/52/52 49/49/49
f 53/53/53 54/54/54 55/55/55
f 55/55/55 56/56/56 53/53/53
f 57/57/57 58/58/58 59/59/59
f 59/59/59 60/60/60 57/57/57
f 61/61/61 62/62/62 63/63/63
f 63/63/63 64/64/64 61/61/61
f 65/65/65 66/66/66 67/67/67
f 67/67/67 68/68/68 65/65/65
f 69/69/69 70/70/70 71/71/71
f 71/71/71 72/72/72 69/69/69
f 73/73/73 74/74/74 75/75/75
f 75/75/75 76/76/76 73/73/73
f 77/77/77 78/78/78 79/79/79
f 80/80/80 81/81/81 82/82/82
o polygon2
g polygon2
usemtl grass01ax
v -0.5 2.5 4
v 3 2.5 4
v -0.5 2.5 2.5
v 3 2.5 2.5
v 0 2.5 2
v 3 2.5 2
v 0 2.5 0
v 3 2.5 0
v 0 2.5 0
v -1.75 2.5 0
v 0 2.5 2
v -1.75 2.5 2
v -0.5 2.5 2.5
v -1.75 2.5 2.5
v -1.875 2.5 2
v -1.75 2.5 0
v -4 2.5 0
v -4 2.5 2
v -1.25 2.5 3.25
v -1.75 2.5 3.75
v -1.75 2.5 4
v -1.25 2.5 4
v -1.875 2.5 2
v -1.75 2.5 2
v -1.75 2.5 0
v -1.75 2.5 3.25
v -1.75 2.5 3.75
v -1.25 2.5 3.25
vt 15.5 -5
vt 19 -5
vt 15.5 -3.5
vt 19 -3.5
vt 16 -3
vt 19 -3
vt 16 -1
vt 19 -1
vt 16 -1
vt 14.25 -1
vt 16 -3
vt 14.25 -3
vt 15.5 -3.5
vt 14.25 -3.5
vt 14.125 -3
vt 14.25 -1
vt 12 -1
vt 12 -3
vt 14.75 -4.25
vt 14.25 -4.75
vt 14.25 -5
vt 14.75 -5
vt 14.125 -3
vt 14.25 -3
vt 14.25 -1
vt 14.25 -4.25
vt 14.25 -4.75
vt 14.75 -4.25
vn 0 0.998046875 0
vn 0 0.998046875 0
vn 0 0.998046875 0
vn 0 0.998046875 0
vn 0 0.998046875 0
vn 0 0.998046875 0
vn 0 0.998046875 0
vn 0 0.998046875 0
vn 0 0.998046875 0
vn 0 0.998046875 0
vn 0 0.998046875 0
vn 0 0.998046875 0
vn 0 0.998046875 0
vn 0 0.998046875 0
vn 0 0.998046875 0
vn 0 0.998046875 0
vn 0 0.998046875 0
vn 0 0.998046875 0
vn 0 0.998046875 0
vn 0 0.998046875 0
vn 0 0.998046875 0
vn 0 0.998046875 0
vn 0 0.998046875 0
vn 0 0.998046875 0
vn 0 0.998046875 0
vn 0 0.998046875 0
vn 0 0.998046875 0
vn 0 0.998046875 0
f 83/83/83 84/84/84 85/85/85
f 84/84/84 86/86/86 85/85/85
f 85/85/85 86/86/86 87/87/87
f 86/86/86 88/88/88 87/87/87
f 87/87/87 88/88/88 89/89/89
f 88/88/88 90/90/90 89/89/89
f 91/91/91 92/92/92 93/93/93
f 92/92/92 94/94/94 93/93/93
f 93/93/93 94/94/94 95/95/95
f 94/94/94 96/96/96 95/95/95
f 97/97/97 98/98/98 99/99/99
f 99/99/99 100/100/100 97/97/97
f 101/101/101 102/102/102 103/103/103
f 103/103/103 104/104/104 101/101/101
f 105/105/105 106/106/106 107/107/107
f 108/108/108 109/109/109 110/110/110
o polygon3
g polygon3
usemtl out59_yuka2
v -4 2.5 2
v -4 2.5 2.5
v -1.875 2.5 2.5
v -1.875 2.5 2
v -4 2.5 3.707763671875
v -1.84716796875 2.5 3.707763671875
v -1.84716796875 2.5 3.25
v -4 2.5 3.25
vt 1.6259765625 0.40625
vt 1.25244140625 0.40625
vt 1.25244140625 -1.712890625
vt 1.6259765625 -1.712890625
vt 1.2451171875 -0.923828125
vt 1.2451171875 -3.25
vt 0.87451171875 -3.25
vt 0.87451171875 -0.923828125
vn 0 0.998046875 0
vn 0 0.998046875 0
vn 0 0.998046875 0
vn 0 0.998046875 0
vn 0 0.998046875 0
vn 0 0.998046875 0
vn 0 0.998046875 0
vn 0 0.998046875 0
f 111/111/111 112/112/112 113/113/113
f 113/113/113 114/114/114 111/111/111
f 115/115/115 116/116/116 117/117/117
f 117/117/117 118/118/118 115/115/115
o polygon4
g polygon4
usemtl out59_wall
v -0.125 2.53125 1.5625
v -0.125 2.53125 1.9375
v -0.125 3.4775390625 1.9375
v -0.125 3.4775390625 1.5625
v -0.125 3.4775390625 1.9375
v 0.125 3.4775390625 1.9375
v 0.125 3.4775390625 1.5625
v -0.125 3.4775390625 1.5625
v -0.125 2.53125 1.9375
v 0.125 2.53125 1.9375
v 0.125 3.4775390625 1.9375
v -0.125 3.4775390625 1.9375
v -2.625 2.53125 1.5625
v -2.625 2.53125 1.9375
v -2.625 3.4775390625 1.9375
v -2.625 3.4775390625 1.5625
v -2.375 2.53125 1.9375
v -2.375 2.53125 1.5625
v -2.375 3.4775390625 1.5625
v -2.375 3.4775390625 1.9375
v -2.625 3.4775390625 1.9375
v -2.375 3.4775390625 1.9375
v -2.375 3.4775390625 1.5625
v -2.625 3.4775390625 1.5625
v -2.625 2.53125 1.9375
v -2.375 2.53125 1.9375
v -2.375 3.4775390625 1.9375
v -2.625 3.4775390625 1.9375
v -2.40625 3.375 1.625
v -2.40625 3.375 1.875
v -0.09375 3.375 1.875
v -0.09375 3.375 1.625
v -2.40625 2.53125 1.875
v -0.09375 2.53125 1.875
v -0.09375 3.375 1.875
v -2.40625 3.375 1.875
v -4 2.53125 1.875
v -2.59375 2.53125 1.875
v -2.59375 3.375 1.875
v -4 3.375 1.875
v -4 3.375 1.875
v -2.59375 3.375 1.875
v -2.59375 3.375 1.625
v -4 3.375 1.625
vt 3.9951171875 -0.98828125
vt 3.9833984375 -0.98828125
vt 3.9833984375 -0.15625
vt 3.9951171875 -0.15625
vt 2.8935546875 -0.15625
vt 2.9814453125 -0.15625
vt 2.9814453125 0
vt 2.8935546875 0
vt 2.8935546875 -0.9921875
vt 2.9814453125 -0.9921875
vt 2.9814453125 -0.15625
vt 2.8935546875 -0.15625
vt 3.9951171875 -0.98828125
vt 3.9833984375 -0.98828125
vt 3.9833984375 -0.15625
vt 3.9951171875 -0.15625
vt 3.9833984375 -0.98828125
vt 3.9951171875 -0.98828125
vt 3.9951171875 -0.15625
vt 3.9833984375 -0.15625
vt 2.8935546875 -0.15625
vt 2.9814453125 -0.15625
vt 2.9814453125 0
vt 2.8935546875 0
vt 2.8935546875 -0.9921875
vt 2.9814453125 -0.9921875
vt 2.9814453125 -0.15625
vt 2.8935546875 -0.15625
vt 2.0068359375 -0.001953125
vt 2.0068359375 -0.1484375
vt 2.8828125 -0.1484375
vt 2.8828125 -0.001953125
vt 2.0068359375 -0.9921875
vt 2.8828125 -0.9921875
vt 2.8828125 -0.166015625
vt 2.0068359375 -0.166015625
vt 2.349609375 -0.9921875
vt 2.8828125 -0.9921875
vt 2.8828125 -0.166015625
vt 2.349609375 -0.166015625
vt 2.349609375 -0.1484375
vt 2.8828125 -0.1484375
vt 2.8828125 -0.001953125
vt 2.349609375 -0.001953125
vn -1 0 0
vn -1 0 0
vn -1 0 0
vn -1 0 0
vn 0 0.998046875 0
vn 0 0.998046875 0
vn 0 0.998046875 0
vn 0 0.998046875 0
vn 0 0 0.998046875
vn 0 0 0.998046875
vn 0 0 0.998046875
vn 0 0 0.998046875
vn -1 0 0
vn -1 0 0
vn -1 0 0
vn -1 0 0
vn 0.998046875 0 0
vn 0.998046875 0 0
vn 0.998046875 0 0
vn 0.998046875 0 0
vn 0 0.998046875 0
vn 0 0.998046875 0
vn 0 0.998046875 0
vn 0 0.998046875 0
vn 0 0 0.998046875
vn 0 0 0.998046875
vn 0 0 0.998046875
vn 0 0 0.998046875
vn 0 0.998046875 0
vn 0 0.998046875 0
vn 0 0.998046875 0
vn 0 0.998046875 0
vn 0 0 0.998046875
vn 0 0 0.998046875
vn 0 0 0.998046875
vn 0 0 0.998046875
vn 0 0 0.998046875
vn 0 0 0.998046875
vn 0 0 0.998046875
vn 0 0 0.998046875
vn 0 0.998046875 0
vn 0 0.998046875 0
vn 0 0.998046875 0
vn 0 0.998046875 0
f 119/119/119 120/120/120 121/121/121
f 121/121/121 122/122/122 119/119/119
f 123/123/123 124/124/124 125/125/125
f 125/125/125 126/126/126 123/123/123
f 127/127/127 128/128/128 129/129/129
f 129/129/129 130/130/130 127/127/127
f 131/131/131 132/132/132 133/133/133
f 133/133/133 134/134/134 131/131/131
f 135/135/135 136/136/136 137/137/137
f 137/137/137 138/138/138 135/135/135
f 139/139/139 140/140/140 141/141/141
f 141/141/141 142/142/142 139/139/139
f 143/143/143 144/144/144 145/145/145
f 145/145/145 146/146/146 143/143/143
f 147/147/147 148/148/148 149/149/149
f 149/149/149 150/150/150 147/147/147
f 151/151/151 152/152/152 153/153/153
f 153/153/153 154/154/154 151/151/151
f 155/155/155 156/156/156 157/157/157
f 157/157/157 158/158/158 155/155/155
f 159/159/159 160/160/160 161/161/161
f 161/161/161 162/162/162 159/159/159
o polygon5
g polygon5
usemtl h_kage
v -4 2.53125 2.0400390625
v 0.151611328125 2.53125 2.0400390625
v 0.151611328125 2.53125 1.53125
v -4 2.53125 1.53125
vt 0.2109375 -0.2265625
vt 0.96875 -0.2265625
vt 0.96875 -0.4296875
vt 0.2109375 -0.4296875
vn 0 0.998046875 0
vn 0 0.998046875 0
vn 0 0.998046875 0
vn 0 0.998046875 0
f 163/163/163 164/164/164 165/165/165
f 165/165/165 166/166/166 163/163/163
o polygon6
g polygon6
usemtl gake01a
v -4 1.25 4
v -2 1.25 4
v -1.875 1.5 3.875
v -4 1.5 3.875
v 1 2.5 2.75
v 1 2.5 4
v 1.125 2.75 4
v 1.125 2.75 2.75
v 1 2.5 1.75
v 1 2.5 2.75
v 1.125 2.75 2.75
v 1.125 2.75 1.75
v -2 1.25 4
v -1.875 1.5 4
v -1.875 1.5 3.875
vt -9 -1
vt -1 -1
vt -0.5 0
vt -9 0
vt -5 -1
vt 0 -1
vt 0 0
vt -5 0
vt -4 -1
vt 0 -1
vt 0 0
vt -4 0
vt 0 -1
vt 0 0
vt -0.5 0
vn 0 0.447265625 0.89453125
vn 0 0.447265625 0.89453125
vn 0 0.189453125 0.982421875
vn 0 0.189453125 0.982421875
vn -0.89453125 0.447265625 0
vn -0.89453125 0.447265625 0
vn -0.982421875 0.189453125 0
vn -0.982421875 0.189453125 0
vn -0.89453125 0.447265625 0
vn -0.89453125 0.447265625 0
vn -0.982421875 0.189453125 0
vn -0.982421875 0.189453125 0
vn -0.89453125 0.447265625 0
vn -0.982421875 0.189453125 0
vn -0.982421875 0.189453125 0
f 167/167/167 168/168/168 169/169/169
f 169/169/169 170/170/170 167/167/167
f 171/171/171 172/172/172 173/173/173
f 173/173/173 174/174/174 171/171/171
f 175/175/175 176/176/176 177/177/177
f 177/177/177 178/178/178 175/175/175
f 179/179/179 180/180/180 181/181/181
o polygon7
g polygon7
usemtl yamagake01
v -2.5 1.625 3.875
v -2.375 2.5 3.875
v -2.625 1.625 3.9375
v -2.625 2.5 4
v -2.75 1.625 3.875
v -2.875 2.5 3.875
v -3 1.875 3.875
v -3 2.1875 3.875
v -3.125 1.875 4
v -3.125 2.1875 4
v -3.25 1.875 3.875
v -3.25 2.1875 3.875
v -3 1.875 3.875
v -3.125 1.875 4
v -3.125 1.625 3.875
v -3.25 1.875 3.875
v -1.875 1.5 3.875
v -1.875 1.5 4
v -1.875 2.4375 4
v -1.875 2.4375 3.875
v -4 1.5 3.875
v -1.875 1.5 3.875
v -1.875 2.4375 3.875
v -4 2.4375 3.875
v 1.125 2.75 2.75
v 1.125 2.75 4
v 1.125 3.6875 4
v 1.125 3.6875 2.75
v 1.125 2.75 1.75
v 1.125 2.75 2.75
v 1.125 3.6875 2.75
v 1.125 3.6875 1.75
vt 0 -0.79296875
vt 0 -0.259765625
vt -1.5 -0.79296875
vt -1.5 -0.259765625
vt -3 -0.79296875
vt -3 -0.259765625
vt 0 -0.5
vt 0 0
vt -0.5 -0.5
vt -0.5 0
vt -1 -0.5
vt -1 0
vt 0 -0.5
vt -0.5 -0.5
vt -0.5 -0.84375
vt -1 -0.5
vt -0.5 -1
vt 0 -1
vt 0 0
vt -0.5 0
vt -9 -1
vt -0.5 -1
vt -0.5 0
vt -9 0
vt -5 -1
vt 0 -1
vt 0 0
vt -5 0
vt -4 -1
vt 0 -1
vt 0 0
vt -4 0
vn 0.447265625 -0.064453125 0.892578125
vn 0.326171875 0.68359375 0.65234375
vn 0 -0.0703125 0.998046875
vn 0 0.724609375 0.689453125
vn -0.447265625 -0.064453125 0.892578125
vn -0.326171875 0.68359375 0.65234375
vn 0 0.189453125 0.982421875
vn 0 0.27734375 0.9609375
vn 0 -0.23046875 0.97265625
vn 0 0.525390625 0.8515625
vn 0 0.189453125 0.982421875
vn 0 0.27734375 0.9609375
vn 0 0.189453125 0.982421875
vn 0 -0.23046875 0.97265625
vn 0 0 0.998046875
vn 0 0.189453125 0.982421875
vn -0.982421875 0.189453125 0
vn -0.982421875 0.189453125 0
vn -0.9609375 0.27734375 0
vn -0.9609375 0.27734375 0
vn 0 0.189453125 0.982421875
vn 0 0.189453125 0.982421875
vn 0 0.27734375 0.9609375
vn 0 0.27734375 0.9609375
vn -0.982421875 0.189453125 0
vn -0.982421875 0.189453125 0
vn -0.9609375 0.27734375 0
vn -0.9609375 0.27734375 0
vn -0.982421875 0.189453125 0
vn -0.982421875 0.189453125 0
vn -0.9609375 0.27734375 0
vn -0.9609375 0.27734375 0
f 182/182/182 183/183/183 184/184/184
f 183/183/183 185/185/185 184/184/184
f 184/184/184 185/185/185 186/186/186
f 185/185/185 187/187/187 186/186/186
f 188/188/188 189/189/189 190/190/190
f 189/189/189 191/191/191 190/190/190
f 190/190/190 191/191/191 192/192/192
f 191/191/191 193/193/193 192/192/192
f 194/194/194 195/195/195 196/196/196
f 195/195/195 197/197/197 196/196/196
f 198/198/198 199/199/199 200/200/200
f 200/200/200 201/201/201 198/198/198
f 202/202/202 203/203/203 204/204/204
f 204/204/204 205/205/205 202/202/202
f 206/206/206 207/207/207 208/208/208
f 208/208/208 209/209/209 206/206/206
f 210/210/210 211/211/211 212/212/212
f 212/212/212 213/213/213 210/210/210
o polygon8
g polygon8
usemtl gake1_0
v 1.125 3.6875 2.75
v 1.125 3.6875 4
v 1.25 3.75 4
v 1.25 3.75 2.75
v 1.125 3.6875 1.75
v 1.125 3.6875 2.75
v 1.25 3.75 2.75
v 1.25 3.75 1.75
vt -5 -1
vt 0 -1
vt 0 0
vt -5 0
vt -4 -1
vt 0 -1
vt 0 0
vt -4 0
vn -0.9609375 0.27734375 0
vn -0.9609375 0.27734375 0
vn 0 0.998046875 0
vn 0 0.998046875 0
vn -0.9609375 0.27734375 0
vn -0.9609375 0.27734375 0
vn 0 0.998046875 0
vn 0 0.998046875 0
f 214/214/214 215/215/215 216/216/216
f 216/216/216 217/217/217 214/214/214
f 218/218/218 219/219/219 220/220/220
f 220/220/220 221/221/221 218/218/218
o polygon9
g polygon9
usemtl gake_futa
v 1.25 3.75 2.75
v 4 3.75 2.75
v 4 3.75 1.75
v 1.25 3.75 1.75
v 1.25 3.75 4
v 4 3.75 4
v 4 3.75 2.75
v 1.25 3.75 2.75
vt 67 -12
vt 78 -12
vt 78 -8
vt 67 -8
vt 67 -17
vt 78 -17
vt 78 -12
vt 67 -12
vn 0 0.998046875 0
vn 0 0.998046875 0
vn 0 0.998046875 0
vn 0 0.998046875 0
vn 0 0.998046875 0
vn 0 0.998046875 0
vn 0 0.998046875 0
vn 0 0.998046875 0
f 222/222/222 223/223/223 224/224/224
f 224/224/224 225/225/225 222/222/222
f 226/226/226 227/227/227 228/228/228
f 228/228/228 229/229/229 226/226/226
o polygon10
g polygon10
usemtl ki02ax
v 0.75 2.546875 2
v 0.75 2.546875 4
v 0.75 3.375 4
v 0.75 3.375 2
v 1 2.546875 3.25
v 0 2.546875 3.25
v 0 3.375 3.25
v 1 3.375 3.25
v 1 2.546875 3.75
v 0 2.546875 3.75
v 0 3.375 3.75
v 1 3.375 3.75
v 0.25 2.546875 2
v 0.25 2.546875 4
v 0.25 3.375 4
v 0.25 3.375 2
v 1 2.546875 2.25
v 0 2.546875 2.25
v 0 3.375 2.25
v 1 3.375 2.25
v 1 2.546875 2.75
v 0 2.546875 2.75
v 0 3.375 2.75
v 1 3.375 2.75
vt -4 -1
vt 0 -1
vt 0 0
vt -4 0
vt -2 -1
vt 0 -1
vt 0 0
vt -2 0
vt -2 -1
vt 0 -1
vt 0 0
vt -2 0
vt -4 -1
vt 0 -1
vt 0 0
vt -4 0
vt -2 -1
vt 0 -1
vt 0 0
vt -2 0
vt -2 -1
vt 0 -1
vt 0 0
vt -2 0
vn 0 0.998046875 0
vn 0 0.998046875 0
vn 0 0.998046875 0
vn 0 0.998046875 0
vn 0 0.998046875 0
vn 0 0.998046875 0
vn 0 0.998046875 0
vn 0 0.998046875 0
vn 0 0.998046875 0
vn 0 0.998046875 0
vn 0 0.998046875 0
vn 0 0.998046875 0
vn 0 0.998046875 0
vn 0 0.998046875 0
vn 0 0.998046875 0
vn 0 0.998046875 0
vn 0 0.998046875 0
vn 0 0.998046875 0
vn 0 0.998046875 0
vn 0 0.998046875 0
vn 0 0.998046875 0
vn 0 0.998046875 0
vn 0 0.998046875 0
vn 0 0.998046875 0
f 230/230/230 231/231/231 232/232/232
f 232/232/232 233/233/233 230/230/230
f 234/234/234 235/235/235 236/236/236
f 236/236/236 237/237/237 234/234/234
f 238/238/238 239/239/239 240/240/240
f 240/240/240 241/241/241 238/238/238
f 242/242/242 243/243/243 244/244/244
f 244/244/244 245/245/245 242/242/242
f 246/246/246 247/247/247 248/248/248
f 248/248/248 249/249/249 246/246/246
f 250/250/250 251/251/251 252/252/252
f 252/252/252 253/253/253 250/250/250
o polygon11
g polygon11
usemtl ki02c
v 0 2.546875 4
v 1 2.546875 4
v 1 2.546875 2
v 0 2.546875 2
vt -2 -3
vt 0 -3
vt 0 1
vt -2 1
vn 0 0.998046875 0
vn 0 0.998046875 0
vn 0 0.998046875 0
vn 0 0.998046875 0
f 254/254/254 255/255/255 256/256/256
f 256/256/256 257/257/257 254/254/254
o polygon12
g polygon12
usemtl ki02bx
v 0 2.84375 2
v 0 2.84375 4
v 1 2.84375 4
v 1 2.84375 2
vt -2 1
vt -2 -3
vt 0 -3
vt 0 1
vn 0 0.998046875 0
vn 0 0.998046875 0
vn 0 0.998046875 0
vn 0 0.998046875 0
f 258/258/258 259/259/259 260/260/260
f 260/260/260 261/261/261 258/258/258
o polygon13
g polygon13
usemtl ki02dx
v 0 3.2265625 2
v 0 3.2265625 4
v 1 3.2265625 4
v 1 3.2265625 2
vt -2 1
vt -2 -3
vt 0 -3
vt 0 1
vn 0 0.998046875 0
vn 0 0.998046875 0
vn 0 0.998046875 0
vn 0 0.998046875 0
f 262/262/262 263/263/263 264/264/264
f 264/264/264 265/265/265 262/262/262
