# Created with Spiky's DS Map Editor 1.8.1.0
mtllib 389.mtl
o polygon0
g polygon0
usemtl sea_mizu1
v -4 -1.625 4
v 4 -3.625 4
v -0.1298828125 -2.592529296875 -0.1298828125
v 4 -3.8125 0
v 4 -1.625 -4
v -4 -1.625 4
v -0.1298828125 -2.592529296875 -0.1298828125
v -4 -1.625 -4
v 4 -1.625 -4
vt 4 3
vt -4 3
vt 0.130859375 -1.130859375
vt -4 -1
vt -4 -5
vt 4 3
vt 0.130859375 -1.130859375
vt 4 -5
vt -4 -5
vn 0 0.998046875 0
vn 0 0.998046875 0
vn 0 0.998046875 0
vn 0 0.998046875 0
vn 0 0.998046875 0
vn 0 0.998046875 0
vn 0 0.998046875 0
vn 0 0.998046875 0
vn 0 0.998046875 0
f 1/1/1 2/2/2 3/3/3
f 2/2/2 4/4/4 3/3/3
f 3/3/3 4/4/4 5/5/5
f 6/6/6 7/7/7 8/8/8
f 7/7/7 9/9/9 8/8/8
o polygon1
g polygon1
usemtl sea_mizu1_1
v -1.90234375 -1.421875 4
v 4 -1.421875 4
v -3.375 -1.421875 4
v -3.375 -1.421875 -4
v 4 -1.421875 -4
v -3.375 -1.421875 -4
v 4 -1.421875 4
vt -1.90234375 -5
vt 4 -5
vt -3.375 -5
vt -3.375 3
vt 4 3
vt -3.375 3
vt 4 -5
vn 0 0.998046875 0
vn 0 0.998046875 0
vn 0 0.998046875 0
vn 0 0.998046875 0
vn 0 0.998046875 0
vn 0 0.998046875 0
vn 0 0.998046875 0
f 10/10/10 11/11/11 12/12/12
f 11/11/11 13/13/13 12/12/12
f 14/14/14 15/15/15 16/16/16
