# Created with Spiky's DS Map Editor 1.8.1.0
mtllib 395.mtl
o polygon0
g polygon0
usemtl out57_futa
v -3 -0.5 4
v 2.75 -0.5 4
v 2.75 -0.5 -4
v -3 -0.5 -4
v -4 -0.75 -2.1875
v 4 -0.75 4
v 4 -0.75 -4
v -4 -0.75 -4
v -4 -0.5 4
v -3 -0.5 4
v -3 -0.5 -4
v -4 -0.5 -4
v -4 -0.75 4
v 4 -0.75 4
v -4 -0.75 -2.1875
vt -12 -17
vt 11 -17
vt 11 15
vt -12 15
vt -16 7.75
vt 16 -17
vt 16 15
vt -16 15
vt -16 -17
vt -12 -17
vt -12 15
vt -16 15
vt -16 -17
vt 16 -17
vt -16 7.75
vn 0 0.998046875 0
vn 0 0.998046875 0
vn 0 0.998046875 0
vn 0 0.998046875 0
vn 0 0.998046875 0
vn 0 0.998046875 0
vn 0 0.998046875 0
vn 0 0.998046875 0
vn 0 0.998046875 0
vn 0 0.998046875 0
vn 0 0.998046875 0
vn 0 0.998046875 0
vn 0 0.998046875 0
vn 0 0.998046875 0
vn 0 0.998046875 0
f 1/1/1 2/2/2 3/3/3
f 3/3/3 4/4/4 1/1/1
f 5/5/5 6/6/6 7/7/7
f 7/7/7 8/8/8 5/5/5
f 9/9/9 10/10/10 11/11/11
f 11/11/11 12/12/12 9/9/9
f 13/13/13 14/14/14 15/15/15
o polygon1
g polygon1
usemtl out57_gake1_0
v 2.75 -0.5 4
v 2.875 -0.5625 4
v 2.875 -0.5625 -4
v 2.75 -0.5 -4
vt -31 0
vt -31 -1
vt 1 -1
vt 1 0
vn 0 0.998046875 0
vn 0.662109375 0.75 0
vn 0.662109375 0.75 0
vn 0 0.998046875 0
f 16/16/16 17/17/17 18/18/18
f 18/18/18 19/19/19 16/16/16
o polygon2
g polygon2
usemtl out57_gake01a
v 2.875 -0.5625 -4
v 2.875 -0.5625 4
v 3 -0.75 4
v 3 -0.75 -4
vt 1 0
vt -31 0
vt -31 -1
vt 1 -1
vn 0.662109375 0.75 0
vn 0.662109375 0.75 0
vn 0.83203125 0.5546875 0
vn 0.83203125 0.5546875 0
f 20/20/20 21/21/21 22/22/22
f 22/22/22 23/23/23 20/20/20
