# Created with Spiky's DS Map Editor 1.8.1.0
mtllib 131.mtl
o polygon0
g polygon0
usemtl h_test_lm1
v -4.25 2 1.75
v -1.75 2 4.25
v 0 2 0
v 1.75 2 4.25
v 4.25 2 1.75
v 4.25 2 1.75
v 4.25 2 -1.75
v 0 2 0
v 1.75 2 -4.25
v -1.75 2 -4.25
v -1.75 2 -4.25
v -4.25 2 -1.75
v 0 2 0
v -4.25 2 1.75
v -1.75 2 -4.25
v -1.75 0.25 -4.25
v -4.25 0.25 -1.75
v -4.25 2 -1.75
v 4.25 0.25 -1.75
v 4.25 2 -1.75
v 4.25 2 1.75
v 4.25 0.25 1.75
v -4.25 0.25 1.75
v -4.25 2 1.75
v -4.25 2 -1.75
v -4.25 0.25 -1.75
v 1.75 2 -4.25
v 4.25 2 -1.75
v 4.25 0.25 -1.75
v 1.75 0.25 -4.25
v 4.25 2 1.75
v 1.75 2 4.25
v 1.75 0.25 4.25
v 4.25 0.25 1.75
v 1.75 0.25 -4.25
v -1.75 0.25 -4.25
v -1.75 2 -4.25
v 1.75 2 -4.25
v -1.75 0.25 4.25
v -1.75 2 4.25
v -4.25 2 1.75
v -4.25 0.25 1.75
vt 0.5703125 -0.015625
vt 0.5703125 -0.015625
vt 0.5703125 -0.984375
vt 0.5703125 -0.015625
vt 0.5703125 -0.015625
vt 0.5703125 -0.015625
vt 0.5703125 -0.015625
vt 0.5703125 -0.984375
vt 0.5703125 -0.015625
vt 0.5703125 -0.015625
vt 0.5703125 -0.015625
vt 0.5703125 -0.015625
vt 0.5703125 -0.984375
vt 0.5703125 -0.015625
vt 0.19140625 -0.01953125
vt 0.19140625 -0.984375
vt 0.19140625 -0.984375
vt 0.19140625 -0.01953125
vt 0.19140625 -0.984375
vt 0.19140625 -0.01953125
vt 0.19140625 -0.01953125
vt 0.19140625 -0.984375
vt 0.19140625 -0.984375
vt 0.19140625 -0.01953125
vt 0.19140625 -0.01953125
vt 0.19140625 -0.984375
vt 0.19140625 -0.01953125
vt 0.19140625 -0.01953125
vt 0.19140625 -0.984375
vt 0.19140625 -0.984375
vt 0.19140625 -0.984375
vt 0.19140625 -0.984375
vt 0.19140625 -0.01953125
vt 0.19140625 -0.01953125
vt 0.19140625 -0.984375
vt 0.19140625 -0.984375
vt 0.19140625 -0.01953125
vt 0.19140625 -0.01953125
vt 0.19140625 -0.984375
vt 0.19140625 -0.01953125
vt 0.19140625 -0.01953125
vt 0.19140625 -0.984375
vn 0 0.998046875 0
vn 0 0.998046875 0
vn 0 0.998046875 0
vn 0 0.998046875 0
vn 0 0.998046875 0
vn 0 0.998046875 0
vn 0 0.998046875 0
vn 0 0.998046875 0
vn 0 0.998046875 0
vn 0 0.998046875 0
vn 0 0.998046875 0
vn 0 0.998046875 0
vn 0 0.998046875 0
vn 0 0.998046875 0
vn -0.384765625 0 -0.923828125
vn -0.384765625 0 -0.923828125
vn -0.384765625 0 -0.923828125
vn -0.384765625 0 -0.923828125
vn 0.923828125 0 0.384765625
vn 0.923828125 0 0.384765625
vn 0.923828125 0 0.384765625
vn 0.923828125 0 0.384765625
vn -0.923828125 0 -0.384765625
vn -0.923828125 0 -0.384765625
vn -0.923828125 0 -0.384765625
vn -0.923828125 0 -0.384765625
vn 0.923828125 0 -0.384765625
vn 0.923828125 0 -0.384765625
vn 0.923828125 0 -0.384765625
vn 0.923828125 0 -0.384765625
vn 0.384765625 0 0.923828125
vn 0.384765625 0 0.923828125
vn 0.384765625 0 0.923828125
vn 0.384765625 0 0.923828125
vn 0.384765625 0 -0.923828125
vn 0.384765625 0 -0.923828125
vn 0.384765625 0 -0.923828125
vn 0.384765625 0 -0.923828125
vn -0.923828125 0 0.384765625
vn -0.923828125 0 0.384765625
vn -0.923828125 0 0.384765625
vn -0.923828125 0 0.384765625
f 1/1/1 2/2/2 3/3/3
f 2/2/2 4/4/4 3/3/3
f 3/3/3 4/4/4 5/5/5
f 6/6/6 7/7/7 8/8/8
f 7/7/7 9/9/9 8/8/8
f 8/8/8 9/9/9 10/10/10
f 11/11/11 12/12/12 13/13/13
f 12/12/12 14/14/14 13/13/13
f 15/15/15 16/16/16 17/17/17
f 17/17/17 18/18/18 15/15/15
f 19/19/19 20/20/20 21/21/21
f 21/21/21 22/22/22 19/19/19
f 23/23/23 24/24/24 25/25/25
f 25/25/25 26/26/26 23/23/23
f 27/27/27 28/28/28 29/29/29
f 29/29/29 30/30/30 27/27/27
f 31/31/31 32/32/32 33/33/33
f 33/33/33 34/34/34 31/31/31
f 35/35/35 36/36/36 37/37/37
f 37/37/37 38/38/38 35/35/35
f 39/39/39 40/40/40 41/41/41
f 41/41/41 42/42/42 39/39/39
o polygon1
g polygon1
usemtl h_kage_lm1
v 1.25 0.25 3
v 2 0.25 4.75
v 3 0.25 1.25
v 4.75 0.25 2
v 3 0.25 -1.25
v 4.75 0.25 -2
v 1.25 0.25 -3
v 2 0.25 -4.75
v -1.25 0.25 -3
v -2 0.25 -4.75
v -3 0.25 -1.25
v -4.75 0.25 -2
v -3 0.25 1.25
v -4.75 0.25 2
v -1.25 0.25 3
v -2 0.25 4.75
vt 0.5 -0.875
vt 0.5 -0.125
vt 0.5 -0.875
vt 0.5 -0.125
vt 0.5 -0.875
vt 0.5 -0.125
vt 0.5 -0.875
vt 0.5 -0.125
vt 0.5 -0.875
vt 0.5 -0.125
vt 0.5 -0.875
vt 0.5 -0.125
vt 0.5 -0.875
vt 0.5 -0.125
vt 0.5 -0.875
vt 0.5 -0.125
vn 0 0.998046875 0
vn 0 0.998046875 0
vn 0 0.998046875 0
vn 0 0.998046875 0
vn 0 0.998046875 0
vn 0 0.998046875 0
vn 0 0.998046875 0
vn 0 0.998046875 0
vn 0 0.998046875 0
vn 0 0.998046875 0
vn 0 0.998046875 0
vn 0 0.998046875 0
vn 0 0.998046875 0
vn 0 0.998046875 0
vn 0 0.998046875 0
vn 0 0.998046875 0
f 43/43/43 44/44/44 45/45/45
f 44/44/44 46/46/46 45/45/45
f 45/45/45 46/46/46 47/47/47
f 46/46/46 48/48/48 47/47/47
f 47/47/47 48/48/48 49/49/49
f 48/48/48 50/50/50 49/49/49
f 49/49/49 50/50/50 51/51/51
f 50/50/50 52/52/52 51/51/51
f 51/51/51 52/52/52 53/53/53
f 52/52/52 54/54/54 53/53/53
f 53/53/53 54/54/54 55/55/55
f 54/54/54 56/56/56 55/55/55
f 55/55/55 56/56/56 57/57/57
f 56/56/56 58/58/58 57/57/57
o polygon2
g polygon2
usemtl lambert3
v 2 2.097412109375 -3.505615234375
v 0 2.097412109375 -3.505615234375
v 0 2.942626953125 -1.69287109375
v 2 2.942626953125 -1.69287109375
v -0.5 2.097412109375 -3.505615234375
v -2.5 2.097412109375 -3.505615234375
v -2.5 2.942626953125 -1.69287109375
v -0.5 2.942626953125 -1.69287109375
v 1 2.662841796875 -2.24609375
v -1 2.662841796875 -2.24609375
v -1 2.837158203125 -0.25390625
v 1 2.837158203125 -0.25390625
v 2 2.519775390625 1.35400390625
v 0 2.519775390625 1.35400390625
v 0 3.666748046875 2.992431640625
v 2 3.666748046875 2.992431640625
v -0.5 2.519775390625 1.35400390625
v -2.5 2.519775390625 1.35400390625
v -2.5 3.666748046875 2.992431640625
v -0.5 3.666748046875 2.992431640625
v 3.5 2.532958984375 -0.189697265625
v 1.5 2.532958984375 -0.189697265625
v 1.5 3.217041015625 1.689697265625
v 3.5 3.217041015625 1.689697265625
v -1.5 2.532958984375 -0.189697265625
v -3.5 2.532958984375 -0.189697265625
v -3.5 3.217041015625 1.689697265625
v -1.5 3.217041015625 1.689697265625
v -1.5 2.662841796875 -2.24609375
v -3.5 2.662841796875 -2.24609375
v -3.5 2.837158203125 -0.25390625
v -1.5 2.837158203125 -0.25390625
v 3.5 2.662841796875 -2.24609375
v 1.5 2.662841796875 -2.24609375
v 1.5 2.837158203125 -0.25390625
v 3.5 2.837158203125 -0.25390625
v 1 2.532958984375 -0.189697265625
v -1 2.532958984375 -0.189697265625
v -1 3.217041015625 1.689697265625
v 1 3.217041015625 1.689697265625
vt 0 -1
vt 1 -1
vt 1 0
vt 0 0
vt 0 -1
vt 1 -1
vt 1 0
vt 0 0
vt 0 -1
vt 1 -1
vt 1 0
vt 0 0
vt 0 -1
vt 1 -1
vt 1 0
vt 0 0
vt 0 -1
vt 1 -1
vt 1 0
vt 0 0
vt 0 -1
vt 1 -1
vt 1 0
vt 0 0
vt 0 -1
vt 1 -1
vt 1 0
vt 0 0
vt 0 -1
vt 1 -1
vt 1 0
vt 0 0
vt 0 -1
vt 1 -1
vt 1 0
vt 0 0
vt 0 -1
vt 1 -1
vt 1 0
vt 0 0
vn 0 0.90625 -0.421875
vn 0 0.90625 -0.421875
vn 0 0.90625 -0.421875
vn 0 0.90625 -0.421875
vn 0 0.90625 -0.421875
vn 0 0.90625 -0.421875
vn 0 0.90625 -0.421875
vn 0 0.90625 -0.421875
vn 0 0.99609375 -0.087890625
vn 0 0.99609375 -0.087890625
vn 0 0.99609375 -0.087890625
vn 0 0.99609375 -0.087890625
vn 0 0.818359375 -0.57421875
vn 0 0.818359375 -0.57421875
vn 0 0.818359375 -0.57421875
vn 0 0.818359375 -0.57421875
vn 0 0.818359375 -0.57421875
vn 0 0.818359375 -0.57421875
vn 0 0.818359375 -0.57421875
vn 0 0.818359375 -0.57421875
vn 0 0.939453125 -0.341796875
vn 0 0.939453125 -0.341796875
vn 0 0.939453125 -0.341796875
vn 0 0.939453125 -0.341796875
vn 0 0.939453125 -0.341796875
vn 0 0.939453125 -0.341796875
vn 0 0.939453125 -0.341796875
vn 0 0.939453125 -0.341796875
vn 0 0.998046875 0
vn 0 0.998046875 0
vn 0 0.998046875 0
vn 0 0.99609375 -0.087890625
vn 0 0.998046875 0
vn 0 0.998046875 0
vn 0 0.998046875 0
vn 0 0.99609375 -0.087890625
vn 0 0.998046875 0
vn 0 0.998046875 0
vn 0 0.998046875 0
vn 0 0.998046875 0
f 59/59/59 60/60/60 61/61/61
f 61/61/61 62/62/62 59/59/59
f 63/63/63 64/64/64 65/65/65
f 65/65/65 66/66/66 63/63/63
f 67/67/67 68/68/68 69/69/69
f 69/69/69 70/70/70 67/67/67
f 71/71/71 72/72/72 73/73/73
f 73/73/73 74/74/74 71/71/71
f 75/75/75 76/76/76 77/77/77
f 77/77/77 78/78/78 75/75/75
f 79/79/79 80/80/80 81/81/81
f 81/81/81 82/82/82 79/79/79
f 83/83/83 84/84/84 85/85/85
f 85/85/85 86/86/86 83/83/83
f 87/87/87 88/88/88 89/89/89
f 89/89/89 90/90/90 87/87/87
f 91/91/91 92/92/92 93/93/93
f 93/93/93 94/94/94 91/91/91
f 95/95/95 96/96/96 97/97/97
f 97/97/97 98/98/98 95/95/95
o polygon3
g polygon3
usemtl lambert6
v -0.10009765625 2.908447265625 -0.268798828125
v -2.89990234375 2.908447265625 -0.268798828125
v -2.89990234375 4.091552734375 2.268798828125
v -0.10009765625 4.091552734375 2.268798828125
v 2.89990234375 2.908447265625 -0.268798828125
v 0.10009765625 2.908447265625 -0.268798828125
v 0.10009765625 4.091552734375 2.268798828125
v 2.89990234375 4.091552734375 2.268798828125
v -0.10009765625 2.7568359375 -3.128662109375
v -2.89990234375 2.7568359375 -3.128662109375
v -2.89990234375 3.2431640625 -0.371337890625
v -0.10009765625 3.2431640625 -0.371337890625
v 2.89990234375 2.7568359375 -3.128662109375
v 0.10009765625 2.7568359375 -3.128662109375
v 0.10009765625 3.2431640625 -0.371337890625
v 2.89990234375 3.2431640625 -0.371337890625
vt 1 0
vt 0 0
vt 0 -1
vt 1 -1
vt 0 0
vt 1 0
vt 1 -1
vt 0 -1
vt 1 -1
vt 0 -1
vt 0 0
vt 1 0
vt 0 -1
vt 1 -1
vt 1 0
vt 0 0
vn 0 0.90625 -0.421875
vn 0 0.90625 -0.421875
vn 0 0.90625 -0.421875
vn 0 0.90625 -0.421875
vn 0 0.90625 -0.421875
vn 0 0.90625 -0.421875
vn 0 0.90625 -0.421875
vn 0 0.90625 -0.421875
vn 0 0.984375 -0.173828125
vn 0 0.984375 -0.173828125
vn 0 0.984375 -0.173828125
vn 0 0.984375 -0.173828125
vn 0 0.998046875 0
vn 0 0.998046875 0
vn 0 0.998046875 0
vn 0 0.984375 -0.173828125
f 99/99/99 100/100/100 101/101/101
f 101/101/101 102/102/102 99/99/99
f 103/103/103 104/104/104 105/105/105
f 105/105/105 106/106/106 103/103/103
f 107/107/107 108/108/108 109/109/109
f 109/109/109 110/110/110 107/107/107
f 111/111/111 112/112/112 113/113/113
f 113/113/113 114/114/114 111/111/111
o polygon4
g polygon4
usemtl lambert5
v 1.56005859375 3.216552734375 -1.9658203125
v -1.56005859375 3.216552734375 -1.9658203125
v -1.56005859375 4.283447265625 0.9658203125
v 1.56005859375 4.283447265625 0.9658203125
vt 1 -1
vt 0 -1
vt 0 0
vt 1 0
vn 0 0.939453125 -0.341796875
vn 0 0.939453125 -0.341796875
vn 0 0.939453125 -0.341796875
vn 0 0.939453125 -0.341796875
f 115/115/115 116/116/116 117/117/117
f 117/117/117 118/118/118 115/115/115
