# Created with Spiky's DS Map Editor 1.8.1.0
mtllib 178.mtl
o polygon0
g polygon0
usemtl lambert5
v -4.75 0.25 3.5244140625
v -4.75 0.25 4.75
v -3.49072265625 0.25 3.5244140625
v -3.49072265625 0.25 4.75
v 4.24072265625 0.25 4.75
v 5.5 0.25 4.75
v 4.24072265625 0.25 3.5244140625
v 5.5 0.25 3.5244140625
v -4.75 0.25 3.5244140625
v -3.49072265625 0.25 3.5244140625
v -3.49072265625 0.25 -4
v -4.75 0.25 -4
v 4.24072265625 0.25 -4
v -3.49072265625 0.25 -4
v -3.49072265625 0.25 3.5244140625
v 4.24072265625 0.25 3.5244140625
v -3.49072265625 0.25 4.75
v 4.24072265625 0.25 4.75
v 4.24072265625 0.25 3.5244140625
v -3.49072265625 0.25 3.5244140625
v 5.5 0.25 3.5244140625
v 5.5 0.25 -4
v 4.24072265625 0.25 -4
v 4.24072265625 0.25 3.5244140625
vt -0.453125 -0.0078125
vt -0.453125 -0.0078125
vt -0.453125 -0.9765625
vt -0.453125 -0.0078125
vt -0.453125 -0.0078125
vt -0.453125 -0.0078125
vt -0.453125 -0.9765625
vt -0.453125 -0.0078125
vt 0.46875 -0.0078125
vt 0.46875 -0.9765625
vt 0.09375 -0.9765625
vt 0.09375 -0.0078125
vt 0.09375 0.125
vt 0.09375 0.125
vt 0.09375 0.125
vt 0.09375 0.125
vt 0.09375 -0.0078125
vt 0.09375 -0.0078125
vt 0.09375 -0.9765625
vt 0.09375 -0.9765625
vt 0.46875 -0.0078125
vt 0.09375 -0.0078125
vt 0.09375 -0.9765625
vt 0.46875 -0.9765625
vn 0 0.998046875 0
vn 0 0.998046875 0
vn 0 0.998046875 0
vn 0 0.998046875 0
vn 0 0.998046875 0
vn 0 0.998046875 0
vn 0 0.998046875 0
vn 0 0.998046875 0
vn 0 0.998046875 0
vn 0 0.998046875 0
vn 0 0.998046875 0
vn 0 0.998046875 0
vn 0 0.998046875 0
vn 0 0.998046875 0
vn 0 0.998046875 0
vn 0 0.998046875 0
vn 0 0.998046875 0
vn 0 0.998046875 0
vn 0 0.998046875 0
vn 0 0.998046875 0
vn 0 0.998046875 0
vn 0 0.998046875 0
vn 0 0.998046875 0
vn 0 0.998046875 0
f 1/1/1 2/2/2 3/3/3
f 2/2/2 4/4/4 3/3/3
f 5/5/5 6/6/6 7/7/7
f 6/6/6 8/8/8 7/7/7
f 9/9/9 10/10/10 11/11/11
f 11/11/11 12/12/12 9/9/9
f 13/13/13 14/14/14 15/15/15
f 15/15/15 16/16/16 13/13/13
f 17/17/17 18/18/18 19/19/19
f 19/19/19 20/20/20 17/17/17
f 21/21/21 22/22/22 23/23/23
f 23/23/23 24/24/24 21/21/21
o polygon1
g polygon1
usemtl lambert3
v 4.5 4.1083984375 3.25
v 4.5 4.875 3.25
v 3.75 4.1083984375 3.25
v 3.75 4.875 3.25
v -0.125 4.1083984375 3.25
v -0.125 4.875 3.25
v -0.75 4.1083984375 3.25
v -0.75 4.875 3.25
v -3.25 4.1083984375 3.25
v -3.25 4.875 3.25
v -3.875 4.1083984375 3.25
v -3.875 4.875 3.25
v 0.507568359375 1.641357421875 3
v -0.125 0.5 3
v 3.15576171875 1.641357421875 3
v 3.75 0.5 3
v 3.15576171875 3.88330078125 3
v 3.75 4.1083984375 3
v 0.507568359375 3.88330078125 3
v -0.125 4.1083984375 3
v 0.507568359375 1.641357421875 3
v -0.125 0.5 3
v 5 4.375 -4.75
v 5 5.375 -4.75
v 5 5.765625 -1
v 5 6.703125 -1
v 5 5.765625 0
v 5 6.703125 0
v 5 4.375 3.75
v 5 5.375 3.75
v -4.5 5.375 -4.75
v -4.5 4.375 -4.75
v -4.5 6.703125 -1
v -4.5 5.765625 -1
v -4.5 6.703125 0
v -4.5 5.765625 0
v -4.5 5.375 3.75
v -4.5 4.375 3.75
v -3.875 4.875 3
v -3.875 4.875 3.25
v -3.25 4.875 3
v -3.25 4.875 3.25
v -0.75 4.875 3
v -0.75 4.875 3.25
v -0.125 4.875 3
v -0.125 4.875 3.25
v 4.5 4.875 -3.75
v 4.5 5.875 -1.75
v 4.5 4.875 -0.5
v 4.5 5.875 -0.5
v 4.5 4.875 3.25
v 4.5 5.875 0.75
v -4.5 6.703125 0
v 0 6.703125 0
v -4.5 7.375 0
v 0 7.375 0
v -4.5 7.375 -1
v 0 7.375 -1
v -4.5 4.375 3.75
v 0 4.375 3.75
v -4.5 5.375 3.75
v 0 5.375 3.75
v -4.5 6.703125 0
v 0 6.703125 0
v 0 6.703125 0
v 5 6.703125 0
v 0 7.375 0
v 5 7.375 0
v 0 7.375 -1
v 5 7.375 -1
v -4.5 7.375 -1
v -5 7.9609375 -1
v -4.5 7.375 0
v -5 7.9609375 0
v -4.5 6.703125 0
v -5 7.125 0
v 0 4.375 3.75
v 5 4.375 3.75
v 0 5.375 3.75
v 5 5.375 3.75
v 0 6.703125 0
v 5 6.703125 0
v -3.875 4.1083984375 -3.75
v -3.875 0.5 -3.75
v -3.875 4.1083984375 -0.5
v -3.875 0.5 -0.5
v -3.875 4.1083984375 3.25
v -3.875 0.5 3.25
v -3.875 4.1083984375 3.25
v -3.875 4.875 3.25
v -3.875 4.1083984375 -0.5
v -3.875 4.875 -0.5
v -3.875 4.1083984375 -3.75
v -3.875 4.875 -3.75
v -3.875 5.875 -1.75
v -3.875 4.875 -3.75
v -3.875 5.875 -0.5
v -3.875 4.875 -0.5
v -3.875 5.875 0.75
v -3.875 4.875 3.25
v 4.5 0.5 -3.75
v 4.5 4.1083984375 -3.75
v 4.5 0.5 -0.5
v 4.5 4.1083984375 -0.5
v 4.5 0.5 3.25
v 4.5 4.1083984375 3.25
v 4.5 4.875 3.25
v 4.5 4.1083984375 3.25
v 4.5 4.875 -0.5
v 4.5 4.1083984375 -0.5
v 4.5 4.875 -3.75
v 4.5 4.1083984375 -3.75
v 5 6.703125 0
v 5.5 7.25 0
v 5 7.375 0
v 5.5 7.9609375 0
v 5 7.375 -1
v 5.5 7.9609375 -1
v -5 7.125 -1
v -5 7.125 0
v -5 7.9609375 0
v -5 7.9609375 -1
v 0 5.375 -4.75
v -4.5 5.375 -4.75
v -4.5 6.703125 -1
v 0 6.703125 -1
v -0.75 0.5 3
v -0.75 4.1083984375 3
v -0.75 4.120849609375 0.375
v -0.75 0.5 0.375
v -3.25 0.5 3
v -0.75 0.5 3
v -0.75 0.5 0.375
v -3.25 0.5 0.375
v -3.25 4.1083984375 3
v -3.25 0.5 3
v -3.25 0.5 0.375
v -3.25 4.120849609375 0.375
v 3.75 4.1083984375 3
v 3.75 0.5 3
v 3.75 0.5 3.25
v 3.75 4.1083984375 3.25
v -3.25 0.5 3
v -3.25 4.1083984375 3
v -3.25 4.1083984375 3.25
v -3.25 0.5 3.25
v -0.125 0.5 3
v -0.125 4.1083984375 3
v -0.125 4.1083984375 3.25
v -0.125 0.5 3.25
v -0.75 4.1083984375 3
v -0.75 0.5 3
v -0.75 0.5 3.25
v -0.75 4.1083984375 3.25
v 5.5 7.25 0
v 5.5 7.25 -1
v 5.5 7.9609375 -1
v 5.5 7.9609375 0
v 3.15576171875 1.641357421875 3
v 3.15576171875 3.88330078125 3
v 2.913818359375 3.38720703125 3
v 2.913818359375 2.13720703125 3
v 2.913818359375 2.13720703125 3
v 0.757568359375 2.13720703125 3
v 0.507568359375 1.641357421875 3
v 3.15576171875 1.641357421875 3
v 3.15576171875 3.88330078125 3
v 0.507568359375 3.88330078125 3
v 0.757568359375 3.38720703125 3
v 2.913818359375 3.38720703125 3
v 0.507568359375 3.88330078125 3
v 0.507568359375 1.641357421875 3
v 0.757568359375 2.13720703125 3
v 0.757568359375 3.38720703125 3
v 2.382568359375 1.76220703125 3.01708984375
v 2.632568359375 1.76220703125 3.01708984375
v 2.632568359375 3.63720703125 3.01708984375
v 2.382568359375 3.63720703125 3.01708984375
v -3.25 4.1083984375 3.25
v -3.875 4.1083984375 3.25
v -3.875 0.5 3.25
v -3.25 0.5 3.25
v 4.5 4.1083984375 3.25
v 3.75 4.1083984375 3.25
v 3.75 0.5 3.25
v 4.5 0.5 3.25
v -0.75 4.120849609375 0.375
v -3.25 4.120849609375 0.375
v -3.25 0.5 0.375
v -0.75 0.5 0.375
v 5 5.375 -4.75
v 0 5.375 -4.75
v 0 6.703125 -1
v 5 6.703125 -1
v 1.757568359375 1.76220703125 3.01708984375
v 2.007568359375 1.76220703125 3.01708984375
v 2.007568359375 3.63720703125 3.01708984375
v 1.757568359375 3.63720703125 3.01708984375
v 1.132568359375 1.76220703125 3.01708984375
v 1.382568359375 1.76220703125 3.01708984375
v 1.382568359375 3.63720703125 3.01708984375
v 1.132568359375 3.63720703125 3.01708984375
v -0.125 4.1083984375 3.25
v -0.75 4.1083984375 3.25
v -0.75 0.5 3.25
v -0.125 0.5 3.25
vt 0.5625 -1.078125
vt 0.5625 -1.078125
vt 0.5625 -1.078125
vt 0.5625 -1.078125
vt 0.5625 -1.078125
vt 0.5625 -1.078125
vt 0.5625 -1.078125
vt 0.5625 -1.078125
vt 0.5625 -1.078125
vt 0.5625 -1.078125
vt 0.5625 -1.078125
vt 0.5625 -1.078125
vt 0.68359375 -1.421875
vt 0.625 -1.609375
vt 0.9296875 -1.421875
vt 0.984375 -1.609375
vt 0.9296875 -1.052734375
vt 0.984375 -1.015625
vt 0.68359375 -1.052734375
vt 0.625 -1.015625
vt 0.68359375 -1.421875
vt 0.625 -1.609375
vt 0.1875 -0.6875
vt 0.1875 -0.6875
vt 0.1875 -0.6875
vt 0.1875 -0.6875
vt 0.1875 -0.6875
vt 0.1875 -0.6875
vt 0.1875 -0.6875
vt 0.1875 -0.6875
vt 0.1875 -0.6875
vt 0.1875 -0.6875
vt 0.1875 -0.6875
vt 0.1875 -0.6875
vt 0.1875 -0.6875
vt 0.1875 -0.6875
vt 0.1875 -0.6875
vt 0.1875 -0.6875
vt 0.5625 -1.28125
vt 0.5625 -1.28125
vt 0.5625 -1.28125
vt 0.5625 -1.28125
vt 0.5625 -1.28125
vt 0.5625 -1.28125
vt 0.5625 -1.28125
vt 0.5625 -1.28125
vt -1 -0.953125
vt -0.796875 -0.75
vt -0.75 -0.953125
vt -0.75 -0.75
vt -1 -0.953125
vt -0.796875 -0.75
vt -0.484375 -0.984375
vt -0.015625 -0.984375
vt -0.484375 -0.921875
vt -0.015625 -0.921875
vt -0.484375 -0.8125
vt -0.015625 -0.8125
vt 0.015625 -1.625
vt 0.484375 -1.625
vt 0.015625 -1.5
vt 0.484375 -1.5
vt 0.015625 -1.015625
vt 0.484375 -1.015625
vt -0.484375 -0.984375
vt -0.015625 -0.984375
vt -0.484375 -0.921875
vt -0.015625 -0.921875
vt -0.484375 -0.8125
vt -0.015625 -0.8125
vt -0.34375 -0.8125
vt -0.4375 -0.8125
vt -0.34375 -0.921875
vt -0.4375 -0.921875
vt -0.34375 -0.984375
vt -0.4375 -0.984375
vt 0.015625 -1.625
vt 0.484375 -1.625
vt 0.015625 -1.5
vt 0.484375 -1.5
vt 0.015625 -1.015625
vt 0.484375 -1.015625
vt 0.515625 -0.015625
vt 0.515625 -0.609375
vt 0.890625 -0.015625
vt 0.890625 -0.609375
vt 0.515625 -0.015625
vt 0.515625 -0.609375
vt 0.5625 -1.078125
vt 0.5625 -1.078125
vt 0.5625 -1.078125
vt 0.5625 -1.078125
vt 0.5625 -1.078125
vt 0.5625 -1.078125
vt -0.796875 -0.75
vt -1 -0.953125
vt -0.75 -0.75
vt -0.75 -0.953125
vt -0.796875 -0.75
vt -1 -0.953125
vt 0.515625 -0.609375
vt 0.515625 -0.015625
vt 0.890625 -0.609375
vt 0.890625 -0.015625
vt 0.515625 -0.609375
vt 0.515625 -0.015625
vt 0.5625 -1.078125
vt 0.5625 -1.078125
vt 0.5625 -1.078125
vt 0.5625 -1.078125
vt 0.5625 -1.078125
vt 0.5625 -1.078125
vt -0.34375 -0.984375
vt -0.4375 -0.984375
vt -0.34375 -0.921875
vt -0.4375 -0.921875
vt -0.34375 -0.8125
vt -0.4375 -0.8125
vt 0.1875 -0.6875
vt 0.1875 -0.6875
vt 0.1875 -0.6875
vt 0.1875 -0.6875
vt 0.484375 -1.015625
vt 0.015625 -1.015625
vt 0.015625 -1.5
vt 0.484375 -1.5
vt 0.564453125 -0.6943359375
vt 0.5625 -0.671875
vt 0.5390625 -0.6689453125
vt 0.5419921875 -0.69140625
vt 0.515625 -0.78125
vt 0.859375 -0.78125
vt 0.859375 -0.640625
vt 0.515625 -0.640625
vt 0.544921875 -0.666015625
vt 0.5478515625 -0.6884765625
vt 0.5703125 -0.69140625
vt 0.5673828125 -0.6689453125
vt 0.5625 -1.125
vt 0.5625 -1.125
vt 0.5625 -1.125
vt 0.5625 -1.125
vt 0.5625 -1.125
vt 0.5625 -1.125
vt 0.5625 -1.125
vt 0.5625 -1.125
vt 0.5625 -1.125
vt 0.5625 -1.125
vt 0.5625 -1.125
vt 0.5625 -1.125
vt 0.5625 -1.125
vt 0.5625 -1.125
vt 0.5625 -1.125
vt 0.5625 -1.125
vt 0.1875 -0.6875
vt 0.1875 -0.6875
vt 0.1875 -0.6875
vt 0.1875 -0.6875
vt -0.900390625 -0.708984375
vt -0.900390625 -0.6474609375
vt -0.91796875 -0.66015625
vt -0.91796875 -0.6943359375
vt -0.9140625 -0.697265625
vt -0.96875 -0.697265625
vt -0.974609375 -0.708984375
vt -0.9072265625 -0.708984375
vt -0.9052734375 -0.650390625
vt -0.9736328125 -0.650390625
vt -0.966796875 -0.66015625
vt -0.912109375 -0.66015625
vt -0.9775390625 -0.6474609375
vt -0.9775390625 -0.708984375
vt -0.9638671875 -0.6943359375
vt -0.9638671875 -0.66015625
vt -0.9775390625 -0.70703125
vt -0.90234375 -0.70703125
vt -0.90234375 -0.6474609375
vt -0.9775390625 -0.6474609375
vt 0.59375 -1.015625
vt 0.515625 -1.015625
vt 0.515625 -1.609375
vt 0.59375 -1.609375
vt 0.59375 -1.015625
vt 0.515625 -1.015625
vt 0.515625 -1.609375
vt 0.59375 -1.609375
vt 0.5751953125 -0.7021484375
vt 0.572265625 -0.669921875
vt 0.53515625 -0.6669921875
vt 0.5380859375 -0.69921875
vt 0.484375 -1.015625
vt 0.015625 -1.015625
vt 0.015625 -1.5
vt 0.484375 -1.5
vt -0.9775390625 -0.70703125
vt -0.90234375 -0.70703125
vt -0.90234375 -0.6474609375
vt -0.9775390625 -0.6474609375
vt -0.9775390625 -0.70703125
vt -0.90234375 -0.70703125
vt -0.90234375 -0.6474609375
vt -0.9775390625 -0.6474609375
vt 0.59375 -1.015625
vt 0.515625 -1.015625
vt 0.515625 -1.609375
vt 0.59375 -1.609375
vn 0 0 0.998046875
vn 0 0 0.998046875
vn -0.19140625 0 0.982421875
vn 0 0 0.998046875
vn 0.19140625 0 0.982421875
vn 0 0 0.998046875
vn -0.19140625 0 0.982421875
vn 0 0.310546875 0.951171875
vn 0.19140625 0 0.982421875
vn 0 0.310546875 0.951171875
vn 0 0 0.998046875
vn 0 0.310546875 0.951171875
vn 0 0 0.998046875
vn 0.1328125 0 0.990234375
vn 0 0 0.998046875
vn -0.13671875 0 0.990234375
vn 0 0 0.998046875
vn -0.31640625 0 0.94921875
vn 0 0 0.998046875
vn 0.275390625 0 0.9609375
vn 0 0 0.998046875
vn 0.1328125 0 0.990234375
vn 0.998046875 0 0
vn 0.185546875 0.92578125 -0.328125
vn 0.998046875 0 0
vn 0.185546875 0.92578125 -0.328125
vn 0.998046875 0 0
vn 0.16796875 0.837890625 0.51953125
vn 0.599609375 0 0.80078125
vn 0.16796875 0.837890625 0.51953125
vn -0.205078125 0.921875 -0.326171875
vn -1 0 0
vn -0.205078125 0.921875 -0.326171875
vn -1 0 0
vn -0.185546875 0.833984375 0.517578125
vn -1 0 0
vn -0.185546875 0.833984375 0.517578125
vn -0.640625 0 0.767578125
vn 0 0.998046875 0
vn 0 0.310546875 0.951171875
vn 0 0.998046875 0
vn 0 0.310546875 0.951171875
vn 0 0.998046875 0
vn 0 0.310546875 0.951171875
vn 0 0.998046875 0
vn 0 0 0.998046875
vn 0.998046875 0 0
vn 0.998046875 0 0
vn 0.998046875 0 0
vn 0.998046875 0 0
vn 0.998046875 0 0
vn 0.998046875 0 0
vn -0.185546875 0.833984375 0.517578125
vn 0 0.8828125 0.470703125
vn 0.09765625 0.826171875 0.5546875
vn 0 0.830078125 0.55859375
vn 0.1171875 0.994140625 0
vn 0 0.998046875 0
vn -0.640625 0 0.767578125
vn 0 0 0.998046875
vn -0.185546875 0.833984375 0.517578125
vn 0 0.830078125 0.55859375
vn -0.185546875 0.833984375 0.517578125
vn 0 0.8828125 0.470703125
vn 0 0.8828125 0.470703125
vn 0.16796875 0.837890625 0.51953125
vn 0 0.830078125 0.55859375
vn -0.087890625 0.826171875 0.5546875
vn 0 0.998046875 0
vn -0.10546875 0.994140625 0
vn 0.1171875 0.994140625 0
vn -0.447265625 0.89453125 0
vn 0.09765625 0.826171875 0.5546875
vn -0.357421875 0.716796875 0.599609375
vn -0.185546875 0.833984375 0.517578125
vn -0.89453125 0 0.447265625
vn 0 0 0.998046875
vn 0.599609375 0 0.80078125
vn 0 0.830078125 0.55859375
vn 0.16796875 0.837890625 0.51953125
vn 0 0.8828125 0.470703125
vn 0.16796875 0.837890625 0.51953125
vn -1 0 0
vn -1 0 0
vn -1 0 0
vn -1 0 0
vn -1 0 0
vn -1 0 0
vn -1 0 0
vn -1 0 0
vn -1 0 0
vn -1 0 0
vn -1 0 0
vn -1 0 0
vn -1 0 0
vn -1 0 0
vn -1 0 0
vn -1 0 0
vn -1 0 0
vn -1 0 0
vn 0.998046875 0 0
vn 0.998046875 0 0
vn 0.998046875 0 0
vn 0.998046875 0 0
vn 0.998046875 0 0
vn 0.998046875 0 0
vn 0.998046875 0 0
vn 0.998046875 0 0
vn 0.998046875 0 0
vn 0.998046875 0 0
vn 0.998046875 0 0
vn 0.998046875 0 0
vn 0.16796875 0.837890625 0.51953125
vn 0.89453125 0 0.447265625
vn -0.087890625 0.826171875 0.5546875
vn 0.16796875 0.837890625 0.51953125
vn -0.10546875 0.994140625 0
vn 0.2421875 0.970703125 0
vn -1 0 0
vn -0.89453125 0 0.447265625
vn -0.357421875 0.716796875 0.599609375
vn -0.447265625 0.89453125 0
vn 0 0.943359375 -0.333984375
vn -0.205078125 0.921875 -0.326171875
vn -0.205078125 0.921875 -0.326171875
vn 0 0.943359375 -0.333984375
vn -0.845703125 0.53515625 0
vn -1 0 0
vn -0.724609375 0 0.689453125
vn -0.6484375 0.447265625 0.6171875
vn 0.845703125 0.53515625 0
vn -0.845703125 0.53515625 0
vn -0.6484375 0.447265625 0.6171875
vn 0.6484375 0.447265625 0.6171875
vn 0.998046875 0 0
vn 0.845703125 0.53515625 0
vn 0.6484375 0.447265625 0.6171875
vn 0.724609375 0 0.689453125
vn -0.31640625 0 0.94921875
vn -0.13671875 0 0.990234375
vn -0.31640625 0 0.94921875
vn -0.19140625 0 0.982421875
vn 0.845703125 0.53515625 0
vn 0.998046875 0 0
vn 0.19140625 0 0.982421875
vn 0.37109375 0 0.927734375
vn 0.1328125 0 0.990234375
vn 0.275390625 0 0.9609375
vn 0.19140625 0 0.982421875
vn 0.37109375 0 0.927734375
vn -1 0 0
vn -0.845703125 0.53515625 0
vn -0.37109375 0 0.927734375
vn -0.19140625 0 0.982421875
vn 0.89453125 0 0.447265625
vn 0.998046875 0 0
vn 0.2421875 0.970703125 0
vn 0.16796875 0.837890625 0.51953125
vn 0 0 0.998046875
vn 0 0 0.998046875
vn 0 0 0.998046875
vn 0 0 0.998046875
vn 0 0 0.998046875
vn 0 0 0.998046875
vn 0 0 0.998046875
vn 0 0 0.998046875
vn 0 0 0.998046875
vn 0 0 0.998046875
vn 0 0 0.998046875
vn 0 0 0.998046875
vn 0 0 0.998046875
vn 0 0 0.998046875
vn 0 0 0.998046875
vn 0 0 0.998046875
vn 0 0 0.998046875
vn 0 0 0.998046875
vn 0 0 0.998046875
vn 0 0 0.998046875
vn 0.19140625 0 0.982421875
vn 0 0 0.998046875
vn 0 0 0.998046875
vn 0.37109375 0 0.927734375
vn 0 0 0.998046875
vn -0.19140625 0 0.982421875
vn -0.31640625 0 0.94921875
vn 0 0 0.998046875
vn -0.724609375 0 0.689453125
vn 0.724609375 0 0.689453125
vn 0.6484375 0.447265625 0.6171875
vn -0.6484375 0.447265625 0.6171875
vn 0.185546875 0.92578125 -0.328125
vn 0 0.943359375 -0.333984375
vn 0 0.943359375 -0.333984375
vn 0.185546875 0.92578125 -0.328125
vn 0 0 0.998046875
vn 0 0 0.998046875
vn 0 0 0.998046875
vn 0 0 0.998046875
vn 0 0 0.998046875
vn 0 0 0.998046875
vn 0 0 0.998046875
vn 0 0 0.998046875
vn 0.19140625 0 0.982421875
vn -0.19140625 0 0.982421875
vn -0.37109375 0 0.927734375
vn 0.37109375 0 0.927734375
f 25/25/25 26/26/26 27/27/27
f 26/26/26 28/28/28 27/27/27
f 27/27/27 28/28/28 29/29/29
f 28/28/28 30/30/30 29/29/29
f 29/29/29 30/30/30 31/31/31
f 30/30/30 32/32/32 31/31/31
f 31/31/31 32/32/32 33/33/33
f 32/32/32 34/34/34 33/33/33
f 33/33/33 34/34/34 35/35/35
f 34/34/34 36/36/36 35/35/35
f 37/37/37 38/38/38 39/39/39
f 38/38/38 40/40/40 39/39/39
f 39/39/39 40/40/40 41/41/41
f 40/40/40 42/42/42 41/41/41
f 41/41/41 42/42/42 43/43/43
f 42/42/42 44/44/44 43/43/43
f 43/43/43 44/44/44 45/45/45
f 44/44/44 46/46/46 45/45/45
f 47/47/47 48/48/48 49/49/49
f 48/48/48 50/50/50 49/49/49
f 49/49/49 50/50/50 51/51/51
f 50/50/50 52/52/52 51/51/51
f 51/51/51 52/52/52 53/53/53
f 52/52/52 54/54/54 53/53/53
f 55/55/55 56/56/56 57/57/57
f 56/56/56 58/58/58 57/57/57
f 57/57/57 58/58/58 59/59/59
f 58/58/58 60/60/60 59/59/59
f 59/59/59 60/60/60 61/61/61
f 60/60/60 62/62/62 61/61/61
f 63/63/63 64/64/64 65/65/65
f 64/64/64 66/66/66 65/65/65
f 65/65/65 66/66/66 67/67/67
f 66/66/66 68/68/68 67/67/67
f 67/67/67 68/68/68 69/69/69
f 68/68/68 70/70/70 69/69/69
f 71/71/71 72/72/72 73/73/73
f 72/72/72 74/74/74 73/73/73
f 73/73/73 74/74/74 75/75/75
f 74/74/74 76/76/76 75/75/75
f 77/77/77 78/78/78 79/79/79
f 78/78/78 80/80/80 79/79/79
f 79/79/79 80/80/80 81/81/81
f 80/80/80 82/82/82 81/81/81
f 83/83/83 84/84/84 85/85/85
f 84/84/84 86/86/86 85/85/85
f 85/85/85 86/86/86 87/87/87
f 86/86/86 88/88/88 87/87/87
f 89/89/89 90/90/90 91/91/91
f 90/90/90 92/92/92 91/91/91
f 91/91/91 92/92/92 93/93/93
f 92/92/92 94/94/94 93/93/93
f 95/95/95 96/96/96 97/97/97
f 96/96/96 98/98/98 97/97/97
f 97/97/97 98/98/98 99/99/99
f 98/98/98 100/100/100 99/99/99
f 101/101/101 102/102/102 103/103/103
f 102/102/102 104/104/104 103/103/103
f 103/103/103 104/104/104 105/105/105
f 104/104/104 106/106/106 105/105/105
f 107/107/107 108/108/108 109/109/109
f 108/108/108 110/110/110 109/109/109
f 109/109/109 110/110/110 111/111/111
f 110/110/110 112/112/112 111/111/111
f 113/113/113 114/114/114 115/115/115
f 114/114/114 116/116/116 115/115/115
f 115/115/115 116/116/116 117/117/117
f 116/116/116 118/118/118 117/117/117
f 119/119/119 120/120/120 121/121/121
f 120/120/120 122/122/122 121/121/121
f 121/121/121 122/122/122 123/123/123
f 122/122/122 124/124/124 123/123/123
f 125/125/125 126/126/126 127/127/127
f 126/126/126 128/128/128 127/127/127
f 127/127/127 128/128/128 129/129/129
f 128/128/128 130/130/130 129/129/129
f 131/131/131 132/132/132 133/133/133
f 132/132/132 134/134/134 133/133/133
f 133/133/133 134/134/134 135/135/135
f 134/134/134 136/136/136 135/135/135
f 137/137/137 138/138/138 139/139/139
f 138/138/138 140/140/140 139/139/139
f 139/139/139 140/140/140 141/141/141
f 140/140/140 142/142/142 141/141/141
f 143/143/143 144/144/144 145/145/145
f 145/145/145 146/146/146 143/143/143
f 147/147/147 148/148/148 149/149/149
f 149/149/149 150/150/150 147/147/147
f 151/151/151 152/152/152 153/153/153
f 153/153/153 154/154/154 151/151/151
f 155/155/155 156/156/156 157/157/157
f 157/157/157 158/158/158 155/155/155
f 159/159/159 160/160/160 161/161/161
f 161/161/161 162/162/162 159/159/159
f 163/163/163 164/164/164 165/165/165
f 165/165/165 166/166/166 163/163/163
f 167/167/167 168/168/168 169/169/169
f 169/169/169 170/170/170 167/167/167
f 171/171/171 172/172/172 173/173/173
f 173/173/173 174/174/174 171/171/171
f 175/175/175 176/176/176 177/177/177
f 177/177/177 178/178/178 175/175/175
f 179/179/179 180/180/180 181/181/181
f 181/181/181 182/182/182 179/179/179
f 183/183/183 184/184/184 185/185/185
f 185/185/185 186/186/186 183/183/183
f 187/187/187 188/188/188 189/189/189
f 189/189/189 190/190/190 187/187/187
f 191/191/191 192/192/192 193/193/193
f 193/193/193 194/194/194 191/191/191
f 195/195/195 196/196/196 197/197/197
f 197/197/197 198/198/198 195/195/195
f 199/199/199 200/200/200 201/201/201
f 201/201/201 202/202/202 199/199/199
f 203/203/203 204/204/204 205/205/205
f 205/205/205 206/206/206 203/203/203
f 207/207/207 208/208/208 209/209/209
f 209/209/209 210/210/210 207/207/207
f 211/211/211 212/212/212 213/213/213
f 213/213/213 214/214/214 211/211/211
f 215/215/215 216/216/216 217/217/217
f 217/217/217 218/218/218 215/215/215
f 219/219/219 220/220/220 221/221/221
f 221/221/221 222/222/222 219/219/219
f 223/223/223 224/224/224 225/225/225
f 225/225/225 226/226/226 223/223/223
f 227/227/227 228/228/228 229/229/229
f 229/229/229 230/230/230 227/227/227
o polygon2
g polygon2
usemtl lambert4
v 3.4052734375 1.54541015625 2.672607421875
v 3.4052734375 3.729248046875 2.672607421875
v 0.320556640625 3.729248046875 2.672607421875
v 0.320556640625 1.54541015625 2.672607421875
vt 1.125 -1
vt 1.125 0.11328125
vt -0.125 0.11328125
vt -0.125 -1
vn 0 0 0.998046875
vn 0 0 0.998046875
vn 0 0 0.998046875
vn 0 0 0.998046875
f 231/231/231 232/232/232 233/233/233
f 233/233/233 234/234/234 231/231/231
